<svg width="80" height="78" viewBox="0 0 80 78" fill="none" xmlns="http://www.w3.org/2000/svg">
<path d="M38.6207 52.4136H66.2069V77.2412H38.6207V52.4136Z" fill="#ECECEC"/>
<path d="M66.2069 68.9653V77.2412H38.6207V52.4136H41.3793V55.1722C41.3793 58.8304 42.8325 62.3387 45.4192 64.9254C48.0059 67.5121 51.5142 68.9653 55.1724 68.9653H66.2069Z" fill="#C2C2C2"/>
<path d="M55.1724 5.51709H80V22.0688H55.1724V5.51709Z" fill="#25D3D6"/>
<path d="M30.3448 5.51709H55.1724V22.0688H30.3448V5.51709Z" fill="#25D3D6"/>
<path d="M0 16.5518H30.3448V22.069H0V16.5518Z" fill="#ECECEC"/>
<path d="M30.3448 0H80V5.51724H30.3448V0Z" fill="#7FDFE0"/>
<path d="M4.13794 38.6206V52.4137H9.65518V38.6206C9.65518 37.889 9.94582 37.1873 10.4632 36.6699C10.9805 36.1526 11.6822 35.862 12.4138 35.862C13.1454 35.862 13.8471 36.1526 14.3644 36.6699C14.8818 37.1873 15.1724 37.889 15.1724 38.6206V41.3792H20.6897V38.6206C20.6897 36.4257 19.8177 34.3207 18.2657 32.7687C16.7137 31.2166 14.6087 30.3447 12.4138 30.3447C10.2189 30.3447 8.11391 31.2166 6.56188 32.7687C5.00986 34.3207 4.13794 36.4257 4.13794 38.6206Z" fill="#ECECEC"/>
<path d="M0 52.4136H19.3103V77.2412H0V52.4136Z" fill="#7FDFE0"/>
<path d="M19.3104 52.4136H38.6207V77.2412H19.3104V52.4136Z" fill="#7FDFE0"/>
<path d="M44.1379 63.4482H60.6897V71.7241H44.1379V63.4482Z" fill="#F89C8D"/>
<path d="M42.7586 46.8965H53.7931V49.6551C53.7931 50.3867 53.5025 51.0884 52.9851 51.6057C52.4678 52.1231 51.7661 52.4137 51.0345 52.4137H45.5172C44.7856 52.4137 44.0839 52.1231 43.5666 51.6057C43.0492 51.0884 42.7586 50.3867 42.7586 49.6551V46.8965Z" fill="#F89C8D"/>
<path d="M2.75861 11.0347H13.7931V13.7933C13.7931 14.5249 13.5024 15.2266 12.9851 15.7439C12.4678 16.2613 11.7661 16.5519 11.0345 16.5519H5.51723C4.78559 16.5519 4.08393 16.2613 3.56659 15.7439C3.04925 15.2266 2.75861 14.5249 2.75861 13.7933V11.0347Z" fill="#F89C8D"/>
<path d="M2.75861 5.51709H13.7931V8.27571C13.7931 9.00734 13.5024 9.70901 12.9851 10.2263C12.4678 10.7437 11.7661 11.0343 11.0345 11.0343H5.51723C4.78559 11.0343 4.08393 10.7437 3.56659 10.2263C3.04925 9.70901 2.75861 9.00734 2.75861 8.27571V5.51709Z" fill="#F89C8D"/>
<path d="M59.3103 46.8965H64.8275V52.4137H59.3103V46.8965Z" fill="#F89C8D"/>
<path d="M19.3104 8.27588H24.8276V16.5517H19.3104V8.27588Z" fill="#F89C8D"/>
<path d="M66.2069 52.4136H80V77.2412H66.2069V52.4136Z" fill="#7FDFE0"/>
<path d="M59.3104 27.5861V22.0688H48.2759V27.5861L41.3793 33.1033V37.2413H66.2069V33.1033L59.3104 27.5861Z" fill="#ECECEC"/>
<path d="M74.4828 37.2412H80V52.4136H74.4828V37.2412Z" fill="#ECECEC"/>
<path d="M80 2.75862V5.51724H30.3448V0H34.4828C34.485 0.73096 34.7763 1.43136 35.2932 1.94823C35.81 2.4651 36.5104 2.75644 37.2414 2.75862H80Z" fill="#25D3D6"/>
<path d="M80 8.27571H60.6897C60.6897 10.4706 61.5616 12.5756 63.1136 14.1276C64.6656 15.6797 66.7706 16.5516 68.9655 16.5516H80V22.0688H55.1724V5.51709H80V8.27571Z" fill="#25B2B4"/>
<path d="M55.1724 8.27571H35.8621C35.8621 10.4706 36.734 12.5756 38.286 14.1276C39.8381 15.6797 41.9431 16.5516 44.138 16.5516H55.1724V22.0688H30.3448V5.51709H55.1724V8.27571Z" fill="#25B2B4"/>
<path d="M30.3448 16.5518V22.069H0V19.3104H24.8276C25.5585 19.3082 26.2589 19.0169 26.7758 18.5C27.2927 17.9831 27.584 17.2827 27.5862 16.5518H30.3448Z" fill="#C2C2C2"/>
<path d="M24.8276 13.7931V16.5517H19.3104V8.27588H22.069V11.0345C22.0712 11.7655 22.3625 12.4659 22.8794 12.9827C23.3962 13.4996 24.0966 13.7909 24.8276 13.7931Z" fill="#F25E57"/>
<path d="M13.7931 8.27571C13.7909 9.00667 13.4996 9.70707 12.9827 10.2239C12.4658 10.7408 11.7654 11.0321 11.0345 11.0343H5.51723C4.78627 11.0321 4.08587 10.7408 3.569 10.2239C3.05213 9.70707 2.76079 9.00667 2.75861 8.27571V5.51709H5.51723C5.51941 6.24805 5.81075 6.94845 6.32762 7.46532C6.84449 7.98219 7.54489 8.27353 8.27585 8.27571H13.7931Z" fill="#F25E57"/>
<path d="M13.7931 13.7933C13.7909 14.5242 13.4996 15.2246 12.9827 15.7415C12.4658 16.2584 11.7654 16.5497 11.0345 16.5519H5.51723C4.78627 16.5497 4.08587 16.2584 3.569 15.7415C3.05213 15.2246 2.76079 14.5242 2.75861 13.7933V11.0347H5.51723C5.51941 11.7656 5.81075 12.466 6.32762 12.9829C6.84449 13.4998 7.54489 13.7911 8.27585 13.7933H13.7931Z" fill="#F25E57"/>
<path d="M66.2069 33.1033V37.2413H41.3793V33.1033L48.2759 27.5861V22.0688H59.3104V24.8275H53.7931C53.0622 24.8297 52.3618 25.121 51.8449 25.6379C51.328 26.1547 51.0367 26.8551 51.0345 27.5861C50.6697 27.8678 50.3743 28.2293 50.1711 28.643C49.9678 29.0567 49.8621 29.5114 49.8621 29.9723C49.8572 30.3825 49.9338 30.7896 50.0877 31.1699C50.2416 31.5502 50.4696 31.8961 50.7584 32.1875C51.0472 32.4789 51.391 32.7099 51.77 32.8671C52.1489 33.0243 52.5553 33.1046 52.9655 33.1033H66.2069Z" fill="#C2C2C2"/>
<path d="M80 49.655V52.4136H74.4828V37.2412H77.2414V46.8964C77.2436 47.6273 77.5349 48.3277 78.0518 48.8446C78.5687 49.3615 79.2691 49.6528 80 49.655Z" fill="#C2C2C2"/>
<path d="M20.6896 38.5796V41.3796H15.1724V38.621C15.167 37.891 14.8746 37.1925 14.3584 36.6763C13.8423 36.1601 13.1437 35.8678 12.4138 35.8623C11.6828 35.8645 10.9824 36.1559 10.4656 36.6727C9.94868 37.1896 9.65734 37.89 9.65516 38.621C8.9242 38.6231 8.2238 38.9145 7.70693 39.4314C7.19006 39.9482 6.89872 40.6486 6.89654 41.3796V45.5175C6.89242 46.3728 7.15627 47.2078 7.65104 47.9055C8.14581 48.6031 8.84665 49.1282 9.65516 49.4072V52.4141H4.13792V38.621C4.13463 37.5339 4.34756 36.457 4.76432 35.453C5.18108 34.449 5.79335 33.5379 6.5655 32.7727C7.77606 31.5467 9.3467 30.7397 11.0483 30.4692C12.5216 30.7165 13.9001 31.359 15.037 32.3282C16.1738 33.2975 17.0262 34.557 17.5034 35.9727C17.7446 36.6575 18.1694 37.2628 18.7313 37.7225C19.2932 38.1823 19.9707 38.4788 20.6896 38.5796Z" fill="#C2C2C2"/>
<path d="M53.7931 49.6551C53.7909 50.3861 53.4996 51.0865 52.9827 51.6033C52.4658 52.1202 51.7654 52.4115 51.0345 52.4137H45.5172C44.7863 52.4115 44.0859 52.1202 43.569 51.6033C43.0521 51.0865 42.7608 50.3861 42.7586 49.6551V46.8965H45.5172C45.5194 47.6274 45.8108 48.3278 46.3276 48.8447C46.8445 49.3616 47.5449 49.6529 48.2758 49.6551H53.7931Z" fill="#F25E57"/>
<path d="M64.8275 50.3448V52.4137H59.3103V46.8965H61.3793V47.5861C61.3815 48.3171 61.6728 49.0175 62.1897 49.5344C62.7065 50.0512 63.4069 50.3426 64.1379 50.3448H64.8275Z" fill="#F25E57"/>
<path d="M38.6207 68.9653V77.2412H19.3104V52.4136H24.8276V57.9308C24.8276 60.8573 25.9902 63.664 28.0595 65.7334C30.1289 67.8027 32.9356 68.9653 35.8621 68.9653H38.6207Z" fill="#25D3D6"/>
<path d="M19.3103 68.9653V77.2412H0V52.4136H5.51724V57.9308C5.51724 60.8573 6.6798 63.664 8.74917 65.7334C10.8185 67.8027 13.6252 68.9653 16.5517 68.9653H19.3103Z" fill="#25D3D6"/>
<path d="M33.1035 60.6895V68.9653C32.3718 68.9653 31.6702 68.6747 31.1528 68.1573C30.6355 67.64 30.3448 66.9383 30.3448 66.2067V63.4481C30.3448 62.7164 30.6355 62.0148 31.1528 61.4974C31.6702 60.9801 32.3718 60.6895 33.1035 60.6895Z" fill="#25D3D6"/>
<path d="M13.7931 60.6895V68.9653C13.0615 68.9653 12.3598 68.6747 11.8425 68.1573C11.3251 67.64 11.0345 66.9383 11.0345 66.2067V63.4481C11.0345 62.7164 11.3251 62.0148 11.8425 61.4974C12.3598 60.9801 13.0615 60.6895 13.7931 60.6895Z" fill="#25D3D6"/>
<path d="M44.1379 63.4482V71.7241H60.6897V63.4482H44.1379ZM57.931 70.3448H52.4138C50.9505 70.3448 49.5472 69.7635 48.5125 68.7288C47.4778 67.6941 46.8966 66.2908 46.8966 64.8276H55.1724C55.9034 64.8297 56.6038 65.1211 57.1206 65.6379C57.6375 66.1548 57.9289 66.8552 57.931 67.5862V70.3448Z" fill="#F25E57"/>
<path d="M60.6897 68.9655V71.7241H44.1379V63.4482H44.1517C45.4319 65.1628 47.095 66.5546 49.0084 67.5125C50.9219 68.4704 53.0326 68.968 55.1724 68.9655H60.6897Z" fill="#F25E57"/>
<path d="M57.931 68.9655V70.3448H52.4138C51.2183 70.3439 50.0554 69.9547 49.1001 69.2358C48.1449 68.5169 47.449 67.5072 47.1172 66.3586C45.9844 65.5474 44.984 64.5657 44.1517 63.4482H44.1379V71.7241H60.6897V68.9655H57.931Z" fill="#F25E57"/>
<path d="M74.4827 60.6895V68.9653C73.7511 68.9653 73.0494 68.6747 72.5321 68.1573C72.0148 67.64 71.7241 66.9383 71.7241 66.2067V63.4481C71.7241 62.7164 72.0148 62.0148 72.5321 61.4974C73.0494 60.9801 73.7511 60.6895 74.4827 60.6895Z" fill="#25D3D6"/>
<path d="M80 71.7239V77.2412H66.2069V52.4136H70.3448V62.0687C70.3448 64.6295 71.3621 67.0853 73.1728 68.896C74.9835 70.7067 77.4393 71.7239 80 71.7239Z" fill="#25D3D6"/>
<path d="M74.4828 15.1722C75.2445 15.1722 75.8621 14.5547 75.8621 13.7929C75.8621 13.0311 75.2445 12.4136 74.4828 12.4136C73.721 12.4136 73.1035 13.0311 73.1035 13.7929C73.1035 14.5547 73.721 15.1722 74.4828 15.1722Z" fill="#F25E57"/>
<path d="M49.6552 15.1722C50.417 15.1722 51.0345 14.5547 51.0345 13.7929C51.0345 13.0311 50.417 12.4136 49.6552 12.4136C48.8934 12.4136 48.2759 13.0311 48.2759 13.7929C48.2759 14.5547 48.8934 15.1722 49.6552 15.1722Z" fill="#F25E57"/>
<path d="M13.7931 68.9653C13.4273 68.9653 13.0765 68.82 12.8178 68.5613C12.5591 68.3027 12.4138 67.9518 12.4138 67.586V62.0688C12.4138 61.7029 12.5591 61.3521 12.8178 61.0934C13.0765 60.8348 13.4273 60.6895 13.7931 60.6895C14.1589 60.6895 14.5098 60.8348 14.7684 61.0934C15.0271 61.3521 15.1724 61.7029 15.1724 62.0688V67.586C15.1724 67.9518 15.0271 68.3027 14.7684 68.5613C14.5098 68.82 14.1589 68.9653 13.7931 68.9653Z" fill="#F25E57"/>
<path d="M33.1034 68.9653C32.7376 68.9653 32.3868 68.82 32.1281 68.5613C31.8694 68.3027 31.7241 67.9518 31.7241 67.586V62.0688C31.7241 61.7029 31.8694 61.3521 32.1281 61.0934C32.3868 60.8348 32.7376 60.6895 33.1034 60.6895C33.4692 60.6895 33.8201 60.8348 34.0788 61.0934C34.3374 61.3521 34.4827 61.7029 34.4827 62.0688V67.586C34.4827 67.9518 34.3374 68.3027 34.0788 68.5613C33.8201 68.82 33.4692 68.9653 33.1034 68.9653Z" fill="#F25E57"/>
<path d="M44.1379 59.3104C44.8997 59.3104 45.5172 58.6928 45.5172 57.9311C45.5172 57.1693 44.8997 56.5518 44.1379 56.5518C43.3761 56.5518 42.7586 57.1693 42.7586 57.9311C42.7586 58.6928 43.3761 59.3104 44.1379 59.3104Z" fill="#F25E57"/>
<path d="M49.6552 59.3104C50.417 59.3104 51.0345 58.6928 51.0345 57.9311C51.0345 57.1693 50.417 56.5518 49.6552 56.5518C48.8934 56.5518 48.2759 57.1693 48.2759 57.9311C48.2759 58.6928 48.8934 59.3104 49.6552 59.3104Z" fill="#F25E57"/>
<path d="M55.1724 59.3104C55.9342 59.3104 56.5517 58.6928 56.5517 57.9311C56.5517 57.1693 55.9342 56.5518 55.1724 56.5518C54.4106 56.5518 53.7931 57.1693 53.7931 57.9311C53.7931 58.6928 54.4106 59.3104 55.1724 59.3104Z" fill="#F25E57"/>
<path d="M60.6896 59.3104C61.4514 59.3104 62.0689 58.6928 62.0689 57.9311C62.0689 57.1693 61.4514 56.5518 60.6896 56.5518C59.9278 56.5518 59.3103 57.1693 59.3103 57.9311C59.3103 58.6928 59.9278 59.3104 60.6896 59.3104Z" fill="#F25E57"/>
<path d="M74.4828 68.9653C74.1169 68.9653 73.7661 68.82 73.5074 68.5613C73.2488 68.3027 73.1035 67.9518 73.1035 67.586V62.0688C73.1035 61.7029 73.2488 61.3521 73.5074 61.0934C73.7661 60.8348 74.1169 60.6895 74.4828 60.6895C74.8486 60.6895 75.1994 60.8348 75.4581 61.0934C75.7168 61.3521 75.8621 61.7029 75.8621 62.0688V67.586C75.8621 67.9518 75.7168 68.3027 75.4581 68.5613C75.1994 68.82 74.8486 68.9653 74.4828 68.9653Z" fill="#F25E57"/>
</svg>
