<svg width="80" height="78" viewBox="0 0 80 78" fill="none" xmlns="http://www.w3.org/2000/svg">
<path d="M77.5 37.5H2.5C1.11937 37.5 0 38.6192 0 40V47.5C0 48.8806 1.11937 50 2.5 50H77.5C78.8808 50 80 48.8806 80 47.5V40C80 38.6192 78.8808 37.5 77.5 37.5ZM51.25 46.25H28.75V41.25H51.25V46.25Z" fill="#F25E57"/>
<path d="M53.75 15.3397V2.5C53.75 1.11922 52.6308 0 51.25 0H28.75C27.3692 0 26.25 1.11922 26.25 2.5V15.3397C26.25 16.7183 25.6808 18.0358 24.6769 18.9806L5 37.5H75L55.3233 18.9806C54.3192 18.0358 53.75 16.7183 53.75 15.3397Z" fill="#25D3D6"/>
<path d="M30.7337 57.7382C30.1734 57.3317 29.3922 57.4574 28.9881 58.0165C28.5828 58.5756 28.7073 59.3568 29.2664 59.7621C30.5456 60.6898 31.25 61.8837 31.25 63.1251C31.25 64.3665 30.5456 65.5604 29.2664 66.4881C27.3206 67.8981 26.25 69.8109 26.25 71.8751C26.25 73.9393 27.3206 75.8521 29.2664 77.2621C29.4886 77.4232 29.745 77.5001 29.9989 77.5001C30.3859 77.5001 30.768 77.3207 31.012 76.9837C31.4173 76.4246 31.2928 75.6434 30.7337 75.2381C29.4544 74.3104 28.75 73.1165 28.75 71.8751C28.75 70.6337 29.4544 69.4398 30.7336 68.5121C32.6795 67.1021 33.75 65.1893 33.75 63.1251C33.75 61.0609 32.6795 59.1481 30.7337 57.7382Z" fill="#25B2B4"/>
<path d="M40.7336 57.7382C40.172 57.3317 39.392 57.4574 38.988 58.0165C38.5827 58.5756 38.7072 59.3568 39.2663 59.7621C40.5456 60.6898 41.25 61.8837 41.25 63.1251C41.25 64.3665 40.5456 65.5604 39.2664 66.4881C37.3206 67.8981 36.25 69.8109 36.25 71.8751C36.25 73.9393 37.3206 75.8521 39.2664 77.2621C39.4886 77.4232 39.745 77.5001 39.9989 77.5001C40.3859 77.5001 40.768 77.3207 41.012 76.9837C41.4173 76.4246 41.2928 75.6434 40.7338 75.2381C39.4544 74.3104 38.75 73.1165 38.75 71.8751C38.75 70.6337 39.4544 69.4398 40.7336 68.5121C42.6795 67.1021 43.75 65.1893 43.75 63.1251C43.75 61.0609 42.6795 59.1481 40.7336 57.7382Z" fill="#25B2B4"/>
<path d="M50.7336 68.5118C52.6795 67.1018 53.75 65.189 53.75 63.1248C53.75 61.0605 52.6794 59.1477 50.7336 57.7377C50.172 57.3312 49.3908 57.4569 48.988 58.016C48.5827 58.5751 48.7072 59.3563 49.2662 59.7616C50.5456 60.6895 51.25 61.8834 51.25 63.1248C51.25 64.3662 50.5456 65.5601 49.2664 66.4877C47.3206 67.8977 46.25 69.8105 46.25 71.8748C46.25 73.939 47.3206 75.8518 49.2664 77.2618C49.4886 77.4229 49.745 77.4998 49.9989 77.4998C50.3859 77.4998 50.768 77.3204 51.012 76.9834C51.4173 76.4243 51.2928 75.643 50.7338 75.2377C49.4544 74.3101 48.75 73.1162 48.75 71.8748C48.75 70.6334 49.4544 69.4394 50.7336 68.5118Z" fill="#25B2B4"/>
<path d="M7.5 46.25C6.33641 46.25 5.36703 45.452 5.08828 44.375C5.03641 44.5759 5 44.7828 5 45C5 46.3819 6.11937 47.5 7.5 47.5C8.88063 47.5 10 46.3819 10 45C10 44.7828 9.96359 44.5759 9.91172 44.375C9.63297 45.452 8.66359 46.25 7.5 46.25Z" fill="#F89C8D"/>
<path d="M10 43.75C10 45.1319 8.88063 46.25 7.5 46.25C6.11937 46.25 5 45.1319 5 43.75C5 42.3683 6.11937 41.25 7.5 41.25C8.88063 41.25 10 42.3683 10 43.75Z" fill="#B1C3D0"/>
<path d="M15 46.25C13.8364 46.25 12.867 45.452 12.5883 44.375C12.5364 44.5759 12.5 44.7828 12.5 45C12.5 46.3819 13.6194 47.5 15 47.5C16.3806 47.5 17.5 46.3819 17.5 45C17.5 44.7828 17.4636 44.5759 17.4117 44.375C17.133 45.452 16.1636 46.25 15 46.25Z" fill="#F89C8D"/>
<path d="M17.5 43.75C17.5 45.1319 16.3806 46.25 15 46.25C13.6194 46.25 12.5 45.1319 12.5 43.75C12.5 42.3683 13.6194 41.25 15 41.25C16.3806 41.25 17.5 42.3683 17.5 43.75Z" fill="#B1C3D0"/>
<path d="M51.25 42.5H28.75V46.25H51.25V42.5Z" fill="#25D3D6"/>
<path d="M53.75 15.3397V2.5C53.75 1.11922 52.6308 0 51.25 0H48.75V16.3197C48.75 17.0959 48.9308 17.8614 49.2778 18.5558L54.7864 29.573C56.0331 32.0664 54.22 35 51.4323 35H7.65625L5 37.5H58.75H62.5H75L55.3233 18.9806C54.3192 18.0358 53.75 16.7183 53.75 15.3397Z" fill="#25B2B4"/>
<path d="M77.5 50C78.8808 50 80 48.8808 80 47.5V40C79.3097 40 78.75 40.5597 78.75 41.25V46.25C78.75 47.6308 77.6308 48.75 76.25 48.75H3.75C3.05969 48.75 2.5 49.3097 2.5 50H77.5Z" fill="#F89C8D"/>
<path d="M51.25 41.25H28.75V42.5H51.25V41.25Z" fill="#10B3B5"/>
</svg>
