<svg width="80" height="80" viewBox="0 0 80 80" fill="none" xmlns="http://www.w3.org/2000/svg">
<path d="M0 0H80V19.3103H0V0Z" fill="#656B76"/>
<path d="M59.3103 13.7931C60.8339 13.7931 62.069 12.558 62.069 11.0345C62.069 9.51096 60.8339 8.27588 59.3103 8.27588C57.7868 8.27588 56.5517 9.51096 56.5517 11.0345C56.5517 12.558 57.7868 13.7931 59.3103 13.7931Z" fill="#464A51"/>
<path d="M70.3448 13.7931C71.8684 13.7931 73.1035 12.558 73.1035 11.0345C73.1035 9.51096 71.8684 8.27588 70.3448 8.27588C68.8213 8.27588 67.5862 9.51096 67.5862 11.0345C67.5862 12.558 68.8213 13.7931 70.3448 13.7931Z" fill="#464A51"/>
<path d="M0 0H15.1724V19.3103H0V0Z" fill="#464A51"/>
<path d="M15.1724 15.1723C17.4577 15.1723 19.3103 13.3197 19.3103 11.0344C19.3103 8.7491 17.4577 6.89648 15.1724 6.89648C12.8871 6.89648 11.0345 8.7491 11.0345 11.0344C11.0345 13.3197 12.8871 15.1723 15.1724 15.1723Z" fill="#464A51"/>
<path d="M0 19.3105H80V80.0002H0V19.3105Z" fill="#E9F1F2"/>
<path d="M80 64.8278V80.0002H0V19.3105H15.1724V37.2416C15.1713 40.8646 15.8841 44.4522 17.2701 47.7997C18.656 51.1471 20.688 54.1886 23.2498 56.7504C25.8116 59.3122 28.8531 61.3442 32.2006 62.7301C35.548 64.1161 39.1356 64.8289 42.7586 64.8278H80Z" fill="#D0D8DA"/>
<path d="M8.27586 30.3447H71.7241V74.4827H8.27586V30.3447Z" fill="#7FDFE0"/>
<path d="M71.7241 74.4827H8.27586V30.3447H29.3283L71.7241 56.5516V74.4827Z" fill="#25D3D6"/>
<path d="M71.7241 64.8275V74.4827H8.27586V30.3447H15.1724V37.2413C15.1713 40.8643 15.8841 44.4519 17.2701 47.7994C18.656 51.1468 20.688 54.1883 23.2498 56.7501C25.8116 59.3119 28.8531 61.3439 32.2006 62.7298C35.548 64.1158 39.1356 64.8286 42.7586 64.8275H71.7241Z" fill="#1B9698"/>
<path d="M71.7241 30.3449H8.27586C7.54423 30.3449 6.84257 30.0542 6.32522 29.5369C5.80788 29.0196 5.51724 28.3179 5.51724 27.5863C5.51724 26.8546 5.80788 26.153 6.32522 25.6356C6.84257 25.1183 7.54423 24.8276 8.27586 24.8276H71.7241C72.4558 24.8276 73.1574 25.1183 73.6748 25.6356C74.1921 26.153 74.4828 26.8546 74.4828 27.5863C74.4828 28.3179 74.1921 29.0196 73.6748 29.5369C73.1574 30.0542 72.4558 30.3449 71.7241 30.3449Z" fill="#F89C8D"/>
<path d="M15.1724 13.793C17.4577 13.793 19.3103 11.9403 19.3103 9.65502C19.3103 7.3697 17.4577 5.51709 15.1724 5.51709C12.8871 5.51709 11.0345 7.3697 11.0345 9.65502C11.0345 11.9403 12.8871 13.793 15.1724 13.793Z" fill="#D0D8DA"/>
<path d="M59.3103 12.4137C60.8339 12.4137 62.069 11.1786 62.069 9.65511C62.069 8.13156 60.8339 6.89648 59.3103 6.89648C57.7868 6.89648 56.5517 8.13156 56.5517 9.65511C56.5517 11.1786 57.7868 12.4137 59.3103 12.4137Z" fill="#D0D8DA"/>
<path d="M70.3448 12.4137C71.8684 12.4137 73.1035 11.1786 73.1035 9.65511C73.1035 8.13156 71.8684 6.89648 70.3448 6.89648C68.8213 6.89648 67.5862 8.13156 67.5862 9.65511C67.5862 11.1786 68.8213 12.4137 70.3448 12.4137Z" fill="#D0D8DA"/>
<path d="M31.7241 0H51.0345V13.7931H31.7241V0Z" fill="#7FDFE0"/>
<path d="M56.5517 62.0688C56.5517 68.9254 45.6207 70.3447 37.2414 70.3447C28.8621 70.3447 20.6897 66.1667 20.6897 59.3102C20.6897 52.4536 28.8621 45.5171 37.2414 45.5171C48.2759 45.5171 56.5517 53.793 56.5517 62.0688Z" fill="#F25E57"/>
<path d="M56.5517 62.0688C56.5517 68.924 45.6276 70.3447 37.2414 70.3447C28.8552 70.3447 20.6897 66.1653 20.6897 59.3102C20.8414 56.2545 22.1478 53.3704 24.3448 51.2412C25.701 52.9818 27.4543 54.3722 29.4581 55.2961C31.4618 56.22 33.6578 56.6505 35.8621 56.5516C42.2759 56.5516 50.1655 56.524 53.531 53.4481C55.4348 55.9242 56.4936 58.946 56.5517 62.0688Z" fill="#F89C8D"/>
<path d="M55.8483 64.8277C53.2828 69.3242 44.3586 70.3449 37.2414 70.3449C28.8552 70.3449 20.6897 66.1656 20.6897 59.3104C20.7079 57.833 21.0517 56.3778 21.6965 55.0483C24.2799 58.1178 27.5044 60.584 31.1432 62.2735C34.782 63.963 38.7467 64.8348 42.7586 64.8277H55.8483Z" fill="#ED4B43"/>
<path d="M51.3407 44.876L50.531 45.6856C48.4261 47.6891 45.9002 49.1971 43.1379 50.0994C42.1639 50.4493 41.2813 51.0144 40.5559 51.7527C39.8306 52.4909 39.2811 53.3833 38.9483 54.3633C38.6156 55.3434 38.5082 56.3858 38.6342 57.4131C38.7601 58.4404 39.1162 59.4261 39.6759 60.2967C40.2332 61.1643 40.9778 61.8961 41.855 62.4383C42.7321 62.9805 43.7196 63.3194 44.7449 63.43C45.7702 63.5406 46.8072 63.4201 47.7798 63.0774C48.7525 62.7348 49.636 62.1786 50.3655 61.4498C51.1494 60.6677 51.7296 59.7053 52.0552 58.647C52.895 55.9593 54.3795 53.5178 56.3793 51.5353L57.1931 50.7215L51.3407 44.876Z" fill="#F89C8D"/>
<path d="M62.1876 41.1445C61.8576 41.1288 61.5453 40.9906 61.3117 40.757C61.0781 40.5234 60.9399 40.2111 60.9241 39.8811C60.9048 39.4329 60.7764 38.9963 60.5501 38.609C60.3239 38.2216 60.0066 37.8953 59.6258 37.6583C59.245 37.4213 58.8121 37.2807 58.3647 37.2487C57.9173 37.2167 57.4688 37.2944 57.0582 37.4748C56.6475 37.6553 56.2871 37.9332 56.0081 38.2844C55.7291 38.6357 55.5399 39.0496 55.457 39.4905C55.3741 39.9313 55.4 40.3857 55.5323 40.8143C55.6647 41.2429 55.8995 41.6327 56.2166 41.9501L52.3159 45.8521L56.2166 49.7528L60.1186 45.8521C60.436 46.1692 60.8258 46.404 61.2544 46.5364C61.683 46.6687 62.1374 46.6946 62.5782 46.6117C63.019 46.5288 63.433 46.3396 63.7842 46.0606C64.1355 45.7816 64.4134 45.4212 64.5938 45.0105C64.7743 44.5999 64.8519 44.1514 64.82 43.704C64.788 43.2566 64.6474 42.8237 64.4104 42.4429C64.1734 42.062 63.847 41.7448 63.4597 41.5185C63.0724 41.2923 62.6357 41.1639 62.1876 41.1445Z" fill="#E9F1F2"/>
<path d="M57.1862 50.7307L56.3724 51.5445C54.3755 53.5247 52.8934 55.9634 52.0552 58.6479C51.7291 59.7109 51.1465 60.6772 50.3586 61.4617C49.3924 62.4304 48.1599 63.0898 46.8179 63.3561C45.4759 63.6223 44.085 63.4834 42.8222 62.957C41.5593 62.4306 40.4816 61.5404 39.7261 60.3998C38.9705 59.2591 38.5714 57.9195 38.5793 56.5514C39.1676 57.3479 39.9209 58.008 40.7877 58.4865C41.6546 58.9651 42.6146 59.2508 43.6021 59.3241C44.5895 59.3975 45.5812 59.2567 46.5092 58.9115C47.4373 58.5662 48.2799 58.0247 48.9793 57.3238C49.7672 56.5393 50.3498 55.5729 50.6759 54.51C51.4341 52.084 52.72 49.856 54.4414 47.9858L57.1862 50.7307Z" fill="#F25E57"/>
<path d="M64.0138 45.8486C63.7586 46.1043 63.4554 46.3072 63.1217 46.4456C62.788 46.584 62.4303 46.6553 62.069 46.6553C61.7077 46.6553 61.3499 46.584 61.0162 46.4456C60.6825 46.3072 60.3793 46.1043 60.1241 45.8486L56.2207 49.752L52.3172 45.8486L53.6965 44.4692L54.3034 45.0761C54.5535 45.3284 54.8511 45.5287 55.179 45.6654C55.5068 45.8021 55.8586 45.8724 56.2138 45.8724C56.569 45.8724 56.9207 45.8021 57.2486 45.6654C57.5765 45.5287 57.8741 45.3284 58.1241 45.0761L58.7172 44.4968C59.0807 44.1621 59.5235 43.9257 60.0038 43.8099C60.4841 43.694 60.986 43.7026 61.4621 43.8348C62.0088 43.9582 62.5802 43.9121 63.1002 43.7026C63.6201 43.4932 64.0639 43.1303 64.3724 42.6623C64.4035 42.6209 64.4269 42.5742 64.4414 42.5244C64.7546 43.0458 64.8828 43.6575 64.8052 44.2608C64.7276 44.864 64.4488 45.4235 64.0138 45.8486Z" fill="#D0D8DA"/>
<path d="M57.9448 48.0277L56.2207 49.7518L52.3172 45.8483L53.1172 45.0483L57.9448 48.0277Z" fill="#93999A"/>
<path d="M60.6897 74.4826H19.3103C17.8471 74.4826 16.4438 73.9013 15.4091 72.8666C14.3744 71.8319 13.7931 70.4286 13.7931 68.9653H66.2069C66.2069 70.4286 65.6256 71.8319 64.5909 72.8666C63.5562 73.9013 62.1529 74.4826 60.6897 74.4826Z" fill="#D0D8DA"/>
<path d="M51.0345 13.7931H31.7241V0L51.0345 13.7931Z" fill="#25D3D6"/>
<path d="M74.4828 27.5863C74.4773 28.3162 74.185 29.0147 73.6688 29.5309C73.1526 30.0471 72.4541 30.3395 71.7241 30.3449H8.27586C7.5449 30.3427 6.8445 30.0514 6.32764 29.5345C5.81077 29.0176 5.51943 28.3172 5.51724 27.5863C5.52266 26.8563 5.81503 26.1578 6.33121 25.6416C6.84738 25.1254 7.5459 24.8331 8.27586 24.8276C8.27805 25.5586 8.56939 26.259 9.08626 26.7759C9.60313 27.2927 10.3035 27.5841 11.0345 27.5863H74.4828Z" fill="#F25E57"/>
<path d="M65.7103 71.2274C65.444 71.8397 65.065 72.3964 64.5931 72.8688C63.5554 73.9 62.1526 74.48 60.6897 74.4826H19.3103C17.8471 74.4826 16.4438 73.9013 15.4091 72.8666C14.3744 71.8319 13.7931 70.4286 13.7931 68.9653H17.2966C17.7782 69.8051 18.4733 70.5026 19.3114 70.9871C20.1495 71.4716 21.1009 71.7258 22.069 71.724H63.4483C64.2293 71.7233 65.0009 71.5539 65.7103 71.2274Z" fill="#93999A"/>
<path d="M72.8552 10.7864C72.6733 11.1955 72.3946 11.5541 72.0432 11.8314C71.6917 12.1087 71.2781 12.2964 70.8379 12.3781C70.3977 12.4598 69.9443 12.4331 69.5167 12.3004C69.0892 12.1677 68.7003 11.933 68.3838 11.6164C68.0672 11.2999 67.8325 10.911 67.6998 10.4834C67.5671 10.0559 67.5404 9.60245 67.6221 9.16229C67.7038 8.72213 67.8914 8.30847 68.1687 7.95702C68.4461 7.60556 68.8047 7.32688 69.2138 7.14502C69.0473 7.49867 68.9625 7.8852 68.9655 8.27605C68.9677 9.00701 69.259 9.70741 69.7759 10.2243C70.2928 10.7412 70.9932 11.0325 71.7241 11.0347C72.115 11.0377 72.5015 10.9529 72.8552 10.7864Z" fill="#93999A"/>
<path d="M61.8207 10.7864C61.6388 11.1955 61.3601 11.5541 61.0087 11.8314C60.6572 12.1087 60.2436 12.2964 59.8034 12.3781C59.3633 12.4598 58.9098 12.4331 58.4823 12.3004C58.0547 12.1677 57.6659 11.933 57.3493 11.6164C57.0327 11.2999 56.798 10.911 56.6653 10.4834C56.5326 10.0559 56.5059 9.60245 56.5877 9.16229C56.6694 8.72213 56.857 8.30847 57.1343 7.95702C57.4116 7.60556 57.7702 7.32688 58.1793 7.14502C58.0129 7.49867 57.928 7.8852 57.931 8.27605C57.9332 9.00701 58.2246 9.70741 58.7414 10.2243C59.2583 10.7412 59.9587 11.0325 60.6897 11.0347C61.0805 11.0377 61.467 10.9529 61.8207 10.7864Z" fill="#93999A"/>
<path d="M18.7034 11.8068C18.3381 12.416 17.8203 12.9196 17.2012 13.2678C16.582 13.6161 15.8828 13.7971 15.1724 13.793C14.075 13.793 13.0225 13.357 12.2465 12.581C11.4704 11.805 11.0345 10.7525 11.0345 9.65506C11.0304 8.94468 11.2114 8.24547 11.5596 7.62631C11.9079 7.00715 12.4115 6.48939 13.0207 6.12402C12.6218 6.77068 12.4116 7.51596 12.4138 8.27575C12.4138 9.3732 12.8498 10.4257 13.6258 11.2017C14.4018 11.9777 15.4543 12.4137 16.5517 12.4137C17.3115 12.4159 18.0568 12.2057 18.7034 11.8068Z" fill="#93999A"/>
<path d="M37.7683 41.5418C37.4955 41.5417 37.2289 41.4608 37.0021 41.3092C36.7754 41.1576 36.5986 40.9422 36.4942 40.6902C36.3899 40.4382 36.3625 40.161 36.4157 39.8934C36.4689 39.6259 36.6003 39.3802 36.7931 39.1873C36.3524 39.0581 35.9547 38.8127 35.6416 38.4768C35.3285 38.1409 35.1117 37.7269 35.0138 37.2783C34.9051 36.8261 34.9148 36.3534 35.0419 35.906C35.169 35.4586 35.4091 35.0514 35.7393 34.7238C35.8665 34.5921 36.0187 34.487 36.187 34.4147C36.3553 34.3424 36.5363 34.3044 36.7194 34.3028C36.9026 34.3012 37.0842 34.3361 37.2537 34.4054C37.4232 34.4748 37.5772 34.5772 37.7067 34.7067C37.8363 34.8362 37.9387 34.9902 38.008 35.1597C38.0774 35.3293 38.1123 35.5109 38.1107 35.694C38.1091 35.8772 38.071 36.0582 37.9988 36.2264C37.9265 36.3947 37.8214 36.5469 37.6897 36.6742C38.1306 36.8026 38.5287 37.0475 38.8421 37.3833C39.1555 37.719 39.3725 38.133 39.4703 38.5818C39.579 39.034 39.5693 39.5066 39.4423 39.954C39.3152 40.4015 39.075 40.8086 38.7448 41.1362C38.617 41.2652 38.4649 41.3674 38.2973 41.437C38.1296 41.5067 37.9498 41.5422 37.7683 41.5418Z" fill="#E9F1F2"/>
<path d="M30.8717 42.2317C30.599 42.2316 30.3323 42.1507 30.1056 41.9991C29.8788 41.8476 29.7021 41.6322 29.5977 41.3802C29.4933 41.1282 29.466 40.8509 29.5192 40.5834C29.5724 40.3159 29.7037 40.0701 29.8965 39.8772C29.4559 39.7481 29.0581 39.5027 28.7451 39.1668C28.432 38.8309 28.2151 38.4169 28.1172 37.9682C28.0086 37.516 28.0182 37.0434 28.1453 36.596C28.2724 36.1485 28.5126 35.7414 28.8428 35.4138C28.97 35.282 29.1222 35.1769 29.2905 35.1047C29.4588 35.0324 29.6397 34.9943 29.8229 34.9927C30.006 34.9911 30.1877 35.026 30.3572 35.0954C30.5267 35.1647 30.6807 35.2672 30.8102 35.3967C30.9397 35.5262 31.0421 35.6802 31.1115 35.8497C31.1808 36.0192 31.2157 36.2008 31.2141 36.384C31.2125 36.5671 31.1745 36.7481 31.1022 36.9164C31.0299 37.0847 30.9248 37.2369 30.7931 37.3641C31.234 37.4925 31.6322 37.7375 31.9456 38.0732C32.259 38.4089 32.476 38.823 32.5738 39.2717C32.6825 39.7239 32.6728 40.1966 32.5457 40.644C32.4186 41.0914 32.1784 41.4986 31.8483 41.8262C31.7205 41.9551 31.5684 42.0574 31.4007 42.127C31.2331 42.1966 31.0532 42.2322 30.8717 42.2317Z" fill="#D0D8DA"/>
<path d="M44.6648 42.2317C44.3921 42.2316 44.1255 42.1507 43.8987 41.9991C43.6719 41.8476 43.4952 41.6322 43.3908 41.3802C43.2864 41.1282 43.2591 40.8509 43.3123 40.5834C43.3655 40.3159 43.4968 40.0701 43.6897 39.8772C43.249 39.7481 42.8513 39.5027 42.5382 39.1668C42.2251 38.8309 42.0082 38.4169 41.9103 37.9682C41.8017 37.516 41.8114 37.0434 41.9384 36.596C42.0655 36.1485 42.3057 35.7414 42.6359 35.4138C42.7631 35.282 42.9153 35.1769 43.0836 35.1047C43.2519 35.0324 43.4329 34.9943 43.616 34.9927C43.7991 34.9911 43.9808 35.026 44.1503 35.0954C44.3198 35.1647 44.4738 35.2672 44.6033 35.3967C44.7328 35.5262 44.8352 35.6802 44.9046 35.8497C44.9739 36.0192 45.0088 36.2008 45.0072 36.384C45.0056 36.5671 44.9676 36.7481 44.8953 36.9164C44.823 37.0847 44.7179 37.2369 44.5862 37.3641C45.0272 37.4925 45.4253 37.7375 45.7387 38.0732C46.0521 38.4089 46.2691 38.823 46.3669 39.2717C46.4756 39.7239 46.4659 40.1966 46.3388 40.644C46.2117 41.0914 45.9715 41.4986 45.6414 41.8262C45.5136 41.9551 45.3615 42.0574 45.1938 42.127C45.0262 42.1966 44.8464 42.2322 44.6648 42.2317Z" fill="#E9F1F2"/>
<path d="M24.8276 11.0345C25.5894 11.0345 26.2069 10.417 26.2069 9.65519C26.2069 8.89342 25.5894 8.27588 24.8276 8.27588C24.0658 8.27588 23.4483 8.89342 23.4483 9.65519C23.4483 10.417 24.0658 11.0345 24.8276 11.0345Z" fill="#D0D8DA"/>
<path d="M5.51724 11.0345C6.27901 11.0345 6.89655 10.417 6.89655 9.65519C6.89655 8.89342 6.27901 8.27588 5.51724 8.27588C4.75547 8.27588 4.13793 8.89342 4.13793 9.65519C4.13793 10.417 4.75547 11.0345 5.51724 11.0345Z" fill="#93999A"/>
<path d="M38.7448 41.1449C38.4825 41.4 38.1314 41.5434 37.7655 41.5449C37.4001 41.5409 37.0499 41.3978 36.7862 41.1449C36.5278 40.8844 36.3828 40.5324 36.3828 40.1655C36.3828 39.7987 36.5278 39.4467 36.7862 39.1862C36.3469 39.0562 35.9504 38.8113 35.6376 38.4766C35.3247 38.142 35.107 37.7298 35.0069 37.2828C34.9019 36.8282 34.9138 36.3545 35.0417 35.9058C35.1695 35.4571 35.4091 35.0482 35.7379 34.7173C35.8261 34.6274 35.9287 34.5528 36.0414 34.4966L38.0828 35.7655C38.0792 36.1081 37.9404 36.4353 37.6966 36.6759C38.1359 36.8058 38.5325 37.0507 38.8454 37.3854C39.1582 37.72 39.3759 38.1323 39.4759 38.5793C39.5809 39.0339 39.5689 39.5077 39.4411 39.9563C39.3132 40.405 39.0737 40.8139 38.7448 41.1449Z" fill="#D0D8DA"/>
<path d="M46.2759 40.8139C46.1454 41.1983 45.9283 41.5475 45.6414 41.8346C45.3791 42.0898 45.028 42.2332 44.6621 42.2346C44.2967 42.2306 43.9465 42.0876 43.6828 41.8346C43.4243 41.5742 43.2793 41.2222 43.2793 40.8553C43.2793 40.4884 43.4243 40.1364 43.6828 39.876C43.2741 39.7558 42.9021 39.5349 42.6009 39.2337C42.2997 38.9325 42.0788 38.5605 41.9586 38.1519L46.2759 40.8139Z" fill="#D0D8DA"/>
</svg>
