<svg width="67" height="80" viewBox="0 0 67 80" fill="none" xmlns="http://www.w3.org/2000/svg">
<path d="M64.8276 0H15.1724C14.4106 0 13.7931 0.617538 13.7931 1.37931V73.1034C13.7931 73.8652 14.4106 74.4828 15.1724 74.4828H64.8276C65.5893 74.4828 66.2069 73.8652 66.2069 73.1034V1.37931C66.2069 0.617538 65.5893 0 64.8276 0Z" fill="#10B3B5"/>
<path d="M64.8276 0H17.9311C17.1693 0 16.5518 0.617538 16.5518 1.37931V73.1034C16.5518 73.8652 17.1693 74.4828 17.9311 74.4828H64.8276C65.5894 74.4828 66.2069 73.8652 66.2069 73.1034V1.37931C66.2069 0.617538 65.5894 0 64.8276 0Z" fill="#25D3D6"/>
<path d="M16.5518 74.4829H24.8276V80.0002H16.5518V74.4829Z" fill="#94A4A5"/>
<path d="M55.1724 74.4829H63.4482V80.0002H55.1724V74.4829Z" fill="#94A4A5"/>
<path d="M57.931 5.51709H22.0689C20.5454 5.51709 19.3103 6.75217 19.3103 8.27571V66.2067C19.3103 67.7303 20.5454 68.9654 22.0689 68.9654H57.931C59.4545 68.9654 60.6896 67.7303 60.6896 66.2067V8.27571C60.6896 6.75217 59.4545 5.51709 57.931 5.51709Z" fill="#DBDBDB"/>
<path d="M57.931 5.51709H26.2069C24.6833 5.51709 23.4482 6.75217 23.4482 8.27571V66.2067C23.4482 67.7303 24.6833 68.9654 26.2069 68.9654H57.931C59.4545 68.9654 60.6896 67.7303 60.6896 66.2067V8.27571C60.6896 6.75217 59.4545 5.51709 57.931 5.51709Z" fill="#EFEFEF"/>
<path d="M11.0345 0H8.27583C6.75229 0 5.51721 1.23508 5.51721 2.75862V71.7241C5.51721 73.2477 6.75229 74.4828 8.27583 74.4828H11.0345C12.558 74.4828 13.7931 73.2477 13.7931 71.7241V2.75862C13.7931 1.23508 12.558 0 11.0345 0Z" fill="#25D3D6"/>
<path d="M11.0345 2.75862V71.7241C11.0345 72.4558 10.7438 73.1574 10.2265 73.6748C9.70913 74.1921 9.00746 74.4828 8.27583 74.4828C7.5442 74.4828 6.84254 74.1921 6.32519 73.6748C5.80785 73.1574 5.51721 72.4558 5.51721 71.7241V2.75862C5.51721 2.02699 5.80785 1.32532 6.32519 0.807981C6.84254 0.290639 7.5442 0 8.27583 0C9.00746 0 9.70913 0.290639 10.2265 0.807981C10.7438 1.32532 11.0345 2.02699 11.0345 2.75862Z" fill="#10B3B5"/>
<path d="M5.51724 16.5518V38.6207L4.13793 38.0138L0 36.1656V19.0069L4.13793 17.1724L5.51724 16.5518Z" fill="#10B3B5"/>
<path d="M19.3103 23.4482H60.6896V26.2069H19.3103V23.4482Z" fill="#B7B7B7"/>
<path d="M35.8621 11.0347H44.1379V13.7933H35.8621V11.0347Z" fill="#B7B7B7"/>
<path d="M31.7241 55.1724H48.2758V60.6896H31.7241V55.1724Z" fill="#94A4A5"/>
<path d="M55.1725 38.6206V49.6551H46.8966V38.6206L48.2759 35.862V30.3447H53.7932V35.862L55.1725 38.6206Z" fill="#7FDFE0"/>
<path d="M33.1035 45.5174C33.1076 46.3727 32.8438 47.2077 32.349 47.9053C31.8542 48.603 31.1534 49.1281 30.3449 49.4071C29.9043 49.5741 29.4367 49.6583 28.9656 49.6553C27.8681 49.6553 26.8156 49.2194 26.0396 48.4434C25.2636 47.6673 24.8276 46.6148 24.8276 45.5174C24.8276 44.42 25.2636 43.3675 26.0396 42.5914C26.8156 41.8154 27.8681 41.3795 28.9656 41.3795C29.4367 41.3765 29.9043 41.4607 30.3449 41.6277C31.1534 41.9067 31.8542 42.4318 32.349 43.1295C32.8438 43.8271 33.1076 44.6621 33.1035 45.5174Z" fill="#F25E57"/>
<path d="M37.2413 49.6553C39.5266 49.6553 41.3793 47.8026 41.3793 45.5173C41.3793 43.232 39.5266 41.3794 37.2413 41.3794C34.956 41.3794 33.1034 43.232 33.1034 45.5173C33.1034 47.8026 34.956 49.6553 37.2413 49.6553Z" fill="#F25E57"/>
<path d="M55.1725 38.6205V49.655H46.8966V38.6205L47.5863 37.2412H54.4828L55.1725 38.6205Z" fill="#25D3D6"/>
<path d="M30.3448 49.4068C31.8683 49.4068 33.1034 47.6653 33.1034 45.5171C33.1034 43.3689 31.8683 41.6274 30.3448 41.6274C28.8213 41.6274 27.5862 43.3689 27.5862 45.5171C27.5862 47.6653 28.8213 49.4068 30.3448 49.4068Z" fill="#F89C8D"/>
<path d="M38.6207 49.4068C40.1442 49.4068 41.3793 47.6653 41.3793 45.5171C41.3793 43.3689 40.1442 41.6274 38.6207 41.6274C37.0971 41.6274 35.8621 43.3689 35.8621 45.5171C35.8621 47.6653 37.0971 49.4068 38.6207 49.4068Z" fill="#F89C8D"/>
<path d="M19.3103 48.2759H60.6896V51.0345H19.3103V48.2759Z" fill="#B7B7B7"/>
<path d="M5.51725 16.5518V38.6207L4.13794 38.0138V17.1724L5.51725 16.5518Z" fill="#25D3D6"/>
<path d="M16.5518 74.4829H24.8276V75.8622H16.5518V74.4829Z" fill="#8D9999"/>
<path d="M55.1724 74.4829H63.4482V75.8622H55.1724V74.4829Z" fill="#8D9999"/>
</svg>
