<svg width="80" height="80" viewBox="0 0 80 80" fill="none" xmlns="http://www.w3.org/2000/svg">
<path d="M3.72021 5.44873H77.2757V73.5557H3.72021V5.44873Z" fill="#10B3B5"/>
<path d="M77.2757 8.17301H43.2222C43.2225 19.0261 46.464 29.6318 52.5311 38.6306C58.5983 47.6294 67.2147 54.6112 77.2757 58.6811V73.5557H3.72021V5.44873H77.2757V8.17301Z" fill="#25B2B4"/>
<path d="M61.2215 14.3159L77.2757 20.4319V54.4854L75.4054 52.4082C72.5835 49.2723 68.6786 47.3217 64.4765 46.949C60.2744 46.5762 56.087 47.8089 52.7572 50.399L22.7901 58.5718L2.35803 39.5019L7.22087 31.987C13.7041 21.9711 23.8874 14.9278 35.5465 12.3953C44.11 10.5314 53.0307 11.1987 61.2215 14.3159Z" fill="#ADE8F4"/>
<path d="M59.7177 47.2115C57.1816 47.7195 54.7986 48.8108 52.7572 50.3989L22.7901 58.5717L3.72017 40.7686L2.35803 39.5018L3.72017 37.3905L7.22087 31.9828C13.7088 21.9667 23.8929 14.9211 35.5534 12.3816C38.1119 11.8257 40.7147 11.4975 43.3312 11.4009C44.1113 24.9698 49.9597 37.7507 59.7177 47.2115Z" fill="#25D3D6"/>
<path d="M0.995972 0H80V5.44855H0.995972V0Z" fill="#F89C8D"/>
<path d="M63.6544 64.0206C63.3853 62.6761 62.7243 61.4413 61.7547 60.4717C60.7852 59.5021 59.5503 58.8412 58.2058 58.5721C59.6509 58.5721 61.0367 57.998 62.0585 56.9762C63.0803 55.9544 63.6544 54.5686 63.6544 53.1235C63.6544 54.5686 64.2284 55.9544 65.2502 56.9762C66.272 57.998 67.6579 58.5721 69.1029 58.5721C67.6579 58.5721 66.272 59.1461 65.2502 60.1679C64.2284 61.1897 63.6544 62.5756 63.6544 64.0206Z" fill="#F89C8D"/>
<path d="M63.4092 60.2857C62.9829 59.7368 62.4896 59.2435 61.9408 58.8173C62.5998 58.3836 63.1795 57.8399 63.6544 57.21C64.0425 57.7254 64.5011 58.1839 65.0165 58.5721C64.3865 59.047 63.8429 59.6266 63.4092 60.2857Z" fill="#F25E57"/>
<path d="M25.5145 20.4323C25.2454 19.0877 24.5844 17.8529 23.6149 16.8833C22.6453 15.9138 21.4104 15.2528 20.0659 14.9837C21.511 14.9837 22.8968 14.4097 23.9186 13.3879C24.9404 12.3661 25.5145 10.9802 25.5145 9.53516C25.5145 10.9802 26.0885 12.3661 27.1103 13.3879C28.1321 14.4097 29.518 14.9837 30.963 14.9837C29.518 14.9837 28.1321 15.5578 27.1103 16.5796C26.0885 17.6014 25.5145 18.9872 25.5145 20.4323Z" fill="#F89C8D"/>
<path d="M25.2693 16.6973C24.843 16.1485 24.3497 15.6552 23.8009 15.2289C24.4599 14.7952 25.0396 14.2515 25.5145 13.6216C25.9027 14.137 26.3612 14.5955 26.8766 14.9837C26.2466 15.4586 25.703 16.0383 25.2693 16.6973Z" fill="#F25E57"/>
<path d="M80 2.72428V5.44855H0.995972V0H3.72025C3.72241 0.72186 4.01012 1.41354 4.52055 1.92397C5.03099 2.43441 5.72267 2.72212 6.44453 2.72428H80Z" fill="#F25E57"/>
<path d="M63.6543 23.1566C63.5215 23.1568 63.3893 23.1375 63.262 23.0994L60.8647 22.3802C55.9676 20.9182 50.7197 21.1583 45.9765 23.0613C45.8096 23.1332 45.6301 23.1711 45.4483 23.1726C45.2666 23.1741 45.0865 23.1392 44.9184 23.07C44.7504 23.0008 44.5979 22.8987 44.4699 22.7697C44.342 22.6407 44.2411 22.4873 44.1733 22.3187C44.1055 22.1501 44.0721 21.9697 44.0751 21.788C44.0781 21.6063 44.1175 21.427 44.1908 21.2608C44.2642 21.0945 44.37 20.9446 44.5022 20.8199C44.6343 20.6951 44.7901 20.5981 44.9603 20.5345C50.277 18.4039 56.1583 18.136 61.6465 19.7744L64.0466 20.4937C64.3569 20.59 64.6225 20.794 64.7956 21.069C64.9686 21.3439 65.0377 21.6717 64.9904 21.9931C64.943 22.3145 64.7824 22.6084 64.5374 22.8217C64.2924 23.0351 63.9792 23.1539 63.6543 23.1566Z" fill="#25D3D6"/>
<path d="M44.5844 32.6914C44.2865 32.6916 43.9968 32.5942 43.7596 32.414C43.5224 32.2339 43.3508 31.9809 43.271 31.694C43.1913 31.407 43.2078 31.1018 43.3181 30.825C43.4283 30.5483 43.6263 30.3154 43.8815 30.1619L44.4032 29.8486C46.5402 28.5748 48.9412 27.8091 51.4211 27.6104C53.9009 27.4118 56.3932 27.7856 58.7057 28.7031C58.8718 28.7696 59.0231 28.8682 59.1511 28.9933C59.2791 29.1183 59.3812 29.2673 59.4516 29.4318C59.522 29.5963 59.5593 29.7731 59.5613 29.952C59.5634 30.1309 59.5302 30.3084 59.4637 30.4745C59.3972 30.6406 59.2986 30.792 59.1735 30.92C59.0485 31.0479 58.8995 31.15 58.735 31.2204C58.5705 31.2908 58.3937 31.3281 58.2148 31.3302C58.0359 31.3323 57.8583 31.2991 57.6922 31.2326C55.7694 30.4696 53.6969 30.1587 51.6348 30.3241C49.5727 30.4894 47.5762 31.1265 45.7994 32.1861L45.2791 32.498C45.0693 32.6241 44.8292 32.6909 44.5844 32.6914Z" fill="#25D3D6"/>
<path d="M37.0994 19.9743C36.8069 19.9746 36.5221 19.8808 36.2871 19.7068C36.052 19.5327 35.8792 19.2876 35.7943 19.0077C35.7094 18.7279 35.7168 18.4281 35.8154 18.1527C35.9141 17.8774 36.0987 17.6411 36.3421 17.4788C38.7816 15.8488 41.6504 14.9802 44.5844 14.9834C44.9456 14.9834 45.2921 15.1269 45.5475 15.3824C45.803 15.6378 45.9465 15.9843 45.9465 16.3455C45.9465 16.7068 45.803 17.0533 45.5475 17.3087C45.2921 17.5642 44.9456 17.7077 44.5844 17.7077C42.1881 17.7073 39.8457 18.4184 37.854 19.7509C37.6299 19.898 37.3674 19.9757 37.0994 19.9743Z" fill="#25D3D6"/>
<path d="M77.2758 25.227V28.1692L71.3232 25.7854C70.9873 25.6518 70.7182 25.3901 70.5751 25.058C70.432 24.7259 70.4268 24.3506 70.5604 24.0146C70.6941 23.6787 70.9558 23.4096 71.2879 23.2665C71.6199 23.1235 71.9952 23.1182 72.3312 23.2518L77.2758 25.227Z" fill="#25D3D6"/>
<path d="M77.2758 33.3998V36.342L71.3232 33.9583C70.9873 33.8246 70.7182 33.563 70.5751 33.2309C70.432 32.8988 70.4268 32.5235 70.5604 32.1875C70.6941 31.8515 70.9558 31.5824 71.2879 31.4394C71.6199 31.2963 71.9952 31.291 72.3312 31.4247L77.2758 33.3998Z" fill="#25D3D6"/>
<path d="M77.2757 42.063V45.591L75.9544 44.4876C74.1087 42.9471 71.9513 41.8244 69.6306 41.1966C67.3099 40.5688 64.8808 40.4508 62.5101 40.8507C62.333 40.8793 62.152 40.8728 61.9775 40.8315C61.8029 40.7901 61.6382 40.7148 61.4927 40.6098C61.3473 40.5049 61.2239 40.3723 61.1297 40.2196C61.0355 40.0669 60.9723 39.8972 60.9436 39.7201C60.915 39.543 60.9216 39.3621 60.9629 39.1875C61.0042 39.0129 61.0795 38.8482 61.1845 38.7028C61.2895 38.5573 61.4221 38.4339 61.5748 38.3397C61.7274 38.2455 61.8971 38.1823 62.0742 38.1537C64.7406 37.7074 67.4708 37.8247 70.0891 38.4981C72.7073 39.1714 75.1554 40.3858 77.2757 42.063Z" fill="#25D3D6"/>
<path d="M45.32 23.1428C45.0753 23.1146 44.8427 23.0214 44.6463 22.8729C44.4499 22.7244 44.2968 22.5259 44.203 22.2982C44.0904 22.0157 44.0762 21.7035 44.1627 21.4119C44.2492 21.1203 44.4313 20.8664 44.6798 20.6909C44.8705 21.5218 45.0884 22.3391 45.32 23.1428Z" fill="#10B3B5"/>
<path d="M48.2485 31.043C47.4002 31.3434 46.5835 31.7266 45.8103 32.1872L45.2791 32.5004C45.0681 32.6234 44.8286 32.6891 44.5844 32.6911C44.286 32.6911 43.9958 32.593 43.7586 32.4119C43.5213 32.2309 43.3501 31.977 43.2711 31.6892C43.1922 31.4014 43.21 31.0956 43.3218 30.8189C43.4335 30.5422 43.6331 30.3099 43.8897 30.1576L44.4073 29.8443C45.2834 29.3268 46.2043 28.8891 47.1588 28.5366C47.4994 29.3811 47.8671 30.2257 48.2485 31.043Z" fill="#10B3B5"/>
<path d="M44.0668 17.7214C41.8495 17.816 39.7008 18.5181 37.8554 19.751C37.628 19.8967 37.3627 19.9725 37.0926 19.9689C36.8692 19.9708 36.6489 19.917 36.4515 19.8124C36.2541 19.7077 36.0859 19.5556 35.962 19.3696C35.7642 19.0672 35.6933 18.699 35.7646 18.3447C35.836 17.9904 36.0439 17.6785 36.3434 17.4762C38.5237 16.0178 41.0533 15.1668 43.6718 15.0107C43.7807 15.9234 43.9169 16.8224 44.0668 17.7214Z" fill="#10B3B5"/>
<path d="M51.4849 41.5997C51.5946 41.191 51.615 40.7635 51.545 40.3461C51.475 39.9288 51.316 39.5314 51.079 39.1808C50.842 38.8302 50.5324 38.5347 50.1712 38.3142C49.81 38.0937 49.4056 37.9535 48.9854 37.9029C48.5658 37.8514 48.1622 37.7105 47.8018 37.4897C47.4413 37.2688 47.1324 36.9732 46.896 36.6228C46.6596 36.2723 46.5011 35.8753 46.4313 35.4583C46.3615 35.0414 46.382 34.6144 46.4913 34.2061C46.7863 33.1046 46.6318 31.931 46.0616 30.9435C45.4915 29.956 44.5525 29.2353 43.4511 28.94L41.9881 28.5477C41.7601 28.4884 41.5476 28.3805 41.3652 28.2314C41.1828 28.0823 41.0348 27.8955 40.9313 27.6839C40.8278 27.4722 40.7712 27.2407 40.7656 27.0052C40.7599 26.7696 40.8052 26.5357 40.8984 26.3193C41.0371 26.0026 41.0719 25.6502 40.9977 25.3126C40.9235 24.9749 40.7442 24.6695 40.4855 24.4402C40.2268 24.2109 39.9021 24.0695 39.558 24.0364C39.214 24.0032 38.8682 24.08 38.5705 24.2556L5.08233 43.5885C4.45662 43.9497 3.71303 44.0476 3.01515 43.8606C2.31726 43.6736 1.72223 43.2171 1.36096 42.5914L14.9824 66.1836C15.7049 67.435 16.8949 68.3481 18.2907 68.7221C19.6865 69.0961 21.1737 68.9003 22.4251 68.1778L52.5624 50.7806C52.9924 50.5319 53.3391 50.1613 53.5587 49.7157C53.7782 49.2701 53.8608 48.7694 53.7959 48.2769C53.7311 47.7843 53.5217 47.3221 53.1942 46.9485C52.8668 46.5749 52.436 46.3068 51.9562 46.1779C51.7478 46.1227 51.5524 46.0269 51.3811 45.8959C51.2099 45.7649 51.0663 45.6013 50.9585 45.4146C50.8508 45.2278 50.781 45.0216 50.7533 44.8078C50.7256 44.594 50.7405 44.3768 50.7971 44.1687L51.4849 41.5997Z" fill="#E9F1F2"/>
<path d="M52.5666 50.7806L22.4224 68.1751C21.8037 68.5337 21.1204 68.7667 20.4115 68.8608C19.7026 68.9549 18.9821 68.9082 18.2913 68.7235C17.6004 68.5388 16.9528 68.2196 16.3855 67.7842C15.8182 67.3489 15.3423 66.8059 14.9852 66.1864L1.36377 42.5941C1.72549 43.2186 2.32022 43.6741 3.01741 43.8605C3.7146 44.0469 4.45728 43.9491 5.08241 43.5885L11.2529 40.0197L12.2609 41.7632C13.6665 44.2011 15.6797 46.2332 18.1045 47.6613C18.7234 47.3628 19.4323 47.3092 20.089 47.5113C20.7458 47.7134 21.3019 48.1562 21.646 48.751L19.6028 45.2231C19.4035 44.8792 19.2819 44.496 19.2464 44.1001C19.2109 43.7043 19.2625 43.3055 19.3975 42.9317C19.5324 42.5579 19.7476 42.2181 20.0278 41.9363C20.308 41.6544 20.6464 41.4373 21.0194 41.3001C21.6482 41.091 22.3303 41.1087 22.9473 41.3501C23.5644 41.5914 24.0775 42.0412 24.3975 42.6214L26.359 46.0267C26.1702 45.6971 26.0525 45.3317 26.0133 44.9539C25.9741 44.5761 26.0144 44.1942 26.1315 43.8329C26.2486 43.4715 26.44 43.1387 26.6933 42.8557C26.9467 42.5727 27.2564 42.3458 27.6027 42.1896C28.2489 41.9467 28.9601 41.94 29.6109 42.1705C30.2616 42.401 30.81 42.854 31.1592 43.4496L33.8508 48.1244H33.8603C39.945 47.4529 45.8471 45.6876 49.1966 40.5686L50.5097 38.5649C50.9487 38.9228 51.2748 39.3999 51.4488 39.9388C51.6228 40.4778 51.6373 41.0555 51.4905 41.6025L50.7958 44.177C50.7368 44.3789 50.7181 44.5905 50.741 44.7997C50.7638 45.0088 50.8276 45.2114 50.9289 45.3959C51.0301 45.5804 51.1667 45.7431 51.3308 45.8747C51.495 46.0063 51.6835 46.1043 51.8855 46.163C52.3739 46.2799 52.816 46.5403 53.155 46.9108C53.494 47.2812 53.7144 47.7447 53.7876 48.2415C53.8609 48.7382 53.7838 49.2456 53.5661 49.6981C53.3485 50.1507 53.0004 50.5277 52.5666 50.7806Z" fill="#D0D8DA"/>
<path d="M2.35922 38.8708L28.3107 23.8872C29.5621 23.1647 31.0493 22.9689 32.4451 23.3429C33.8408 23.7169 35.0309 24.63 35.7534 25.8814L5.0835 43.5892C4.4578 43.9505 3.71421 44.0484 3.01632 43.8614C2.31843 43.6744 1.7234 43.2178 1.36214 42.5921C1.00088 41.9664 0.902973 41.2228 1.08996 40.525C1.27695 39.8271 1.73352 39.232 2.35922 38.8708Z" fill="#B8BEBF"/>
<path d="M35.7578 25.8806L5.0824 43.5884C4.66777 43.8267 4.19847 43.9534 3.72026 43.9562C3.24229 43.9557 2.77286 43.8295 2.3591 43.5902C1.94535 43.3509 1.60184 43.0069 1.36307 42.5929C1.12429 42.1788 0.998657 41.7092 0.998779 41.2313C0.998902 40.7533 1.12478 40.2837 1.36376 39.8698C1.60263 40.2835 1.9461 40.6272 2.35971 40.8663C2.77332 41.1053 3.24253 41.2315 3.72026 41.2319C4.19847 41.2291 4.66777 41.1024 5.0824 40.8642L34.1096 24.1099C34.7884 24.5649 35.3525 25.171 35.7578 25.8806Z" fill="#93999A"/>
<path d="M53.847 79.004H33.3876L32.4341 77.3422C31.3251 75.4296 29.6295 73.9251 27.5985 73.0515C25.5657 72.1875 23.8687 70.6864 22.7629 68.7743L15.6934 56.5151C15.3484 55.9469 15.2139 55.2755 15.3135 54.6182C15.4131 53.9609 15.7404 53.3595 16.2383 52.919C16.5441 52.667 16.9011 52.4846 17.2845 52.3843C17.6678 52.284 18.0685 52.2683 18.4585 52.3383C18.8485 52.4082 19.2187 52.5622 19.5433 52.7895C19.8679 53.0168 20.1392 53.312 20.3383 53.6546L18.3632 50.2493C18.0182 49.681 17.8837 49.0097 17.9833 48.3524C18.0829 47.6951 18.4102 47.0937 18.9081 46.6532C19.2139 46.4012 19.5709 46.2187 19.9543 46.1184C20.3376 46.0181 20.7382 46.0024 21.1283 46.0724C21.5183 46.1424 21.8885 46.2964 22.2131 46.5237C22.5377 46.751 22.809 47.0462 23.0081 47.3888L20.9649 43.8608C20.7656 43.517 20.644 43.1337 20.6085 42.7379C20.573 42.342 20.6246 41.9432 20.7596 41.5694C20.8946 41.1956 21.1097 40.8559 21.3899 40.574C21.6701 40.2922 22.0086 40.075 22.3816 39.9379C23.0103 39.7288 23.6924 39.7465 24.3095 39.9878C24.9265 40.2292 25.4396 40.679 25.7597 41.2591L27.7211 44.6645C27.5243 44.3211 27.4047 43.9391 27.3705 43.5448C27.3363 43.1505 27.3885 42.7535 27.5233 42.3815C27.6581 42.0094 27.8724 41.6711 28.1512 41.3903C28.43 41.1094 28.7667 40.8927 29.1378 40.7551C29.7663 40.543 30.4495 40.5592 31.0673 40.8009C31.6851 41.0425 32.198 41.4941 32.5159 42.0764L40.7432 56.3244C41.3764 55.4726 41.6503 54.4064 41.506 53.3549L41.1246 50.7532C41.0654 50.3436 41.0918 49.9261 41.2021 49.5271C41.3123 49.1281 41.504 48.7563 41.765 48.4351C42.0261 48.1139 42.3509 47.8502 42.7189 47.6608C43.0869 47.4713 43.4902 47.3601 43.9033 47.3343C44.6133 47.307 45.311 47.525 45.8791 47.9517C46.4472 48.3784 46.851 48.9877 47.0226 49.6772C47.6342 51.9337 47.7327 54.2986 47.3108 56.5982C46.8889 58.8978 45.9573 61.0737 44.5844 62.9662L53.847 79.004Z" fill="#F9DBAF"/>
<path d="M30.1308 54.2893L23.3201 42.4918C23.0821 42.0793 22.9568 41.6114 22.9568 41.1351C22.9568 40.6589 23.0821 40.191 23.3201 39.7784C22.8405 39.7738 22.3683 39.8966 21.9518 40.1343C21.5353 40.372 21.1894 40.7161 20.9494 41.1313C20.7095 41.5465 20.5841 42.018 20.5861 42.4976C20.5881 42.9772 20.7174 43.4476 20.9608 43.8608L29.1337 58.0175C29.4444 57.8386 29.7167 57.6001 29.9351 57.3158C30.1535 57.0314 30.3136 56.7068 30.4062 56.3604C30.4988 56.014 30.5222 55.6528 30.4749 55.2974C30.4276 54.942 30.3107 54.5994 30.1308 54.2893Z" fill="#EDB88E"/>
<path d="M25.4123 57.0138L20.6449 48.7552C20.4068 48.3429 20.2815 47.8752 20.2815 47.3992C20.2815 46.9231 20.4068 46.4554 20.6449 46.0432C20.1675 46.0376 19.6973 46.1593 19.2827 46.396C18.657 46.7572 18.2005 47.3522 18.0135 48.0501C17.8265 48.748 17.9244 49.4916 18.2856 50.1173L24.4153 60.742C24.726 60.5631 24.9983 60.3247 25.2167 60.0403C25.4351 59.7559 25.5951 59.4313 25.6878 59.0849C25.7804 58.7385 25.8038 58.3773 25.7565 58.0219C25.7092 57.6665 25.5923 57.3239 25.4123 57.0138Z" fill="#EDB88E"/>
<path d="M34.8505 51.5651L30.083 43.3064C29.8447 42.8943 29.7192 42.4266 29.7192 41.9504C29.7192 41.4743 29.8447 41.0066 30.083 40.5944C29.6057 40.5888 29.1354 40.7106 28.7209 40.9472C28.4109 41.126 28.1393 41.3641 27.9214 41.6478C27.7034 41.9316 27.5436 42.2555 27.4508 42.6011C27.3581 42.9467 27.3344 43.3071 27.381 43.6619C27.4276 44.0166 27.5436 44.3587 27.7224 44.6686L33.852 55.2933C34.1629 55.1145 34.4353 54.8761 34.6539 54.5918C34.8724 54.3075 35.0326 53.9829 35.1253 53.6365C35.2181 53.2901 35.2416 52.9288 35.1944 52.5734C35.1472 52.2179 35.0304 51.8753 34.8505 51.5651Z" fill="#EDB88E"/>
<path d="M53.8469 79.0041H33.3903L32.4368 77.3409C31.3289 75.4289 29.6335 73.9255 27.6026 73.0543C25.5705 72.1851 23.8744 70.6812 22.7684 68.7676L15.7043 56.5084C15.3595 55.942 15.2251 55.2723 15.3248 54.6167C15.4244 53.9612 15.7517 53.3616 16.2492 52.9232C16.7436 52.5152 17.3639 52.2905 18.005 52.2871C17.7692 52.7292 17.651 53.2245 17.6617 53.7254C17.6724 54.2263 17.8118 54.716 18.0663 55.1476L25.1303 67.4068C26.0871 69.063 27.4904 70.4168 29.1799 71.3135C29.6974 71.5675 30.1864 71.8757 30.6388 72.2329C31.7542 73.1364 33.1104 73.6926 34.539 73.8325C35.9676 73.9725 37.4058 73.6901 38.6754 73.0202L47.6655 68.299L53.8469 79.0041Z" fill="#EDB88E"/>
<path d="M40.7445 56.3244C41.3724 55.4679 41.647 54.4027 41.5114 53.3494L41.1232 50.7423C41.0151 49.9936 41.196 49.2317 41.6291 48.6115C42.0622 47.9912 42.715 47.5589 43.4552 47.4023L43.5233 47.5209C44.2461 48.7713 44.7117 50.1537 44.8925 51.5867C45.0733 53.0198 44.9658 54.4745 44.5762 55.8653C44.461 56.26 44.2324 56.6122 43.9188 56.878C43.6051 57.1439 43.2202 57.3117 42.812 57.3606C42.4037 57.4095 41.9901 57.3373 41.6226 57.1531C41.255 56.9689 40.9496 56.6807 40.7445 56.3244Z" fill="#EDB88E"/>
<path d="M37.7736 42.2262C37.5045 40.8817 36.8436 39.6469 35.874 38.6773C34.9044 37.7077 33.6696 37.0467 32.3251 36.7777C33.7701 36.7777 35.156 36.2036 36.1778 35.1818C37.1996 34.16 37.7736 32.7741 37.7736 31.3291C37.7736 32.7741 38.3477 34.16 39.3695 35.1818C40.3913 36.2036 41.7771 36.7777 43.2222 36.7777C41.7771 36.7777 40.3913 37.3517 39.3695 38.3735C38.3477 39.3953 37.7736 40.7812 37.7736 42.2262Z" fill="#F89C8D"/>
<path d="M37.5284 38.4912C37.1022 37.9424 36.6089 37.4491 36.0601 37.0229C36.7191 36.5892 37.2987 36.0455 37.7736 35.4155C38.1618 35.931 38.6203 36.3895 39.1358 36.7777C38.5058 37.2526 37.9621 37.8322 37.5284 38.4912Z" fill="#F25E57"/>
</svg>
