<svg width="80" height="80" viewBox="0 0 80 80" fill="none" xmlns="http://www.w3.org/2000/svg">
<rect width="80" height="80" fill="#FAFAFA"/>
<g clip-path="url(#clip0_829_11047)">
<path d="M68.1206 73.8833V1.63063C68.1206 0.73 67.3906 0 66.49 0H13.5095C12.6089 0 11.8789 0.73 11.8789 1.63063V73.8834H68.1206V73.8833Z" fill="#E9F1F2"/>
<path d="M11.8789 47.7485H68.1206V51.014H11.8789V47.7485Z" fill="#D0D8DA"/>
<path d="M68.1192 1.63063V74.3164H63.3143V1.63063C63.3143 0.729219 62.582 0 61.6821 0H66.4901C67.3901 0 68.1192 0.729219 68.1192 1.63063Z" fill="#D0D8DA"/>
<path d="M63.3142 47.749H68.1206V51.015H63.3142V47.749Z" fill="#A9D3D8"/>
<path d="M63.3127 73.8832V6.36262C63.3127 5.47355 62.5921 4.75293 61.703 4.75293H18.2971C17.408 4.75293 16.6874 5.47355 16.6874 6.36262V73.8834H63.3127V73.8832Z" fill="#25D3D6"/>
<path d="M63.3127 73.8832V6.36262C63.3127 5.47355 62.5921 4.75293 61.703 4.75293H56.14C56.5763 16.9171 55.126 58.8507 16.6874 68.9368V73.8834H63.3127V73.8832Z" fill="#10B3B5"/>
<path d="M24.9158 72.8912H16.6869V32.1318H18.3225C23.7783 32.1318 28.201 36.5545 28.201 42.0103L24.9158 72.8912Z" fill="#F89C8D"/>
<path d="M28.2013 42.0103L24.916 72.8915H20.0935L23.3788 42.0103C23.3788 37.6706 20.5796 33.9829 16.6874 32.6582V32.1318H18.3228C23.7778 32.1318 28.2013 36.5551 28.2013 42.0103Z" fill="#F25E57"/>
<path d="M26.5722 57.3149L24.916 72.8915H16.6874V57.3149H26.5722Z" fill="#FFD597"/>
<path d="M26.5723 57.3149L24.916 72.8915H20.0935L21.7498 57.3149H26.5723Z" fill="#FCC16D"/>
<path d="M23.0296 36.3702C26.5324 36.3702 29.3719 33.385 29.3719 29.7027C29.3719 26.0203 26.5324 23.0352 23.0296 23.0352C19.5268 23.0352 16.6873 26.0203 16.6873 29.7027C16.6873 33.385 19.5268 36.3702 23.0296 36.3702Z" fill="#FFCEC0"/>
<path d="M29.3716 29.7025C29.3716 33.3856 26.5317 36.3698 23.0291 36.3698C21.8192 36.3698 20.6885 36.0138 19.726 35.3955C23.1453 35.2942 25.8867 32.3486 25.8867 28.7311C25.8867 26.3205 24.6695 24.2077 22.8458 23.0381C22.9069 23.0366 22.968 23.0352 23.0291 23.0352C26.5317 23.0352 29.3716 26.0209 29.3716 29.7025Z" fill="#FDB0A0"/>
<path d="M38.3903 4.75293H44.2034V73.8834H38.3903V4.75293Z" fill="#D0D8DA"/>
<path d="M39.9999 56.5156H44.2033V61.9052H39.9999V56.5156Z" fill="#A9D3D8"/>
<path d="M35.7963 4.75293H39.9997V73.8834H35.7963V4.75293Z" fill="#E9F1F2"/>
<path d="M35.7963 56.5156H39.9997V61.9052H35.7963V56.5156Z" fill="#D0D8DA"/>
<path d="M75.6286 57.9306C73.8905 51.7946 75.4535 49.251 75.4696 49.226L75.4555 49.2465L75.041 48.9559H75.5163C76.1832 48.9559 76.7235 48.4154 76.7235 47.7487C76.7235 47.082 76.183 46.5415 75.5163 46.5415H4.48363C3.81675 46.5415 3.27644 47.082 3.27644 47.7487C3.27644 48.4154 3.81691 48.9559 4.48363 48.9559H4.95894L4.54441 49.2465L4.53035 49.226C4.54644 49.251 6.10941 51.7946 4.37128 57.9306C1.31128 68.7326 5.60269 74.2251 5.78675 74.4535C6.02535 74.7495 6.37488 74.9034 6.72753 74.9034C6.99331 74.9034 7.26113 74.8159 7.48425 74.636C8.00347 74.2176 8.08503 73.4576 7.66675 72.9385C7.62957 72.8923 3.97097 68.2024 6.69425 58.5885C8.133 53.5095 7.58753 50.4501 7.05035 48.9559H21.7275L21.7416 49.2465L21.7275 49.226C21.7436 49.251 23.3066 51.7946 21.5685 57.9306C18.5086 68.7326 22.8 74.2251 22.9841 74.4537C23.2227 74.7496 23.5722 74.9034 23.9249 74.9034C24.1907 74.9034 24.4585 74.8159 24.6816 74.636C25.2008 74.2176 25.2824 73.4576 24.8641 72.9385C24.8269 72.8923 21.1682 68.2026 23.8914 58.5885C25.3302 53.5095 24.7847 50.4501 24.2475 48.9559H38.7925V73.6962C38.7925 74.3629 39.333 74.9034 39.9997 74.9034C40.6664 74.9034 41.2069 74.3629 41.2069 73.6962V48.9557H55.7519C55.2147 50.4501 54.6693 53.5093 56.108 58.5884C58.7986 68.0874 55.293 72.7363 55.1308 72.944C54.7174 73.4629 54.8003 74.219 55.3177 74.6359C55.541 74.8157 55.8085 74.9032 56.0744 74.9032C56.4272 74.9032 56.7766 74.7495 57.0152 74.4535C57.1993 74.2249 61.4908 68.7324 58.4308 57.9304C56.6927 51.7945 58.2557 49.2509 58.2718 49.2259L58.2577 49.2463L58.2718 48.9557H72.9489C72.4118 50.4501 71.8663 53.5093 73.305 58.5884C75.9957 68.0874 72.49 72.7363 72.328 72.944C71.9146 73.4629 71.9975 74.219 72.5149 74.6359C72.7382 74.8157 73.0057 74.9032 73.2716 74.9032C73.6244 74.9032 73.9738 74.7495 74.2124 74.4534C74.3972 74.2251 78.6886 68.7326 75.6286 57.9306Z" fill="#93999A"/>
<path d="M22.0777 55.7812C21.9538 56.4422 21.7875 57.1578 21.5686 57.9306C21.1556 59.3884 20.88 60.7462 20.707 62.0103H23.1448C23.305 60.9483 23.5459 59.8092 23.8916 58.5888C24.1794 57.573 24.3866 56.6392 24.5316 55.7814H22.0777V55.7812Z" fill="#7DA2B0"/>
<path d="M57.9223 55.7812H55.4684C55.6134 56.6391 55.8206 57.5728 56.1084 58.5886C56.4543 59.8097 56.6959 60.9488 56.857 62.0102H59.2928C59.1199 60.7461 58.8442 59.3883 58.4312 57.9305C58.2124 57.1578 58.046 56.4423 57.9223 55.7812Z" fill="#7DA2B0"/>
<path d="M38.7928 55.7812H41.2074V61.897H38.7928V55.7812Z" fill="#7DA2B0"/>
<path d="M74.7755 79.9991H5.22425C4.32363 79.9991 3.59363 79.2691 3.59363 78.3685V74.5217C3.59363 73.6211 4.32363 72.8911 5.22425 72.8911H74.7755C75.6761 72.8911 76.4061 73.6211 76.4061 74.5217V78.3685C76.4061 79.2691 75.676 79.9991 74.7755 79.9991Z" fill="#E9F1F2"/>
<path d="M76.4064 74.5221V78.3687C76.4064 79.2691 75.6753 80.0002 74.7748 80.0002H69.8622C70.7627 80.0002 71.4937 79.2691 71.4937 78.3687V74.5221C71.4937 73.6215 70.7627 72.8921 69.8622 72.8921H74.7748C75.6753 72.8921 76.4064 73.6215 76.4064 74.5221Z" fill="#D0D8DA"/>
<path d="M26.5184 49.3585C28.2478 49.3585 29.6498 47.9565 29.6498 46.2271C29.6498 44.4977 28.2478 43.0957 26.5184 43.0957C24.7889 43.0957 23.387 44.4977 23.387 46.2271C23.387 47.9565 24.7889 49.3585 26.5184 49.3585Z" fill="#F25E57"/>
<path d="M29.6499 46.2261C29.6499 47.9564 28.2479 49.3585 26.5175 49.3585C25.3908 49.3585 24.4041 48.7629 23.8536 47.8696C23.8891 47.8729 23.9244 47.8729 23.9599 47.8729C25.6886 47.8729 27.0907 46.4708 27.0907 44.7405C27.0907 44.1385 26.92 43.575 26.624 43.0986C28.3058 43.1533 29.6499 44.5329 29.6499 46.2261Z" fill="#F25E57"/>
<path d="M53.4817 49.3585C55.2112 49.3585 56.6132 47.9565 56.6132 46.2271C56.6132 44.4977 55.2112 43.0957 53.4817 43.0957C51.7523 43.0957 50.3503 44.4977 50.3503 46.2271C50.3503 47.9565 51.7523 49.3585 53.4817 49.3585Z" fill="#F25E57"/>
<path d="M56.6133 46.2261C56.6133 47.9564 55.2113 49.3585 53.4825 49.3585C52.3558 49.3585 51.3674 48.7629 50.8169 47.8696C50.8524 47.8729 50.8877 47.8729 50.9231 47.8729C52.6519 47.8729 54.0539 46.4708 54.0539 44.7405C54.0539 44.1385 53.8833 43.575 53.5872 43.0986C55.2677 43.1518 56.6133 44.5329 56.6133 46.2261Z" fill="#F25E57"/>
<path d="M26.8361 50.6447C27.8255 52.8379 27.8572 55.2194 27.1121 57.3201C25.0441 56.4884 23.2799 54.8884 22.2905 52.6951C21.4364 50.8019 21.296 48.7719 21.7514 46.9015C21.8693 46.4175 22.4088 46.174 22.8497 46.4061C24.5532 47.3025 25.9821 48.7515 26.8361 50.6447Z" fill="#82B732"/>
<path d="M31.5278 50.8672C31.5278 53.2733 30.5775 55.4572 29.0345 57.0657C27.4914 55.4572 26.5413 53.2733 26.5413 50.8672C26.5413 48.7904 27.248 46.8819 28.4322 45.3644C28.7388 44.9716 29.3306 44.9716 29.637 45.3644C30.8211 46.8819 31.5278 48.7904 31.5278 50.8672Z" fill="#99D53B"/>
<path d="M40.3237 50.6447C41.3131 52.8379 41.3448 55.2194 40.5996 57.3201C38.5316 56.4884 36.7674 54.8884 35.7781 52.6951C34.924 50.8019 34.7835 48.7719 35.239 46.9015C35.3568 46.4175 35.8963 46.174 36.3373 46.4061C38.0409 47.3025 39.4698 48.7515 40.3237 50.6447Z" fill="#82B732"/>
<path d="M45.0155 50.8672C45.0155 53.2733 44.0652 55.4572 42.5222 57.0657C40.9791 55.4572 40.0289 53.2733 40.0289 50.8672C40.0289 48.7904 40.7356 46.8819 41.9199 45.3644C42.2264 44.9716 42.8183 44.9716 43.1247 45.3644C44.3088 46.8819 45.0155 48.7904 45.0155 50.8672Z" fill="#99D53B"/>
<path d="M53.8114 50.6447C54.8007 52.8379 54.8324 55.2194 54.0873 57.3201C52.0193 56.4884 50.2551 54.8884 49.2657 52.6951C48.4117 50.8019 48.2712 48.7719 48.7267 46.9015C48.8445 46.4175 49.384 46.174 49.8249 46.4061C51.5285 47.3025 52.9574 48.7515 53.8114 50.6447Z" fill="#82B732"/>
<path d="M58.503 50.8672C58.503 53.2733 57.5527 55.4572 56.0098 57.0657C54.4666 55.4572 53.5165 53.2733 53.5165 50.8672C53.5165 48.7904 54.2232 46.8819 55.4074 45.3644C55.714 44.9716 56.3059 44.9716 56.6123 45.3644C57.7963 46.8819 58.503 48.7904 58.503 50.8672Z" fill="#99D53B"/>
<path d="M58.6143 59.5278H21.3856C20.839 59.5278 20.3959 59.0846 20.3959 58.5381V53.7036C20.3959 53.157 20.839 52.7139 21.3856 52.7139H58.6143C59.1609 52.7139 59.604 53.157 59.604 53.7036V58.5381C59.604 59.0846 59.1609 59.5278 58.6143 59.5278Z" fill="#F25E57"/>
<path d="M59.6043 53.7032V58.5376C59.6043 59.0842 59.1605 59.5279 58.614 59.5279H54.0193C54.5658 59.5279 55.0096 59.0842 55.0096 58.5376V53.7032C55.0096 53.1567 54.5658 52.7139 54.0193 52.7139H58.614C59.1605 52.7139 59.6043 53.1567 59.6043 53.7032Z" fill="#F25E57"/>
<path d="M5.05646 49.3585C6.78588 49.3585 8.18786 47.9565 8.18786 46.2271C8.18786 44.4977 6.78588 43.0957 5.05646 43.0957C3.32703 43.0957 1.92505 44.4977 1.92505 46.2271C1.92505 47.9565 3.32703 49.3585 5.05646 49.3585Z" fill="#F25E57"/>
<path d="M8.18837 46.2261C8.18837 47.9564 6.78634 49.3585 5.05603 49.3585C3.92931 49.3585 2.94259 48.7629 2.39197 47.8696C2.42744 47.8729 2.46275 47.8729 2.49822 47.8729C4.22697 47.8729 5.629 46.4708 5.629 44.7405C5.629 44.1385 5.45837 43.575 5.16212 43.0986C6.84431 43.1533 8.18837 44.5329 8.18837 46.2261Z" fill="#F25E57"/>
<path d="M74.9437 49.3585C76.6731 49.3585 78.0751 47.9565 78.0751 46.2271C78.0751 44.4977 76.6731 43.0957 74.9437 43.0957C73.2142 43.0957 71.8123 44.4977 71.8123 46.2271C71.8123 47.9565 73.2142 49.3585 74.9437 49.3585Z" fill="#F25E57"/>
<path d="M78.0748 46.2261C78.0748 47.9564 76.6728 49.3585 74.9441 49.3585C73.8173 49.3585 72.8289 48.7629 72.2784 47.8696C72.3139 47.8729 72.3492 47.8729 72.3847 47.8729C74.115 47.8729 75.517 46.4708 75.517 44.7405C75.517 44.1385 75.3464 43.575 75.0502 43.0986C76.7308 43.1533 78.0748 44.5329 78.0748 46.2261Z" fill="#F25E57"/>
</g>
<defs>
<clipPath id="clip0_829_11047">
<rect width="80" height="80" fill="white"/>
</clipPath>
</defs>
</svg>
