<svg width="80" height="80" viewBox="0 0 80 80" fill="none" xmlns="http://www.w3.org/2000/svg">
<g clip-path="url(#clip0_828_10733)">
<path d="M11.2105 21.8604H69.1813C75.2794 21.8604 80.2231 26.8041 80.2231 32.903V68.7894C80.2231 74.8874 75.2794 79.8312 69.1813 79.8312H11.2105C5.11248 79.8312 0.168701 74.8874 0.168701 68.7894V32.903C0.168701 26.8041 5.11248 21.8604 11.2105 21.8604Z" fill="#CCCCCC"/>
<path d="M12.5914 21.8604H19.4923V79.8312H12.5914V21.8604Z" fill="#FAFAFA"/>
<path d="M13.9713 31.5225H44.3368C47.3858 31.5225 49.8577 33.9944 49.8577 37.0434V64.6488C49.8577 67.6978 47.3858 70.1697 44.3368 70.1697H13.9713C10.9223 70.1697 8.45044 67.6978 8.45044 64.6488V37.0434C8.45044 33.9944 10.9223 31.5225 13.9713 31.5225Z" fill="#FAFAFA"/>
<path d="M8.45044 57.7476V64.6485C8.45044 67.6975 10.9223 70.1694 13.9713 70.1694H44.3368C47.3858 70.1694 49.8577 67.6975 49.8577 64.6485V57.7476H8.45044Z" fill="#F89C8D"/>
<path d="M69.1813 21.8604H58.1395V79.8312H69.1813C75.2802 79.8312 80.2231 74.8874 80.2231 68.7894V32.903C80.2231 26.8041 75.2793 21.8604 69.1813 21.8604Z" fill="#25B2B4"/>
<path d="M67.8013 54.9868H70.5613C71.3238 54.9868 71.9422 55.6043 71.9422 56.3668V70.1695C71.9422 70.932 71.3238 71.5495 70.5613 71.5495H67.8013C67.0388 71.5495 66.4204 70.932 66.4204 70.1695V56.3668C66.4213 55.6043 67.0388 54.9868 67.8013 54.9868Z" fill="#10B3B5"/>
<path d="M69.1813 42.564C68.1992 42.5666 67.2927 43.0928 66.8034 43.9448H66.4213V45.3249C66.4213 46.8498 67.6572 48.0849 69.1813 48.0849C70.7062 48.0849 71.9422 46.8498 71.9422 45.3249V43.9448H71.5601C71.0699 43.0928 70.1634 42.5675 69.1813 42.564Z" fill="#10B3B5"/>
<path d="M71.5599 32.9032C70.8097 31.5891 69.1372 31.1323 67.8239 31.8825C67.3988 32.1249 67.0456 32.4772 66.8032 32.9032H66.4211V34.2832C66.4211 35.8073 67.657 37.0432 69.1811 37.0432C70.706 37.0432 71.942 35.8073 71.942 34.2832V32.9032H71.5599Z" fill="#10B3B5"/>
<path d="M71.9422 32.903C71.9422 34.427 70.7062 35.663 69.1813 35.663C67.6572 35.663 66.4213 34.427 66.4213 32.903C66.4213 31.378 67.6572 30.1421 69.1813 30.1421C70.7062 30.1421 71.9422 31.378 71.9422 32.903Z" fill="#25D3D6"/>
<path d="M67.8013 53.6069H70.5613C71.3238 53.6069 71.9422 54.2245 71.9422 54.9869V68.7896C71.9422 69.5512 71.3238 70.1696 70.5613 70.1696H67.8013C67.0388 70.1696 66.4204 69.5512 66.4204 68.7896V54.9869C66.4213 54.2245 67.0388 53.6069 67.8013 53.6069Z" fill="#25D3D6"/>
<path d="M67.8013 53.6069H70.5613C71.3238 53.6069 71.9422 54.2245 71.9422 54.9869V59.1278H66.4213V54.9869C66.4213 54.2245 67.0388 53.6069 67.8013 53.6069Z" fill="#7FDFE0"/>
<path d="M66.4213 64.6484H71.9422V68.7893C71.9422 69.5509 71.3238 70.1693 70.5613 70.1693H67.8013C67.0388 70.1693 66.4204 69.5509 66.4204 68.7893V64.6484H66.4213Z" fill="#7FDFE0"/>
<path d="M71.9422 43.945C71.9422 45.469 70.7062 46.705 69.1813 46.705C67.6572 46.705 66.4213 45.469 66.4213 43.945C66.4213 42.42 67.6572 41.1841 69.1813 41.1841C70.7062 41.1841 71.9422 42.42 71.9422 43.945Z" fill="#25D3D6"/>
<path d="M44.3368 31.5225H13.9713C10.9223 31.5225 8.45044 33.9944 8.45044 37.0434V39.8043C8.45044 36.7552 10.9223 34.2834 13.9713 34.2834H44.3368C47.3858 34.2834 49.8577 36.7552 49.8577 39.8043V37.0434C49.8577 33.9944 47.3858 31.5225 44.3368 31.5225Z" fill="#25D3D6"/>
<path d="M12.5914 21.8604H40.1959C40.1959 23.3853 38.9599 24.6212 37.4359 24.6212H15.3514C13.8273 24.6212 12.5914 23.3853 12.5914 21.8604Z" fill="#1B9698"/>
<path d="M12.5914 21.8604C12.5914 23.3853 13.8273 24.6212 15.3514 24.6212H19.4923V21.8604H12.5914Z" fill="#25D3D6"/>
<path d="M42.9568 66.0286H15.3514C14.5898 66.0286 13.9714 65.411 13.9714 64.6486C13.9714 63.8861 14.5889 63.2686 15.3514 63.2686H42.9568C43.7184 63.2686 44.3368 63.8861 44.3368 64.6486C44.3368 65.411 43.7184 66.0286 42.9568 66.0286Z" fill="#F25E57"/>
<path d="M19.4922 63.2686H38.8159C38.8159 64.0301 38.1974 64.6486 37.435 64.6486H20.8723C20.1098 64.6486 19.4922 64.0301 19.4922 63.2686Z" fill="#F25E57"/>
<path d="M37.5738 63.9584H20.7344C20.4621 63.9584 20.217 63.7958 20.1107 63.5446L17.1434 56.62C16.9958 56.2756 17.1539 55.8777 17.4983 55.7293C17.5826 55.6933 17.6739 55.6748 17.7662 55.6748H40.5543C40.9285 55.6748 41.2316 55.9779 41.2316 56.3521C41.2316 56.4443 41.2131 56.5357 41.1762 56.62L38.2036 63.5446C38.0965 63.7967 37.8479 63.961 37.5738 63.9584Z" fill="#D0D8DA"/>
<path d="M39.4808 41.5538C38.1606 40.7922 36.4722 41.2446 35.7106 42.5648C36.4722 41.2446 36.0207 39.5554 34.7004 38.7938C33.3802 38.0313 31.6909 38.4837 30.9294 39.804C30.1669 41.1242 30.6193 42.8126 31.9395 43.575L29.1786 48.3554L33.9599 51.1163L36.7208 46.335C38.0358 47.1063 39.7268 46.6653 40.498 45.3495C41.2684 44.0345 40.8274 42.3435 39.5124 41.5722C39.5019 41.5661 39.4914 41.5599 39.4808 41.5538Z" fill="#25D3D6"/>
<path d="M36.0559 53.9213C36.0559 57.7328 32.9656 60.8231 29.1541 60.8231C25.3426 60.8231 22.2523 57.7328 22.2523 53.9213C22.2523 50.1098 25.3426 47.0195 29.1541 47.0195C32.9656 47.0195 36.0559 50.1098 36.0559 53.9213Z" fill="#F25E57"/>
<path d="M35.1309 57.3717C35.4278 56.8394 35.6527 56.2693 35.8003 55.6772H22.4833C23.4558 59.3622 27.2312 61.5618 30.9162 60.5903C32.6933 60.1212 34.2103 58.9626 35.1309 57.3717Z" fill="#7FDFE0"/>
<path d="M34.675 13.5796C30.8635 13.5796 27.774 10.4893 27.774 6.67777C27.774 2.86628 30.8635 -0.223145 34.675 -0.223145C38.4864 -0.223145 41.5767 2.86628 41.5767 6.67777C41.5715 10.4875 38.4847 13.5752 34.675 13.5796ZM34.675 2.53687C32.3884 2.53687 30.5341 4.39122 30.5341 6.67777C30.5341 8.96519 32.3884 10.8187 34.675 10.8187C36.9624 10.8187 38.8159 8.96519 38.8159 6.67777C38.8159 4.39122 36.9615 2.53687 34.675 2.53687Z" fill="#25D3D6"/>
<path d="M15.3514 16.3394H37.4359C38.9599 16.3394 40.1959 17.5753 40.1959 19.1002C40.1959 20.6243 38.9599 21.8603 37.4359 21.8603H15.3514C13.8273 21.8603 12.5914 20.6243 12.5914 19.1002C12.5914 17.5753 13.8273 16.3394 15.3514 16.3394Z" fill="#25D3D6"/>
<path d="M16.7314 16.3394C18.9494 18.1718 21.749 19.1512 24.6258 19.1002H28.1615C31.0383 19.1512 33.8378 18.1718 36.0559 16.3394H16.7314Z" fill="#10B3B5"/>
<path d="M27.7741 6.67794C27.7785 10.4877 30.8652 13.5745 34.675 13.5797C35.0457 13.5727 35.4146 13.5349 35.7792 13.4673C36.5109 12.3877 37.0151 11.1702 37.2602 9.89034C36.5311 10.4877 35.6184 10.8153 34.675 10.8188C32.3884 10.832 30.5235 8.98995 30.5095 6.70254C30.4963 4.41599 32.3392 2.5511 34.6258 2.53792C35.6641 2.53177 36.6672 2.91564 37.4359 3.61399V1.15704C37.4323 0.86452 37.3814 0.573761 37.2848 0.297057C33.7693 -1.15235 29.7435 0.521934 28.2941 4.03827C27.9489 4.87541 27.7723 5.77228 27.7741 6.67794Z" fill="#10B3B5"/>
<path d="M18.1123 -0.223145H34.675C35.4375 -0.223145 36.055 0.394388 36.055 1.15686V8.05865C36.055 12.6326 32.3472 16.3396 27.7741 16.3396H25.0132C20.4392 16.3396 16.7314 12.6326 16.7314 8.05865V1.15686C16.7314 0.394388 17.3498 -0.223145 18.1123 -0.223145Z" fill="#25D3D6"/>
</g>
<defs>
<clipPath id="clip0_828_10733">
<rect width="80" height="80" fill="white"/>
</clipPath>
</defs>
</svg>
