<svg width="86" height="86" viewBox="0 0 86 86" fill="none" xmlns="http://www.w3.org/2000/svg">
<g clip-path="url(#clip0_797_9678)">
<path d="M78.5862 57.8276C77.7674 57.8276 77.1034 58.4915 77.1034 59.3104C77.1034 70.775 67.8094 80.069 56.3448 80.069C55.526 80.069 54.8621 80.7329 54.8621 81.5518C54.8621 82.3706 55.526 83.0345 56.3448 83.0345C69.4471 83.0345 80.069 72.4127 80.069 59.3104C80.069 58.4915 79.405 57.8276 78.5862 57.8276Z" fill="#1B9698"/>
<path d="M5.93103 35.5862H11.8621V59.3103H5.93103C2.65564 59.3103 0 56.6547 0 53.3793V41.5172C0 38.2418 2.65564 35.5862 5.93103 35.5862Z" fill="#CF6863"/>
<path d="M14.8276 31.1379C16.4653 31.1379 17.7931 32.4658 17.7931 34.1035V60.7931C17.7931 62.4308 16.4653 63.7586 14.8276 63.7586C13.1899 63.7586 11.8621 62.4308 11.8621 60.7931V34.1035C11.8621 32.4658 13.1899 31.1379 14.8276 31.1379Z" fill="#25D3D6"/>
<path d="M80.069 59.3103H74.1379V35.5862H80.069C83.3444 35.5862 86 38.2418 86 41.5172V53.3793C86 56.6547 83.3444 59.3103 80.069 59.3103Z" fill="#F25E57"/>
<path d="M71.1724 63.7586C69.5347 63.7586 68.2069 62.4308 68.2069 60.7931V34.1035C68.2069 32.4658 69.5347 31.1379 71.1724 31.1379C72.8101 31.1379 74.1379 32.4658 74.1379 34.1035V60.7931C74.1379 62.4308 72.8101 63.7586 71.1724 63.7586Z" fill="#25D3D6"/>
<path d="M4.44824 35.5862H10.3793C10.3793 19.2078 23.656 5.93103 40.0345 5.93103H45.9655C62.3439 5.93103 75.6207 19.2078 75.6207 35.5862H81.5517C81.5517 15.9324 65.6193 0 45.9655 0H40.0345C20.3807 0 4.44824 15.9324 4.44824 35.5862Z" fill="#1B9698"/>
<path d="M45.9655 0H43C62.6538 0 78.5862 15.9324 78.5862 35.5862H81.5517C81.5517 15.9324 65.6193 0 45.9655 0Z" fill="#25D3D6"/>
<path d="M43 0H40.0345C20.3807 0 4.44824 15.9324 4.44824 35.5862H7.41376C7.41376 15.9324 23.3462 0 43 0Z" fill="#2D72BC"/>
<path d="M48.9311 77.1034H51.8966C54.3531 77.1034 56.3449 79.0951 56.3449 81.5517C56.3449 84.0082 54.3531 85.9999 51.8966 85.9999H48.9311C46.4745 85.9999 44.4828 84.0082 44.4828 81.5517C44.4828 79.0951 46.4745 77.1034 48.9311 77.1034Z" fill="#1B9698"/>
<path d="M67.4655 45.2242C67.4655 58.7363 56.512 69.6897 42.9999 69.6897C29.4879 69.6897 18.5344 58.7363 18.5344 45.2242C18.5344 31.7121 29.4879 20.7587 42.9999 20.7587C56.512 20.7587 67.4655 31.7121 67.4655 45.2242Z" fill="#F89C8D"/>
<path d="M48.931 77.1034H53.3793C55.017 77.1034 56.3448 78.4312 56.3448 80.0689V81.5517H50.4138C48.7761 81.5517 47.4482 80.2238 47.4482 78.5862C47.4482 77.7673 48.1122 77.1034 48.931 77.1034Z" fill="#25D3D6"/>
<path d="M53.3793 60.0517C44.616 60.0626 36.5188 55.3797 32.1559 47.7799C27.7938 40.18 27.8358 30.8259 32.2645 23.2644C22.8503 27.8582 17.408 37.9392 18.7329 48.3316C20.0578 58.7232 27.8553 67.1158 38.1217 69.2002C48.3881 71.2854 58.842 66.5982 64.1149 57.546C60.7743 59.1902 57.1022 60.0474 53.3793 60.0517Z" fill="#F25E57"/>
<path d="M80.069 35.5862C83.3444 35.5862 86 38.2418 86 41.5172V53.3793C82.7246 53.3793 80.069 50.7236 80.069 47.4482V35.5862Z" fill="#F89C8D"/>
<path d="M5.93103 35.5862V47.4482C5.93103 50.7236 3.27539 53.3793 0 53.3793V41.5172C0 38.2418 2.65564 35.5862 5.93103 35.5862Z" fill="#F25E57"/>
<path d="M71.1724 31.1379C72.8101 31.1379 74.1379 32.4658 74.1379 34.1035V59.3104C72.5002 59.3104 71.1724 57.9825 71.1724 56.3448V31.1379Z" fill="#10B3B5"/>
<path d="M14.8276 31.1379C16.4653 31.1379 17.7932 32.4658 17.7932 34.1035V59.3104C16.1555 59.3104 14.8276 57.9825 14.8276 56.3448V31.1379Z" fill="#10B3B5"/>
<path d="M38.5517 32.6207H26.6897C25.8708 32.6207 25.2069 33.2846 25.2069 34.1035C25.2069 34.9223 25.8708 35.5862 26.6897 35.5862H37.069V44.4828H26.6897C25.8708 44.4828 25.2069 45.1467 25.2069 45.9656V57.8276C25.2069 58.6465 25.8708 59.3104 26.6897 59.3104H38.5517C39.3706 59.3104 40.0345 58.6465 40.0345 57.8276C40.0345 57.0088 39.3706 56.3449 38.5517 56.3449H28.1724V47.4483H38.5517C39.3706 47.4483 40.0345 46.7844 40.0345 45.9656V34.1035C40.0345 33.2846 39.3706 32.6207 38.5517 32.6207Z" fill="#1B9698"/>
<path d="M57.8276 57.8276C57.8276 58.6465 58.4916 59.3104 59.3104 59.3104C60.1293 59.3104 60.7932 58.6465 60.7932 57.8276V34.1035C60.7932 33.2846 60.1293 32.6207 59.3104 32.6207C58.4916 32.6207 57.8276 33.2846 57.8276 34.1035V44.4828H48.9311V34.1035C48.9311 33.2846 48.2672 32.6207 47.4483 32.6207C46.6295 32.6207 45.9656 33.2846 45.9656 34.1035V45.9656C45.9656 46.7844 46.6295 47.4483 47.4483 47.4483H57.8276V57.8276Z" fill="#1B9698"/>
</g>
<defs>
<clipPath id="clip0_797_9678">
<rect width="86" height="86" fill="white"/>
</clipPath>
</defs>
</svg>
