<svg width="70" height="68" viewBox="0 0 70 68" fill="none" xmlns="http://www.w3.org/2000/svg">
<path d="M67.3549 36.3236L22.2874 61.1266C19.8167 62.4863 16.7115 61.5857 15.3518 59.115L1.61808 34.1606C0.258317 31.6899 1.15892 28.5847 3.62962 27.225L48.6971 2.42203C51.1678 1.06227 54.273 1.96287 55.6327 4.43358L69.3664 29.3879C70.7262 31.8587 69.8256 34.9639 67.3549 36.3236Z" fill="#F25E57"/>
<path d="M66.3705 34.5353L21.3031 59.3382C18.8323 60.698 15.7271 59.7974 14.3674 57.3267L0.6337 32.3723C-0.726058 29.9016 0.174542 26.7964 2.64525 25.4366L47.7127 0.633699C50.1834 -0.726058 53.2886 0.174544 54.6483 2.64525L68.382 27.5996C69.7418 30.0703 68.8412 33.1755 66.3705 34.5353Z" fill="#F89C8D"/>
<path d="M47.7127 0.63389L2.64525 25.4369C0.174536 26.7966 -0.726043 29.9019 0.633684 32.3725L14.3674 57.3269C14.3674 57.3269 1.57033 32.8533 52.269 0.45647C50.8559 -0.17844 49.1744 -0.170573 47.7127 0.63389Z" fill="#F25E57"/>
<path d="M4.67037 35.4324L6.39495 38.566C6.82967 39.3559 7.82241 39.6439 8.6123 39.2091L56.1552 13.0438C56.9451 12.6091 57.233 11.6163 56.7983 10.8265L55.0737 7.69286C54.639 6.90297 53.6463 6.61505 52.8564 7.04976L5.31347 33.2151C4.52358 33.6498 4.23565 34.6426 4.67037 35.4324Z" fill="#1D2943"/>
<path d="M4.19234 34.5638L5.91692 37.6974C6.35164 38.4873 7.34438 38.7752 8.13427 38.3405L55.6772 12.1752C56.4671 11.7404 56.755 10.7477 56.3203 9.9578L54.5957 6.82421C54.161 6.03432 53.1682 5.74639 52.3784 6.18111L4.83544 32.3464C4.04555 32.7812 3.75762 33.7739 4.19234 34.5638Z" fill="#4C5C75"/>
<path d="M59.2059 67.6927L7.76408 67.6927C4.94392 67.6927 2.65773 65.4065 2.65772 62.5864L2.65771 34.1025C2.65771 31.2823 4.94391 28.9961 7.76407 28.9961L59.2059 28.9961C62.0261 28.9961 64.3122 31.2823 64.3122 34.1024L64.3123 62.5864C64.3123 65.4065 62.0261 67.6927 59.2059 67.6927Z" fill="#25B2B4"/>
<path d="M7.76407 65.6512L59.2059 65.6512C62.0261 65.6512 64.3122 63.365 64.3123 60.5449L64.3123 32.061C64.3123 29.2408 62.0261 26.9546 59.2059 26.9546L7.76408 26.9546C4.94392 26.9546 2.65773 29.2408 2.65772 32.0609L2.65771 60.5449C2.65771 63.365 4.94391 65.6512 7.76407 65.6512Z" fill="#25D3D6"/>
<path d="M7.76428 26.9546L59.2061 26.9547C62.0263 26.9547 64.3125 29.2409 64.3125 32.061L64.3125 60.545C64.3125 60.545 63.7237 32.9338 3.68701 28.996C4.61882 27.7585 6.09581 26.9546 7.76428 26.9546Z" fill="#25B2B4"/>
<path d="M60.3113 56.4864V57.2789H60.3007C60.3213 58.3506 59.4274 59.2509 58.3497 59.2509L53.1686 59.2509C52.11 59.2509 51.1966 58.3672 51.2176 57.2789H51.207V56.4864H51.3336C51.6395 55.7165 52.4727 55.1892 53.3478 55.1892L58.1703 55.1892C59.0456 55.1892 59.8788 55.7165 60.1847 56.4864H60.3113Z" fill="#E3E7F0"/>
<path d="M58.344 58.4647L53.3357 58.4648C52.3266 58.4648 51.3731 57.7796 51.2314 56.7805C51.0589 55.5639 51.9999 54.5201 53.1833 54.5201L58.1719 54.52C59.2419 54.52 60.2384 55.2965 60.3036 56.3646C60.3759 57.5502 59.4385 58.4647 58.344 58.4647Z" fill="white"/>
<path d="M45.4621 56.4864V57.2789H45.4516C45.4722 58.3506 44.5782 59.2509 43.5005 59.2509L38.3195 59.2509C37.2609 59.2509 36.3475 58.3672 36.3685 57.2789H36.3579V56.4864H36.4845C36.7903 55.7165 37.6235 55.1892 38.4987 55.1892L43.3212 55.1892C44.1965 55.1892 45.0297 55.7165 45.3356 56.4864H45.4621Z" fill="#E3E7F0"/>
<path d="M43.4954 58.4647L38.4871 58.4648C37.478 58.4648 36.5244 57.7796 36.3828 56.7805C36.2103 55.564 37.1512 54.5201 38.3346 54.5201L43.3232 54.52C44.3933 54.52 45.3898 55.2965 45.455 56.3646C45.5273 57.5502 44.5898 58.4647 43.4954 58.4647Z" fill="white"/>
<path d="M30.613 56.4864V57.2789H30.6025C30.6231 58.3506 29.7291 59.2509 28.6514 59.2509H23.4704C22.4118 59.2509 21.4984 58.3672 21.5193 57.2789H21.5088V56.4864H21.6353C21.9412 55.7165 22.7744 55.1892 23.6496 55.1892H28.4721C29.3474 55.1892 30.1806 55.7165 30.4865 56.4864H30.613Z" fill="#E3E7F0"/>
<path d="M28.6462 58.4647L23.6379 58.4648C22.6289 58.4648 21.6753 57.7796 21.5337 56.7805C21.3612 55.5639 22.3021 54.5201 23.4855 54.5201L28.4741 54.52C29.5442 54.52 30.5407 55.2965 30.6058 56.3646C30.6782 57.5502 29.7407 58.4647 28.6462 58.4647Z" fill="white"/>
<path d="M15.7634 56.4864V57.2789H15.7529C15.7735 58.3506 14.8795 59.2509 13.8018 59.2509L8.62078 59.2509C7.5622 59.2509 6.64878 58.3672 6.66974 57.2789H6.65918V56.4864H6.78573C7.09161 55.7165 7.92481 55.1892 8.79998 55.1892L13.6225 55.1892C14.4978 55.1892 15.331 55.7165 15.6369 56.4864H15.7634Z" fill="#E3E7F0"/>
<path d="M13.7966 58.4647L8.78833 58.4648C7.77926 58.4648 6.82569 57.7796 6.68404 56.7805C6.51155 55.564 7.45249 54.5201 8.63589 54.5201L13.6245 54.52C14.6946 54.52 15.6911 55.2965 15.7562 56.3646C15.8286 57.5502 14.8911 58.4647 13.7966 58.4647Z" fill="white"/>
<path d="M6.66309 35.9526L6.66309 40.7175C6.66309 41.9185 7.63676 42.8922 8.83784 42.8922L17.7599 42.8922C18.961 42.8922 19.9347 41.9185 19.9347 40.7174L19.9347 35.9526C19.9347 34.7515 18.961 33.7778 17.7599 33.7778L8.83784 33.7779C7.63676 33.7779 6.66309 34.7515 6.66309 35.9526Z" fill="#F25E57"/>
<path d="M6.66309 35.2104L6.66309 39.9753C6.66309 41.1764 7.63676 42.15 8.83784 42.15L17.7599 42.15C18.961 42.15 19.9347 41.1763 19.9347 39.9752V35.2104C19.9347 34.0093 18.961 33.0356 17.7599 33.0356L8.83784 33.0357C7.63676 33.0357 6.66308 34.0093 6.66309 35.2104Z" fill="#F89C8D"/>
<path d="M13.0677 37.0787V33.0356H12.0348V37.0787H6.66309V38.1117H9.60193V42.15H10.6349V38.1117H15.2861V42.15H16.319V38.1117H19.9347V37.0787H13.0677Z" fill="#F25E57"/>
<path d="M59.3689 40.6456L53.5531 40.6456C53.0685 40.6456 52.6106 40.3166 52.5425 39.8368C52.4597 39.2526 52.9116 38.7513 53.4799 38.7513L59.2862 38.7512C59.8001 38.7512 60.2787 39.1241 60.31 39.637C60.3447 40.2064 59.8945 40.6456 59.3689 40.6456Z" fill="white"/>
<path d="M59.3686 36.5907L49.1581 36.5907C48.6735 36.5907 48.2155 36.2617 48.1475 35.7819C48.0647 35.1976 48.5166 34.6963 49.0849 34.6963L59.286 34.6963C59.7999 34.6963 60.2784 35.0692 60.3097 35.5821C60.3444 36.1515 59.8942 36.5907 59.3686 36.5907Z" fill="white"/>
<path d="M57.8164 14.5093C60.2473 17.6287 62.2342 21.0188 63.7565 24.6693C61.3219 21.5523 59.3424 18.1578 57.8164 14.5093Z" fill="white"/>
<path d="M12.5171 24.667C16.0596 21.9563 19.8747 19.6883 23.9542 17.8831C20.4138 20.5974 16.5943 22.8579 12.5171 24.667Z" fill="white"/>
<path d="M41.7725 63.0878C46.202 62.5638 50.6401 62.5593 55.0696 63.0878C50.6401 63.6162 46.202 63.6119 41.7725 63.0878Z" fill="white"/>
</svg>
