<svg width="70" height="70" viewBox="0 0 70 70" fill="none" xmlns="http://www.w3.org/2000/svg">
<g opacity="0.8" clip-path="url(#clip0_1044_5802)">
<path d="M61.1007 23.9634H6.24076C4.88643 23.9634 3.78857 25.0612 3.78857 26.4156V33.0027H63.553V26.4156C63.5529 25.0614 62.455 23.9634 61.1007 23.9634Z" fill="#25D3D6"/>
<path d="M41.1837 10.3451L36.2157 60.6392C36.0908 61.9026 34.9655 62.8256 33.7021 62.7007L8.52943 60.2141C7.26601 60.0893 6.34303 58.964 6.46785 57.7005L11.4359 7.40663C11.5608 6.14321 12.6861 5.22022 13.9495 5.34505L39.1222 7.83169C40.3854 7.95638 41.3084 9.08171 41.1837 10.3451Z" fill="#F89C8D"/>
<path d="M39.1222 7.83144L13.9495 5.3448C12.6861 5.21998 11.5608 6.14297 11.4359 7.40638L10.9902 11.9187C11.3679 11.7268 11.8019 11.6351 12.2546 11.6798L37.4273 14.1664C38.6907 14.2913 39.6137 15.4166 39.4888 16.68L34.9665 62.4619C35.6425 62.1185 36.1355 61.4498 36.2155 60.6392L41.1836 10.3452C41.3086 9.0816 40.3855 7.95627 39.1222 7.83144Z" fill="#F89C8D"/>
<path d="M14.1042 14.5381L10.4799 51.2289C10.4281 51.754 10.6753 52.2659 11.1232 52.5451C12.3574 53.3145 13.313 54.4689 13.8382 55.8242C14.027 56.3113 14.4779 56.6472 14.9977 56.6986L28.0471 57.9876C28.5669 58.039 29.0749 57.7977 29.3552 57.3569C30.1353 56.1307 31.2984 55.1855 32.6593 54.6724C33.1531 54.4862 33.4957 54.0327 33.5475 53.5076L37.1718 16.8168C37.2236 16.2917 36.9764 15.7798 36.5286 15.5006C35.2944 14.7312 34.3387 13.5768 33.8136 12.2215C33.6248 11.7345 33.1739 11.3985 32.6541 11.3471L19.6047 10.0581C19.0849 10.0067 18.5768 10.248 18.2966 10.6888C17.5164 11.915 16.3534 12.8602 14.9925 13.3733C14.4988 13.5595 14.1562 14.013 14.1042 14.5381Z" fill="#F25E57"/>
<path d="M36.5287 15.5006C35.2946 14.7312 34.3389 13.5768 33.8138 12.2215C33.625 11.7344 33.1741 11.3985 32.6543 11.3471L19.6049 10.0581C19.0851 10.0067 18.577 10.248 18.2966 10.6888C17.5165 11.915 16.3534 12.8602 14.9925 13.3733C14.4987 13.5595 14.1561 14.013 14.1043 14.5381L13.9663 15.9348L30.8747 17.5529C31.3945 17.6043 31.8456 17.9402 32.0342 18.4273C32.5594 19.7825 33.515 20.937 34.7492 21.7064C35.1971 21.9856 35.4443 22.4975 35.3925 23.0226L32.249 54.8444C32.3838 54.7832 32.5203 54.7251 32.6593 54.6726C33.1531 54.4864 33.4958 54.0329 33.5476 53.5077L37.1719 16.8169C37.2238 16.2917 36.9765 15.7798 36.5287 15.5006Z" fill="#F25E57"/>
<path d="M62.5278 17.8382L34.0672 59.6014C33.3523 60.6505 31.9222 60.9214 30.8732 60.2065L9.97026 45.9617C8.92122 45.2468 8.65024 43.8167 9.36514 42.7676L37.8259 1.00444C38.5408 -0.044601 39.9709 -0.315578 41.0199 0.399325L61.9228 14.6442C62.9719 15.3591 63.2427 16.789 62.5278 17.8382Z" fill="#F89C8D"/>
<path d="M61.9229 14.6442L41.0199 0.399361C39.9709 -0.315541 38.5408 -0.0447013 37.8259 1.00448L35.3915 4.5768C35.6027 4.64284 35.8081 4.74018 36.0006 4.87129L56.9035 19.1162C57.9525 19.8311 58.2235 21.2611 57.5086 22.3102L31.4824 60.5012C32.423 60.7954 33.4836 60.4583 34.0674 59.6016L62.528 17.8382C63.2427 16.7891 62.9719 15.3591 61.9229 14.6442Z" fill="#F89C8D"/>
<path d="M36.7502 8.54236L15.9874 39.0097C15.6902 39.4459 15.662 40.0135 15.9212 40.4732C16.6358 41.7399 16.9215 43.211 16.7329 44.6522C16.6652 45.1701 16.9 45.6812 17.3316 45.9753L28.1677 53.3597C28.5993 53.6539 29.1608 53.6855 29.6181 53.433C30.8906 52.7305 32.3641 52.4583 33.8044 52.66C34.3271 52.7331 34.8451 52.4994 35.1424 52.0632L55.9052 21.596C56.2024 21.1599 56.2306 20.5922 55.9712 20.1326C55.2566 18.8659 54.971 17.3948 55.1595 15.9536C55.2272 15.4357 54.9924 14.9247 54.5608 14.6306L43.7248 7.24599C43.2931 6.95177 42.7316 6.92019 42.2743 7.17271C41.0019 7.87517 39.5283 8.14738 38.088 7.94572C37.5654 7.8723 37.0473 8.10623 36.7502 8.54236Z" fill="#F25E57"/>
<path d="M55.9712 20.1328C55.2566 18.8661 54.9711 17.395 55.1595 15.9538C55.2272 15.4359 54.9924 14.9249 54.5608 14.6306L43.7247 7.24619C43.2931 6.95211 42.7316 6.92039 42.2743 7.17291C41.002 7.87537 39.5283 8.14758 38.088 7.94578C37.5653 7.87264 37.0473 8.10642 36.75 8.54256L35.8847 9.81226L49.4273 18.941C49.8589 19.2352 50.0938 19.7461 50.026 20.264C49.8376 21.7052 50.1232 23.1762 50.8377 24.4429C51.0969 24.9026 51.0687 25.4704 50.7715 25.9064L32.5786 52.6033C32.9864 52.5854 33.3967 52.6032 33.8046 52.6603C34.3272 52.7336 34.8453 52.4997 35.1425 52.0636L55.9052 21.5962C56.2024 21.1601 56.2305 20.5924 55.9712 20.1328Z" fill="#F25E57"/>
<path d="M39.1261 34.9167C43.2329 34.9167 46.5622 31.5874 46.5622 27.4806C46.5622 23.3737 43.2329 20.0444 39.1261 20.0444C35.0192 20.0444 31.6899 23.3737 31.6899 27.4806C31.6899 31.5874 35.0192 34.9167 39.1261 34.9167Z" fill="#F89C8D"/>
<path d="M61.95 70.0001H4.66311C2.70994 70.0001 1.12646 68.4167 1.12646 66.4634V31.4644C1.12646 29.5112 2.7098 27.9277 4.66311 27.9277H61.95C63.9032 27.9277 65.4867 29.5111 65.4867 31.4644V66.4634C65.4867 68.4167 63.9033 70.0001 61.95 70.0001Z" fill="#25D3D6"/>
<path d="M61.9501 27.9277H55.5161C57.4693 27.9277 59.0528 29.5112 59.0528 31.4644V66.4634C59.0528 68.4166 57.4693 70.0001 55.5161 70.0001H61.9501C63.9033 70.0001 65.4867 68.4167 65.4867 66.4634V31.4644C65.4867 29.5112 63.9033 27.9277 61.9501 27.9277Z" fill="#7FDFE0"/>
<path d="M67.592 42.2034H54.6983C50.9647 42.2034 47.938 45.2301 47.938 48.9637C47.938 52.6974 50.9647 55.724 54.6983 55.724H67.592C68.2996 55.724 68.8733 55.1504 68.8733 54.4427V43.4847C68.8733 42.7772 68.2996 42.2034 67.592 42.2034Z" fill="#25D3D6"/>
<path d="M67.5921 42.2034H61.1353C61.843 42.2034 62.4166 42.777 62.4166 43.4847V52.7147C62.4166 53.4694 61.8048 54.0812 61.0501 54.0812H54.6983C51.2429 54.0812 48.3949 51.4882 47.9894 48.1422C47.9567 48.4116 47.938 48.6853 47.938 48.9636C47.938 52.6972 50.9647 55.7239 54.6983 55.7239H61.1352H67.592C68.2996 55.7239 68.8733 55.1502 68.8733 54.4426V52.7999V43.4847C68.8735 42.7772 68.2998 42.2034 67.5921 42.2034Z" fill="#25B2B4"/>
<path d="M61.95 27.9277H4.66311C2.70994 27.9277 1.12646 29.5112 1.12646 31.4644V35.3401H65.4867V31.4644C65.4867 29.5112 63.9033 27.9277 61.95 27.9277Z" fill="#25D3D6"/>
<path d="M64.8829 29.4869C64.7558 29.2988 64.611 29.1235 64.451 28.9635C64.4491 28.9616 64.4472 28.96 64.4453 28.9581C64.2868 28.8003 64.1136 28.6573 63.9275 28.5316C63.8805 28.4999 63.8327 28.4692 63.784 28.4396C63.7117 28.3958 63.6372 28.3551 63.5615 28.3163C63.5126 28.2912 63.463 28.2672 63.4127 28.2443C62.9668 28.0414 62.4719 27.9275 61.9502 27.9275H55.5166C57.4696 27.9276 59.0528 29.511 59.0528 31.4641V35.3397H65.4868V31.4641C65.4868 30.8537 65.3322 30.2795 65.06 29.7784C65.0057 29.6783 64.9465 29.581 64.8829 29.4869Z" fill="#25B2B4"/>
<path d="M4.66311 70H61.95C63.9032 70 65.4867 68.4165 65.4867 66.4633V62.5876H1.12646V66.4633C1.12646 68.4165 2.7098 70 4.66311 70Z" fill="#25D3D6"/>
<path d="M59.0527 62.5876V66.4633C59.0527 66.4654 59.0527 66.4675 59.0527 66.4694C59.0521 66.796 58.7787 67.0567 58.4521 67.0567H4.66311C2.70994 67.0567 1.12646 65.4732 1.12646 63.5201V66.4632C1.12646 68.4167 2.7098 70 4.66311 70H55.5162H61.9502C62.02 70 62.0892 69.9974 62.158 69.9934C62.1795 69.9922 62.2008 69.9901 62.2221 69.9885C62.2701 69.9848 62.3178 69.9804 62.3653 69.9748C62.3888 69.9721 62.4123 69.9691 62.4358 69.9659C62.483 69.9595 62.5297 69.9519 62.5762 69.9437C62.5969 69.94 62.6176 69.9367 62.6381 69.9326C62.7039 69.9196 62.7693 69.9054 62.8337 69.8887H62.8339C62.8622 69.8815 62.8898 69.8728 62.9179 69.8649C63.0577 69.8251 63.1945 69.7781 63.3268 69.7222C63.3797 69.6998 63.4319 69.6762 63.4835 69.6514C63.535 69.6265 63.5859 69.6005 63.6359 69.5733L63.6361 69.5732C63.7361 69.5187 63.8333 69.4597 63.9274 69.3962L63.9275 69.3961L63.9277 69.396C64.0078 69.3418 64.0849 69.284 64.16 69.2237C64.1635 69.2208 64.1672 69.2181 64.1706 69.2152C64.2468 69.1537 64.3201 69.0889 64.3909 69.0214C64.4741 68.9418 64.5536 68.8584 64.6288 68.7712V68.771C64.7463 68.6346 64.8539 68.4892 64.9499 68.3359C64.9525 68.3317 64.9553 68.3276 64.9579 68.3235C64.9931 68.2665 65.0273 68.2088 65.0594 68.1498C65.0594 68.1498 65.0596 68.1495 65.0597 68.1492V68.1491C65.1452 67.9917 65.2187 67.8268 65.2798 67.6561C65.2868 67.6367 65.2931 67.6168 65.2998 67.5973C65.3146 67.5537 65.3286 67.5097 65.3418 67.4654C65.3483 67.4428 65.3548 67.4202 65.361 67.3975C65.3732 67.353 65.3844 67.308 65.3948 67.2626C65.3996 67.242 65.4048 67.2213 65.4092 67.2005C65.423 67.1353 65.4355 67.0696 65.4457 67.0031C65.4457 67.0027 65.4458 67.0024 65.4458 67.002V67.0015C65.4577 66.9238 65.466 66.8449 65.4727 66.7656C65.4744 66.7455 65.4759 66.7254 65.4774 66.7053C65.4828 66.6254 65.4865 66.5448 65.4865 66.4633V63.5202V62.5878L59.0527 62.5876Z" fill="#25B2B4"/>
<path d="M54.9392 52.1033C56.6728 52.1033 58.0781 50.6979 58.0781 48.9644C58.0781 47.2308 56.6728 45.8254 54.9392 45.8254C53.2056 45.8254 51.8003 47.2308 51.8003 48.9644C51.8003 50.6979 53.2056 52.1033 54.9392 52.1033Z" fill="#F25E57"/>
</g>
<defs>
<clipPath id="clip0_1044_5802">
<rect width="70" height="70" fill="white"/>
</clipPath>
</defs>
</svg>
