<svg width="67" height="80" viewBox="0 0 67 80" fill="none" xmlns="http://www.w3.org/2000/svg">
<path d="M64.8274 0H15.1723C14.4105 0 13.793 0.617538 13.793 1.37931V73.1034C13.793 73.8652 14.4105 74.4828 15.1723 74.4828H64.8274C65.5892 74.4828 66.2068 73.8652 66.2068 73.1034V1.37931C66.2068 0.617538 65.5892 0 64.8274 0Z" fill="#10B3B5"/>
<path d="M64.8276 0H17.9311C17.1693 0 16.5518 0.617538 16.5518 1.37931V73.1034C16.5518 73.8652 17.1693 74.4828 17.9311 74.4828H64.8276C65.5894 74.4828 66.2069 73.8652 66.2069 73.1034V1.37931C66.2069 0.617538 65.5894 0 64.8276 0Z" fill="#25D3D6"/>
<path d="M16.5518 74.4827H24.8276V79.9999H16.5518V74.4827Z" fill="#94A4A5"/>
<path d="M55.1724 74.4827H63.4482V79.9999H55.1724V74.4827Z" fill="#94A4A5"/>
<path d="M57.9312 5.51733H22.0692C20.5456 5.51733 19.3105 6.75241 19.3105 8.27595V66.207C19.3105 67.7305 20.5456 68.9656 22.0692 68.9656H57.9312C59.4548 68.9656 60.6899 67.7305 60.6899 66.207V8.27595C60.6899 6.75241 59.4548 5.51733 57.9312 5.51733Z" fill="#DBDBDB"/>
<path d="M57.931 5.51733H26.2069C24.6833 5.51733 23.4482 6.75241 23.4482 8.27595V66.207C23.4482 67.7305 24.6833 68.9656 26.2069 68.9656H57.931C59.4545 68.9656 60.6896 67.7305 60.6896 66.207V8.27595C60.6896 6.75241 59.4545 5.51733 57.931 5.51733Z" fill="#EFEFEF"/>
<path d="M11.0343 0H8.27571C6.75217 0 5.51709 1.23508 5.51709 2.75862V71.7241C5.51709 73.2477 6.75217 74.4828 8.27571 74.4828H11.0343C12.5579 74.4828 13.793 73.2477 13.793 71.7241V2.75862C13.793 1.23508 12.5579 0 11.0343 0Z" fill="#25D3D6"/>
<path d="M11.0343 2.75862V71.7241C11.0343 72.4558 10.7437 73.1574 10.2263 73.6748C9.70901 74.1921 9.00734 74.4828 8.27571 74.4828C7.54408 74.4828 6.84241 74.1921 6.32507 73.6748C5.80773 73.1574 5.51709 72.4558 5.51709 71.7241V2.75862C5.51709 2.02699 5.80773 1.32532 6.32507 0.807981C6.84241 0.290639 7.54408 0 8.27571 0C9.00734 0 9.70901 0.290639 10.2263 0.807981C10.7437 1.32532 11.0343 2.02699 11.0343 2.75862Z" fill="#10B3B5"/>
<path d="M5.51724 16.5518V38.6207L4.13793 38.0138L0 36.1656V19.0069L4.13793 17.1724L5.51724 16.5518Z" fill="#10B3B5"/>
<path d="M19.3105 23.4482H60.6899V26.2069H19.3105V23.4482Z" fill="#B7B7B7"/>
<path d="M35.8623 11.0344H44.1382V13.793H35.8623V11.0344Z" fill="#B7B7B7"/>
<path d="M31.7241 55.1724H48.2758V60.6896H31.7241V55.1724Z" fill="#94A4A5"/>
<path d="M55.1723 38.6206V49.6551H46.8965V38.6206L48.2758 35.862V30.3447H53.793V35.862L55.1723 38.6206Z" fill="#7FDFE0"/>
<path d="M33.1035 45.5172C33.1076 46.3724 32.8438 47.2075 32.349 47.9051C31.8542 48.6027 31.1534 49.1279 30.3449 49.4068C29.9043 49.5738 29.4367 49.658 28.9656 49.6551C27.8681 49.6551 26.8156 49.2191 26.0396 48.4431C25.2636 47.6671 24.8276 46.6146 24.8276 45.5172C24.8276 44.4197 25.2636 43.3672 26.0396 42.5912C26.8156 41.8152 27.8681 41.3792 28.9656 41.3792C29.4367 41.3763 29.9043 41.4605 30.3449 41.6275C31.1534 41.9064 31.8542 42.4316 32.349 43.1292C32.8438 43.8268 33.1076 44.6619 33.1035 45.5172Z" fill="#F25E57"/>
<path d="M37.2414 49.6553C39.5268 49.6553 41.3794 47.8026 41.3794 45.5173C41.3794 43.232 39.5268 41.3794 37.2414 41.3794C34.9561 41.3794 33.1035 43.232 33.1035 45.5173C33.1035 47.8026 34.9561 49.6553 37.2414 49.6553Z" fill="#F25E57"/>
<path d="M55.1723 38.6208V49.6552H46.8965V38.6208L47.5861 37.2415H54.4827L55.1723 38.6208Z" fill="#25D3D6"/>
<path d="M30.345 49.407C31.8686 49.407 33.1037 47.6655 33.1037 45.5173C33.1037 43.3691 31.8686 41.6277 30.345 41.6277C28.8215 41.6277 27.5864 43.3691 27.5864 45.5173C27.5864 47.6655 28.8215 49.407 30.345 49.407Z" fill="#F89C8D"/>
<path d="M38.6209 49.407C40.1445 49.407 41.3795 47.6655 41.3795 45.5173C41.3795 43.3691 40.1445 41.6277 38.6209 41.6277C37.0974 41.6277 35.8623 43.3691 35.8623 45.5173C35.8623 47.6655 37.0974 49.407 38.6209 49.407Z" fill="#F89C8D"/>
<path d="M19.3105 48.2759H60.6899V51.0345H19.3105V48.2759Z" fill="#B7B7B7"/>
<path d="M5.51701 16.5518V38.6207L4.1377 38.0138V17.1724L5.51701 16.5518Z" fill="#25D3D6"/>
<path d="M16.5518 74.4827H24.8276V75.862H16.5518V74.4827Z" fill="#8D9999"/>
<path d="M55.1724 74.4824H63.4482V75.8617H55.1724V74.4824Z" fill="#8D9999"/>
</svg>
