<svg width="38" height="38" viewBox="0 0 38 38" fill="none" xmlns="http://www.w3.org/2000/svg">
<path d="M26.4067 9.66102C26.3397 9.66102 26.2708 9.65007 26.2032 9.62753L24.8918 9.1902C24.0501 8.90939 23.3757 8.31427 22.9938 7.51305C22.6112 6.71183 22.5726 5.81271 22.8843 4.98186C23.0775 4.46597 23.0479 3.91142 22.7999 3.41936C22.552 2.92729 22.1243 2.5737 21.5942 2.42234L19.7889 1.90644C19.4469 1.80854 19.2492 1.45237 19.3464 1.11037C19.4443 0.769017 19.8005 0.573865 20.1425 0.667254L21.9478 1.18315C22.8141 1.43112 23.5438 2.03461 23.9496 2.83905C24.3547 3.64414 24.4062 4.58963 24.09 5.43336C23.9019 5.93315 23.9257 6.47481 24.1557 6.95722C24.3856 7.43963 24.792 7.79837 25.2989 7.96712L26.6102 8.40444C26.9477 8.51651 27.13 8.88105 27.0173 9.21919C26.9278 9.49034 26.6766 9.66102 26.4067 9.66102Z" fill="#10B3B5"/>
<path d="M7.72864 38C5.95294 38 4.5083 36.5554 4.5083 34.7797V32.8475C4.5083 32.4913 4.79684 32.2034 5.15237 32.2034C5.50789 32.2034 5.79644 32.4913 5.79644 32.8475V34.7797C5.79644 35.8449 6.66335 36.7119 7.72864 36.7119C8.79393 36.7119 9.66084 35.8449 9.66084 34.7797V3.86441C9.66084 2.08871 11.1055 0.644068 12.8812 0.644068H14.1693C14.5248 0.644068 14.8134 0.931966 14.8134 1.28814C14.8134 1.6443 14.5248 1.9322 14.1693 1.9322H12.8812C11.8159 1.9322 10.949 2.79912 10.949 3.86441V34.7797C10.949 36.5554 9.50433 38 7.72864 38Z" fill="#10B3B5"/>
<path d="M34.7795 10.6735V9.66102H27.0507V10.6548C27.0507 11.2016 26.645 11.6647 26.102 11.7317C26.0891 11.7336 26.0756 11.7349 26.0627 11.7368C24.144 11.9829 22.2035 11.9726 20.2835 11.7336C20.1592 11.7182 20.0355 11.7059 19.9106 11.6956C19.5776 11.6673 19.3219 11.3891 19.3219 11.0548V9.66102H15.4575V11.0168C15.4575 11.3298 15.2295 11.5842 14.9236 11.6486C13.7565 11.8946 12.8812 12.9297 12.8812 14.1695V31.5593C12.8812 32.6265 13.7462 33.4915 14.8134 33.4915H35.4236C36.4908 33.4915 37.3558 32.6265 37.3558 31.5593V14.1695C37.3558 13.0192 36.6016 12.0447 35.5608 11.7137C35.1016 11.5675 34.7795 11.1559 34.7795 10.6735ZM27.0507 17.3898H20.61V14.8136C23.1689 14.3872 24.4918 14.3872 27.0507 14.8136V17.3898Z" fill="#25D3D6"/>
<path d="M23.1863 27.0508C19.6291 27.0508 16.7456 24.1674 16.7456 20.6102V14.8136C16.7456 13.7463 17.6106 12.8814 18.6778 12.8814H37.0041C36.686 12.3333 36.1759 11.9095 35.5614 11.7137C35.1016 11.5675 34.7795 11.1559 34.7795 10.6735V9.66102H27.0507V10.6548C27.0507 11.2016 26.645 11.6647 26.102 11.7317C26.0885 11.7336 26.0756 11.7349 26.0627 11.7368C24.144 11.9829 22.2035 11.9726 20.2835 11.7336C20.1592 11.7182 20.0355 11.7059 19.9106 11.6956C19.5776 11.6673 19.3219 11.3891 19.3219 11.0548V9.66102H15.4575V11.0168C15.4575 11.3298 15.2295 11.5842 14.9236 11.6486C13.7565 11.8946 12.8812 12.9297 12.8812 14.1695V31.5593C12.8812 32.6265 13.7462 33.4915 14.8134 33.4915H35.4236C36.4908 33.4915 37.3558 32.6265 37.3558 31.5593V27.0508H23.1863Z" fill="#10B3B5"/>
<path d="M12.8812 35.4237V37.3559H18.0338L19.3219 36.0678H30.9151L32.2033 37.3559H37.3558V35.4237C37.3558 34.3565 36.4908 33.4915 35.4236 33.4915H14.8134C13.7462 33.4915 12.8812 34.3565 12.8812 35.4237Z" fill="#93999A"/>
<path d="M20.61 9.66102H14.1693V8.37288C14.1693 7.66119 14.7458 7.08475 15.4574 7.08475H19.3219C20.0335 7.08475 20.61 7.66119 20.61 8.37288V9.66102Z" fill="#D0D8DA"/>
<path d="M36.0677 9.66102H25.7626V8.37288C25.7626 7.66119 26.339 7.08475 27.0507 7.08475H34.7795C35.4912 7.08475 36.0677 7.66119 36.0677 8.37288V9.66102Z" fill="#D0D8DA"/>
<path d="M15.4575 2.57627H19.3219V7.08475H15.4575V2.57627Z" fill="#93999A"/>
<path d="M19.3219 2.57627H15.4574C14.7458 2.57627 14.1693 1.99983 14.1693 1.28814C14.1693 0.576441 14.7458 0 15.4574 0H19.3219C20.0335 0 20.61 0.576441 20.61 1.28814C20.61 1.99983 20.0335 2.57627 19.3219 2.57627Z" fill="#D0D8DA"/>
<path d="M16.7457 30.2712C16.034 30.2712 15.4575 29.6947 15.4575 28.9831V16.1017C15.4575 15.39 16.034 14.8136 16.7457 14.8136C17.4574 14.8136 18.0338 15.39 18.0338 16.1017V28.9831C18.0338 29.6947 17.4574 30.2712 16.7457 30.2712Z" fill="#D0D8DA"/>
<path d="M18.0338 24.4681V28.9831C18.0338 29.6915 17.4541 30.2712 16.7457 30.2712C16.0372 30.2712 15.4575 29.6915 15.4575 28.9831V16.1017C15.4575 15.3932 16.0372 14.8136 16.7457 14.8136V20.6102C16.7457 22.0593 17.2223 23.3925 18.0338 24.4681Z" fill="#93999A"/>
<path d="M16.7457 30.2712C16.034 30.2712 15.4575 29.6947 15.4575 28.9831V19.322H18.0338V28.9831C18.0338 29.6947 17.4574 30.2712 16.7457 30.2712Z" fill="#F25E57"/>
<path d="M18.0338 24.4681V28.9831C18.0338 29.6915 17.4541 30.2712 16.7457 30.2712C16.0372 30.2712 15.4575 29.6915 15.4575 28.9831V19.322H16.7457V20.6102C16.7457 22.0593 17.2223 23.3925 18.0338 24.4681Z" fill="#F25E57"/>
<path d="M14.1694 36.0678C14.1694 35.3561 14.7458 34.7797 15.4575 34.7797H37.2373C36.9713 34.0306 36.2635 33.4915 35.4236 33.4915H14.8134C13.7462 33.4915 12.8812 34.3565 12.8812 35.4237V37.3559H14.1694V36.0678Z" fill="#B8BEBF"/>
<path d="M36.0677 8.37288V9.66102H25.7626V8.37288C25.7626 7.66441 26.3422 7.08475 27.0507 7.08475H27.1666C27.4243 7.8383 28.1392 8.37288 28.9829 8.37288H36.0677Z" fill="#93999A"/>
<path d="M20.61 8.37288V9.66102H14.1693V8.37288C14.1693 7.66441 14.749 7.08475 15.4574 7.08475H15.5734C15.831 7.8383 16.5459 8.37288 17.3897 8.37288H20.61Z" fill="#93999A"/>
<path d="M15.4574 0C14.7458 0 14.1693 0.576441 14.1693 1.28814C14.1693 1.99983 14.7458 2.57627 15.4574 2.57627H19.3219C20.0335 2.57627 20.61 1.99983 20.61 1.28814H16.7456C16.0339 1.28814 15.4574 0.711695 15.4574 0Z" fill="#93999A"/>
<path d="M18.0338 5.79661C17.3221 5.79661 16.7457 5.22017 16.7457 4.50847V3.86441C16.7457 3.50888 17.0342 3.22034 17.3897 3.22034H19.3219V2.57627H15.4575V7.08475H19.3219V5.79661H18.0338Z" fill="#B8BEBF"/>
<path d="M15.4575 26.4068H16.1016C16.4571 26.4068 16.7457 26.6947 16.7457 27.0508C16.7457 27.407 16.4571 27.6949 16.1016 27.6949H15.4575V26.4068Z" fill="#93999A"/>
<path d="M15.4575 23.8305H16.1016C16.4571 23.8305 16.7457 24.1184 16.7457 24.4746C16.7457 24.8307 16.4571 25.1186 16.1016 25.1186H15.4575V23.8305Z" fill="#93999A"/>
<path d="M15.4575 21.2542H16.1016C16.4571 21.2542 16.7457 21.5421 16.7457 21.8983C16.7457 22.2545 16.4571 22.5424 16.1016 22.5424H15.4575V21.2542Z" fill="#93999A"/>
<path d="M30.9152 30.9153H24.4745C22.6962 30.9153 21.2542 29.4732 21.2542 27.6949V23.1864C21.2542 21.4082 22.6962 19.9661 24.4745 19.9661H30.9152C32.6934 19.9661 34.1355 21.4082 34.1355 23.1864V27.6949C34.1355 29.4732 32.6934 30.9153 30.9152 30.9153Z" fill="#F89C8D"/>
<path d="M34.1356 27.0508V27.6949C34.1356 29.4725 32.6929 30.9153 30.9153 30.9153H24.4746C22.697 30.9153 21.2543 29.4725 21.2543 27.6949V26.7546C21.8661 26.9478 22.5102 27.0508 23.1865 27.0508H34.1356Z" fill="#F25E57"/>
<path d="M28.3382 24.4746C28.2158 24.4746 28.0915 24.4392 27.9814 24.3664C27.6857 24.1686 27.6059 23.7693 27.8029 23.4731L28.2924 22.7388C28.9281 21.7862 30.1796 21.4539 31.2036 21.9659C31.5218 22.125 31.6506 22.5121 31.4915 22.8303C31.3324 23.1484 30.946 23.2773 30.6272 23.1182C30.1828 22.896 29.6398 23.0402 29.3642 23.4537L28.8747 24.188C28.7504 24.3741 28.5462 24.4746 28.3382 24.4746Z" fill="#F9DBAF"/>
<path d="M30.9158 26.4068C30.6794 26.4068 30.4521 26.2767 30.3387 26.0506C30.132 25.6358 29.636 25.4574 29.2123 25.6442L28.677 25.8806C28.3511 26.0229 27.9711 25.8767 27.8282 25.5515C27.6845 25.2256 27.8314 24.8456 28.1573 24.7019L28.6931 24.4656C29.7455 24.0012 30.9764 24.4437 31.4916 25.4742C31.6507 25.7923 31.5219 26.1794 31.2037 26.3385C31.111 26.3849 31.0124 26.4068 30.9158 26.4068Z" fill="#F9DBAF"/>
<path d="M30.9158 28.9831C30.6794 28.9831 30.4521 28.8529 30.3387 28.6269C30.0515 28.0524 29.4737 27.6949 28.831 27.6949H28.3389C27.9834 27.6949 27.6948 27.407 27.6948 27.0508C27.6948 26.6947 27.9834 26.4068 28.3389 26.4068H28.831C29.9645 26.4068 30.9841 27.0373 31.491 28.0511C31.65 28.3693 31.5212 28.7563 31.2031 28.9154C31.111 28.9612 31.0124 28.9831 30.9158 28.9831Z" fill="#F9DBAF"/>
<path d="M27.0515 24.4746C26.8434 24.4746 26.6393 24.3741 26.515 24.188L26.0255 23.4537C25.7498 23.0402 25.2069 22.8966 24.7625 23.1182C24.4437 23.2773 24.0572 23.1484 23.8981 22.8303C23.739 22.5121 23.8679 22.125 24.186 21.9659C25.2101 21.4533 26.4609 21.7869 27.0972 22.7388L27.5867 23.4731C27.7838 23.7693 27.7039 24.1686 27.4083 24.3664C27.2982 24.4392 27.1739 24.4746 27.0515 24.4746Z" fill="#F9DBAF"/>
<path d="M24.4738 26.4068C24.3772 26.4068 24.2786 26.3849 24.1865 26.3392C23.8683 26.1801 23.7395 25.793 23.8986 25.4748C24.4139 24.4443 25.6434 24.0025 26.6964 24.4662L27.2323 24.7026C27.5576 24.8468 27.7051 25.2262 27.5614 25.5521C27.4178 25.8767 27.0384 26.0242 26.7125 25.8812L26.1767 25.6448C25.7529 25.4587 25.2582 25.6365 25.0509 26.0513C24.9375 26.2767 24.7101 26.4068 24.4738 26.4068Z" fill="#F9DBAF"/>
<path d="M24.4738 28.9831C24.3772 28.9831 24.2786 28.9612 24.1865 28.9154C23.8683 28.7563 23.7395 28.3693 23.8986 28.0511C24.4061 27.0373 25.4251 26.4068 26.5586 26.4068H27.0507C27.4062 26.4068 27.6948 26.6947 27.6948 27.0508C27.6948 27.407 27.4062 27.6949 27.0507 27.6949H26.5586C25.9158 27.6949 25.3381 28.0524 25.0509 28.6269C24.9375 28.8529 24.7101 28.9831 24.4738 28.9831Z" fill="#F9DBAF"/>
<path d="M31.2051 28.9122C31.1085 28.9637 31.0119 28.983 30.9153 28.983C30.677 28.983 30.4516 28.8542 30.3421 28.6288C30.0522 28.0492 29.4726 27.6949 28.8285 27.6949H28.339C27.9848 27.6949 27.6949 27.4051 27.6949 27.0508H30.6705C31.0119 27.3085 31.2888 27.6434 31.4885 28.0492C31.6495 28.3712 31.5207 28.7576 31.2051 28.9122Z" fill="#EDB88E"/>
<path d="M27.6949 27.0508C27.6949 27.4051 27.4051 27.6949 27.0509 27.6949H26.5614C25.9173 27.6949 25.3377 28.0492 25.0478 28.6288C24.9383 28.8542 24.7129 28.983 24.4746 28.983C24.378 28.983 24.2814 28.9637 24.1848 28.9122C23.8692 28.7576 23.7404 28.3712 23.9014 28.0492C24.1011 27.6434 24.378 27.3085 24.7194 27.0508H27.6949Z" fill="#EDB88E"/>
<path d="M28.983 25.1186H26.4067V23.8305C26.4067 23.1188 26.9832 22.5424 27.6949 22.5424C28.4066 22.5424 28.983 23.1188 28.983 23.8305V25.1186Z" fill="#EDB88E"/>
<path d="M27.6949 27.6949C26.9832 27.6949 26.4067 27.1185 26.4067 26.4068V25.1186H28.983V26.4068C28.983 27.1185 28.4066 27.6949 27.6949 27.6949Z" fill="#EDB88E"/>
<path d="M27.8623 22.5553C27.7528 22.742 27.6949 22.9546 27.6949 23.1864V25.1186H26.4067V23.8305C26.4067 23.122 26.9864 22.5424 27.6949 22.5424C27.7528 22.5424 27.8108 22.5488 27.8623 22.5553Z" fill="#DA9367"/>
<path d="M28.8156 27.038C28.5966 27.4308 28.1715 27.6949 27.6949 27.6949C26.9864 27.6949 26.4067 27.1153 26.4067 26.4068V25.1186H27.6949V25.7627C27.6949 26.4132 28.1844 26.9542 28.8156 27.038Z" fill="#DA9367"/>
<path d="M28.8092 27.0508C28.5837 27.4373 28.1651 27.6949 27.6949 27.6949C27.2183 27.6949 26.8061 27.4373 26.5807 27.0508H28.8092Z" fill="#C1815D"/>
<path d="M26.4067 24.7966H28.983V25.4407H26.4067V24.7966Z" fill="#DA9367"/>
<path d="M26.4067 24.7966H27.6949V25.4407H26.4067V24.7966Z" fill="#C1815D"/>
<path d="M0.644068 28.983C0.288542 28.983 0 28.6951 0 28.339V19.977C0 19.1146 0.336204 18.3038 0.947424 17.6958C1.55542 17.0903 2.36244 16.7567 3.22034 16.7567H3.23386L4.46403 16.7619C4.81956 16.7631 5.10746 17.053 5.10553 17.4085C5.10424 17.7634 4.8157 18.05 4.46146 18.05C4.46081 18.05 4.46017 18.05 4.45888 18.05L3.22871 18.0448C2.68061 18.0551 2.22332 18.2439 1.85685 18.6084C1.49037 18.9729 1.28814 19.4592 1.28814 19.977V28.339C1.28814 28.6951 0.999593 28.983 0.644068 28.983Z" fill="#B8BEBF"/>
<path d="M0.644043 3.8644V6.44067H2.57625C3.28794 6.44067 3.86438 7.01711 3.86438 7.72881V31.5593C3.86438 32.271 4.44082 32.8475 5.15252 32.8475C5.86421 32.8475 6.44065 32.271 6.44065 31.5593V7.72881C6.44065 5.59437 4.71069 3.8644 2.57625 3.8644H0.644043Z" fill="#D0D8DA"/>
<path d="M6.44065 29.1016V18.0339C5.72896 18.0339 5.15252 17.4575 5.15252 16.7458V7.08474C5.15252 6.01752 4.28753 5.15254 3.22031 5.15254C2.50862 5.15254 1.93218 4.5761 1.93218 3.8644H0.644043V6.44067H2.57625C3.28794 6.44067 3.86438 7.01711 3.86438 7.72881V31.5593C3.86438 32.271 4.44082 32.8475 5.15252 32.8475V30.9153C5.15252 30.0754 5.6916 29.3676 6.44065 29.1016Z" fill="#93999A"/>
<path d="M6.4407 28.339H3.86443C3.15273 28.339 2.57629 27.7625 2.57629 27.0508V20.6102C2.57629 19.8985 3.15273 19.322 3.86443 19.322H6.4407C7.1524 19.322 7.72884 19.8985 7.72884 20.6102V27.0508C7.72884 27.7625 7.1524 28.339 6.4407 28.339Z" fill="#25D3D6"/>
<path d="M4.5085 21.8983V19.322H3.86443C3.15273 19.322 2.57629 19.8985 2.57629 20.6102V27.0508C2.57629 27.7625 3.15273 28.339 3.86443 28.339H6.4407C7.1524 28.339 7.72884 27.7625 7.72884 27.0508V25.1186C5.95057 25.1186 4.5085 23.6766 4.5085 21.8983Z" fill="#10B3B5"/>
<path d="M2.57629 23.1864H7.72884V25.7627H2.57629V23.1864Z" fill="#D0D8DA"/>
<path d="M4.78029 23.1864H2.57629V25.7627H7.72884V25.1186C6.40914 25.1186 5.27751 24.3226 4.78029 23.1864Z" fill="#93999A"/>
</svg>
