<svg width="78" height="86" viewBox="0 0 78 86" fill="none" xmlns="http://www.w3.org/2000/svg">
<path d="M46.2758 48.6809C58.6423 48.6809 68.6673 38.6558 68.6673 26.2893C68.6673 13.9229 58.6423 3.89783 46.2758 3.89783C33.9093 3.89783 23.8843 13.9229 23.8843 26.2893C23.8843 38.6558 33.9093 48.6809 46.2758 48.6809Z" fill="#7FDFE0"/>
<path d="M52.2469 35.2458C39.8808 35.2458 29.8554 25.2204 29.8554 12.8543C29.8554 12.2274 29.8554 11.6153 29.945 11.0033C21.4735 20.0136 21.9109 34.1845 30.9212 42.6545C39.9316 51.1244 54.1024 50.6885 62.5724 41.6782C66.052 37.9776 68.1703 33.2037 68.5778 28.1403C64.3503 32.6648 58.4389 35.2369 52.2469 35.2458Z" fill="#7FDFE0"/>
<path d="M56.7252 6.48022L49.2614 12.8543L53.7397 17.3326L46.2758 20.3182L43.2903 26.2893L50.7541 29.2748L44.7831 38.2314L62.6963 41.4856C71.0961 32.4096 70.5467 18.2432 61.4707 9.84343C60.0421 8.52084 58.4464 7.38932 56.7252 6.48022Z" fill="#25D3D6"/>
<path d="M37.3193 32.2603V26.2892L31.3482 20.3181L35.8265 15.8398V11.3615L31.2138 9.71948C22.0647 18.0387 21.3899 32.2006 29.7091 41.3497C30.6899 42.429 31.7736 43.4083 32.9455 44.2771L32.841 36.7386L37.3193 32.2603Z" fill="#25D3D6"/>
<path d="M38.8119 41.2169L38.0804 47.188C40.1524 48.0075 42.3363 48.5106 44.5591 48.6808L44.783 44.2025L38.8119 41.2169Z" fill="#10B3B5"/>
<path d="M51.5601 4.52481C49.8285 4.11131 48.0551 3.90083 46.2757 3.89784C43.8231 3.89486 41.3869 4.29791 39.0657 5.09206C40.4987 7.46556 41.7974 9.86892 41.7974 9.86892L51.5601 4.52481Z" fill="#25D3D6"/>
<path d="M52.2469 35.246C50.5377 35.2385 48.8359 35.0385 47.1715 34.6488L44.7831 38.2315L62.6963 41.4857C66.0879 37.8195 68.1494 33.1188 68.5479 28.1404C64.3279 32.6575 58.4285 35.2295 52.2469 35.246Z" fill="#10B3B5"/>
<path d="M29.8554 12.8544C29.8554 12.2274 29.8554 11.6154 29.9449 10.9884C21.4884 20.0107 21.9467 34.1815 30.969 42.6381C31.5915 43.2217 32.2468 43.7681 32.9305 44.2771L32.8409 36.7386L37.3192 32.2603V29.5137C32.5782 25.2727 29.8643 19.215 29.8554 12.8544Z" fill="#10B3B5"/>
<path d="M70.1601 12.8544H77.6239C77.6239 19.4494 72.2768 24.7965 65.6818 24.7965H59.7107V23.3037C59.7107 17.5327 64.389 12.8544 70.1601 12.8544Z" fill="#7FDFE0"/>
<path d="M26.8699 12.8544H20.8988C14.3038 12.8544 8.95667 7.50728 8.95667 0.912231H16.4205C22.1915 0.912231 26.8699 5.59057 26.8699 11.3616V12.8544Z" fill="#25D3D6"/>
<path d="M8.95661 85.9999H0V69.5795L11.5988 60.6229C16.6608 56.7417 22.8647 54.6429 29.2433 54.6518C30.9301 54.6533 32.6125 54.7981 34.2739 55.0847L46.4848 57.2492C48.9195 57.6806 50.4496 59.9616 50.0704 62.4187C50.0585 62.4948 49.9749 62.7978 49.9674 62.862L54.6517 63.2651C55.4832 63.3352 56.3057 63.0531 56.9207 62.4888L65.6818 54.3831C67.5045 52.7112 70.3377 52.8336 72.0096 54.6578C72.0619 54.7145 72.1126 54.7727 72.1604 54.8309C73.6502 56.7686 73.383 59.5302 71.5484 61.1453L58.3971 73.192C56.752 74.7027 54.601 75.5446 52.3663 75.5506H31.6318C26.8385 75.567 22.1586 77.018 18.1968 79.7154L8.95661 85.9999Z" fill="#F89C8D"/>
<path d="M44.6786 63.0412L37.6476 61.8022C36.2982 61.5306 34.983 62.4038 34.7113 63.7533C34.677 63.922 34.6606 64.0936 34.6621 64.2653L44.6039 66.0118C46.9849 66.488 49.333 65.0609 50.0077 62.7278C50.2137 61.8709 50.1615 60.9723 49.8585 60.1453C49.0404 62.2202 46.8744 63.4308 44.6786 63.0412Z" fill="#F25E57"/>
<path d="M72.8769 56.1447C72.6172 56.9254 72.1649 57.6285 71.5633 58.1897L58.412 70.2364C56.758 71.7396 54.601 72.5711 52.3663 72.5651H31.6318C29.9001 72.5666 28.173 72.7562 26.4817 73.1324C25.9891 73.2368 25.4965 73.3712 24.9889 73.5055C20.1658 75.0177 14.9575 74.7326 10.33 72.6994C7.46235 71.4246 4.7888 69.7512 2.38843 67.7285L0 69.5796V86H8.95661L18.1521 79.7155C18.6865 79.3482 19.2403 79.0109 19.809 78.7004L20.5256 78.3123L21.2272 77.9689C22.0138 77.5868 22.8214 77.2479 23.6454 76.9538C24.5725 76.615 25.5189 76.3358 26.4817 76.1179C28.173 75.7417 29.9001 75.5521 31.6318 75.5506H52.3663C54.6055 75.5477 56.7625 74.7057 58.412 73.1921L71.5633 61.1454C72.9501 59.884 73.4651 57.924 72.8769 56.1447Z" fill="#F25E57"/>
<path d="M58.218 30.7676C57.394 30.7676 56.7252 30.0988 56.7252 29.2748C56.7252 22.6797 62.0723 17.3326 68.6674 17.3326C69.4914 17.3326 70.1601 18.0014 70.1601 18.8254C70.1601 19.6494 69.4914 20.3182 68.6674 20.3182C63.7203 20.3182 59.7108 24.3278 59.7108 29.2748C59.7108 30.0988 59.042 30.7676 58.218 30.7676Z" fill="#10B3B5"/>
<path d="M28.3626 18.1835C27.5714 18.185 26.9176 17.57 26.8698 16.7803C26.5772 12.0513 22.6512 8.3671 17.9132 8.37606C17.0892 8.37606 16.4204 7.7073 16.4204 6.88329C16.4204 6.05928 17.0892 5.39052 17.9132 5.39052C24.2336 5.37858 29.4687 10.2928 29.8553 16.6012C29.9046 17.4237 29.2776 18.1313 28.4551 18.1806C28.4238 18.1821 28.3939 18.1835 28.3626 18.1835Z" fill="#10B3B5"/>
<path d="M22.3915 45.7699C21.9242 45.7729 21.4824 45.5579 21.1973 45.1877C17.0951 39.7436 14.8933 33.1053 14.9276 26.2893C14.9276 25.4653 15.5964 24.7965 16.4204 24.7965C17.2444 24.7965 17.9132 25.4653 17.9132 26.2893C17.8968 32.4619 19.9105 38.4673 23.6454 43.3815C24.1395 44.0413 24.0067 44.9772 23.3469 45.4713C23.0722 45.6773 22.7348 45.7833 22.3915 45.7699Z" fill="#10B3B5"/>
<path d="M69.3689 46.6955C69.0256 46.6926 68.6927 46.5716 68.4285 46.3522C67.7791 45.8432 67.6671 44.9057 68.1747 44.2564C68.1896 44.2384 68.203 44.2205 68.2195 44.2026C70.8363 41.0245 72.7217 37.309 73.7427 33.3203C73.9487 32.5202 74.7638 32.0395 75.5639 32.2455C76.364 32.4515 76.8447 33.2666 76.6387 34.0667C75.4982 38.445 73.4143 42.5218 70.5333 46.0089C70.2765 46.4104 69.8451 46.6657 69.3689 46.6955Z" fill="#10B3B5"/>
<path d="M68.3687 7.70436C67.9478 7.70287 67.5462 7.52373 67.2641 7.21175C65.737 5.51895 64.0128 4.01573 62.129 2.73344C61.4453 2.27218 61.2646 1.34218 61.7259 0.658495C62.1872 -0.0251929 63.1172 -0.205818 63.8009 0.255447C65.8848 1.65566 67.7895 3.30368 69.4734 5.16665C70.0257 5.77869 69.9779 6.72212 69.3659 7.27444C69.0912 7.52224 68.7374 7.65808 68.3687 7.65958V7.70436Z" fill="#10B3B5"/>
</svg>
