<svg width="86" height="86" viewBox="0 0 86 86" fill="none" xmlns="http://www.w3.org/2000/svg">
<path d="M5.93103 0H80.069C83.3444 0 86 2.65564 86 5.93103V47.4483H0V5.93103C0 2.65564 2.65564 0 5.93103 0Z" fill="#1B9698"/>
<path d="M8.89655 0H80.069C83.3444 0 86 2.65564 86 5.93103V38.5517H32.6207C19.5184 38.5517 8.89655 27.9299 8.89655 14.8276V0Z" fill="#10B3B5"/>
<path d="M80.069 0H47.4483C47.4483 3.27539 50.1039 5.93103 53.3793 5.93103H74.1379C77.4133 5.93103 80.069 8.58668 80.069 11.8621V23.7241C80.069 26.9995 82.7246 29.6552 86 29.6552V5.93103C86 2.65564 83.3444 0 80.069 0Z" fill="#25D3D6"/>
<path d="M0 47.4482H86V50.4138C86 53.6891 83.3444 56.3448 80.069 56.3448H5.93103C2.65564 56.3448 0 53.6891 0 50.4138V47.4482Z" fill="#FF756F"/>
<path d="M60.7931 5.93103H66.7241C68.3618 5.93103 69.6896 7.25885 69.6896 8.89655V38.5517C69.6896 40.1894 68.3618 41.5172 66.7241 41.5172H60.7931C59.1554 41.5172 57.8276 40.1894 57.8276 38.5517V8.89655C57.8276 7.25885 59.1554 5.93103 60.7931 5.93103Z" fill="#7FDFE0"/>
<path d="M63.7586 8.89661H57.8276V14.5163C61.7176 17.0489 64.3443 21.12 65.0495 25.708C65.754 30.2967 64.4703 34.968 61.52 38.5518H63.7586C65.3963 38.5518 66.7241 37.224 66.7241 35.5863V11.8621C66.7241 10.2244 65.3963 8.89661 63.7586 8.89661Z" fill="white"/>
<path d="M63.7586 68.2069H22.2414L31.1379 56.3448H54.8621L63.7586 68.2069Z" fill="#F25E57"/>
<path d="M16.3103 68.2069H69.6896C72.965 68.2069 75.6207 70.8626 75.6207 74.1379H10.3793C10.3793 70.8626 13.0349 68.2069 16.3103 68.2069Z" fill="#FF756F"/>
<path d="M7.41379 80.069H54.8621C56.4998 80.069 57.8276 81.3968 57.8276 83.0345V86H4.44827V83.0345C4.44827 81.3968 5.77609 80.069 7.41379 80.069Z" fill="#25B2B4"/>
<path d="M71.1724 80.069H83.0345C83.8533 80.069 84.5172 80.7329 84.5172 81.5517V86H69.6896V81.5517C69.6896 80.7329 70.3535 80.069 71.1724 80.069Z" fill="#7FDFE0"/>
<path d="M63.7586 23.7242C63.7586 32.7322 56.4563 40.0345 47.4483 40.0345C38.4402 40.0345 31.1379 32.7322 31.1379 23.7242C31.1379 14.7161 38.4402 7.41382 47.4483 7.41382C56.4563 7.41382 63.7586 14.7161 63.7586 23.7242Z" fill="#F89C8D"/>
<path d="M59.3104 23.7241C59.3104 30.2756 53.9998 35.5862 47.4483 35.5862C40.8968 35.5862 35.5862 30.2756 35.5862 23.7241C35.5862 17.1726 40.8968 11.8621 47.4483 11.8621C53.9998 11.8621 59.3104 17.1726 59.3104 23.7241Z" fill="#FF756F"/>
<path d="M47.4483 11.862C43.3157 11.8693 39.485 14.0261 37.3361 17.5556C42.0117 14.6929 48.0405 15.4082 51.9175 19.2845C55.7939 23.1616 56.5092 29.1903 53.6465 33.8659C58.2033 31.1024 60.3573 25.6384 58.9121 20.5081C57.467 15.3778 52.7777 11.841 47.4483 11.862Z" fill="#F25E57"/>
<path d="M47.4483 22.2414C46.2196 22.2414 45.2241 21.2459 45.2241 20.0172C45.2241 18.7886 46.2196 17.7931 47.4483 17.7931C48.6769 17.7931 49.6724 18.7886 49.6724 20.0172C49.6724 20.8361 50.3363 21.5 51.1552 21.5C51.974 21.5 52.6379 20.8361 52.6379 20.0172C52.6285 17.7301 51.1233 15.7181 48.931 15.0651V13.3448C48.931 12.526 48.2671 11.8621 47.4483 11.8621C46.6294 11.8621 45.9655 12.526 45.9655 13.3448V15.0651C43.488 15.7883 41.9227 18.2268 42.2955 20.7811C42.6691 23.3346 44.8672 25.2228 47.4483 25.2069C48.6769 25.2069 49.6724 26.2024 49.6724 27.431C49.6724 28.6597 48.6769 29.6552 47.4483 29.6552C46.2196 29.6552 45.2241 28.6597 45.2241 27.431C45.2241 26.6122 44.5602 25.9483 43.7414 25.9483C42.9225 25.9483 42.2586 26.6122 42.2586 27.431C42.268 29.7182 43.7732 31.7302 45.9655 32.3832V34.1034C45.9655 34.9223 46.6294 35.5862 47.4483 35.5862C48.2671 35.5862 48.931 34.9223 48.931 34.1034V32.3832C51.4086 31.6599 52.9739 29.2215 52.601 26.6672C52.2274 24.1136 50.0293 22.2254 47.4483 22.2414Z" fill="#F89C8D"/>
<path d="M57.0862 59.3103H43C41.3623 59.3103 40.0345 60.6381 40.0345 62.2758C40.0345 63.9135 41.3623 65.2413 43 65.2413H61.5345L57.0862 59.3103Z" fill="#FF756F"/>
<path d="M26.6896 71.1724H74.8054C73.7491 69.3436 71.8008 68.2141 69.6896 68.2069H23.7241C23.7241 69.8446 25.0519 71.1724 26.6896 71.1724Z" fill="#F89C8D"/>
<path d="M14.8276 47.4482H86V51.8965H19.2759C16.8193 51.8965 14.8276 49.9048 14.8276 47.4482Z" fill="#F89C8D"/>
<path d="M72.6552 80.069H83.0345C83.8533 80.069 84.5173 80.7329 84.5173 81.5517V83.0345H75.6207C73.983 83.0345 72.6552 81.7067 72.6552 80.069Z" fill="#25B2B4"/>
<path d="M13.3448 80.069H56.3448C57.1637 80.069 57.8276 80.7329 57.8276 81.5517V83.0345H16.3103C14.6726 83.0345 13.3448 81.7067 13.3448 80.069Z" fill="#7FDFE0"/>
<path d="M25.2069 23.7241C25.2069 22.9052 24.543 22.2413 23.7241 22.2413H10.3793C9.56046 22.2413 8.89655 22.9052 8.89655 23.7241C8.89655 24.5429 9.56046 25.2069 10.3793 25.2069H23.7241C24.543 25.2069 25.2069 24.5429 25.2069 23.7241Z" fill="#F25E57"/>
<path d="M17.7931 16.3104H26.6897C27.5085 16.3104 28.1724 15.6465 28.1724 14.8276C28.1724 14.0088 27.5085 13.3448 26.6897 13.3448H17.7931C16.9743 13.3448 16.3104 14.0088 16.3104 14.8276C16.3104 15.6465 16.9743 16.3104 17.7931 16.3104Z" fill="#FF756F"/>
<path d="M28.1724 32.6207C28.1724 31.8019 27.5085 31.1379 26.6896 31.1379H16.3103C15.4915 31.1379 14.8276 31.8019 14.8276 32.6207C14.8276 33.4395 15.4915 34.1035 16.3103 34.1035H26.6896C27.5085 34.1035 28.1724 33.4395 28.1724 32.6207Z" fill="#F25E57"/>
<path d="M31.1379 38.5518H26.6897C25.8708 38.5518 25.2069 39.2157 25.2069 40.0345C25.2069 40.8534 25.8708 41.5173 26.6897 41.5173H31.1379C31.9568 41.5173 32.6207 40.8534 32.6207 40.0345C32.6207 39.2157 31.9568 38.5518 31.1379 38.5518Z" fill="#F25E57"/>
<path d="M32.6207 5.93103H26.6897C25.8708 5.93103 25.2069 6.59494 25.2069 7.41379C25.2069 8.23264 25.8708 8.89655 26.6897 8.89655H32.6207C33.4395 8.89655 34.1035 8.23264 34.1035 7.41379C34.1035 6.59494 33.4395 5.93103 32.6207 5.93103Z" fill="#FF756F"/>
<path d="M25.2069 23.7242C25.2069 22.9053 24.543 22.2414 23.7241 22.2414H10.3793C10.291 22.2276 10.2005 22.2276 10.1122 22.2414C10.4488 23.2543 10.8499 24.2454 11.3133 25.2069H23.7241C24.543 25.2069 25.2069 24.543 25.2069 23.7242Z" fill="#FF756F"/>
<path d="M28.1724 32.6207C28.1724 31.8019 27.5085 31.1379 26.6897 31.1379H16.3104C16.0591 31.1459 15.8144 31.2169 15.5987 31.3457C16.5956 32.355 17.6773 33.2774 18.8313 34.1035H26.6897C27.5085 34.1035 28.1724 33.4395 28.1724 32.6207Z" fill="#FF756F"/>
</svg>
