<svg width="184" height="60" viewBox="0 0 184 60" fill="none" xmlns="http://www.w3.org/2000/svg">
<path d="M100.144 45.6948H91.8829V30.4632C91.8829 28.7077 91.5557 27.4169 90.9018 26.5908C90.2475 25.7646 89.4045 25.3516 88.3718 25.3516C87.2702 25.3516 86.1859 25.7989 85.119 26.694C84.0516 27.5891 83.2945 28.742 82.8472 30.1534V45.6948H74.586V30.4632C74.586 28.6734 74.2588 27.3826 73.6049 26.5908C72.9506 25.7646 72.1076 25.3516 71.075 25.3516C70.0076 25.3516 68.9407 25.7989 67.8737 26.694C66.8064 27.5891 66.0319 28.742 65.5503 30.1534V45.6948H57.2891V18.5877H64.7242V23.1314C65.7221 21.5134 67.0645 20.2742 68.7515 19.4138C70.4723 18.5187 72.469 18.0714 74.7409 18.0714C76.978 18.0714 78.6992 18.6051 79.9041 19.672C81.1086 20.7046 81.883 21.9265 82.2276 23.3379C83.2602 21.6514 84.6196 20.3606 86.3065 19.4655C88.0273 18.5361 89.9551 18.0714 92.0894 18.0714C93.8102 18.0714 95.2042 18.3986 96.2716 19.0524C97.3385 19.672 98.1473 20.4981 98.6983 21.5308C99.2489 22.5634 99.6277 23.682 99.8343 24.8869C100.041 26.0571 100.144 27.2103 100.144 28.3463V45.6948Z" fill="#212121"/>
<path d="M105.543 45.6948V18.5877H113.805V45.6948H105.543Z" fill="#212121"/>
<path d="M137.015 44.2491C136.258 44.5589 135.414 44.8687 134.485 45.1785C133.59 45.4883 132.644 45.7291 131.645 45.9013C130.647 46.1079 129.666 46.2111 128.702 46.2111C127.325 46.2111 126.051 45.9872 124.881 45.5399C123.745 45.0578 122.833 44.2834 122.145 43.2164C121.491 42.1495 121.164 40.7381 121.164 38.9826V24.8353H117.704V18.5877H121.164V9.96508H129.425V18.5877H134.95V24.8353H129.425V36.1428C129.425 37.0379 129.649 37.6918 130.096 38.1048C130.543 38.4836 131.111 38.6728 131.8 38.6728C132.385 38.6728 133.005 38.5695 133.659 38.363C134.347 38.1564 134.932 37.9325 135.414 37.6918L137.015 44.2491Z" fill="#212121"/>
<path d="M140.131 8.00304H148.392V36.0395C148.392 37.1754 148.598 37.9842 149.011 38.4662C149.424 38.9483 150.009 39.1891 150.767 39.1891C151.283 39.1891 151.8 39.1201 152.316 38.9826C152.866 38.8103 153.349 38.6211 153.762 38.4146L154.846 44.6105C153.813 45.0926 152.626 45.4709 151.283 45.7464C149.941 46.022 148.684 46.1595 147.514 46.1595C145.173 46.1595 143.349 45.5399 142.041 44.3007C140.767 43.0273 140.131 41.237 140.131 38.9309V8.00304Z" fill="#212121"/>
<path d="M155.824 37.5885C155.824 35.7987 156.324 34.2324 157.322 32.8899C158.32 31.5475 159.697 30.4975 161.452 29.7403C163.208 28.9485 165.222 28.5528 167.493 28.5528C168.595 28.5528 169.679 28.6561 170.746 28.8626C171.814 29.0349 172.743 29.293 173.534 29.6371V28.4495C173.534 26.9695 173.087 25.8336 172.192 25.0418C171.297 24.2499 169.938 23.8542 168.113 23.8542C166.599 23.8542 165.17 24.1124 163.827 24.6287C162.52 25.145 161.126 25.8853 159.645 26.8489L157.167 21.5824C158.957 20.4122 160.816 19.5345 162.743 18.9491C164.706 18.3638 166.771 18.0714 168.939 18.0714C173.001 18.0714 176.151 19.0524 178.388 21.0144C180.66 22.9422 181.796 25.7473 181.796 29.4305V36.5042C181.796 37.3303 181.916 37.9156 182.157 38.2597C182.433 38.5695 182.897 38.7587 183.551 38.8277V45.6948C182.863 45.8323 182.209 45.9356 181.59 46.0046C181.004 46.0736 180.488 46.1079 180.04 46.1079C178.491 46.1079 177.304 45.7981 176.477 45.1785C175.686 44.5589 175.187 43.7154 174.981 42.6485L174.825 41.4609C173.621 43.0099 172.175 44.1975 170.488 45.0236C168.836 45.8154 167.098 46.2111 165.273 46.2111C163.483 46.2111 161.865 45.8323 160.42 45.0752C159.009 44.3181 157.89 43.2854 157.064 41.9773C156.238 40.6691 155.824 39.2065 155.824 37.5885ZM172.244 38.6211C172.622 38.3113 172.932 37.9673 173.173 37.5885C173.414 37.2097 173.534 36.8483 173.534 36.5042V34.0775C172.846 33.8019 172.072 33.5954 171.211 33.4579C170.385 33.2856 169.61 33.1997 168.888 33.1997C167.373 33.1997 166.117 33.5438 165.118 34.2324C164.12 34.8862 163.621 35.764 163.621 36.8656C163.621 37.4852 163.793 38.0532 164.137 38.5695C164.482 39.0858 164.947 39.4989 165.531 39.8087C166.151 40.1185 166.874 40.2734 167.7 40.2734C168.526 40.2734 169.352 40.1185 170.178 39.8087C171.004 39.4989 171.693 39.1032 172.244 38.6211Z" fill="#212121"/>
<path d="M40.3512 35.0632C40.3512 35.6678 40.2869 36.2399 40.223 36.7811C39.0383 36.7492 37.9184 36.6539 36.7979 36.4948C30.4274 35.6044 24.7615 32.9007 20.5041 29.0837C20.2159 28.8288 19.9277 28.5748 19.6724 28.32C21.5602 25.2032 25.3064 23.2628 28.6348 23.2628C29.9153 23.2628 31.1639 23.4853 32.3162 23.8674L39.6828 7.96174H43.7444L36.3816 26.189C38.8144 28.3519 40.3512 31.5325 40.3512 35.0632Z" fill="#212121"/>
<path d="M4.05068 38.9075C5.77568 38.9075 7.46829 38.6535 9.03369 38.178C12.0044 37.259 14.5917 35.5471 16.5725 33.2645C17.4029 32.3135 18.1374 31.2353 18.7124 30.0943C23.8236 34.9759 30.9789 38.2733 39.0284 38.9704C39.4753 40.0485 39.7945 41.1901 39.9869 42.395C40.1141 43.2507 40.1784 44.1064 40.1784 44.9945C40.1465 51.0172 36.7923 56.2799 31.8407 59.038C31.3934 59.0704 30.947 59.0704 30.4678 59.0704C28.7742 59.0704 27.1454 58.9432 25.5162 58.6893C26.5381 57.5482 27.4966 56.3114 28.2635 54.9173C29.3816 52.9196 30.1481 50.859 30.5631 48.735C29.1901 52.2226 26.8901 55.3928 23.664 57.7707C23.4401 57.9289 23.2167 58.0875 22.9928 58.2138C17.6582 57.0727 12.8991 54.7587 9.03369 51.6199C4.6576 48.1009 1.49488 43.5046 0.0576172 38.3367C1.33529 38.7174 2.67726 38.9075 4.05068 38.9075Z" fill="url(#paint0_linear_1102_2420)"/>
<mask id="mask0_1102_2420" style="mask-type:luminance" maskUnits="userSpaceOnUse" x="0" y="0" width="38" height="38">
<path d="M0.000109618 5.7297L32.0071 0L37.7368 32.007L5.72981 37.7367L0.000109618 5.7297Z" fill="white"/>
</mask>
<g mask="url(#mask0_1102_2420)">
<path d="M21.1502 18.0423L22.0734 16.6684C22.7137 15.7484 22.9277 14.6585 22.7569 13.6329C22.5616 12.612 21.9824 11.6638 21.0629 11.0231L19.7204 10.0552C19.7007 10.0411 19.6965 10.0139 19.7101 9.99418C19.7237 9.97447 19.7504 9.9693 19.7711 9.98292L21.1441 10.9057C22.0641 11.5469 23.1535 11.761 24.1786 11.5901C25.1991 11.3948 26.1472 10.8161 26.788 9.89561L27.7554 8.55363C27.769 8.53439 27.7962 8.52923 27.8159 8.54284C27.8356 8.55692 27.8408 8.58414 27.8272 8.60386L26.9048 9.97729C26.2637 10.8978 26.0501 11.9877 26.2205 13.0128C26.4167 14.0337 26.9945 14.9819 27.915 15.6226L29.2569 16.5909C29.2767 16.605 29.2809 16.6323 29.2673 16.652C29.2537 16.6717 29.2264 16.6768 29.2067 16.6632L27.8338 15.7395C27.3733 15.4189 26.871 15.2053 26.3552 15.0936C25.8403 14.9814 25.3113 14.9702 24.7992 15.0556C23.7787 15.2513 22.8301 15.8296 22.1899 16.7501L21.2224 18.0925C21.2088 18.1118 21.1816 18.1164 21.1619 18.1028C21.1422 18.0892 21.137 18.062 21.1502 18.0423Z" fill="#F25E57"/>
<path d="M29.2826 6.96523L30.0585 7.52474C30.0698 7.53272 30.0726 7.54868 30.0646 7.55995C30.0562 7.57168 30.0412 7.57403 30.0294 7.56652L29.2357 7.03282C28.7039 6.66248 28.074 6.53856 27.4816 6.63713C26.8916 6.75025 26.3438 7.08493 25.9735 7.61674L25.4144 8.39264C25.4064 8.4039 25.3905 8.40672 25.3787 8.39874C25.3675 8.39076 25.3647 8.3748 25.3726 8.36354L25.9059 7.56933C26.2762 7.03752 26.3997 6.4076 26.3011 5.81476C26.188 5.22521 25.8538 4.6765 25.322 4.30663L24.5461 3.74665C24.5348 3.73867 24.532 3.72271 24.54 3.71145C24.5479 3.70018 24.5639 3.69689 24.5752 3.70487L25.3689 4.23904C25.9002 4.60891 26.5306 4.73283 27.123 4.63426C27.713 4.52114 28.2608 4.18694 28.6311 3.65465L29.1906 2.87876C29.1986 2.86702 29.2141 2.86467 29.2254 2.87265C29.2371 2.88063 29.2399 2.89612 29.2324 2.90786L28.6987 3.70206C28.3284 4.2334 28.2049 4.86379 28.3035 5.45616C28.4166 6.04664 28.7508 6.59489 29.2826 6.96523Z" fill="#F25E57"/>
<path d="M29.5052 20.9924L29.9235 20.3705C30.2135 19.9536 30.3102 19.4598 30.2328 18.9956C30.1441 18.5333 29.8822 18.1038 29.4653 17.8137L28.8575 17.3753C28.849 17.3692 28.8467 17.3565 28.8528 17.3476C28.8594 17.3387 28.8716 17.3363 28.8805 17.3424L29.5024 17.7611C29.9188 18.0512 30.4126 18.1479 30.8768 18.0705C31.3387 17.9822 31.7682 17.7203 32.0582 17.3035L32.4962 16.6956C32.5028 16.6862 32.515 16.6844 32.5239 16.6905C32.5328 16.6966 32.5351 16.7092 32.529 16.7182L32.1113 17.3401C31.8212 17.7569 31.7245 18.2507 31.8015 18.7145C31.8902 19.1773 32.1521 19.6068 32.5689 19.8968L33.1763 20.3352C33.1852 20.3414 33.1876 20.354 33.181 20.3625C33.1749 20.3714 33.1627 20.3742 33.1533 20.3681L32.5318 19.9499C32.115 19.6593 31.6217 19.5626 31.1575 19.6401C30.6956 19.7283 30.2661 19.9907 29.976 20.4071L29.5381 21.0149C29.5315 21.0243 29.5193 21.0262 29.5104 21.0201C29.5015 21.0135 29.4991 21.0013 29.5052 20.9924Z" fill="#F25E57"/>
<path d="M11.3939 17.4049L11.79 16.8158C12.0646 16.4215 12.1557 15.954 12.0829 15.5142C11.9989 15.0767 11.7511 14.6697 11.3568 14.3952L10.7809 13.9802C10.7729 13.9741 10.7705 13.9624 10.7766 13.9539C10.7823 13.9455 10.794 13.9436 10.8025 13.9492L11.3915 14.3449C11.7858 14.62 12.2533 14.7115 12.6927 14.6383C13.1301 14.5547 13.5362 14.3064 13.8112 13.9122L14.2262 13.3362C14.2323 13.3282 14.2435 13.3259 14.2525 13.3315C14.2609 13.3376 14.2628 13.3494 14.2576 13.3578L13.8614 13.9469C13.5869 14.3412 13.4953 14.8087 13.5681 15.248C13.6521 15.686 13.9004 16.0929 14.2947 16.3675L14.8702 16.7829C14.8786 16.789 14.8805 16.8003 14.8744 16.8087C14.8687 16.8172 14.857 16.8195 14.8486 16.8139L14.26 16.4177C13.8652 16.1427 13.3977 16.0512 12.9583 16.1244C12.5209 16.2079 12.1149 16.4562 11.8398 16.851L11.4253 17.4265C11.4192 17.4349 11.4075 17.4373 11.399 17.4311C11.3906 17.425 11.3883 17.4138 11.3939 17.4049Z" fill="#F25E57"/>
<path d="M16.0495 23.2759L16.5512 22.5306C16.8991 22.0307 17.015 21.4383 16.9225 20.8816C16.8164 20.3273 16.502 19.8123 16.0021 19.4641L15.2731 18.9383C15.2628 18.9313 15.2604 18.9163 15.2675 18.9055C15.2754 18.8947 15.29 18.8923 15.3008 18.8994L16.0467 19.4007C16.5461 19.749 17.138 19.8649 17.6947 19.7724C18.2486 19.6664 18.7635 19.3519 19.1117 18.852L19.637 18.123C19.6445 18.1127 19.6595 18.1099 19.6698 18.1174C19.6806 18.1249 19.683 18.1399 19.6759 18.1502L19.1751 18.8966C18.8268 19.396 18.7109 19.9884 18.8034 20.5451C18.9094 21.0989 19.2239 21.6143 19.7238 21.9626L20.4528 22.4878C20.4631 22.4963 20.4655 22.5104 20.4584 22.5212C20.4509 22.532 20.4359 22.5348 20.4256 22.5277L19.6792 22.026C19.1798 21.6777 18.5879 21.5617 18.0312 21.6547C17.4773 21.7603 16.9624 22.0748 16.6141 22.5747L16.0889 23.3036C16.0814 23.314 16.0668 23.3168 16.056 23.3093C16.0452 23.3018 16.0429 23.2872 16.0495 23.2759Z" fill="#F25E57"/>
<path d="M6.44421 21.5923L6.76621 21.1135C6.98917 20.7929 7.06379 20.4127 7.00418 20.055C6.93612 19.6997 6.73476 19.3692 6.4137 19.1453L5.94619 18.8083C5.93915 18.8032 5.93774 18.7938 5.94243 18.7867C5.94713 18.7802 5.95652 18.7783 5.96356 18.783L6.44233 19.105C6.76292 19.3284 7.14265 19.4026 7.49986 19.3434C7.85565 19.2749 8.18611 19.0735 8.40954 18.7525L8.74655 18.2845C8.75171 18.2779 8.7611 18.2765 8.76814 18.2812C8.77471 18.2859 8.77707 18.2953 8.7719 18.3023L8.45037 18.7806C8.22695 19.1022 8.1523 19.4819 8.21191 19.8391C8.27997 20.1949 8.48182 20.5258 8.80241 20.7488L9.27038 21.0863C9.27695 21.0914 9.27884 21.1008 9.27368 21.1078C9.26898 21.1144 9.25959 21.1163 9.25255 21.1116L8.77378 20.7896C8.45366 20.5666 8.07344 20.4915 7.71624 20.5512C7.36045 20.6192 7.03001 20.8211 6.80705 21.1416L6.47002 21.6096C6.46486 21.6167 6.455 21.6181 6.44843 21.6134C6.44139 21.6087 6.43951 21.5993 6.44421 21.5923Z" fill="#F25E57"/>
<path d="M9.74127 22.8845L10.2088 23.1994C10.5223 23.4177 10.8941 23.4905 11.2433 23.4327C11.5906 23.3661 11.9141 23.1685 12.1318 22.8549L12.4618 22.3977C12.4665 22.3907 12.4759 22.3897 12.4825 22.394C12.4891 22.3987 12.4909 22.4076 12.4862 22.4146L12.1722 22.8831C11.9535 23.1962 11.8807 23.5679 11.9394 23.9171C12.0056 24.2654 12.2027 24.5888 12.5167 24.8066L12.9739 25.1366C12.9805 25.1418 12.9819 25.1507 12.9772 25.1573C12.9725 25.1643 12.9636 25.1662 12.9566 25.1615L12.4886 24.847C12.175 24.6283 11.8037 24.5555 11.4545 24.6137C11.1067 24.6804 10.7838 24.8775 10.5655 25.191L10.236 25.6487C10.2308 25.6548 10.2214 25.6567 10.2149 25.652C10.2083 25.6473 10.2064 25.6384 10.2111 25.6313L10.5256 25.1634C10.7439 24.8498 10.8166 24.478 10.7584 24.1288C10.6918 23.7805 10.4946 23.4576 10.1815 23.2393L9.72389 22.9094C9.71732 22.9042 9.71544 22.8953 9.72014 22.8887C9.72483 22.8821 9.73423 22.8798 9.74127 22.8845Z" fill="#F25E57"/>
<path d="M4.91798 25.3131L5.31882 25.5825C5.58684 25.7693 5.90462 25.8318 6.20409 25.782C6.50215 25.7247 6.77816 25.5558 6.96544 25.2877L7.24754 24.8958C7.25176 24.8902 7.25974 24.8888 7.26537 24.8925C7.271 24.8967 7.27242 24.9047 7.26867 24.9104L6.99971 25.3112C6.81242 25.5797 6.74999 25.8984 6.80021 26.1969C6.85701 26.495 7.02599 26.7715 7.29448 26.9588L7.68594 27.2413C7.69157 27.2456 7.69299 27.2535 7.68923 27.2592C7.68501 27.2648 7.67703 27.2662 7.6714 27.2624L7.27054 26.993C7.00205 26.8057 6.68428 26.7433 6.38481 26.7931C6.08722 26.8503 5.81075 27.0193 5.62394 27.2878L5.34183 27.6793C5.33713 27.6849 5.32962 27.6863 5.32352 27.6826C5.31789 27.6788 5.31649 27.6708 5.32024 27.6647L5.58967 27.2639C5.77649 26.9954 5.83891 26.6771 5.78915 26.3776C5.73189 26.0805 5.56338 25.8036 5.29489 25.6163L4.90342 25.3337C4.89732 25.3295 4.89591 25.322 4.90013 25.3164C4.90389 25.3107 4.91235 25.3089 4.91798 25.3131Z" fill="#F25E57"/>
<path d="M7.04848 29.9436L7.44887 30.213C7.71735 30.3998 8.03513 30.4623 8.3346 30.4125C8.63219 30.3552 8.90866 30.1867 9.09547 29.9182L9.37804 29.5268C9.38179 29.5207 9.38977 29.5193 9.39587 29.5235C9.4015 29.5272 9.40292 29.5352 9.39917 29.5409L9.12974 29.9417C8.94292 30.2102 8.88095 30.5289 8.93024 30.8274C8.9875 31.1255 9.15602 31.4024 9.42451 31.5897L9.81644 31.8718C9.82207 31.876 9.82349 31.884 9.81926 31.8897C9.81551 31.8953 9.80753 31.8967 9.80143 31.8929L9.40104 31.6235C9.13255 31.4367 8.81478 31.3738 8.51531 31.4236C8.21725 31.4808 7.94125 31.6498 7.75396 31.9183L7.47186 32.3102C7.46763 32.3159 7.45966 32.3173 7.45402 32.3135C7.44839 32.3093 7.44699 32.3013 7.45074 32.2952L7.72017 31.8944C7.90699 31.6259 7.96894 31.3081 7.91918 31.0086C7.86239 30.711 7.6934 30.4341 7.42492 30.2473L7.03345 29.9647C7.02782 29.9605 7.02642 29.9525 7.03017 29.9469C7.0344 29.9408 7.04238 29.9394 7.04848 29.9436Z" fill="#F25E57"/>
<path d="M7.7328 10.5387L8.13366 10.8081C8.40168 10.9954 8.71993 11.0578 9.01893 11.0076C9.31652 10.9508 9.59345 10.7818 9.78027 10.5133L10.0624 10.1214C10.0666 10.1162 10.0746 10.1143 10.0802 10.1186C10.0858 10.1223 10.0872 10.1303 10.0835 10.1364L9.81453 10.5368C9.62771 10.8058 9.56482 11.1235 9.61457 11.423C9.67184 11.7206 9.84083 11.9975 10.1093 12.1848L10.5008 12.4674C10.5064 12.4711 10.5078 12.4791 10.5036 12.4848C10.4998 12.4904 10.4919 12.4918 10.4862 12.488L10.0854 12.2186C9.81688 12.0318 9.49911 11.9694 9.20011 12.0191C8.90205 12.0764 8.62557 12.2454 8.43876 12.5134L8.15619 12.9053C8.15197 12.911 8.14399 12.9124 8.13836 12.9081C8.13273 12.9044 8.13131 12.8964 8.13506 12.8903L8.40449 12.4899C8.59131 12.2214 8.65375 11.9027 8.60399 11.6037C8.54673 11.3057 8.37774 11.0292 8.10972 10.8419L7.71779 10.5598C7.71216 10.5556 7.71074 10.5476 7.7145 10.542C7.71872 10.5363 7.7267 10.5349 7.7328 10.5387Z" fill="#F25E57"/>
<path d="M18.9222 11.048L18.3003 10.6297C17.884 10.3397 17.3902 10.243 16.9259 10.3199C16.4641 10.4086 16.0346 10.6706 15.745 11.0874L15.3066 11.6952C15.3005 11.7042 15.2878 11.706 15.2789 11.6999C15.2699 11.6934 15.2676 11.6816 15.2742 11.6727L15.6919 11.0508C15.982 10.6335 16.0787 10.1402 16.0012 9.67547C15.913 9.21312 15.6506 8.7841 15.2343 8.49355L14.6264 8.05561C14.6175 8.04904 14.6156 8.03684 14.6217 8.02792C14.6278 8.01853 14.64 8.01666 14.6494 8.02276L15.2713 8.44098C15.6877 8.73106 16.181 8.82775 16.6452 8.75077C17.1071 8.66206 17.5371 8.40015 17.8267 7.98333L18.2651 7.37547C18.2712 7.36656 18.2834 7.36421 18.2928 7.37078C18.3012 7.37688 18.3041 7.38908 18.2975 7.398L17.8797 8.01994C17.5897 8.43675 17.493 8.93055 17.5699 9.39477C17.6587 9.85712 17.9206 10.2866 18.3369 10.5772L18.9452 11.0151C18.9542 11.0217 18.956 11.0339 18.9499 11.0428C18.9438 11.0517 18.9312 11.0541 18.9222 11.048Z" fill="#F25E57"/>
<path d="M23.7521 18.1826C23.768 18.2704 23.7089 18.3549 23.6211 18.3709C23.5324 18.3868 23.4484 18.3277 23.4324 18.2399C23.4169 18.1512 23.4756 18.0672 23.5638 18.0517C23.6516 18.0357 23.7361 18.0944 23.7521 18.1826Z" fill="#F25E57"/>
<path d="M26.6922 19.8461C26.7077 19.9339 26.6495 20.0184 26.5612 20.0344C26.473 20.0499 26.389 19.9912 26.3735 19.9029C26.3575 19.8147 26.4162 19.7307 26.504 19.7147C26.5922 19.6992 26.6762 19.7579 26.6922 19.8461Z" fill="#F25E57"/>
<path d="M17.8687 18.2756C17.8842 18.3634 17.826 18.4474 17.7377 18.4633C17.6495 18.4793 17.5655 18.4206 17.5495 18.3324C17.5335 18.2441 17.5922 18.1601 17.6804 18.1441C17.7687 18.1287 17.8527 18.1869 17.8687 18.2756Z" fill="#F25E57"/>
<path d="M17.8782 14.7186C17.8942 14.8068 17.8355 14.8908 17.7477 14.9068C17.659 14.9227 17.575 14.8641 17.5595 14.7758C17.5435 14.6876 17.6022 14.6031 17.6905 14.5876C17.7782 14.5716 17.8627 14.6303 17.8782 14.7186Z" fill="#F25E57"/>
<path d="M13.66 11.6929C13.676 11.7811 13.6168 11.8652 13.5286 11.8811C13.4404 11.8971 13.3563 11.8384 13.3404 11.7502C13.3249 11.6619 13.3836 11.5779 13.4718 11.5619C13.5596 11.5464 13.6441 11.6047 13.66 11.6929Z" fill="#F25E57"/>
<path d="M7.60402 15.9099C7.61951 15.9976 7.56084 16.0821 7.4726 16.0976C7.38482 16.1136 7.30033 16.0549 7.28484 15.9671C7.26889 15.8784 7.32755 15.7944 7.41533 15.7784C7.50404 15.7629 7.58807 15.8216 7.60402 15.9099Z" fill="#F25E57"/>
<path d="M5.09146 21.4308C5.10742 21.519 5.04874 21.6031 4.96049 21.619C4.87225 21.6345 4.78823 21.5758 4.77227 21.4881C4.75678 21.3998 4.815 21.3158 4.90371 21.2998C4.99149 21.2839 5.0755 21.3426 5.09146 21.4308Z" fill="#F25E57"/>
<path d="M11.9224 27.6577C11.9379 27.7459 11.8797 27.8299 11.791 27.8459C11.7032 27.8614 11.6192 27.8032 11.6032 27.7145C11.5872 27.6267 11.6459 27.5427 11.7342 27.5267C11.8224 27.5108 11.9064 27.5694 11.9224 27.6577Z" fill="#F25E57"/>
<path d="M9.26859 33.7921C9.28455 33.8803 9.22588 33.9648 9.13764 33.9803C9.04986 33.9963 8.96537 33.9371 8.94988 33.8494C8.93392 33.7611 8.99259 33.6766 9.08037 33.6611C9.16908 33.6452 9.2531 33.7043 9.26859 33.7921Z" fill="#F25E57"/>
<path d="M32.859 4.75724C32.875 4.84502 32.8163 4.9295 32.7281 4.94499C32.6398 4.96095 32.5558 4.90228 32.5398 4.8145C32.5243 4.72626 32.583 4.64224 32.6708 4.62628C32.759 4.61079 32.8435 4.669 32.859 4.75724Z" fill="#F25E57"/>
<path d="M32.8506 12.1266C32.8661 12.2149 32.8079 12.2989 32.7197 12.3148C32.6314 12.3303 32.5474 12.2717 32.5314 12.1834C32.5155 12.0952 32.5742 12.0111 32.6624 11.9952C32.7506 11.9792 32.8346 12.0379 32.8506 12.1266Z" fill="#F25E57"/>
<path d="M20.6776 14.4703C20.6936 14.5585 20.6345 14.6425 20.5467 14.6585C20.4584 14.674 20.3744 14.6153 20.3585 14.5275C20.343 14.4393 20.4012 14.3548 20.4894 14.3393C20.5777 14.3233 20.6617 14.382 20.6776 14.4703Z" fill="#F25E57"/>
<path d="M14.5854 7.00795C14.6009 7.09573 14.5427 7.18022 14.454 7.19617C14.3662 7.21213 14.2817 7.15299 14.2658 7.06521C14.2498 6.97697 14.309 6.89248 14.3972 6.87699C14.4855 6.86103 14.5695 6.91971 14.5854 7.00795Z" fill="#F25E57"/>
<path d="M24.1885 9.80784C24.2045 9.89655 24.1458 9.98057 24.058 9.99606C23.9698 10.012 23.8853 9.95335 23.8698 9.86511C23.8538 9.77733 23.9125 9.69284 24.0008 9.67735C24.089 9.66139 24.173 9.72006 24.1885 9.80784Z" fill="#F25E57"/>
<path d="M15.1918 21.1693C15.2073 21.2576 15.149 21.3421 15.0603 21.3576C14.9726 21.3735 14.8881 21.3149 14.8721 21.2266C14.8566 21.1384 14.9153 21.0539 15.0035 21.0384C15.0918 21.0224 15.1758 21.0816 15.1918 21.1693Z" fill="#F25E57"/>
<path d="M34.6516 15.6916C34.6671 15.7798 34.6084 15.8639 34.5207 15.8798C34.4324 15.8953 34.3479 15.8371 34.3324 15.7484C34.3165 15.6606 34.3756 15.5766 34.4634 15.5606C34.5516 15.5447 34.6357 15.6034 34.6516 15.6916Z" fill="#F25E57"/>
<path d="M21.6161 24.065C21.6321 24.1532 21.5734 24.2373 21.4852 24.2532C21.3969 24.2687 21.3129 24.2105 21.2969 24.1223C21.2814 24.034 21.3396 23.95 21.4279 23.934C21.5161 23.9181 21.6001 23.9768 21.6161 24.065Z" fill="#F25E57"/>
<path d="M23.1439 6.66107C23.1599 6.74932 23.1012 6.83334 23.013 6.8493C22.9247 6.86479 22.8407 6.80611 22.8248 6.71787C22.8093 6.63009 22.8675 6.5456 22.9562 6.53011C23.044 6.51415 23.128 6.57283 23.1439 6.66107Z" fill="#F25E57"/>
<path d="M15.9982 13.1198C16.0212 13.2489 15.9348 13.3724 15.8057 13.3958C15.6762 13.4188 15.5527 13.3329 15.5297 13.2034C15.5063 13.0743 15.5922 12.9504 15.7222 12.9274C15.8508 12.9039 15.9747 12.9903 15.9982 13.1198Z" fill="#F25E57"/>
<path d="M28.5076 12.3322C28.5306 12.4618 28.4442 12.5852 28.3151 12.6082C28.1856 12.6317 28.0621 12.5453 28.0391 12.4162C28.0161 12.2867 28.102 12.1632 28.2311 12.1402C28.3607 12.1172 28.4841 12.2031 28.5076 12.3322Z" fill="#F25E57"/>
<path d="M21.1528 20.1245C21.1758 20.2536 21.0899 20.3775 20.9604 20.4005C20.8308 20.424 20.7074 20.3376 20.6844 20.2085C20.6614 20.079 20.7473 19.9555 20.8764 19.932C21.0059 19.909 21.1298 19.9949 21.1528 20.1245Z" fill="#F25E57"/>
<path d="M14.5 23.3834C14.5235 23.513 14.4371 23.6364 14.3076 23.6594C14.178 23.6829 14.055 23.597 14.0316 23.467C14.0086 23.3379 14.0945 23.2145 14.2235 23.191C14.3531 23.168 14.477 23.2544 14.5 23.3834Z" fill="#F25E57"/>
<path d="M9.156 27.2418C9.17947 27.3713 9.0931 27.4953 8.96355 27.5183C8.83447 27.5413 8.71102 27.4554 8.68755 27.3258C8.66455 27.1963 8.75092 27.0728 8.88 27.0498C9.00908 27.0268 9.133 27.1127 9.156 27.2418Z" fill="#F25E57"/>
<path d="M5.96086 29.9131C5.98386 30.0422 5.89796 30.1656 5.76841 30.1891C5.63933 30.2121 5.51588 30.1262 5.49288 29.9966C5.46941 29.8675 5.5553 29.7436 5.68485 29.7206C5.81394 29.6972 5.93739 29.7835 5.96086 29.9131Z" fill="#F25E57"/>
<path d="M11.6587 19.6429C11.6822 19.7724 11.5963 19.8964 11.4662 19.9194C11.3376 19.9424 11.2137 19.8565 11.1902 19.7269C11.1672 19.5974 11.2536 19.4739 11.3827 19.4504C11.5122 19.4274 11.6357 19.5138 11.6587 19.6429Z" fill="#F25E57"/>
<path d="M7.19325 23.1196C7.21625 23.2497 7.13035 23.3731 7.0008 23.3961C6.87172 23.4191 6.74779 23.3332 6.72479 23.2037C6.70132 23.0746 6.78769 22.9507 6.91724 22.9277C7.04633 22.9047 7.16978 22.9906 7.19325 23.1196Z" fill="#F25E57"/>
<path d="M10.1293 15.8639C10.1528 15.9934 10.0669 16.1169 9.93732 16.1399C9.80824 16.1633 9.68432 16.0774 9.66132 15.9474C9.63785 15.8183 9.72422 15.6949 9.85377 15.6714C9.98285 15.6484 10.1063 15.7348 10.1293 15.8639Z" fill="#F25E57"/>
<path d="M30.7339 14.5763C30.7569 14.7059 30.671 14.8293 30.5419 14.8528C30.4124 14.8758 30.2889 14.7894 30.2659 14.6599C30.2429 14.5308 30.3284 14.4069 30.4579 14.3839C30.5875 14.3609 30.7109 14.4468 30.7339 14.5763Z" fill="#F25E57"/>
<path d="M30.8776 8.85263C30.9006 8.98219 30.8142 9.10564 30.6851 9.12911C30.556 9.15211 30.4321 9.06621 30.4091 8.93619C30.3857 8.80711 30.472 8.68319 30.6011 8.66019C30.7306 8.63719 30.8541 8.72308 30.8776 8.85263Z" fill="#F25E57"/>
<path d="M20.094 6.2635C20.117 6.39258 20.0311 6.5165 19.9016 6.5395C19.772 6.56297 19.6486 6.4766 19.6256 6.34752C19.6026 6.21797 19.6884 6.09452 19.8175 6.07105C19.9471 6.04805 20.071 6.13395 20.094 6.2635Z" fill="#F25E57"/>
</g>
<path d="M109.384 17.4476L109.342 16.1234C109.329 15.226 108.959 14.4172 108.369 13.8305C107.765 13.2583 106.946 12.9124 106.048 12.9255L104.723 12.9232C104.704 12.9232 104.689 12.9077 104.688 12.8884C104.688 12.8692 104.703 12.8532 104.723 12.8528L106.046 12.8114C106.944 12.7983 107.752 12.4284 108.339 11.8384C108.911 11.2348 109.257 10.4157 109.243 9.51823L109.245 8.19362C109.245 8.17438 109.261 8.15842 109.28 8.15842C109.299 8.15795 109.315 8.17344 109.315 8.19268L109.357 9.51635C109.37 10.4143 109.741 11.2226 110.331 11.8093C110.935 12.3815 111.753 12.7279 112.651 12.7143L113.976 12.7171C113.995 12.7171 114.011 12.7326 114.011 12.7518C114.012 12.7711 113.996 12.787 113.977 12.7875L112.653 12.8283C112.204 12.8354 111.778 12.9311 111.39 13.0992C111.003 13.2668 110.654 13.5066 110.361 13.8014C109.789 14.4055 109.443 15.2246 109.456 16.122L109.454 17.4462C109.454 17.4654 109.439 17.4814 109.42 17.4814C109.401 17.4818 109.385 17.4668 109.384 17.4476Z" fill="#F25E57"/>
<path d="M60.166 58.8376C59.7524 58.8376 59.3675 58.77 59.0108 58.6344C58.6592 58.4936 58.3513 58.2978 58.0875 58.0476C57.8294 57.7918 57.6275 57.4919 57.483 57.1478C57.3379 56.8038 57.2656 56.4283 57.2656 56.0213C57.2656 55.6143 57.3379 55.2388 57.483 54.8948C57.6275 54.5507 57.8317 54.2531 58.0955 54.0029C58.3593 53.7476 58.6667 53.5519 59.0183 53.4162C59.3699 53.2754 59.7553 53.205 60.174 53.205C60.6185 53.205 61.0245 53.2834 61.3915 53.4397C61.6229 53.535 61.8313 53.6603 62.0177 53.8157C62.2036 53.971 62.1853 54.2503 62.0092 54.4174C61.8229 54.5939 61.5319 54.577 61.3207 54.432C61.2221 54.3644 61.1188 54.3071 61.0113 54.2611C60.7687 54.1517 60.5049 54.0968 60.2204 54.0968C59.936 54.0968 59.675 54.1438 59.437 54.2376C59.2047 54.3315 59.0005 54.4643 58.8245 54.6366C58.6541 54.8089 58.5194 55.0121 58.4213 55.2468C58.3283 55.4815 58.2814 55.7397 58.2814 56.0213C58.2814 56.3029 58.3283 56.5611 58.4213 56.7958C58.5194 57.0305 58.6541 57.2337 58.8245 57.406C59.0005 57.5783 59.2047 57.7111 59.437 57.805C59.675 57.8988 59.936 57.9458 60.2204 57.9458C60.5049 57.9458 60.7687 57.8937 61.0113 57.7895C61.1188 57.7411 61.2216 57.682 61.3197 57.6121C61.5305 57.4623 61.8252 57.445 62.0116 57.6243C62.1862 57.7914 62.2026 58.0702 62.0163 58.2246C61.8304 58.3786 61.622 58.5044 61.3915 58.6029C61.0245 58.7592 60.6161 58.8376 60.166 58.8376Z" fill="#F25E57"/>
<path d="M66.7722 58.7592C66.347 58.7592 66.0029 58.4152 66.0029 57.9899V53.7875C66.0029 53.5087 66.2282 53.2834 66.507 53.2834C66.7854 53.2834 67.0107 53.5087 67.0107 53.7875V57.8989H69.4191C69.6566 57.8989 69.8495 58.0913 69.8495 58.3293C69.8495 58.5668 69.6566 58.7592 69.4191 58.7592H66.7722Z" fill="#F25E57"/>
<path d="M74.2902 55.5599H76.5705C76.8019 55.5599 76.9891 55.7472 76.9891 55.9781C76.9891 56.2095 76.8019 56.3968 76.5705 56.3968H74.2902V55.5599ZM74.3676 57.9068H77.0046C77.2403 57.9068 77.4313 58.0974 77.4313 58.333C77.4313 58.5687 77.2403 58.7592 77.0046 58.7592H74.1738C73.7241 58.7592 73.3594 58.395 73.3594 57.9449V54.0757C73.3594 53.6382 73.7142 53.2834 74.1522 53.2834H76.8962C77.1318 53.2834 77.3224 53.4739 77.3224 53.7096C77.3224 53.9452 77.1318 54.1358 76.8962 54.1358H74.3676V57.9068Z" fill="#F25E57"/>
<path d="M81.2288 58.7592C80.8871 58.7592 80.659 58.4077 80.7979 58.0955L82.7426 53.7368C82.8656 53.4608 83.1392 53.2834 83.4415 53.2834C83.7433 53.2834 84.017 53.4603 84.14 53.7359L86.0865 58.0852C86.2283 58.402 85.9964 58.7592 85.65 58.7592C85.458 58.7592 85.2848 58.6447 85.2097 58.4682L83.2317 53.8232H83.6349L81.663 58.472C81.5889 58.6461 81.418 58.7592 81.2288 58.7592ZM81.6264 57.4919L81.8977 56.6939H84.8295L85.1008 57.4919H81.6264Z" fill="#F25E57"/>
<path d="M90.2931 58.7592C90.0171 58.7592 89.7927 58.5353 89.7927 58.2593V53.8448C89.7927 53.5345 90.0443 53.2834 90.3546 53.2834C90.524 53.2834 90.6846 53.3599 90.7911 53.4918L94.0275 57.4999H93.6163V53.7833C93.6163 53.5073 93.8402 53.2834 94.1167 53.2834C94.3927 53.2834 94.6166 53.5073 94.6166 53.7833V58.1979C94.6166 58.5081 94.3655 58.7592 94.0552 58.7592C93.8858 58.7592 93.7252 58.6827 93.6182 58.5508L90.3823 54.5427H90.7935V58.2593C90.7935 58.5353 90.5696 58.7592 90.2931 58.7592Z" fill="#F25E57"/>
<path d="M99.2898 58.7592C99.0114 58.7592 98.7856 58.5339 98.7856 58.2551V53.7875C98.7856 53.5087 99.0114 53.2834 99.2898 53.2834C99.5681 53.2834 99.7939 53.5087 99.7939 53.7875V58.2551C99.7939 58.5339 99.5681 58.7592 99.2898 58.7592Z" fill="#F25E57"/>
<path d="M104.477 58.7592C104.201 58.7592 103.977 58.5353 103.977 58.2593V53.8448C103.977 53.5345 104.228 53.2834 104.538 53.2834C104.708 53.2834 104.868 53.3599 104.975 53.4918L108.211 57.4999H107.8V53.7833C107.8 53.5073 108.024 53.2834 108.301 53.2834C108.577 53.2834 108.8 53.5073 108.8 53.7833V58.1979C108.8 58.5081 108.549 58.7592 108.239 58.7592C108.07 58.7592 107.909 58.6827 107.802 58.5508L104.566 54.5427H104.977V58.2593C104.977 58.5353 104.753 58.7592 104.477 58.7592Z" fill="#F25E57"/>
<path d="M115.506 58.8376C115.082 58.8376 114.691 58.77 114.334 58.6344C113.983 58.4936 113.675 58.2978 113.412 58.0476C113.148 57.7918 112.944 57.4919 112.799 57.1478C112.654 56.8038 112.582 56.4283 112.582 56.0213C112.582 55.6143 112.654 55.2388 112.799 54.8948C112.944 54.5507 113.148 54.2531 113.412 54.0029C113.681 53.7476 113.993 53.5519 114.35 53.4162C114.707 53.2754 115.097 53.205 115.521 53.205C115.982 53.205 116.395 53.2806 116.762 53.4317C116.994 53.526 117.203 53.6481 117.389 53.7969C117.579 53.949 117.565 54.2297 117.392 54.4005C117.211 54.5784 116.923 54.5704 116.711 54.4306C116.603 54.3587 116.491 54.2996 116.374 54.2531C116.131 54.1489 115.862 54.0968 115.568 54.0968C115.284 54.0968 115.02 54.1438 114.777 54.2376C114.533 54.3315 114.324 54.4643 114.149 54.6366C113.973 54.8089 113.836 55.0121 113.737 55.2468C113.644 55.4815 113.598 55.7397 113.598 56.0213C113.598 56.2978 113.644 56.5531 113.737 56.7878C113.836 57.0225 113.973 57.2286 114.149 57.406C114.324 57.5783 114.531 57.7111 114.769 57.805C115.007 57.8988 115.27 57.9458 115.56 57.9458C115.829 57.9458 116.087 57.904 116.335 57.8205C116.589 57.7318 116.829 57.5858 117.057 57.3825L117.631 58.1415C117.347 58.3711 117.016 58.5457 116.638 58.6654C116.266 58.7804 115.888 58.8376 115.506 58.8376ZM116.677 58.0082V56.4358C116.677 56.1724 116.89 55.9589 117.154 55.9589C117.417 55.9589 117.631 56.1724 117.631 56.4358V58.1415L116.677 58.0082Z" fill="#F25E57"/>
<path d="M128.216 58.8376C127.792 58.8376 127.386 58.7775 126.998 58.6579C126.741 58.5748 126.519 58.4767 126.332 58.364C126.172 58.2669 126.127 58.0627 126.203 57.8913C126.315 57.6379 126.64 57.5571 126.889 57.6778C126.995 57.7294 127.109 57.7773 127.231 57.8205C127.551 57.9355 127.88 57.9927 128.216 57.9927C128.5 57.9927 128.73 57.9613 128.906 57.8989C129.082 57.8364 129.211 57.7529 129.294 57.6487C129.377 57.5388 129.418 57.4163 129.418 57.2807C129.418 57.114 129.358 56.9807 129.24 56.8817C129.12 56.7775 128.965 56.6967 128.774 56.6395C128.588 56.5766 128.379 56.5193 128.146 56.4672C127.918 56.4151 127.688 56.355 127.455 56.2874C127.228 56.2142 127.019 56.1232 126.827 56.0133C126.642 55.8988 126.489 55.7477 126.37 55.5599C126.251 55.3721 126.191 55.1323 126.191 54.8399C126.191 54.5427 126.269 54.2714 126.424 54.0264C126.584 53.7762 126.825 53.5777 127.146 53.4317C127.471 53.2806 127.882 53.205 128.379 53.205C128.704 53.205 129.027 53.2468 129.348 53.3303C129.54 53.3801 129.717 53.4434 129.88 53.5195C130.064 53.6063 130.131 53.826 130.055 54.0147C129.957 54.2588 129.663 54.354 129.418 54.2583C129.318 54.2193 129.217 54.186 129.115 54.1593C128.857 54.0865 128.609 54.0499 128.371 54.0499C128.091 54.0499 127.864 54.0837 127.688 54.1517C127.518 54.2193 127.391 54.308 127.308 54.4174C127.231 54.5272 127.192 54.6521 127.192 54.7929C127.192 54.96 127.249 55.0957 127.362 55.1999C127.482 55.2989 127.634 55.3773 127.82 55.4346C128.012 55.4918 128.223 55.5491 128.456 55.6068C128.689 55.6589 128.919 55.719 129.146 55.7866C129.379 55.8542 129.588 55.9429 129.775 56.0527C129.966 56.1621 130.118 56.3109 130.232 56.4987C130.351 56.6864 130.411 56.9235 130.411 57.2103C130.411 57.5027 130.33 57.7735 130.17 58.0242C130.015 58.2692 129.775 58.4673 129.449 58.6184C129.123 58.7644 128.712 58.8376 128.216 58.8376Z" fill="#F25E57"/>
<path d="M135.055 55.5599L137.363 55.5998C137.58 55.6035 137.754 55.781 137.754 55.9983C137.754 56.2184 137.576 56.3968 137.356 56.3968H135.055V55.5599ZM135.133 57.9068H137.77C138.005 57.9068 138.196 58.0974 138.196 58.333C138.196 58.5687 138.005 58.7592 137.77 58.7592H134.939C134.489 58.7592 134.124 58.395 134.124 57.9449V54.0757C134.124 53.6382 134.479 53.2834 134.917 53.2834H137.661C137.897 53.2834 138.087 53.4739 138.087 53.7096C138.087 53.9452 137.897 54.1358 137.661 54.1358H135.133V57.9068Z" fill="#F25E57"/>
<path d="M142.539 58.7592C142.26 58.7592 142.034 58.5339 142.034 58.2551V54.2222C142.034 53.7035 142.455 53.2834 142.973 53.2834H144.268C144.749 53.2834 145.16 53.3613 145.501 53.5181C145.847 53.6744 146.114 53.8987 146.3 54.1907C146.486 54.4827 146.579 54.8295 146.579 55.2313C146.579 55.6326 146.486 55.9795 146.3 56.2715C146.114 56.5583 145.847 56.7803 145.501 56.9366C145.16 57.0878 144.749 57.1633 144.268 57.1633H142.593L143.043 56.7019V58.2551C143.043 58.5339 142.817 58.7592 142.539 58.7592ZM145.82 58.7592C145.674 58.7592 145.537 58.6874 145.453 58.5673L144.214 56.7723H145.292L146.186 58.0598C146.391 58.3551 146.18 58.7592 145.82 58.7592ZM143.043 56.8113L142.593 56.3264H144.221C144.666 56.3264 145 56.2297 145.222 56.0368C145.449 55.8439 145.563 55.5754 145.563 55.2313C145.563 54.8816 145.449 54.6132 145.222 54.4254C145 54.2376 144.666 54.1438 144.221 54.1438H142.593L143.043 53.6429V56.8113Z" fill="#F25E57"/>
<path d="M152.523 58.7592C152.222 58.7592 151.949 58.5804 151.83 58.3044L149.957 53.9832C149.814 53.6523 150.056 53.2834 150.417 53.2834C150.617 53.2834 150.798 53.4026 150.877 53.5871L152.865 58.2354H152.236L154.256 53.5622C154.329 53.3927 154.496 53.2834 154.681 53.2834C155.013 53.2834 155.238 53.6242 155.106 53.9297L153.217 58.3035C153.097 58.5804 152.824 58.7592 152.523 58.7592Z" fill="#F25E57"/>
<path d="M159.176 58.7592C158.898 58.7592 158.672 58.5339 158.672 58.2551V53.7875C158.672 53.5087 158.898 53.2834 159.176 53.2834C159.455 53.2834 159.681 53.5087 159.681 53.7875V58.2551C159.681 58.5339 159.455 58.7592 159.176 58.7592Z" fill="#F25E57"/>
<path d="M166.376 58.8376C165.962 58.8376 165.577 58.77 165.22 58.6344C164.869 58.4936 164.561 58.2978 164.297 58.0476C164.039 57.7918 163.838 57.4919 163.692 57.1478C163.548 56.8038 163.476 56.4283 163.476 56.0213C163.476 55.6143 163.548 55.2388 163.692 54.8948C163.838 54.5507 164.042 54.2531 164.305 54.0029C164.569 53.7476 164.877 53.5519 165.228 53.4162C165.58 53.2754 165.965 53.205 166.384 53.205C166.828 53.205 167.234 53.2834 167.602 53.4397C167.832 53.535 168.041 53.6603 168.227 53.8157C168.414 53.971 168.395 54.2503 168.219 54.4174C168.033 54.5939 167.741 54.577 167.53 54.432C167.432 54.3644 167.329 54.3071 167.221 54.2611C166.978 54.1517 166.714 54.0968 166.43 54.0968C166.146 54.0968 165.885 54.1438 165.647 54.2376C165.414 54.3315 165.21 54.4643 165.034 54.6366C164.864 54.8089 164.729 55.0121 164.631 55.2468C164.538 55.4815 164.491 55.7397 164.491 56.0213C164.491 56.3029 164.538 56.5611 164.631 56.7958C164.729 57.0305 164.864 57.2337 165.034 57.406C165.21 57.5783 165.414 57.7111 165.647 57.805C165.885 57.8988 166.146 57.9458 166.43 57.9458C166.714 57.9458 166.978 57.8937 167.221 57.7895C167.329 57.7411 167.432 57.682 167.53 57.6121C167.74 57.4623 168.035 57.445 168.222 57.6243C168.396 57.7914 168.412 58.0702 168.226 58.2246C168.04 58.3786 167.832 58.5048 167.602 58.6029C167.234 58.7592 166.826 58.8376 166.376 58.8376Z" fill="#F25E57"/>
<path d="M173.143 55.5599H175.423C175.654 55.5599 175.842 55.7472 175.842 55.9781C175.842 56.2095 175.654 56.3968 175.423 56.3968H173.143V55.5599ZM173.221 57.9068H175.858C176.093 57.9068 176.284 58.0974 176.284 58.333C176.284 58.5687 176.093 58.7592 175.858 58.7592H173.027C172.577 58.7592 172.212 58.395 172.212 57.9449V54.0757C172.212 53.6382 172.567 53.2834 173.005 53.2834H175.749C175.984 53.2834 176.175 53.4739 176.175 53.7096C176.175 53.9452 175.984 54.1358 175.749 54.1358H173.221V57.9068Z" fill="#F25E57"/>
<path d="M181.805 58.8376C181.381 58.8376 180.975 58.7775 180.587 58.6579C180.33 58.5748 180.109 58.4767 179.922 58.364C179.761 58.2669 179.717 58.0627 179.792 57.8913C179.905 57.6379 180.229 57.5571 180.478 57.6778C180.585 57.7294 180.699 57.7773 180.82 57.8205C181.141 57.9355 181.469 57.9927 181.805 57.9927C182.09 57.9927 182.32 57.9613 182.496 57.8989C182.671 57.8364 182.801 57.7529 182.883 57.6487C182.966 57.5388 183.007 57.4163 183.007 57.2807C183.007 57.114 182.948 56.9807 182.829 56.8817C182.71 56.7775 182.555 56.6967 182.364 56.6395C182.177 56.5766 181.968 56.5193 181.735 56.4672C181.508 56.4151 181.278 56.355 181.045 56.2874C180.818 56.2142 180.608 56.1232 180.417 56.0133C180.231 55.8988 180.078 55.7477 179.959 55.5599C179.84 55.3721 179.781 55.1323 179.781 54.8399C179.781 54.5427 179.859 54.2714 180.013 54.0264C180.174 53.7762 180.414 53.5777 180.735 53.4317C181.061 53.2806 181.472 53.205 181.968 53.205C182.294 53.205 182.617 53.2468 182.937 53.3303C183.13 53.3801 183.307 53.4434 183.47 53.5195C183.654 53.6063 183.72 53.826 183.644 54.0147C183.546 54.2588 183.253 54.354 183.008 54.2583C182.908 54.2193 182.807 54.186 182.705 54.1593C182.446 54.0865 182.198 54.0499 181.96 54.0499C181.681 54.0499 181.454 54.0837 181.278 54.1517C181.107 54.2193 180.98 54.308 180.898 54.4174C180.82 54.5272 180.781 54.6521 180.781 54.7929C180.781 54.96 180.838 55.0957 180.952 55.1999C181.071 55.2989 181.224 55.3773 181.41 55.4346C181.601 55.4918 181.813 55.5491 182.045 55.6068C182.278 55.6589 182.508 55.719 182.736 55.7866C182.969 55.8542 183.178 55.9429 183.364 56.0527C183.555 56.1621 183.708 56.3109 183.822 56.4987C183.94 56.6864 184 56.9235 184 57.2103C184 57.5027 183.92 57.7735 183.76 58.0242C183.604 58.2692 183.364 58.4673 183.038 58.6184C182.712 58.7644 182.302 58.8376 181.805 58.8376Z" fill="#F25E57"/>
<defs>
<linearGradient id="paint0_linear_1102_2420" x1="20.1178" y1="30.0943" x2="20.1178" y2="59.0704" gradientUnits="userSpaceOnUse">
<stop stop-color="#E5524B"/>
<stop offset="1" stop-color="#ECECEC"/>
</linearGradient>
</defs>
</svg>
