<svg width="38" height="38" viewBox="0 0 38 38" fill="none" xmlns="http://www.w3.org/2000/svg">
<path d="M21.4924 0.00022316L13.6309 13.6171L19.8716 17.2203L19.3921 15.4305L21.1819 14.9509L20.135 12.8329L21.9248 12.3533L20.8779 10.236L22.6677 9.7564L21.6208 7.63902L23.4106 7.15947L22.9311 5.36966L24.7209 4.8901L24.8965 1.96561L21.4924 0.00022316Z" fill="#D0D8DA"/>
<path d="M20.8778 10.236L21.079 10.1822C20.5523 9.6765 20.2101 9.009 20.1069 8.28615C20.0037 7.56329 20.1455 6.8267 20.5096 6.19381L23.4374 1.12311L21.4897 0.00022316L13.6282 13.6171L19.8689 17.2203L19.3933 15.4305L21.1831 14.9503L20.1349 12.8329L21.9247 12.3533L20.8778 10.236Z" fill="#93999A"/>
<path d="M3.27712 37.9977C3.16201 37.9978 3.04891 37.9676 2.94919 37.9101C2.84948 37.8526 2.76667 37.7698 2.70912 37.6701L2.05399 36.5354C2.0108 36.4608 1.98276 36.3785 1.97146 36.293C1.96017 36.2075 1.96586 36.1207 1.98819 36.0374C2.01053 35.9542 2.04908 35.8761 2.10163 35.8078C2.15418 35.7395 2.21969 35.6822 2.29442 35.6392L7.96849 32.3636C8.11905 32.2767 8.29795 32.2532 8.46584 32.2982C8.63373 32.3433 8.77685 32.4531 8.86373 32.6037C8.9506 32.7542 8.97411 32.9331 8.92909 33.101C8.88406 33.2689 8.77418 33.412 8.62362 33.4989L3.51755 36.447L3.84511 37.0143C3.9028 37.114 3.93321 37.2271 3.93326 37.3423C3.93332 37.4574 3.90302 37.5705 3.84543 37.6702C3.78783 37.77 3.70498 37.8527 3.6052 37.9102C3.50543 37.9677 3.39227 37.9979 3.27712 37.9977Z" fill="#93999A"/>
<path d="M3.45287 28.8732L6.07339 33.4119C6.4352 34.0386 7.23653 34.2533 7.8632 33.8915L12.4019 31.2709C13.0286 30.9091 13.2433 30.1078 12.8815 29.4811L10.261 24.9424C9.89915 24.3157 9.09783 24.101 8.47116 24.4629L3.93243 27.0834C3.30576 27.4452 3.09105 28.2465 3.45287 28.8732Z" fill="#25D3D6"/>
<path d="M7.25318 25.1657C7.58354 26.0375 7.59329 26.9983 7.28067 27.8766C6.96806 28.7549 6.35345 29.4935 5.54657 29.9606L4.44727 30.5947L6.07329 33.4118C6.24705 33.7127 6.53323 33.9323 6.86889 34.0222C7.20454 34.1122 7.56217 34.0651 7.86311 33.8913L12.4025 31.2708C12.7034 31.0971 12.923 30.8109 13.0129 30.4752C13.1029 30.1396 13.0558 29.782 12.882 29.481L10.2615 24.9416C10.0878 24.6407 9.8016 24.4211 9.46594 24.3312C9.13029 24.2413 8.77266 24.2883 8.47172 24.4621L7.25318 25.1657Z" fill="#10B3B5"/>
<path d="M8.16707 30.4873C8.8907 30.4873 9.47733 29.9007 9.47733 29.177C9.47733 28.4534 8.8907 27.8668 8.16707 27.8668C7.44343 27.8668 6.85681 28.4534 6.85681 29.177C6.85681 29.9007 7.44343 30.4873 8.16707 30.4873Z" fill="#F89C8D"/>
<path d="M7.88726 29.4869C7.60055 29.6517 7.2619 29.7014 6.93994 29.6258C6.96488 29.6971 6.99578 29.7661 7.03232 29.8322C7.14052 30.0212 7.29416 30.1803 7.47933 30.2951C7.6645 30.4098 7.87535 30.4766 8.09281 30.4893C8.31027 30.5021 8.52748 30.4604 8.72478 30.3681C8.92209 30.2757 9.09326 30.1357 9.22281 29.9606C9.35237 29.7854 9.43622 29.5808 9.46678 29.3651C9.49734 29.1494 9.47364 28.9295 9.39783 28.7253C9.32202 28.5211 9.19649 28.339 9.0326 28.1955C8.86871 28.052 8.67163 27.9516 8.45919 27.9035C8.56506 28.1925 8.56577 28.5097 8.46119 28.7992C8.35661 29.0887 8.15342 29.3322 7.88726 29.4869Z" fill="#F25E57"/>
<path d="M2.6217 15.7225L13.9685 22.2738L11.348 26.8126L0.00118899 20.2613L2.6217 15.7225Z" fill="#25D3D6"/>
<path d="M6.97728 18.2377C6.5204 18.9351 5.8142 19.4314 5.00329 19.6251C4.19238 19.8187 3.33812 19.695 2.61543 19.2793L1.08046 18.393L0.00146484 20.262L11.3483 26.8133L13.9688 22.2746L6.97728 18.2377Z" fill="#10B3B5"/>
<path d="M5.45873 17.3611L4.14847 19.6305C4.10577 19.7056 4.04863 19.7715 3.98035 19.8245C3.91207 19.8774 3.83399 19.9163 3.75061 19.9389C3.66723 19.9616 3.58019 19.9675 3.49451 19.9564C3.40884 19.9452 3.32621 19.9173 3.25139 19.8741C3.17656 19.8309 3.11102 19.7733 3.05854 19.7046C3.00606 19.636 2.96767 19.5577 2.94559 19.4742C2.92351 19.3906 2.91816 19.3036 2.92987 19.2179C2.94157 19.1323 2.97009 19.0499 3.01379 18.9754L4.32405 16.706L5.45873 17.3611Z" fill="#F89C8D"/>
<path d="M7.72814 18.6714L6.41788 20.9408C6.37518 21.0159 6.31804 21.0818 6.24976 21.1347C6.18148 21.1877 6.1034 21.2266 6.02002 21.2492C5.93664 21.2718 5.8496 21.2778 5.76392 21.2666C5.67825 21.2555 5.59562 21.2275 5.52079 21.1843C5.44597 21.1411 5.38043 21.0835 5.32795 21.0149C5.27547 20.9463 5.23708 20.8679 5.215 20.7844C5.19292 20.7009 5.18757 20.6138 5.19928 20.5282C5.21098 20.4426 5.2395 20.3602 5.2832 20.2856L6.59346 18.0163L7.72814 18.6714Z" fill="#F89C8D"/>
<path d="M4.083 19.713C4.02344 19.7898 3.94686 19.8516 3.85932 19.8937C3.77178 19.9357 3.67566 19.9569 3.57855 19.9554C3.46382 19.956 3.35093 19.9266 3.25099 19.8703C3.17111 19.8244 3.10182 19.7621 3.04764 19.6876C2.99345 19.6131 2.95559 19.528 2.93652 19.4379C3.29647 19.6053 3.6863 19.6988 4.083 19.713Z" fill="#F25E57"/>
<path d="M7.72555 18.6714L6.41529 20.9381C6.3597 21.0385 6.27797 21.122 6.17877 21.1796C6.07958 21.2373 5.96662 21.2671 5.85188 21.2657C5.73705 21.267 5.62396 21.2376 5.52432 21.1805C5.37402 21.0929 5.2643 20.9495 5.21893 20.7815C5.17356 20.6135 5.19619 20.4344 5.28192 20.283L5.86498 19.2807C6.31362 19.0267 6.69538 18.6697 6.9787 18.239L7.72555 18.6714Z" fill="#F25E57"/>
<path d="M3.70593 5.50129L8.80087 0.406355L13.4326 5.03812L8.33769 10.1331L3.70593 5.50129Z" fill="#D0D8DA"/>
<path d="M0 9.20568L1.8527 7.35297L6.48446 11.9847L4.63176 13.8374L0 9.20568Z" fill="#D0D8DA"/>
<path d="M2.77966 8.28012L4.63265 6.42713L7.41212 9.20661L5.55914 11.0596L2.77966 8.28012Z" fill="#656B76"/>
<path d="M15.7521 0.868268L15.7095 0.88006C14.9465 1.08799 14.2509 1.49153 13.6917 2.05076C13.1325 2.60999 12.7289 3.30553 12.521 4.06857L12.5092 4.11116L9.72949 1.33144C10.4039 0.656851 11.2736 0.211585 12.2151 0.0587298C13.1567 -0.0941256 14.1226 0.0531799 14.9758 0.479777L15.7521 0.868268Z" fill="#D0D8DA"/>
<path d="M9.72705 8.74414L12.5061 5.96508L21.7696 15.2286L18.9906 18.0077L9.72705 8.74414Z" fill="#10B3B5"/>
<path d="M10.1928 5.65988C9.94942 5.90323 9.66053 6.09627 9.34259 6.22797C9.02464 6.35967 8.68387 6.42746 8.33973 6.42746C7.99559 6.42746 7.65481 6.35967 7.33687 6.22797C7.01893 6.09627 6.73004 5.90323 6.4867 5.65988L5.0179 4.19305L3.70764 5.5033L8.34006 10.1357L13.4356 5.04013L12.1254 3.72987L10.1928 5.65988Z" fill="#93999A"/>
<path d="M3.24435 11.1374L0.656594 8.55162L0.00146484 9.20675L4.63388 13.8392L6.48724 11.9891L5.81246 11.3117C5.43548 11.5976 4.96781 11.7374 4.49578 11.7054C4.02375 11.6733 3.57925 11.4716 3.24435 11.1374Z" fill="#93999A"/>
<path d="M14.3337 0.220346C13.8606 0.545892 13.4534 0.95801 13.1335 1.43496C13.039 1.58069 12.913 1.70342 12.7648 1.79416C12.6167 1.8849 12.4501 1.94135 12.2773 1.95938C12.1045 1.9774 11.9299 1.95655 11.7662 1.89834C11.6025 1.84014 11.4539 1.74605 11.3313 1.62298L10.4606 0.752311C10.1976 0.919599 9.95255 1.11368 9.72949 1.33144L12.5092 4.11116L12.5203 4.06857C12.7285 3.30554 13.1322 2.61004 13.6915 2.05083C14.2508 1.49163 14.9464 1.08807 15.7095 0.880061L15.7521 0.868269L14.9758 0.480433C14.7687 0.377581 14.554 0.290634 14.3337 0.220346Z" fill="#93999A"/>
<path d="M14.5676 8.02227L13.7369 8.85298C13.5675 9.02216 13.3379 9.11719 13.0985 9.11719C12.8591 9.11719 12.6295 9.02216 12.4601 8.85298C12.2908 8.68347 12.1958 8.45374 12.1958 8.21423C12.1958 7.97471 12.2908 7.74498 12.4601 7.57548L13.2901 6.74805L12.5092 5.96189L9.72949 8.74161L18.9943 18.0084L21.774 15.2287L14.5676 8.02227Z" fill="#10B3B5"/>
<path d="M20.7375 17.0336L19.7896 16.0856L29.9807 5.89376L32.7604 8.67347L25.4355 15.9978L20.7375 17.0336Z" fill="#93999A"/>
<path d="M29.2692 6.60523L26.0499 9.82715C26.1697 9.9777 26.2979 10.1214 26.4338 10.2576C27.2999 11.1262 28.4444 11.6618 29.6662 11.7703L32.7578 8.67347L31.7751 7.69078L31.0636 8.40225L29.2692 6.60523Z" fill="#656B76"/>
<path d="M37.5842 3.84976L33.6868 7.74712L30.9071 4.96741L34.8045 1.07005C33.6847 0.595331 32.4347 0.524852 31.2686 0.870689C30.1025 1.21653 29.0931 1.95715 28.4132 2.96563C27.7333 3.97411 27.4253 5.18766 27.542 6.39831C27.6587 7.60896 28.1929 8.74132 29.0529 9.60135C29.9129 10.4614 31.0453 10.9955 32.2559 11.1122C33.4666 11.2289 34.6801 10.921 35.6886 10.2411C36.6971 9.56117 37.4377 8.5517 37.7835 7.38564C38.1294 6.21959 38.0589 4.96955 37.5842 3.84976Z" fill="#D0D8DA"/>
<path d="M37.121 6.97931C36.3936 7.70785 35.4676 8.20582 34.4587 8.41098C33.4498 8.61614 32.4028 8.51938 31.4486 8.13281C30.4944 7.74624 29.6753 7.08699 29.0937 6.23748C28.5121 5.38796 28.1938 4.38587 28.1785 3.35645C27.7866 4.05819 27.5614 4.84075 27.5205 5.64351C27.4795 6.44627 27.624 7.24767 27.9426 7.98564C28.2612 8.7236 28.7454 9.37831 29.3577 9.89905C29.97 10.4198 30.694 10.7926 31.4735 10.9885C32.2531 11.1845 33.0673 11.1983 33.8531 11.029C34.6388 10.8597 35.3751 10.5118 36.0048 10.0122C36.6344 9.51263 37.1407 8.87478 37.4842 8.14809C37.8277 7.42141 37.9994 6.62538 37.9858 5.8217C37.7529 6.246 37.4619 6.63565 37.121 6.97931Z" fill="#93999A"/>
<path d="M36.6887 26.8605V20.3092H33.5971C33.3564 19.4688 33.0224 18.658 32.6014 17.8918L34.7836 15.7096L30.1512 11.0771L27.9689 13.2594C27.2027 12.8385 26.3919 12.5045 25.5515 12.2636V9.17202H19.0002V12.2636C18.1599 12.5045 17.349 12.8385 16.5828 13.2594L14.4006 11.0771L9.76815 15.7096L11.9504 17.8918C11.5294 18.658 11.1954 19.4688 10.9546 20.3092H7.86304V26.8605H10.9546C11.1955 27.7009 11.5295 28.5117 11.9504 29.2779L9.76815 31.4602L14.4006 36.0926L16.5828 33.9103C17.349 34.3313 18.1599 34.6653 19.0002 34.9061V37.9977H25.5515V34.9061C26.3919 34.6653 27.2027 34.3313 27.9689 33.9103L30.1512 36.0926L34.7836 31.4602L32.6014 29.2779C33.0223 28.5117 33.3563 27.7009 33.5971 26.8605H36.6887ZM22.2759 29.481C21.1097 29.481 19.9698 29.1352 19.0001 28.4873C18.0305 27.8395 17.2748 26.9186 16.8285 25.8412C16.3823 24.7638 16.2655 23.5783 16.493 22.4346C16.7205 21.2908 17.2821 20.2402 18.1067 19.4156C18.9312 18.5911 19.9818 18.0295 21.1256 17.802C22.2693 17.5745 23.4548 17.6912 24.5322 18.1375C25.6096 18.5838 26.5305 19.3395 27.1783 20.3091C27.8262 21.2787 28.172 22.4187 28.172 23.5849C28.172 25.1486 27.5508 26.6483 26.4451 27.7541C25.3393 28.8598 23.8396 29.481 22.2759 29.481Z" fill="#F89C8D"/>
<path d="M30.1374 33.4118C27.5035 33.4116 24.9056 32.8006 22.5477 31.6268C20.1898 30.453 18.1363 28.7485 16.5485 26.647C14.9606 24.5455 13.8818 22.1045 13.3966 19.5157C12.9115 16.9269 13.0334 14.2608 13.7526 11.727L9.76815 15.7115L11.9504 17.8938C11.5295 18.6593 11.1955 19.4695 10.9546 20.3092H7.86304V26.8605H10.9546C11.1955 27.7009 11.5295 28.5117 11.9504 29.2779L9.76815 31.4602L14.4006 36.0926L16.5828 33.9103C17.349 34.3313 18.1599 34.6653 19.0002 34.9061V37.9977H25.5515V34.9061C26.3919 34.6653 27.2027 34.3313 27.9689 33.9103L30.1512 36.0926L33.0927 33.1511C32.117 33.3234 31.1282 33.4107 30.1374 33.4118Z" fill="#F25E57"/>
</svg>
