<svg width="38" height="36" viewBox="0 0 38 36" fill="none" xmlns="http://www.w3.org/2000/svg">
<path d="M22.2759 29.931H1.96558V10.931L12.4483 5.68965L22.2759 10.931V29.931Z" fill="#D0D8DA"/>
<path d="M14.4139 18.1379C9.93182 18.1379 6.11806 15.32 4.61902 11.3641L12.4483 7.65517L22.2759 12.3102V10.931L12.4483 5.68965L1.96558 10.931V29.931H22.2759V18.1379H14.4139Z" fill="#93999A"/>
<path d="M7.86206 22.7241H16.3793V29.931H7.86206V22.7241Z" fill="#25D3D6"/>
<path d="M24.8965 12.2414L12.4482 6.34483V3.72414L24.8965 9.62069V12.2414Z" fill="#25D3D6"/>
<path d="M12.4483 6.34483L0 12.2414V9.62069L12.4483 3.72414V6.34483Z" fill="#25D3D6"/>
<path d="M12.4482 6.34483L24.8965 12.2414V10.931L12.4482 5.03448V6.34483Z" fill="#10B3B5"/>
<path d="M12.4483 5.03448L0 10.931V12.2414L12.4483 6.34483V5.03448Z" fill="#10B3B5"/>
<path d="M9.82764 10.2759H12.4483V12.8965H9.82764V10.2759Z" fill="#25D3D6"/>
<path d="M12.4482 10.2759H15.0689V12.8965H12.4482V10.2759Z" fill="#25D3D6"/>
<path d="M15.0689 12.8965H12.4482V10.2759L15.0689 12.8965Z" fill="#10B3B5"/>
<path d="M12.4483 12.8965H9.82764V10.2759L12.4483 12.8965Z" fill="#10B3B5"/>
<path d="M9.82764 12.8965H12.4483V15.5172H9.82764V12.8965Z" fill="#25D3D6"/>
<path d="M12.4482 12.8965H15.0689V15.5172H12.4482V12.8965Z" fill="#25D3D6"/>
<path d="M15.0689 15.5172H12.4482V12.8965L15.0689 15.5172Z" fill="#10B3B5"/>
<path d="M12.4483 15.5172H9.82764V12.8965L12.4483 15.5172Z" fill="#10B3B5"/>
<path d="M11.7931 19.4483H28.8276V32.5517H11.7931V19.4483Z" fill="#FFD8D7"/>
<path d="M27.5172 24.0345V27.9655H24.2414C19.8995 27.9655 16.3793 24.4453 16.3793 20.1034V19.4483H11.7931V32.5517H28.8276V22.1895C28.0656 22.4601 27.5172 23.1801 27.5172 24.0345Z" fill="#FFAAA6"/>
<path d="M37.9999 32.5517H28.8275V22.069H33.4137L37.9999 27.3103V32.5517Z" fill="#F89C8D"/>
<path d="M31.4482 28.6207C30.7242 28.6207 30.1379 28.0343 30.1379 27.3103V22.069H28.8275V32.5517H37.9999V28.6207H31.4482Z" fill="#F25E57"/>
<path d="M37.9998 27.3103H31.4481V22.069H33.4136L37.9998 27.3103Z" fill="#25D3D6"/>
<path d="M37.9998 27.3103H31.4481V22.069L33.4136 25.3448L37.9998 27.3103Z" fill="#10B3B5"/>
<path d="M33.4137 35.1724C34.861 35.1724 36.0343 33.9991 36.0343 32.5517C36.0343 31.1044 34.861 29.931 33.4137 29.931C31.9663 29.931 30.793 31.1044 30.793 32.5517C30.793 33.9991 31.9663 35.1724 33.4137 35.1724Z" fill="#545A63"/>
<path d="M18.3447 35.1724C19.7921 35.1724 20.9654 33.9991 20.9654 32.5517C20.9654 31.1044 19.7921 29.931 18.3447 29.931C16.8973 29.931 15.724 31.1044 15.724 32.5517C15.724 33.9991 16.8973 35.1724 18.3447 35.1724Z" fill="#545A63"/>
<path d="M33.4136 33.8621C34.1373 33.8621 34.724 33.2754 34.724 32.5517C34.724 31.828 34.1373 31.2414 33.4136 31.2414C32.6899 31.2414 32.1033 31.828 32.1033 32.5517C32.1033 33.2754 32.6899 33.8621 33.4136 33.8621Z" fill="#E9F1F2"/>
<path d="M18.3446 33.8621C19.0683 33.8621 19.655 33.2754 19.655 32.5517C19.655 31.828 19.0683 31.2414 18.3446 31.2414C17.621 31.2414 17.0343 31.828 17.0343 32.5517C17.0343 33.2754 17.621 33.8621 18.3446 33.8621Z" fill="#E9F1F2"/>
<path d="M18.3447 33.2069C18.7066 33.2069 18.9999 32.9136 18.9999 32.5517C18.9999 32.1899 18.7066 31.8965 18.3447 31.8965C17.9829 31.8965 17.6896 32.1899 17.6896 32.5517C17.6896 32.9136 17.9829 33.2069 18.3447 33.2069Z" fill="#D0D8DA"/>
<path d="M33.4137 33.2069C33.7756 33.2069 34.0689 32.9136 34.0689 32.5517C34.0689 32.1899 33.7756 31.8965 33.4137 31.8965C33.0519 31.8965 32.7585 32.1899 32.7585 32.5517C32.7585 32.9136 33.0519 33.2069 33.4137 33.2069Z" fill="#D0D8DA"/>
<path d="M22.9309 23.3793H15.0689C14.7066 23.3793 14.4137 23.0864 14.4137 22.7241C14.4137 22.3618 14.7066 22.069 15.0689 22.069H22.9309C23.2932 22.069 23.5861 22.3618 23.5861 22.7241C23.5861 23.0864 23.2932 23.3793 22.9309 23.3793Z" fill="#F25E57"/>
<path d="M24.8964 26H17.6895C17.3272 26 17.0343 25.7071 17.0343 25.3448C17.0343 24.9825 17.3272 24.6897 17.6895 24.6897H24.8964C25.2587 24.6897 25.5515 24.9825 25.5515 25.3448C25.5515 25.7071 25.2587 26 24.8964 26Z" fill="#F25E57"/>
<path d="M26.2068 28.6207H21.6206C21.2583 28.6207 20.9655 28.3278 20.9655 27.9655C20.9655 27.6032 21.2583 27.3103 21.6206 27.3103H26.2068C26.5691 27.3103 26.862 27.6032 26.862 27.9655C26.862 28.3278 26.5691 28.6207 26.2068 28.6207Z" fill="#F25E57"/>
<path d="M14.4137 22.7241C14.4137 23.0864 14.7066 23.3793 15.0689 23.3793H17.1012C16.9086 22.9607 16.7546 22.523 16.6374 22.069H15.0689C14.7066 22.069 14.4137 22.3618 14.4137 22.7241Z" fill="#F25E57"/>
<path d="M17.0343 25.3448C17.0343 25.7071 17.3272 26 17.6895 26H19.0529C18.6093 25.6095 18.2103 25.1705 17.8644 24.6897H17.6895C17.3272 24.6897 17.0343 24.9825 17.0343 25.3448Z" fill="#F25E57"/>
<path d="M20.9655 27.9655C20.9655 28.3278 21.2583 28.6207 21.6206 28.6207H26.2068C26.5691 28.6207 26.862 28.3278 26.862 27.9655H24.2413C23.2055 27.9655 22.2195 27.7604 21.314 27.3962C21.1096 27.5069 20.9655 27.7165 20.9655 27.9655Z" fill="#F25E57"/>
<path d="M0 27.3103H7.86207V35.1724H0V27.3103Z" fill="#F89C8D"/>
<path d="M3.27586 28.6207V27.3103H0V35.1724H7.86207V33.2069C5.32917 33.2069 3.27586 31.1536 3.27586 28.6207Z" fill="#F25E57"/>
<path d="M2.62073 27.3103H5.24142V29.931H2.62073V27.3103Z" fill="#FFD8D7"/>
<path d="M3.46852 29.931C3.34469 29.5157 3.2759 29.076 3.2759 28.6207V27.3103H2.62073V29.931H3.46852Z" fill="#FFAAA6"/>
<path d="M32.7587 -1.90735e-06C30.5874 -1.90735e-06 28.8276 1.75979 28.8276 3.93103C28.8276 7.86207 32.7587 10.4828 32.7587 10.4828C32.7587 10.4828 36.6897 7.86207 36.6897 3.93103C36.6897 1.75979 34.9299 -1.90735e-06 32.7587 -1.90735e-06ZM32.7587 5.24138C32.0347 5.24138 31.4483 4.655 31.4483 3.93103C31.4483 3.20707 32.0347 2.62069 32.7587 2.62069C33.4826 2.62069 34.069 3.20707 34.069 3.93103C34.069 4.655 33.4826 5.24138 32.7587 5.24138Z" fill="#F89C8D"/>
<path d="M30.6326 4.37458C30.4249 3.87141 30.2677 3.33024 30.1911 2.75696C30.1013 2.08869 30.1688 1.42762 30.364 0.818964C29.4311 1.53703 28.8276 2.66262 28.8276 3.93103C28.8276 7.86207 32.7587 10.4828 32.7587 10.4828C32.7587 10.4828 35.4265 8.69807 36.3641 5.86969C34.5545 7.3091 31.6547 6.84721 30.6326 4.37458Z" fill="#F25E57"/>
</svg>
