<svg width="38" height="38" viewBox="0 0 38 38" fill="none" xmlns="http://www.w3.org/2000/svg">
<path d="M20.9656 19.6524C22.7748 19.6524 24.2414 18.1858 24.2414 16.3766C24.2414 14.5674 22.7748 13.1007 20.9656 13.1007C19.1564 13.1007 17.6897 14.5674 17.6897 16.3766C17.6897 18.1858 19.1564 19.6524 20.9656 19.6524Z" fill="#93999A"/>
<path d="M22.6035 19.2135C22.1065 19.5034 21.5409 19.655 20.9656 19.6524C20.0967 19.6524 19.2635 19.3073 18.6492 18.693C18.0348 18.0786 17.6897 17.2454 17.6897 16.3766C17.6897 15.5078 18.0348 14.6745 18.6492 14.0602C19.2635 13.4459 20.0967 13.1007 20.9656 13.1007C21.5409 13.0982 22.1065 13.2498 22.6035 13.5397C22.1055 13.8272 21.692 14.2407 21.4045 14.7387C21.1171 15.2367 20.9657 15.8016 20.9657 16.3766C20.9657 16.9516 21.1171 17.5165 21.4045 18.0144C21.692 18.5124 22.1055 18.9259 22.6035 19.2135Z" fill="#656B76"/>
<path d="M19 10.48H19.6552C20.1765 10.48 20.6764 10.6871 21.045 11.0557C21.4136 11.4243 21.6207 11.9243 21.6207 12.4455C21.6207 13.1406 21.3446 13.8072 20.8531 14.2987C20.3616 14.7901 19.6951 15.0662 19 15.0662V10.48Z" fill="#EDB88E"/>
<path d="M5.89661 15.0662C5.20156 15.0662 4.53497 14.7901 4.0435 14.2987C3.55202 13.8072 3.27592 13.1406 3.27592 12.4455C3.27592 11.9243 3.483 11.4243 3.8516 11.0557C4.22021 10.6871 4.72015 10.48 5.24143 10.48H5.89661V15.0662Z" fill="#EDB88E"/>
<path d="M20.3103 12.4455C19.8916 12.8644 19.656 13.4322 19.6552 14.0245C19.6561 14.3336 19.7398 14.6367 19.8976 14.9024C19.6106 15.0102 19.3066 15.0657 19 15.0662V10.48H19.6552C20.1363 10.4797 20.6006 10.657 20.959 10.978C20.9326 11.5307 20.7013 12.0539 20.3103 12.4455Z" fill="#DA9367"/>
<path d="M4.58624 12.4455C5.00502 12.8644 5.24063 13.4322 5.24142 14.0245C5.24049 14.3336 5.15679 14.6367 4.999 14.9024C5.28601 15.0102 5.59001 15.0657 5.89659 15.0662V10.48H5.24142C4.76031 10.4797 4.29603 10.657 3.93762 10.978C3.96402 11.5307 4.19524 12.0539 4.58624 12.4455Z" fill="#DA9367"/>
<path d="M11.7931 2.61796H13.1034C15.0148 2.61796 16.8479 3.37726 18.1995 4.72881C19.551 6.08037 20.3103 7.91347 20.3103 9.82486V10.48C20.3103 11.0013 20.1032 11.5013 19.7346 11.8699C19.366 12.2385 18.8661 12.4455 18.3448 12.4455H6.5517C6.03041 12.4455 5.53047 12.2385 5.16187 11.8699C4.79326 11.5013 4.58618 11.0013 4.58618 10.48V9.82486C4.58618 7.91347 5.34548 6.08037 6.69703 4.72881C8.04859 3.37726 9.88169 2.61796 11.7931 2.61796Z" fill="#93999A"/>
<path d="M19 9.82486C15.4037 9.82486 12.3028 8.48699 10.7985 6.54899H13.6158C14.0168 6.54897 14.4123 6.64232 14.7709 6.82166C15.1296 7.00099 15.4416 7.26138 15.6822 7.5822C15.7691 7.69801 15.8799 7.7938 16.007 7.86308C16.1342 7.93236 16.2747 7.97351 16.4192 7.98376C16.5636 7.99401 16.7085 7.97312 16.8442 7.92249C16.9799 7.87186 17.1031 7.79268 17.2055 7.6903L17.6896 7.20417L17.5514 7.13472C17.2783 6.99817 17.038 6.80415 16.847 6.56598C16.656 6.3278 16.5188 6.05112 16.4448 5.75493C16.7615 5.62999 17.0403 5.42495 17.2539 5.15988C17.4675 4.8948 17.6086 4.57879 17.6634 4.24279C16.3771 3.19009 14.7656 2.61588 13.1034 2.61796H11.7931C10.8465 2.61744 9.90912 2.8035 9.03451 3.1655C8.15989 3.5275 7.36521 4.05833 6.69588 4.72766C6.02656 5.39698 5.49572 6.19167 5.13372 7.06629C4.77173 7.9409 4.58567 8.87829 4.58618 9.82486V10.48C4.58618 11.0013 4.79326 11.5013 5.16187 11.8699C5.53048 12.2385 6.03041 12.4455 6.5517 12.4455H18.3448C18.8661 12.4455 19.366 12.2385 19.7346 11.8699C20.1032 11.5013 20.3103 11.0013 20.3103 10.48V9.76589C19.8845 9.8052 19.4455 9.82486 19 9.82486Z" fill="#656B76"/>
<path d="M5.24138 22.2731H19.6552C21.0453 22.2731 22.3784 22.8253 23.3614 23.8083C24.3443 24.7912 24.8966 26.1244 24.8966 27.5145V37.9973H0V27.5145C0 26.1244 0.552215 24.7912 1.53516 23.8083C2.51811 22.8253 3.85128 22.2731 5.24138 22.2731Z" fill="#25D3D6"/>
<path d="M24.8966 27.5145V37.9973H0V27.5145C0 26.1244 0.552215 24.7912 1.53516 23.8083C2.51811 22.8253 3.85128 22.2731 5.24138 22.2731H7.2069L8.30628 27.7713C8.36567 28.0685 8.52623 28.3359 8.7606 28.528C8.99498 28.7201 9.28869 28.825 9.59172 28.8249H15.3048C15.6079 28.825 15.9016 28.7201 16.136 28.528C16.3703 28.3359 16.5309 28.0685 16.5903 27.7713L17.6897 22.2731H19.6552C20.097 22.2739 20.5371 22.3289 20.9655 22.4369V23.5835C20.9655 24.6261 21.3797 25.6259 22.1169 26.3631C22.8541 27.1004 23.854 27.5145 24.8966 27.5145Z" fill="#10B3B5"/>
<path d="M17.6896 23.5835L15.0689 29.48L12.4482 26.2042L15.7241 22.2731H17.6896V23.5835Z" fill="#10B3B5"/>
<path d="M7.20691 23.5835L8.51725 28.8249L12.4483 26.2042L9.17243 22.2731H7.20691V23.5835Z" fill="#10B3B5"/>
<path d="M15.7241 22.2731L12.4482 26.2042L9.17236 22.2731V18.3421H15.7241V22.2731Z" fill="#EDB88E"/>
<path d="M15.7241 21.7031C14.5994 22.8129 13.1085 23.4745 11.531 23.5638C12.3302 23.9584 13.2023 24.1837 14.0927 24.2255L12.4482 26.2042L9.17236 22.2731V18.3421H15.7241V21.7031Z" fill="#DA9367"/>
<path d="M17.6896 23.5835L15.7241 27.5145L12.4482 26.2042L15.7241 22.2731H17.6896V23.5835Z" fill="#ADE8F4"/>
<path d="M7.20691 23.5835L9.17243 27.5145L12.4483 26.2042L9.17243 22.2731H7.20691V23.5835Z" fill="#ADE8F4"/>
<path d="M12.4483 22.2731C10.7107 22.2731 9.04425 21.5829 7.81556 20.3542C6.58688 19.1255 5.89661 17.459 5.89661 15.7214V11.7904C6.82011 11.7904 7.71513 11.4706 8.4295 10.8853C9.14388 10.3001 9.63352 9.48549 9.81519 8.58003L9.82764 8.51451C12.3676 10.6312 15.5693 11.7904 18.8756 11.7904H19.0001V15.7214C19.0001 17.459 18.3098 19.1255 17.0811 20.3542C15.8524 21.5829 14.186 22.2731 12.4483 22.2731Z" fill="#F9DBAF"/>
<path d="M20.3103 30.7904H24.8965V37.9973H20.3103V30.7904Z" fill="#F9DBAF"/>
<path d="M0 30.7904H4.58621V37.9973H0V30.7904Z" fill="#F9DBAF"/>
<path d="M17.6896 22.2731V28.1697C17.6896 28.691 17.4825 29.1909 17.1139 29.5595C16.7453 29.9281 16.2454 30.1352 15.7241 30.1352H9.17239C8.6511 30.1352 8.15116 29.9281 7.78256 29.5595C7.41395 29.1909 7.20687 28.691 7.20687 28.1697V22.2731H5.24135C5.06759 22.2731 4.90095 22.3422 4.77808 22.465C4.65521 22.5879 4.58618 22.7545 4.58618 22.9283V37.9973H20.3103V22.9283C20.3103 22.7545 20.2413 22.5879 20.1184 22.465C19.9956 22.3422 19.8289 22.2731 19.6551 22.2731H17.6896Z" fill="#E9F1F2"/>
<path d="M19.0001 11.7904V13.7559H18.8756C15.5693 13.7557 12.3677 12.5965 9.82764 10.48L9.81454 10.5455C9.70154 11.1083 9.46867 11.64 9.13177 12.1047C8.79486 12.5693 8.36183 12.956 7.86213 13.2383V14.4111C7.86213 16.1487 8.5524 17.8151 9.78108 19.0438C11.0098 20.2725 12.6762 20.9628 14.4138 20.9628C15.3073 20.9662 16.1914 20.7809 17.0083 20.419C16.0855 21.3169 14.9183 21.9228 13.6529 22.1607C12.3874 22.3987 11.0799 22.2582 9.89394 21.7568C8.70796 21.2554 7.69616 20.4154 6.98516 19.3419C6.27415 18.2684 5.89551 17.009 5.89661 15.7214V11.7904C6.82046 11.792 7.71621 11.4728 8.43081 10.8872C9.14541 10.3017 9.63451 9.48617 9.81454 8.58003L9.82764 8.51451C11.0886 9.56495 12.5231 10.3875 14.0666 10.9452C15.6078 11.506 17.2355 11.7921 18.8756 11.7904H19.0001Z" fill="#EDB88E"/>
<path d="M20.3103 34.0662V37.9973H4.58618V22.9283C4.58618 22.7545 4.65521 22.5879 4.77808 22.465C4.90095 22.3422 5.06759 22.2731 5.24135 22.2731H5.89653V27.5145C5.89653 29.2521 6.5868 30.9186 7.81548 32.1473C9.04417 33.376 10.7106 34.0662 12.4483 34.0662H20.3103Z" fill="#D0D8DA"/>
<path d="M7.86206 35.3766H17.0345V37.9973H7.86206V35.3766Z" fill="#25D3D6"/>
<path d="M24.8965 30.7904V32.1597C23.9806 32.3132 23.1488 32.7865 22.549 33.4954C21.9492 34.2044 21.6203 35.1031 21.6206 36.0318V37.9973H20.3103V30.7904H24.8965Z" fill="#EDB88E"/>
<path d="M0 30.7904V32.1597C0.915883 32.3132 1.74766 32.7865 2.34747 33.4954C2.94727 34.2044 3.27623 35.1031 3.27586 36.0318V37.9973H4.58621V30.7904H0Z" fill="#EDB88E"/>
<path d="M12.4482 19.9604C11.8919 19.9606 11.343 19.8317 10.845 19.5836C10.6895 19.506 10.5712 19.3697 10.5162 19.2048C10.4611 19.0399 10.4738 18.8599 10.5515 18.7044C10.6292 18.5489 10.7654 18.4306 10.9303 18.3756C11.0952 18.3205 11.2752 18.3332 11.4307 18.4109C11.7468 18.5683 12.0951 18.6502 12.4482 18.6502C12.8013 18.6502 13.1496 18.5683 13.4657 18.4109C13.6212 18.3332 13.8012 18.3205 13.9661 18.3756C14.131 18.4306 14.2673 18.5489 14.3449 18.7044C14.4226 18.8599 14.4353 19.0399 14.3803 19.2048C14.3252 19.3697 14.2069 19.506 14.0514 19.5836C13.5534 19.8317 13.0046 19.9606 12.4482 19.9604Z" fill="#F25E57"/>
<path d="M11.1379 15.0662C11.0365 15.0662 10.9365 15.0427 10.8457 14.9974C10.5296 14.84 10.1813 14.7581 9.82822 14.7581C9.47511 14.7581 9.12682 14.84 8.81073 14.9974C8.73373 15.0359 8.6499 15.0588 8.56404 15.0649C8.47818 15.0709 8.39197 15.06 8.31032 15.0328C8.22868 15.0055 8.1532 14.9625 8.0882 14.906C8.0232 14.8496 7.96995 14.7809 7.93149 14.7039C7.89303 14.6269 7.87012 14.5431 7.86406 14.4572C7.85799 14.3714 7.8689 14.2852 7.89616 14.2035C7.92341 14.1219 7.96648 14.0464 8.02291 13.9814C8.07933 13.9164 8.14801 13.8631 8.22501 13.8247C8.72328 13.5774 9.27198 13.4488 9.82822 13.4488C10.3845 13.4488 10.9332 13.5774 11.4314 13.8247C11.5637 13.8906 11.6698 13.9993 11.7325 14.1331C11.7952 14.2669 11.8108 14.418 11.7768 14.5618C11.7428 14.7056 11.6612 14.8337 11.5452 14.9253C11.4292 15.0168 11.2857 15.0665 11.1379 15.0662Z" fill="#656B76"/>
<path d="M16.3794 15.0662C16.2779 15.0662 16.1779 15.0427 16.0872 14.9974C15.7711 14.84 15.4228 14.7581 15.0697 14.7581C14.7166 14.7581 14.3683 14.84 14.0522 14.9974C13.8967 15.0751 13.7167 15.0878 13.5518 15.0328C13.3869 14.9777 13.2506 14.8594 13.1729 14.7039C13.0953 14.5484 13.0826 14.3684 13.1376 14.2035C13.1927 14.0386 13.3109 13.9024 13.4665 13.8247C13.9647 13.5774 14.5134 13.4488 15.0697 13.4488C15.6259 13.4488 16.1746 13.5774 16.6729 13.8247C16.8051 13.8906 16.9112 13.9993 16.9739 14.1331C17.0366 14.2669 17.0522 14.418 17.0182 14.5618C16.9842 14.7056 16.9026 14.8337 16.7866 14.9253C16.6707 15.0168 16.5271 15.0665 16.3794 15.0662Z" fill="#656B76"/>
<path d="M17.0345 7.85934C16.9265 7.85946 16.8202 7.83291 16.725 7.78205C16.6298 7.73118 16.5486 7.65758 16.4887 7.56779C16.1464 7.05295 15.6822 6.63071 15.1373 6.33866C14.5924 6.0466 13.9837 5.89379 13.3655 5.89382H11.5376C10.9187 5.89314 10.3092 6.04564 9.76359 6.33773C9.21795 6.62981 8.75308 7.05239 8.41044 7.56779C8.36269 7.63937 8.30131 7.70085 8.2298 7.74871C8.15828 7.79657 8.07805 7.82988 7.99366 7.84673C7.90928 7.86358 7.82241 7.86365 7.738 7.84693C7.65359 7.8302 7.5733 7.79702 7.50172 7.74927C7.43013 7.70152 7.36865 7.64013 7.32079 7.56862C7.27293 7.49711 7.23962 7.41688 7.22277 7.33249C7.20592 7.24811 7.20585 7.16123 7.22258 7.07683C7.2393 6.99242 7.27248 6.91213 7.32023 6.84055C7.7821 6.14604 8.40855 5.57653 9.14379 5.18274C9.87903 4.78894 10.7002 4.58307 11.5343 4.58348H13.3655C14.2001 4.58253 15.022 4.78814 15.7579 5.18196C16.4937 5.57578 17.1207 6.14558 17.5829 6.84055C17.6488 6.93945 17.6867 7.05444 17.6923 7.1732C17.6979 7.29196 17.6711 7.41001 17.6148 7.5147C17.5584 7.61939 17.4746 7.70678 17.3724 7.76749C17.2702 7.8282 17.1534 7.85995 17.0345 7.85934Z" fill="#B8BEBF"/>
<path d="M15.7241 5.23865C16.0447 5.24063 16.3609 5.16416 16.6452 5.01591C16.9294 4.86765 17.1731 4.65211 17.355 4.38808C17.5368 4.12405 17.6513 3.81954 17.6885 3.50111C17.7257 3.18267 17.6844 2.85997 17.5683 2.56115C17.4521 2.26233 17.2647 1.99645 17.0222 1.78669C16.7797 1.57694 16.4896 1.42968 16.1772 1.35776C15.8648 1.28583 15.5395 1.29142 15.2297 1.37404C14.92 1.45666 14.6351 1.61379 14.4 1.83175C14.3685 1.33553 14.1491 0.869932 13.7866 0.529663C13.424 0.189394 12.9455 0 12.4482 0C11.951 0 11.4724 0.189394 11.1099 0.529663C10.7473 0.869932 10.528 1.33553 10.4965 1.83175C10.2614 1.61379 9.9765 1.45666 9.66673 1.37404C9.35696 1.29142 9.03168 1.28583 8.71926 1.35776C8.40683 1.42968 8.11674 1.57694 7.87428 1.78669C7.63182 1.99645 7.44434 2.26233 7.3282 2.56115C7.21206 2.85997 7.17078 3.18267 7.20796 3.50111C7.24514 3.81954 7.35965 4.12405 7.54151 4.38808C7.72336 4.65211 7.96704 4.86765 8.25131 5.01591C8.53557 5.16416 8.85178 5.24063 9.17237 5.23865H15.7241Z" fill="#E9F1F2"/>
<path d="M17.6045 3.84313C17.4839 4.24766 17.2355 4.60224 16.8966 4.85381C16.5576 5.10537 16.1463 5.24039 15.7241 5.23865H9.17243C8.70147 5.23809 8.24637 5.06845 7.88996 4.7606C7.53355 4.45275 7.29952 4.02717 7.23047 3.5613C7.16142 3.09543 7.26195 2.62026 7.51375 2.22227C7.76554 1.82427 8.15188 1.52992 8.60242 1.39279C8.54708 1.57777 8.5184 1.76971 8.51725 1.96279C8.51725 2.2209 8.56809 2.47649 8.66687 2.71496C8.76565 2.95343 8.91042 3.1701 9.09294 3.35262C9.27545 3.53513 9.49213 3.67991 9.7306 3.77869C9.96907 3.87747 10.2247 3.92831 10.4828 3.92831H17.0345C17.2276 3.92715 17.4195 3.89847 17.6045 3.84313Z" fill="#D0D8DA"/>
<path d="M37.3448 24.8938C37.2744 24.8937 37.2045 24.8822 37.1378 24.8598C36.4346 24.6263 35.8229 24.1771 35.3896 23.5761C34.9563 22.9751 34.7234 22.2528 34.7241 21.5118V20.9628C34.7241 20.789 34.7931 20.6224 34.916 20.4995C35.0389 20.3766 35.2055 20.3076 35.3793 20.3076C35.5531 20.3076 35.7197 20.3766 35.8426 20.4995C35.9654 20.6224 36.0345 20.789 36.0345 20.9628V21.5118C36.0342 21.9777 36.1806 22.4319 36.4529 22.8098C36.7253 23.1878 37.1098 23.4704 37.5518 23.6175C37.6991 23.667 37.824 23.7671 37.9042 23.9001C37.9845 24.0331 38.0149 24.1902 37.99 24.3436C37.9652 24.4969 37.8866 24.6364 37.7685 24.7372C37.6503 24.838 37.5001 24.8935 37.3448 24.8938Z" fill="#10B3B5"/>
<path d="M33.4137 24.8938V23.5835H30.7931V24.8938L28.5 28.3295C28.2856 28.6527 28.1716 29.032 28.1724 29.4198V36.0318C28.1724 36.553 28.3794 37.053 28.7481 37.4216C29.1167 37.7902 29.6166 37.9973 30.1379 37.9973H34.0689C34.5902 37.9973 35.0901 37.7902 35.4587 37.4216C35.8274 37.053 36.0344 36.553 36.0344 36.0318V29.4198C36.0352 29.032 35.9212 28.6527 35.7068 28.3295L33.4137 24.8938Z" fill="#25D3D6"/>
<path d="M36.0344 35.3766V36.0318C36.0344 36.553 35.8274 37.053 35.4587 37.4216C35.0901 37.7902 34.5902 37.9973 34.0689 37.9973H30.1379C29.6166 37.9973 29.1167 37.7902 28.7481 37.4216C28.3794 37.053 28.1724 36.553 28.1724 36.0318V29.4211C28.175 29.0326 28.2887 28.653 28.4999 28.3269L30.7931 24.8938V23.5835H31.4482V24.7366C31.4474 25.1773 31.5696 25.6095 31.8011 25.9846C32.0326 26.3596 32.3642 26.6626 32.7586 26.8593C33.1529 27.0561 33.4846 27.3591 33.7161 27.7341C33.9476 28.1091 34.0698 28.5414 34.0689 28.9821V33.4111C34.0689 33.9324 34.276 34.4323 34.6446 34.8009C35.0132 35.1695 35.5131 35.3766 36.0344 35.3766Z" fill="#10B3B5"/>
<path d="M30.7931 20.9628H33.4138V23.5835H30.7931V20.9628Z" fill="#D0D8DA"/>
<path d="M32.1035 18.3421H36.0345V20.9628H29.4828C29.4828 20.2677 29.7589 19.6012 30.2504 19.1097C30.7418 18.6182 31.4084 18.3421 32.1035 18.3421Z" fill="#E9F1F2"/>
<path d="M37.9999 20.3076L36.0344 20.9628V18.3421L37.9999 18.9973V20.3076Z" fill="#25D3D6"/>
<path d="M36.0345 19.6524V20.9628H29.4828C29.4807 20.4192 29.6489 19.8887 29.9639 19.4457C30.2788 19.0026 30.7246 18.6694 31.2387 18.4928C31.4783 18.8497 31.8021 19.1421 32.1814 19.3443C32.5607 19.5465 32.984 19.6524 33.4138 19.6524H36.0345Z" fill="#D0D8DA"/>
<path d="M37.9999 19.6524V20.3076L36.0344 20.9628V19.6524H37.9999Z" fill="#10B3B5"/>
<path d="M33.4138 20.9628V21.618C32.8925 21.618 32.3926 21.825 32.024 22.1936C31.6553 22.5623 31.4483 23.0622 31.4483 23.5835H30.7931V20.9628H33.4138Z" fill="#B8BEBF"/>
<path d="M32.1034 30.1352C32.451 30.1352 32.7843 29.9971 33.03 29.7514C33.2757 29.5057 33.4138 29.1724 33.4138 28.8249C33.4138 28.4773 33.2757 28.144 33.03 27.8983C32.7843 27.6526 32.451 27.5145 32.1034 27.5145H25.5517C24.8567 27.5145 24.1901 27.7906 23.6986 28.2821C23.2071 28.7736 22.931 29.4402 22.931 30.1352C22.931 30.8303 23.2071 31.4968 23.6986 31.9883C24.1901 32.4798 24.8567 32.7559 25.5517 32.7559H32.1034C32.451 32.7559 32.7843 32.6178 33.03 32.3721C33.2757 32.1264 33.4138 31.7931 33.4138 31.4455C33.4138 31.098 33.2757 30.7647 33.03 30.519C32.7843 30.2733 32.451 30.1352 32.1034 30.1352Z" fill="#F89C8D"/>
<path d="M33.4138 31.4455C33.4127 31.7928 33.2743 32.1254 33.0288 32.371C32.7833 32.6165 32.4506 32.7549 32.1034 32.7559H25.5517C24.9524 32.7566 24.371 32.5516 23.9046 32.1752C23.4383 31.7988 23.1152 31.2738 22.9895 30.6878C22.8637 30.1019 22.9428 29.4905 23.2136 28.9558C23.4844 28.4212 23.9304 27.9957 24.4772 27.7504C24.3221 28.0874 24.2417 28.4539 24.2413 28.8249C24.2413 29.5199 24.5175 30.1865 25.0089 30.678C25.5004 31.1694 26.167 31.4455 26.862 31.4455H33.4138Z" fill="#F25E57"/>
<path d="M32.7409 27.6868C32.7002 28.0011 32.5467 28.2898 32.3088 28.4992C32.071 28.7085 31.7652 28.8243 31.4483 28.8249H27.5173C27.1697 28.8249 26.8364 28.9629 26.5907 29.2086C26.345 29.4544 26.2069 29.7877 26.2069 30.1352H32.1035C32.3934 30.1364 32.6756 30.0411 32.9053 29.8642C33.1351 29.6874 33.2995 29.4391 33.3726 29.1585C33.4457 28.8778 33.4232 28.5809 33.3089 28.3144C33.1945 28.048 32.9947 27.8272 32.7409 27.6868Z" fill="#F25E57"/>
<path d="M32.1034 35.3766C32.451 35.3766 32.7843 35.2385 33.03 34.9928C33.2757 34.7471 33.4138 34.4138 33.4138 34.0662C33.4138 33.7187 33.2757 33.3854 33.03 33.1397C32.7843 32.8939 32.451 32.7559 32.1034 32.7559H25.5517C24.8567 32.7559 24.1901 33.032 23.6986 33.5235C23.2071 34.0149 22.931 34.6815 22.931 35.3766C22.931 36.0716 23.2071 36.7382 23.6986 37.2297C24.1901 37.7212 24.8567 37.9973 25.5517 37.9973H32.1034C32.451 37.9973 32.7843 37.8592 33.03 37.6135C33.2757 37.3677 33.4138 37.0344 33.4138 36.6869C33.4138 36.3394 33.2757 36.0061 33.03 35.7604C32.7843 35.5146 32.451 35.3766 32.1034 35.3766Z" fill="#F89C8D"/>
<path d="M33.4138 36.6869C33.4127 37.0341 33.2743 37.3668 33.0288 37.6123C32.7833 37.8578 32.4506 37.9962 32.1034 37.9973H25.5517C24.9524 37.998 24.371 37.793 23.9046 37.4166C23.4383 37.0402 23.1152 36.5152 22.9895 35.9292C22.8637 35.3432 22.9428 34.7319 23.2136 34.1972C23.4844 33.6626 23.9304 33.2371 24.4772 32.9918C24.3221 33.3287 24.2417 33.6953 24.2413 34.0662C24.2413 34.7613 24.5175 35.4279 25.0089 35.9193C25.5004 36.4108 26.167 36.6869 26.862 36.6869H33.4138Z" fill="#F25E57"/>
<path d="M32.7409 32.9282C32.7002 33.2424 32.5467 33.5312 32.3088 33.7405C32.071 33.9499 31.7652 34.0657 31.4483 34.0662H27.5173C27.1697 34.0662 26.8364 34.2043 26.5907 34.45C26.345 34.6958 26.2069 35.0291 26.2069 35.3766H32.1035C32.3934 35.3778 32.6756 35.2825 32.9053 35.1056C33.1351 34.9288 33.2995 34.6805 33.3726 34.3998C33.4457 34.1192 33.4232 33.8223 33.3089 33.5558C33.1945 33.2894 32.9947 33.0685 32.7409 32.9282Z" fill="#F25E57"/>
</svg>
