<svg width="70" height="70" viewBox="0 0 70 70" fill="none" xmlns="http://www.w3.org/2000/svg">
<rect width="70" height="70" fill="white"/>
<path d="M8.44824 38.6206H66.3793V65.1723H8.44824V38.6206Z" fill="#D0D8DA"/>
<path d="M66.3793 38.6206H8.44824V65.1723H66.3793V60.3447H42.2413C37.44 60.3447 32.8353 58.4374 29.4403 55.0424C26.0452 51.6473 24.1379 47.0426 24.1379 42.2413H66.3793V38.6206Z" fill="#93999A"/>
<path d="M22.9312 9.65527H66.3794V38.6208H22.9312V9.65527Z" fill="#E9F1F2"/>
<path d="M50.6898 32.5863C45.5684 32.5863 40.6567 30.5518 37.0353 26.9304C33.4139 23.309 31.3794 18.3974 31.3794 13.276H66.3794V9.65527H22.9312V38.6208H66.3794V32.5863H50.6898Z" fill="#D0D8DA"/>
<path d="M70.0002 9.65517H19.3105V4.82759L70.0002 0V9.65517Z" fill="#F89C8D"/>
<path d="M28.9653 14.4829H41.0343V24.1381H28.9653V14.4829Z" fill="#7FDFE0"/>
<path d="M48.2759 14.4829H60.3448V24.1381H48.2759V14.4829Z" fill="#7FDFE0"/>
<path d="M48.2759 14.4829V24.1381H60.3448L50.6897 14.4829H48.2759Z" fill="#25D3D6"/>
<path d="M28.9653 14.4829V24.1381H41.0343L31.3791 14.4829H28.9653Z" fill="#25D3D6"/>
<path d="M0 65.1724H70V69.9999H0V65.1724Z" fill="#7FDFE0"/>
<path d="M8.44828 67.5862C7.60433 67.5843 6.77574 67.3603 6.04587 66.9365C5.316 66.5128 4.71058 65.9043 4.29052 65.1724H0V69.9999H70V67.5862H8.44828Z" fill="#25D3D6"/>
<path d="M42.2412 48.2759H54.3102V65.1724H42.2412V48.2759Z" fill="#F89C8D"/>
<path d="M42.2412 60.3447H54.3102V65.1723H42.2412V60.3447Z" fill="#F25E57"/>
<path d="M42.2412 48.2759V65.1724H54.3102V48.2759H42.2412ZM53.1033 62.7586C50.8627 62.7586 48.7138 61.8686 47.1294 60.2842C45.5451 58.6998 44.655 56.551 44.655 54.3104V49.4828H49.4826C50.4429 49.4828 51.3638 49.8642 52.0428 50.5433C52.7218 51.2223 53.1033 52.1432 53.1033 53.1035V62.7586Z" fill="#F25E57"/>
<path d="M53.1033 62.7585C50.8939 62.7606 48.7723 61.8936 47.1967 60.3447H42.2412V65.1723H54.3102V60.3447H53.1033V62.7585Z" fill="#F25E57"/>
<path d="M14.4829 45.8623H33.7933V55.5175H14.4829V45.8623Z" fill="#7FDFE0"/>
<path d="M14.4829 45.8623H24.1381V55.5175H14.4829V45.8623Z" fill="#25D3D6"/>
<path d="M12.0688 24.1381C11.8947 22.9194 11.3301 21.7901 10.4596 20.9197C9.58915 20.0492 8.45985 19.4846 7.24121 19.3105C8.45985 19.1364 9.58915 18.5718 10.4596 17.7013C11.3301 16.8309 11.8947 15.7016 12.0688 14.4829C12.2429 15.7016 12.8075 16.8309 13.678 17.7013C14.5484 18.5718 15.6777 19.1364 16.8964 19.3105C15.6777 19.4846 14.5484 20.0492 13.678 20.9197C12.8075 21.7901 12.2429 22.9194 12.0688 24.1381Z" fill="#7FDFE0"/>
<path d="M11.5716 16.9667L12.0688 14.4829C11.8947 15.7016 11.3301 16.8309 10.4596 17.7013C9.58915 18.5718 8.45985 19.1364 7.24121 19.3105C8.45985 19.4846 9.58915 20.0492 10.4596 20.9197C11.3301 21.7901 11.8947 22.9194 12.0688 24.1381C12.2429 22.9194 12.8075 21.7901 13.678 20.9197C14.5484 20.0492 15.6777 19.4846 16.8964 19.3105L14.4126 19.8077C14.0228 19.8859 13.6198 19.8665 13.2393 19.7514C12.8588 19.6362 12.5126 19.4289 12.2315 19.1478C11.9504 18.8667 11.7431 18.5205 11.6279 18.14C11.5128 17.7595 11.4934 17.3565 11.5716 16.9667Z" fill="#25D3D6"/>
<path d="M33.7934 55.5175L24.1382 45.8623V55.5175H33.7934Z" fill="#25D3D6"/>
<path d="M14.4829 45.8623V55.5175H24.1381L14.4829 45.8623Z" fill="#25B2B4"/>
<path d="M24.1382 55.5173H35.0003V60.3449H24.1382V55.5173Z" fill="#F89C8D"/>
<path d="M13.2759 55.5173H24.1379V60.3449H13.2759V55.5173Z" fill="#F89C8D"/>
<path d="M70.0002 2.75879L31.8369 6.39638C30.9334 6.4805 30.0246 6.30691 29.2157 5.89573C28.4068 5.48455 27.7309 4.8526 27.2664 4.0731L19.3105 4.82741V9.655H70.0002V2.75879Z" fill="#F25E57"/>
<path d="M28.9653 14.4829V24.1381H34.7259C32.7922 21.2928 31.6585 17.9803 31.4431 14.5469L31.3791 14.4829H28.9653Z" fill="#25B2B4"/>
<path d="M24.1382 55.5175H29.9627C27.3036 53.064 25.4426 49.8686 24.6209 46.3451L24.1382 45.8623V55.5175Z" fill="#25B2B4"/>
<path d="M30.1727 57.9311C29.3287 57.9293 28.5001 57.7052 27.7703 57.2815C27.0404 56.8578 26.435 56.2493 26.0149 55.5173H24.1382V60.3449H35.0003V57.9311H30.1727Z" fill="#F25E57"/>
<path d="M19.3104 57.9311C18.4664 57.9293 17.6378 57.7052 16.908 57.2815C16.1781 56.8578 15.5727 56.2493 15.1526 55.5173H13.2759V60.3449H24.1379V57.9311H19.3104Z" fill="#F25E57"/>
<path d="M66.3791 28.9653H8.44811C8.12802 28.9653 7.82104 29.0925 7.5947 29.3188C7.36837 29.5452 7.24121 29.8521 7.24121 30.1722V38.6205C7.24121 38.9406 7.36837 39.2476 7.5947 39.4739C7.82104 39.7002 8.12802 39.8274 8.44811 39.8274H66.3791C66.6992 39.8274 67.0062 39.7002 67.2325 39.4739C67.4589 39.2476 67.586 38.9406 67.586 38.6205V30.1722C67.586 29.8521 67.4589 29.5452 67.2325 29.3188C67.0062 29.0925 66.6992 28.9653 66.3791 28.9653ZM19.3102 31.3791H21.724V37.4136H19.3102V31.3791ZM16.8964 37.4136H14.4826V31.3791H16.8964V37.4136ZM24.1378 31.3791H26.5516V37.4136H24.1378V31.3791ZM28.9653 31.3791H31.3791V37.4136H28.9653V31.3791ZM33.7929 31.3791H36.2067V37.4136H33.7929V31.3791ZM38.6205 31.3791H41.0343V37.4136H38.6205V31.3791ZM43.4481 31.3791H45.8619V37.4136H43.4481V31.3791ZM48.2757 31.3791H50.6895V37.4136H48.2757V31.3791ZM53.1033 31.3791H55.5171V37.4136H53.1033V31.3791ZM57.9309 31.3791H60.3447V37.4136H57.9309V31.3791ZM9.655 31.3791H12.0688V37.4136H9.655V31.3791ZM65.1722 37.4136H62.7585V31.3791H65.1722V37.4136Z" fill="#25D3D6"/>
<path d="M54.3105 47.0688H42.2416C41.9215 47.0688 41.6145 47.196 41.3882 47.4223C41.1618 47.6487 41.0347 47.9557 41.0347 48.2757C41.0347 48.5958 41.1618 48.9028 41.3882 49.1291C41.6145 49.3555 41.9215 49.4826 42.2416 49.4826H54.3105C54.6306 49.4826 54.9376 49.3555 55.1639 49.1291C55.3903 48.9028 55.5174 48.5958 55.5174 48.2757C55.5174 47.9557 55.3903 47.6487 55.1639 47.4223C54.9376 47.196 54.6306 47.0688 54.3105 47.0688Z" fill="#25D3D6"/>
<path d="M47.0692 50.6897C46.7491 50.6897 46.4421 50.8169 46.2158 51.0432C45.9895 51.2695 45.8623 51.5765 45.8623 51.8966V59.138C45.8623 59.4581 45.9895 59.765 46.2158 59.9914C46.4421 60.2177 46.7491 60.3449 47.0692 60.3449C47.3893 60.3449 47.6963 60.2177 47.9226 59.9914C48.1489 59.765 48.2761 59.4581 48.2761 59.138V51.8966C48.2761 51.5765 48.1489 51.2695 47.9226 51.0432C47.6963 50.8169 47.3893 50.6897 47.0692 50.6897Z" fill="#7FDFE0"/>
<path d="M54.3101 56.7241H51.8963C51.5763 56.7241 51.2693 56.8513 51.0429 57.0776C50.8166 57.3039 50.6895 57.6109 50.6895 57.931C50.6895 58.2511 50.8166 58.5581 51.0429 58.7844C51.2693 59.0108 51.5763 59.1379 51.8963 59.1379H54.3101V56.7241Z" fill="#7FDFE0"/>
<path d="M51.8965 44.655C52.2166 44.655 52.5236 44.5279 52.7499 44.3015C52.9763 44.0752 53.1034 43.7682 53.1034 43.4481C53.1034 43.128 52.9763 42.821 52.7499 42.5947C52.5236 42.3684 52.2166 42.2412 51.8965 42.2412H44.6551C44.335 42.2412 44.0281 42.3684 43.8017 42.5947C43.5754 42.821 43.4482 43.128 43.4482 43.4481C43.4482 43.7682 43.5754 44.0752 43.8017 44.3015C44.0281 44.5279 44.335 44.655 44.6551 44.655H51.8965Z" fill="#25D3D6"/>
<path d="M6.03448 22.9314H4.82759V21.7245C4.82759 21.4044 4.70043 21.0974 4.47409 20.8711C4.24776 20.6447 3.94078 20.5176 3.62069 20.5176C3.3006 20.5176 2.99362 20.6447 2.76729 20.8711C2.54095 21.0974 2.41379 21.4044 2.41379 21.7245V22.9314H1.2069C0.886808 22.9314 0.579829 23.0585 0.353492 23.2849C0.127155 23.5112 0 23.8182 0 24.1383C0 24.4584 0.127155 24.7653 0.353492 24.9917C0.579829 25.218 0.886808 25.3452 1.2069 25.3452H2.41379V26.5521C2.41379 26.8721 2.54095 27.1791 2.76729 27.4055C2.99362 27.6318 3.3006 27.759 3.62069 27.759C3.94078 27.759 4.24776 27.6318 4.47409 27.4055C4.70043 27.1791 4.82759 26.8721 4.82759 26.5521V25.3452H6.03448C6.35457 25.3452 6.66155 25.218 6.88789 24.9917C7.11422 24.7653 7.24138 24.4584 7.24138 24.1383C7.24138 23.8182 7.11422 23.5112 6.88789 23.2849C6.66155 23.0585 6.35457 22.9314 6.03448 22.9314Z" fill="#7FDFE0"/>
<path d="M6.03453 6.03462H7.24143V7.24151C7.24143 7.5616 7.36858 7.86858 7.59492 8.09492C7.82126 8.32126 8.12824 8.44841 8.44833 8.44841C8.76842 8.44841 9.07539 8.32126 9.30173 8.09492C9.52807 7.86858 9.65522 7.5616 9.65522 7.24151V6.03462H10.8621C11.1822 6.03462 11.4892 5.90746 11.7155 5.68113C11.9419 5.45479 12.069 5.14781 12.069 4.82772C12.069 4.50763 11.9419 4.20065 11.7155 3.97432C11.4892 3.74798 11.1822 3.62082 10.8621 3.62082H9.65522V2.41393C9.65522 2.09384 9.52807 1.78686 9.30173 1.56052C9.07539 1.33419 8.76842 1.20703 8.44833 1.20703C8.12824 1.20703 7.82126 1.33419 7.59492 1.56052C7.36858 1.78686 7.24143 2.09384 7.24143 2.41393V3.62082H6.03453C5.71444 3.62082 5.40747 3.74798 5.18113 3.97432C4.95479 4.20065 4.82764 4.50763 4.82764 4.82772C4.82764 5.14781 4.95479 5.45479 5.18113 5.68113C5.40747 5.90746 5.71444 6.03462 6.03453 6.03462Z" fill="#7FDFE0"/>
</svg>
