<svg width="81" height="80" viewBox="0 0 81 80" fill="none" xmlns="http://www.w3.org/2000/svg">
<path d="M45.2499 0L28.6983 28.6688L41.8375 36.255L40.8279 32.4867L44.5961 31.4771L42.392 27.0178L46.1603 26.0081L43.9561 21.5502L47.7244 20.5406L45.5203 16.0827L49.2885 15.073L48.2789 11.3048L52.0471 10.2951L52.4168 4.13791L45.2499 0Z" fill="#D0D8DA"/>
<path d="M43.9561 21.5502L44.3796 21.4371C43.2707 20.3724 42.5502 18.967 42.3329 17.4451C42.1157 15.9232 42.4142 14.3724 43.1809 13.0399L49.345 2.36412L45.2444 0L28.6927 28.6688L41.832 36.255L40.8306 32.4867L44.5989 31.4757L42.392 27.0178L46.1602 26.0081L43.9561 21.5502Z" fill="#93999A"/>
<path d="M6.89983 79.9998C6.65749 80.0001 6.41936 79.9364 6.20942 79.8154C5.99948 79.6943 5.82515 79.5201 5.70398 79.3102L4.32467 76.9212C4.23374 76.7642 4.17469 76.5907 4.15092 76.4108C4.12715 76.2309 4.13912 76.048 4.18615 75.8727C4.23317 75.6974 4.31433 75.5331 4.42496 75.3893C4.5356 75.2454 4.67354 75.1248 4.83088 75.0343L16.777 68.1378C17.094 67.9549 17.4706 67.9054 17.8241 68.0002C18.1776 68.095 18.4789 68.3264 18.6618 68.6433C18.8447 68.9603 18.8942 69.337 18.7994 69.6904C18.7046 70.0439 18.4733 70.3453 18.1563 70.5282L7.40604 76.735L8.09569 77.9295C8.21715 78.1393 8.28116 78.3774 8.28128 78.6199C8.28139 78.8623 8.21761 79.1005 8.09635 79.3104C7.97509 79.5203 7.80064 79.6946 7.59058 79.8156C7.38052 79.9367 7.14227 80.0002 6.89983 79.9998Z" fill="#93999A"/>
<path d="M7.26975 60.7886L12.787 70.3444C13.5487 71.6638 15.2358 72.1159 16.5552 71.3541L26.111 65.8369C27.4304 65.0751 27.8824 63.388 27.1207 62.0686L21.6035 52.5128C20.8417 51.1934 19.1546 50.7414 17.8352 51.5032L8.2794 57.0204C6.96002 57.7822 6.50798 59.4693 7.26975 60.7886Z" fill="#25D3D6"/>
<path d="M15.2708 52.9838C15.9663 54.8192 15.9868 56.8422 15.3287 58.6913C14.6705 60.5405 13.3765 62.0956 11.6777 63.0789L9.36322 64.414L12.7866 70.345C13.1525 70.9786 13.755 71.4409 14.4617 71.6303C15.1684 71.8196 15.9213 71.7205 16.5549 71.3547L26.1121 65.8375C26.7457 65.4716 27.208 64.8691 27.3973 64.1624C27.5867 63.4558 27.4875 62.7028 27.1217 62.0692L21.6045 52.512C21.2387 51.8785 20.6362 51.4162 19.9295 51.2268C19.2228 51.0375 18.4699 51.1366 17.8363 51.5024L15.2708 52.9838Z" fill="#10B3B5"/>
<path d="M17.1948 64.1876C18.7184 64.1876 19.9534 62.9525 19.9534 61.429C19.9534 59.9055 18.7184 58.6704 17.1948 58.6704C15.6713 58.6704 14.4362 59.9055 14.4362 61.429C14.4362 62.9525 15.6713 64.1876 17.1948 64.1876Z" fill="#F89C8D"/>
<path d="M16.606 62.0808C16.0024 62.4279 15.2894 62.5324 14.6115 62.3733C14.664 62.5233 14.7291 62.6686 14.806 62.8077C15.0338 63.2058 15.3573 63.5407 15.7471 63.7823C16.137 64.0239 16.5809 64.1644 17.0387 64.1913C17.4966 64.2181 17.9539 64.1304 18.3693 63.936C18.7847 63.7416 19.1451 63.4468 19.4179 63.0781C19.6906 62.7094 19.8672 62.2785 19.9315 61.8244C19.9958 61.3703 19.9459 60.9073 19.7863 60.4774C19.6267 60.0474 19.3624 59.664 19.0174 59.3619C18.6723 59.0598 18.2574 58.8485 17.8101 58.7471C18.033 59.3557 18.0345 60.0233 17.8143 60.6329C17.5942 61.2425 17.1664 61.7552 16.606 62.0808Z" fill="#F25E57"/>
<path d="M5.51984 33.1025L29.4094 46.8956L23.8921 56.4514L0.00262737 42.6583L5.51984 33.1025Z" fill="#25D3D6"/>
<path d="M14.69 38.3975C13.7281 39.8657 12.2413 40.9107 10.534 41.3184C8.82675 41.7261 7.02819 41.4657 5.50665 40.5906L2.27495 38.7244L0.00323486 42.6595L23.8927 56.4525L29.41 46.8967L14.69 38.3975Z" fill="#10B3B5"/>
<path d="M11.4928 36.5522L8.73418 41.3301C8.64427 41.4882 8.52397 41.627 8.38021 41.7384C8.23645 41.8499 8.07206 41.9318 7.89652 41.9794C7.72097 42.0271 7.53773 42.0396 7.35734 42.0161C7.17696 41.9927 7.00299 41.9338 6.84546 41.8428C6.68793 41.7519 6.54994 41.6307 6.43945 41.4862C6.32896 41.3417 6.24814 41.1767 6.20164 41.0009C6.15515 40.825 6.1439 40.6417 6.16854 40.4615C6.19318 40.2812 6.25323 40.1077 6.34522 39.9508L9.10383 35.1729L11.4928 36.5522Z" fill="#F89C8D"/>
<path d="M16.2707 39.3105L13.5121 44.0884C13.4222 44.2465 13.3019 44.3853 13.1582 44.4967C13.0144 44.6082 12.85 44.6901 12.6745 44.7377C12.4989 44.7854 12.3157 44.7979 12.1353 44.7744C11.9549 44.751 11.7809 44.6921 11.6234 44.6011C11.4659 44.5102 11.3279 44.389 11.2174 44.2445C11.1069 44.1 11.0261 43.935 10.9796 43.7592C10.9331 43.5833 10.9218 43.4 10.9465 43.2198C10.9711 43.0395 11.0312 42.866 11.1232 42.7091L13.8818 37.9312L16.2707 39.3105Z" fill="#F89C8D"/>
<path d="M8.59633 41.5041C8.47093 41.6656 8.30972 41.7958 8.12541 41.8844C7.9411 41.9729 7.73873 42.0175 7.53427 42.0145C7.29272 42.0155 7.05505 41.9538 6.84462 41.8351C6.67646 41.7385 6.53058 41.6075 6.4165 41.4506C6.30242 41.2937 6.2227 41.1146 6.18256 40.9248C6.94038 41.2772 7.76113 41.4742 8.59633 41.5041Z" fill="#F25E57"/>
<path d="M16.2652 39.3112L13.5066 44.0836C13.3895 44.2949 13.2175 44.4706 13.0086 44.5921C12.7998 44.7135 12.5619 44.7761 12.3204 44.7733C12.0786 44.776 11.8405 44.7141 11.6307 44.5939C11.3143 44.4094 11.0833 44.1075 10.9878 43.7539C10.8922 43.4002 10.9399 43.0231 11.1204 42.7043L12.348 40.594C13.2925 40.0594 14.0963 39.3076 14.6928 38.4009L16.2652 39.3112Z" fill="#F25E57"/>
<path d="M7.80243 11.5825L18.5293 0.855688L28.2809 10.6074L17.5541 21.3342L7.80243 11.5825Z" fill="#D0D8DA"/>
<path d="M0 19.3813L3.90067 15.4807L13.6523 25.2323L9.75167 29.133L0 19.3813Z" fill="#D0D8DA"/>
<path d="M5.85242 17.4331L9.75367 13.5318L15.6056 19.3837L11.7043 23.285L5.85242 17.4331Z" fill="#656B76"/>
<path d="M33.1644 1.82804L33.0748 1.85287C31.4683 2.29065 30.0039 3.14026 28.8265 4.31765C27.6491 5.49505 26.7995 6.95943 26.3617 8.56594L26.3369 8.65559L20.4845 2.80321C21.9045 1.38293 23.7354 0.445469 25.7178 0.123649C27.7002 -0.198171 29.7336 0.111964 31.5299 1.01012L33.1644 1.82804Z" fill="#D0D8DA"/>
<path d="M20.4794 18.4097L26.3304 12.5587L45.8337 32.062L39.9827 37.913L20.4794 18.4097Z" fill="#10B3B5"/>
<path d="M21.4597 11.9165C20.9474 12.4288 20.3392 12.8352 19.6698 13.1125C19.0004 13.3898 18.2829 13.5325 17.5584 13.5325C16.8338 13.5325 16.1164 13.3898 15.447 13.1125C14.7776 12.8352 14.1694 12.4288 13.657 11.9165L10.5646 8.82819L7.80603 11.5868L17.5591 21.3398L28.2873 10.6116L25.5287 7.85303L21.4597 11.9165Z" fill="#93999A"/>
<path d="M6.8309 23.448L1.38266 18.0039L0.00335693 19.3832L9.7564 29.1363L13.6584 25.2411L12.2378 23.8149C11.4441 24.4168 10.4594 24.7112 9.46564 24.6438C8.47184 24.5763 7.536 24.1516 6.8309 23.448Z" fill="#93999A"/>
<path d="M30.1784 0.463867C29.1823 1.14927 28.3249 2.01694 27.6515 3.02109C27.4524 3.32792 27.1871 3.58631 26.8752 3.77736C26.5633 3.9684 26.2126 4.08725 25.8488 4.12521C25.485 4.16316 25.1173 4.11925 24.7727 3.99671C24.428 3.87416 24.1152 3.67607 23.857 3.41695L22.0239 1.58386C21.4701 1.93607 20.9543 2.34468 20.4846 2.80316L26.337 8.65554L26.3604 8.56589C26.7987 6.9594 27.6487 5.49511 28.8263 4.31776C30.0038 3.14041 31.4683 2.29077 33.0749 1.85282L33.1645 1.828L31.5301 1.01145C31.094 0.794907 30.6422 0.611851 30.1784 0.463867Z" fill="#93999A"/>
<path d="M30.6706 16.8902L28.9217 18.6391C28.565 18.9953 28.0816 19.1954 27.5776 19.1954C27.0735 19.1954 26.5901 18.9953 26.2334 18.6391C25.8771 18.2822 25.677 17.7986 25.677 17.2943C25.677 16.79 25.8771 16.3063 26.2334 15.9495L27.981 14.2074L26.3369 12.5522L20.4845 18.4046L39.9906 37.9149L45.843 32.0625L30.6706 16.8902Z" fill="#10B3B5"/>
<path d="M43.6606 35.8619L41.6647 33.866L63.1212 12.4082L68.9735 18.2606L53.5516 33.6812L43.6606 35.8619Z" fill="#93999A"/>
<path d="M61.6233 13.9062L54.8454 20.6897C55.0976 21.0066 55.3675 21.3092 55.6537 21.5959C57.4771 23.4246 59.8867 24.5523 62.4591 24.7807L68.9681 18.2607L66.8991 16.1918L65.4012 17.6897L61.6233 13.9062Z" fill="#656B76"/>
<path d="M79.1294 8.10503L70.924 16.3105L65.0716 10.4581L73.2771 2.25265C70.9195 1.25319 68.2876 1.1048 65.8326 1.83292C63.3776 2.56105 61.2523 4.12034 59.8209 6.24359C58.3894 8.36684 57.741 10.9218 57.9867 13.4707C58.2325 16.0196 59.357 18.4037 61.1677 20.2144C62.9784 22.0251 65.3625 23.1496 67.9114 23.3954C70.4602 23.6411 73.0152 22.9927 75.1385 21.5612C77.2617 20.1298 78.821 18.0044 79.5492 15.5494C80.2773 13.0944 80.1289 10.4626 79.1294 8.10503Z" fill="#D0D8DA"/>
<path d="M78.1542 14.6939C76.6226 16.2278 74.6729 17.2762 72.5488 17.7082C70.4247 18.1401 68.2204 17.9364 66.2115 17.1225C64.2025 16.3086 62.478 14.9207 61.2535 13.1321C60.029 11.3435 59.3588 9.23374 59.3267 7.06641C58.5014 8.54385 58.0273 10.1915 57.9412 11.8816C57.855 13.5717 58.1591 15.259 58.8299 16.8127C59.5007 18.3664 60.5201 19.7448 61.8093 20.8411C63.0985 21.9375 64.6227 22.7224 66.264 23.1349C67.9052 23.5475 69.6194 23.5767 71.2738 23.2202C72.9281 22.8638 74.4782 22.1313 75.8039 21.0794C77.1297 20.0276 78.1955 18.6847 78.9188 17.1547C79.642 15.6247 80.0034 13.9488 79.9748 12.2567C79.4846 13.1501 78.8717 13.9704 78.1542 14.6939Z" fill="#93999A"/>
<path d="M77.244 56.5517V42.7587H70.7351C70.2282 40.9893 69.525 39.2822 68.6386 37.6691L73.233 33.0746L63.48 23.3216L58.8855 27.916C57.2724 27.0298 55.5652 26.3266 53.7959 25.8195V19.3105H40.0029V25.8195C38.2336 26.3266 36.5264 27.0298 34.9133 27.916L30.3188 23.3216L20.5658 33.0746L25.1602 37.6691C24.2738 39.2822 23.5706 40.9893 23.0637 42.7587H16.5547V56.5517H23.0637C23.5708 58.321 24.274 60.0282 25.1602 61.6413L20.5658 66.2358L30.3188 75.9888L34.9133 71.3944C36.5264 72.2806 38.2336 72.9838 40.0029 73.4909V79.9998H53.7959V73.4909C55.5652 72.9838 57.2724 72.2806 58.8855 71.3944L63.48 75.9888L73.233 66.2358L68.6386 61.6413C69.5248 60.0282 70.228 58.321 70.7351 56.5517H77.244ZM46.8994 62.0689C44.4442 62.0689 42.0441 61.3409 40.0027 59.9768C37.9613 58.6128 36.3702 56.674 35.4306 54.4057C34.4911 52.1374 34.2452 49.6414 34.7242 47.2334C35.2032 44.8254 36.3855 42.6135 38.1216 40.8774C39.8577 39.1413 42.0696 37.959 44.4776 37.48C46.8856 37.001 49.3816 37.2468 51.6499 38.1864C53.9182 39.126 55.857 40.7171 57.221 42.7585C58.5851 44.7999 59.3131 47.2 59.3131 49.6552C59.3131 52.9475 58.0052 56.105 55.6772 58.433C53.3492 60.761 50.1917 62.0689 46.8994 62.0689Z" fill="#F89C8D"/>
<path d="M63.451 70.3448C57.9057 70.3445 52.436 69.0581 47.4717 66.5868C42.5075 64.1155 38.184 60.5267 34.841 56.1023C31.4979 51.6779 29.2265 46.5386 28.2052 41.0881C27.1838 35.6376 27.4404 30.0245 28.9547 24.6899L20.5658 33.0789L25.1602 37.6733C24.2741 39.2851 23.5709 40.9908 23.0637 42.7588H16.5547V56.5518H23.0637C23.5708 58.3211 24.274 60.0283 25.1602 61.6414L20.5658 66.2359L30.3188 75.989L34.9133 71.3945C36.5264 72.2807 38.2336 72.9839 40.0029 73.491V80H53.7959V73.491C55.5652 72.9839 57.2724 72.2807 58.8855 71.3945L63.48 75.989L69.6731 69.7959C67.6189 70.1588 65.537 70.3425 63.451 70.3448Z" fill="#F25E57"/>
</svg>
