<svg width="81" height="80" viewBox="0 0 81 80" fill="none" xmlns="http://www.w3.org/2000/svg">
<path d="M44.1411 41.3761C47.9502 41.3761 51.0381 38.2882 51.0381 34.4791C51.0381 30.6699 47.9502 27.582 44.1411 27.582C40.3319 27.582 37.244 30.6699 37.244 34.4791C37.244 38.2882 40.3319 41.3761 44.1411 41.3761Z" fill="#93999A"/>
<path d="M47.5896 40.452C46.5432 41.0624 45.3525 41.3815 44.1411 41.3762C42.3119 41.3762 40.5576 40.6495 39.2641 39.3561C37.9707 38.0626 37.244 36.3084 37.244 34.4791C37.244 32.6499 37.9707 30.8956 39.2641 29.6022C40.5576 28.3087 42.3119 27.5821 44.1411 27.5821C45.3525 27.5768 46.5432 27.8959 47.5896 28.5063C46.5412 29.1117 45.6706 29.9823 45.0653 31.0308C44.46 32.0792 44.1414 33.2685 44.1414 34.4791C44.1414 35.6898 44.46 36.8791 45.0653 37.9275C45.6706 38.976 46.5412 39.8466 47.5896 40.452Z" fill="#656B76"/>
<path d="M40.0029 22.0649H41.3823C42.4799 22.0649 43.5324 22.5009 44.3085 23.277C45.0846 24.0531 45.5206 25.1056 45.5206 26.2032C45.5206 27.6665 44.9392 29.07 43.9045 30.1047C42.8697 31.1395 41.4663 31.7208 40.0029 31.7208V22.0649Z" fill="#EDB88E"/>
<path d="M12.4147 31.7212C10.9513 31.7212 9.54787 31.1399 8.51311 30.1051C7.47836 29.0704 6.89704 27.6669 6.89704 26.2036C6.89704 25.106 7.33303 24.0535 8.10909 23.2774C8.88516 22.5013 9.93774 22.0653 11.0353 22.0653H12.4147V31.7212Z" fill="#EDB88E"/>
<path d="M42.7617 26.2032C41.8801 27.085 41.384 28.2805 41.3823 29.5275C41.3843 30.1782 41.5605 30.8165 41.8927 31.376C41.2885 31.6029 40.6484 31.7197 40.0029 31.7208V22.0649H41.3823C42.3953 22.0643 43.3728 22.4376 44.1274 23.1133C44.0718 24.2771 43.585 25.3786 42.7617 26.2032Z" fill="#DA9367"/>
<path d="M9.6559 26.2032C10.5376 27.085 11.0336 28.2805 11.0353 29.5275C11.0334 30.1782 10.8571 30.8165 10.5249 31.376C11.1292 31.6029 11.7692 31.7197 12.4147 31.7208V22.0649H11.0353C10.0224 22.0643 9.04487 22.4376 8.29028 23.1133C8.34587 24.2771 8.83268 25.3786 9.6559 26.2032Z" fill="#DA9367"/>
<path d="M24.8293 5.51221H27.5881C31.6123 5.51221 35.4718 7.11084 38.3174 9.95642C41.163 12.802 42.7616 16.6614 42.7616 20.6857V22.0651C42.7616 23.1626 42.3256 24.2152 41.5495 24.9913C40.7735 25.7674 39.7209 26.2033 38.6234 26.2033H13.794C12.6965 26.2033 11.6439 25.7674 10.8678 24.9913C10.0918 24.2152 9.65576 23.1626 9.65576 22.0651V20.6857C9.65576 16.6614 11.2544 12.802 14.1 9.95642C16.9456 7.11084 20.805 5.51221 24.8293 5.51221Z" fill="#93999A"/>
<path d="M40.0028 20.6857C32.4312 20.6857 25.9024 17.869 22.7353 13.7887H28.6668C29.5111 13.7886 30.3438 13.9852 31.0989 14.3627C31.8541 14.7403 32.5109 15.2885 33.0174 15.964C33.2004 16.2078 33.4337 16.4095 33.7014 16.5554C33.9691 16.7012 34.265 16.7879 34.5691 16.8095C34.8732 16.831 35.1784 16.787 35.464 16.6804C35.7496 16.5739 36.009 16.4071 36.2246 16.1916L37.2439 15.1681L36.9529 15.0219C36.378 14.7344 35.8721 14.3259 35.4699 13.8244C35.0678 13.323 34.7789 12.7405 34.6231 12.1168C35.2898 11.8538 35.8768 11.4221 36.3266 10.864C36.7764 10.3059 37.0734 9.64058 37.1888 8.93315C34.4805 6.7168 31.0876 5.50785 27.5881 5.51222H24.8293C22.8363 5.51113 20.8628 5.90286 19.0213 6.66502C17.1799 7.42717 15.5068 8.5448 14.0976 9.95401C12.6883 11.3632 11.5707 13.0364 10.8086 14.8778C10.0464 16.7192 9.65468 18.6928 9.65576 20.6857V22.0651C9.65576 23.1627 10.0918 24.2152 10.8678 24.9913C11.6439 25.7674 12.6965 26.2034 13.794 26.2034H38.6234C39.7209 26.2034 40.7735 25.7674 41.5495 24.9913C42.3256 24.2152 42.7616 23.1627 42.7616 22.0651V20.5616C41.865 20.6443 40.9408 20.6857 40.0028 20.6857Z" fill="#656B76"/>
<path d="M11.0353 46.8936H41.3823C44.309 46.8936 47.1159 48.0562 49.1854 50.1257C51.2549 52.1952 52.4176 55.0021 52.4176 57.9288V79.9994H0V57.9288C0 55.0021 1.16264 52.1952 3.23216 50.1257C5.30167 48.0562 8.10854 46.8936 11.0353 46.8936Z" fill="#25D3D6"/>
<path d="M52.4176 57.9288V79.9994H0V57.9288C0 55.0021 1.16264 52.1952 3.23216 50.1257C5.30167 48.0562 8.10854 46.8936 11.0353 46.8936H15.1735L17.4882 58.4696C17.6132 59.0952 17.9512 59.6582 18.4447 60.0626C18.9382 60.467 19.5565 60.6879 20.1946 60.6876H32.223C32.861 60.6879 33.4794 60.467 33.9729 60.0626C34.4663 59.6582 34.8044 59.0952 34.9294 58.4696L37.2441 46.8936H41.3823C42.3125 46.8952 43.2391 47.011 44.1411 47.2384V49.6524C44.1411 51.8474 45.0131 53.9526 46.5652 55.5047C48.1174 57.0568 50.2225 57.9288 52.4176 57.9288Z" fill="#10B3B5"/>
<path d="M37.2441 49.6524L31.7265 62.0671L26.2089 55.17L33.1059 46.8936H37.2441V49.6524Z" fill="#10B3B5"/>
<path d="M15.1736 49.6524L17.9324 60.6876L26.2089 55.17L19.3118 46.8936H15.1736V49.6524Z" fill="#10B3B5"/>
<path d="M33.1059 46.8946L26.2088 55.1711L19.3118 46.8946V38.6182H33.1059V46.8946Z" fill="#EDB88E"/>
<path d="M33.1059 45.6945C30.7378 48.0311 27.599 49.4239 24.2776 49.6121C25.9604 50.4428 27.7966 50.9172 29.6711 51.0053L26.2088 55.1711L19.3118 46.8946V38.6182H33.1059V45.6945Z" fill="#DA9367"/>
<path d="M37.2441 49.6524L33.1059 57.9288L26.2089 55.17L33.1059 46.8936H37.2441V49.6524Z" fill="#ADE8F4"/>
<path d="M15.1736 49.6524L19.3118 57.9288L26.2089 55.17L19.3118 46.8936H15.1736V49.6524Z" fill="#ADE8F4"/>
<path d="M26.2088 46.8944C22.5503 46.8944 19.0418 45.4411 16.4549 42.8542C13.868 40.2673 12.4147 36.7587 12.4147 33.1003V24.8238C14.359 24.8239 16.2434 24.1506 17.7475 22.9183C19.2515 21.6861 20.2824 19.9711 20.6649 18.0647L20.6911 17.9268C26.0387 22.3833 32.7796 24.8239 39.7408 24.8238H40.0029V33.1003C40.0029 36.7587 38.5496 40.2673 35.9627 42.8542C33.3758 45.4411 29.8672 46.8944 26.2088 46.8944Z" fill="#F9DBAF"/>
<path d="M42.7617 64.8267H52.4176V80.0002H42.7617V64.8267Z" fill="#F9DBAF"/>
<path d="M0 64.8267H9.65587V80.0002H0V64.8267Z" fill="#F9DBAF"/>
<path d="M37.2439 46.8936V59.3082C37.2439 60.4058 36.808 61.4583 36.0319 62.2344C35.2558 63.0105 34.2032 63.4465 33.1057 63.4465H19.3116C18.2141 63.4465 17.1615 63.0105 16.3855 62.2344C15.6094 61.4583 15.1734 60.4058 15.1734 59.3082V46.8936H11.0352C10.6693 46.8936 10.3185 47.0389 10.0598 47.2976C9.80109 47.5563 9.65576 47.9071 9.65576 48.273V79.9994H42.7616V48.273C42.7616 47.9071 42.6163 47.5563 42.3576 47.2976C42.0989 47.0389 41.748 46.8936 41.3822 46.8936H37.2439Z" fill="#E9F1F2"/>
<path d="M40.0029 24.8238V28.962H39.7408C32.7797 28.9616 26.039 26.5211 20.6911 22.065L20.6635 22.2029C20.4256 23.3877 19.9353 24.5073 19.226 25.4856C18.5167 26.4638 17.605 27.2779 16.5529 27.8723V30.3414C16.5529 33.9999 18.0062 37.5084 20.5931 40.0953C23.18 42.6822 26.6886 44.1355 30.347 44.1355C32.2281 44.1427 34.0895 43.7525 35.8095 42.9906C33.8665 44.8811 31.4091 46.1567 28.7448 46.6577C26.0806 47.1586 23.3277 46.8628 20.8307 45.8072C18.3337 44.7516 16.2035 42.983 14.7065 40.7228C13.2096 38.4627 12.4124 35.8112 12.4147 33.1003V24.8238C14.3598 24.8272 16.2457 24.1551 17.7502 22.9223C19.2547 21.6895 20.2845 19.9725 20.6635 18.0647L20.6911 17.9268C23.346 20.1384 26.3662 21.8702 29.6159 23.0444C32.8608 24.2251 36.2877 24.8274 39.7408 24.8238H40.0029Z" fill="#EDB88E"/>
<path d="M42.7616 71.7229V79.9994H9.65576V48.273C9.65576 47.9071 9.80109 47.5563 10.0598 47.2976C10.3185 47.0389 10.6693 46.8936 11.0352 46.8936H12.4146V57.9288C12.4146 61.5872 13.8679 65.0958 16.4548 67.6827C19.0417 70.2696 22.5503 71.7229 26.2087 71.7229H42.7616Z" fill="#D0D8DA"/>
<path d="M16.5529 74.4819H35.8646V79.9996H16.5529V74.4819Z" fill="#25D3D6"/>
<path d="M52.4176 64.8267V67.7096C50.4893 68.0328 48.738 69.0293 47.4752 70.5219C46.2124 72.0146 45.5198 73.9067 45.5205 75.8619V80.0002H42.7617V64.8267H52.4176Z" fill="#EDB88E"/>
<path d="M0 64.8267V67.7096C1.92831 68.0328 3.67956 69.0293 4.94239 70.5219C6.20523 72.0146 6.89782 73.9067 6.89705 75.8619V80.0002H9.65587V64.8267H0Z" fill="#EDB88E"/>
<path d="M26.2088 42.0249C25.0374 42.0254 23.8819 41.7539 22.8333 41.2317C22.5059 41.0682 22.2569 40.7813 22.141 40.4341C22.0251 40.087 22.0518 39.708 22.2154 39.3806C22.3789 39.0531 22.6658 38.8041 23.013 38.6882C23.3601 38.5723 23.7391 38.5991 24.0665 38.7626C24.732 39.094 25.4653 39.2665 26.2088 39.2665C26.9522 39.2665 27.6855 39.094 28.351 38.7626C28.6784 38.5991 29.0574 38.5723 29.4045 38.6882C29.7517 38.8041 30.0386 39.0531 30.2021 39.3806C30.3657 39.708 30.3924 40.087 30.2765 40.4341C30.1606 40.7813 29.9116 41.0682 29.5842 41.2317C28.5356 41.7539 27.3801 42.0254 26.2088 42.0249Z" fill="#F25E57"/>
<path d="M23.45 31.7204C23.2364 31.7203 23.0258 31.6708 22.8347 31.5755C22.1692 31.2441 21.4359 31.0717 20.6925 31.0717C19.9491 31.0717 19.2158 31.2441 18.5503 31.5755C18.3882 31.6565 18.2117 31.7047 18.0309 31.7175C17.8501 31.7303 17.6686 31.7073 17.4967 31.6499C17.3248 31.5925 17.1659 31.5019 17.0291 31.3831C16.8922 31.2643 16.7801 31.1197 16.6991 30.9575C16.6182 30.7954 16.5699 30.6189 16.5571 30.4382C16.5444 30.2574 16.5673 30.0759 16.6247 29.904C16.6821 29.7321 16.7728 29.5732 16.8916 29.4363C17.0104 29.2995 17.155 29.1874 17.3171 29.1064C18.3662 28.5858 19.5214 28.3149 20.6925 28.3149C21.8636 28.3149 23.0189 28.5858 24.0679 29.1064C24.3464 29.2452 24.5697 29.474 24.7017 29.7557C24.8337 30.0375 24.8666 30.3555 24.795 30.6583C24.7235 30.9611 24.5516 31.2308 24.3074 31.4236C24.0633 31.6164 23.7611 31.721 23.45 31.7204Z" fill="#656B76"/>
<path d="M34.4852 31.7204C34.2717 31.7203 34.0611 31.6708 33.87 31.5755C33.2045 31.2441 32.4712 31.0717 31.7278 31.0717C30.9844 31.0717 30.2511 31.2441 29.5856 31.5755C29.2581 31.7391 28.8792 31.7658 28.532 31.6499C28.1848 31.534 27.8979 31.285 27.7344 30.9575C27.5709 30.6301 27.5441 30.2511 27.66 29.904C27.7759 29.5568 28.025 29.2699 28.3524 29.1064C29.4014 28.5858 30.5567 28.3149 31.7278 28.3149C32.8989 28.3149 34.0542 28.5858 35.1032 29.1064C35.3817 29.2452 35.605 29.474 35.737 29.7557C35.869 30.0375 35.9019 30.3555 35.8303 30.6583C35.7587 30.9611 35.5869 31.2308 35.3427 31.4236C35.0985 31.6164 34.7964 31.721 34.4852 31.7204Z" fill="#656B76"/>
<path d="M35.8646 16.5474C35.6373 16.5477 35.4135 16.4918 35.213 16.3847C35.0126 16.2776 34.8417 16.1227 34.7155 15.9336C33.9949 14.8497 33.0175 13.9607 31.8702 13.3458C30.723 12.7309 29.4415 12.4092 28.1399 12.4092H24.2913C22.9883 12.4078 21.7052 12.7289 20.5564 13.3438C19.4076 13.9588 18.4288 14.8485 17.7074 15.9336C17.6069 16.0843 17.4777 16.2138 17.3271 16.3145C17.1765 16.4153 17.0076 16.4854 16.8299 16.5209C16.6523 16.5564 16.4694 16.5565 16.2917 16.5213C16.1139 16.4861 15.9449 16.4162 15.7942 16.3157C15.6435 16.2152 15.514 16.0859 15.4133 15.9354C15.3125 15.7848 15.2424 15.6159 15.2069 15.4382C15.1714 15.2606 15.1713 15.0776 15.2065 14.8999C15.2417 14.7222 15.3116 14.5532 15.4121 14.4025C16.3845 12.9402 17.7034 11.7412 19.2514 10.9121C20.7994 10.083 22.5284 9.64955 24.2844 9.6504H28.1399C29.8971 9.64841 31.6275 10.0813 33.1768 10.9105C34.7261 11.7396 36.0461 12.9393 37.0192 14.4025C37.1581 14.6107 37.2377 14.8528 37.2496 15.1028C37.2614 15.3529 37.205 15.6014 37.0863 15.8218C36.9677 16.0423 36.7913 16.2262 36.5761 16.3541C36.3609 16.4819 36.1149 16.5487 35.8646 16.5474Z" fill="#B8BEBF"/>
<path d="M33.1059 11.0295C33.7808 11.0337 34.4466 10.8727 35.0451 10.5606C35.6436 10.2484 36.1566 9.79463 36.5395 9.23873C36.9224 8.68284 37.1635 8.04172 37.2417 7.37128C37.32 6.70084 37.2331 6.02143 36.9886 5.39228C36.7441 4.76313 36.3494 4.20335 35.8389 3.76173C35.3284 3.32012 34.7176 3.01008 34.0598 2.85864C33.4021 2.7072 32.7172 2.71897 32.065 2.89292C31.4128 3.06686 30.8131 3.39771 30.3181 3.8566C30.2517 2.81184 29.7899 1.83157 29.0266 1.11516C28.2632 0.398752 27.2557 0 26.2088 0C25.1619 0 24.1544 0.398752 23.391 1.11516C22.6277 1.83157 22.1659 2.81184 22.0995 3.8566C21.6045 3.39771 21.0048 3.06686 20.3526 2.89292C19.7004 2.71897 19.0156 2.7072 18.3578 2.85864C17.7 3.01008 17.0892 3.32012 16.5787 3.76173C16.0683 4.20335 15.6735 4.76313 15.429 5.39228C15.1845 6.02143 15.0976 6.70084 15.1759 7.37128C15.2541 8.04172 15.4952 8.68284 15.8781 9.23873C16.261 9.79463 16.774 10.2484 17.3725 10.5606C17.971 10.8727 18.6368 11.0337 19.3118 11.0295H33.1059Z" fill="#E9F1F2"/>
<path d="M37.0648 8.09112C36.8109 8.94281 36.288 9.68935 35.5743 10.219C34.8606 10.7487 33.9946 11.0329 33.1059 11.0293H19.3118C18.3203 11.0281 17.3621 10.6709 16.6117 10.0228C15.8613 9.37463 15.3686 8.47859 15.2232 7.49774C15.0778 6.5169 15.2895 5.51646 15.8196 4.67852C16.3497 3.84058 17.1631 3.22085 18.1117 2.93213C17.9952 3.3216 17.9348 3.7257 17.9324 4.13221C17.9324 4.67565 18.0394 5.21377 18.2474 5.71585C18.4554 6.21792 18.7602 6.67411 19.1445 7.05838C19.5287 7.44265 19.9849 7.74747 20.487 7.95544C20.9891 8.16341 21.5272 8.27044 22.0706 8.27044H35.8647C36.2712 8.26802 36.6753 8.20764 37.0648 8.09112Z" fill="#D0D8DA"/>
<path d="M78.6263 52.4117C78.4781 52.4114 78.3309 52.3872 78.1904 52.34C76.7099 51.8484 75.422 50.9027 74.5097 49.6373C73.5974 48.3719 73.1072 46.8512 73.1086 45.2912V44.1353C73.1086 43.7694 73.254 43.4186 73.5127 43.1599C73.7714 42.9012 74.1222 42.7559 74.4881 42.7559C74.8539 42.7559 75.2048 42.9012 75.4634 43.1599C75.7221 43.4186 75.8675 43.7694 75.8675 44.1353V45.2912C75.8668 46.2721 76.1751 47.2283 76.7485 48.0241C77.322 48.8199 78.1315 49.4149 79.0622 49.7246C79.3722 49.8287 79.6351 50.0395 79.8041 50.3195C79.9731 50.5995 80.0371 50.9304 79.9848 51.2532C79.9324 51.576 79.7671 51.8697 79.5182 52.0819C79.2694 52.2941 78.9533 52.411 78.6263 52.4117Z" fill="#10B3B5"/>
<path d="M70.3497 52.4117V49.6528H64.8321V52.4117L60.0042 59.6453C59.5529 60.3256 59.3129 61.1242 59.3145 61.9406V75.8616C59.3145 76.9591 59.7505 78.0117 60.5265 78.7878C61.3026 79.5638 62.3552 79.9998 63.4527 79.9998H71.7291C72.8267 79.9998 73.8792 79.5638 74.6553 78.7878C75.4314 78.0117 75.8674 76.9591 75.8674 75.8616V61.9406C75.8689 61.1242 75.629 60.3256 75.1777 59.6453L70.3497 52.4117Z" fill="#25D3D6"/>
<path d="M75.8674 74.4822V75.8616C75.8674 76.9591 75.4314 78.0117 74.6553 78.7878C73.8792 79.5638 72.8267 79.9998 71.7291 79.9998H63.4527C62.3552 79.9998 61.3026 79.5638 60.5265 78.7878C59.7504 78.0117 59.3145 76.9591 59.3145 75.8616V61.9434C59.32 61.1254 59.5593 60.3262 60.0042 59.6398L64.8321 52.4117V49.6528H66.2115V52.0806C66.2097 53.0085 66.467 53.9185 66.9544 54.7081C67.4418 55.4978 68.14 56.1356 68.9703 56.5499C69.8006 56.9641 70.4988 57.602 70.9862 58.3916C71.4737 59.1812 71.7309 60.0912 71.7291 61.0192V70.344C71.7291 71.4415 72.1651 72.4941 72.9412 73.2701C73.7173 74.0462 74.7698 74.4822 75.8674 74.4822Z" fill="#10B3B5"/>
<path d="M64.8323 44.1357H70.3499V49.6534H64.8323V44.1357Z" fill="#D0D8DA"/>
<path d="M67.5911 38.6182H75.8676V44.1358H62.0735C62.0735 42.6724 62.6548 41.269 63.6896 40.2342C64.7243 39.1995 66.1278 38.6182 67.5911 38.6182Z" fill="#E9F1F2"/>
<path d="M80.0057 42.7564L75.8674 44.1358V38.6182L80.0057 39.9976V42.7564Z" fill="#25D3D6"/>
<path d="M75.8676 41.3761V44.1349H62.0735C62.0691 42.9905 62.4233 41.8735 63.0863 40.9408C63.7494 40.008 64.688 39.3064 65.7703 38.9346C66.2749 39.6859 66.9566 40.3016 67.7552 40.7274C68.5538 41.1532 69.4449 41.376 70.35 41.3761H75.8676Z" fill="#D0D8DA"/>
<path d="M80.0057 41.3765V42.7559L75.8674 44.1353V41.3765H80.0057Z" fill="#10B3B5"/>
<path d="M70.3499 44.1357V45.5152C69.2524 45.5152 68.1998 45.9511 67.4237 46.7272C66.6477 47.5033 66.2117 48.5559 66.2117 49.6534H64.8323V44.1357H70.3499Z" fill="#B8BEBF"/>
<path d="M67.591 63.4473C68.3227 63.4473 69.0244 63.1567 69.5418 62.6393C70.0592 62.1219 70.3498 61.4202 70.3498 60.6885C70.3498 59.9568 70.0592 59.2551 69.5418 58.7377C69.0244 58.2203 68.3227 57.9297 67.591 57.9297H53.7969C52.3336 57.9297 50.9301 58.511 49.8954 59.5458C48.8606 60.5805 48.2793 61.984 48.2793 63.4473C48.2793 64.9107 48.8606 66.3141 49.8954 67.3489C50.9301 68.3836 52.3336 68.965 53.7969 68.965H67.591C68.3227 68.965 69.0244 68.6743 69.5418 68.1569C70.0592 67.6395 70.3498 66.9378 70.3498 66.2061C70.3498 65.4745 70.0592 64.7727 69.5418 64.2554C69.0244 63.738 68.3227 63.4473 67.591 63.4473Z" fill="#F89C8D"/>
<path d="M70.3498 66.2061C70.3476 66.9372 70.0562 67.6376 69.5393 68.1545C69.0224 68.6714 68.322 68.9628 67.591 68.965H53.7969C52.5351 68.9665 51.311 68.5349 50.3291 67.7424C49.3473 66.9499 48.6671 65.8445 48.4023 64.6108C48.1375 63.3771 48.304 62.0899 48.8741 60.9643C49.4443 59.8386 50.3834 58.9427 51.5346 58.4263C51.2081 59.1358 51.0387 59.9075 51.038 60.6885C51.038 62.1519 51.6194 63.5553 52.6541 64.5901C53.6889 65.6248 55.0923 66.2061 56.5557 66.2061H70.3498Z" fill="#F25E57"/>
<path d="M68.9332 58.2925C68.8475 58.9541 68.5242 59.562 68.0235 60.0028C67.5227 60.4436 66.8788 60.6873 66.2117 60.6885H57.9352C57.2035 60.6885 56.5018 60.9792 55.9844 61.4966C55.467 62.0139 55.1764 62.7156 55.1764 63.4473H67.5911C68.2016 63.4499 68.7956 63.2492 69.2794 62.8768C69.7632 62.5045 70.1093 61.9817 70.2631 61.3909C70.417 60.8001 70.3697 60.1749 70.129 59.6139C69.8882 59.0529 69.4675 58.588 68.9332 58.2925Z" fill="#F25E57"/>
<path d="M67.591 74.4825C68.3227 74.4825 69.0244 74.1918 69.5418 73.6744C70.0592 73.1571 70.3498 72.4553 70.3498 71.7237C70.3498 70.992 70.0592 70.2903 69.5418 69.7729C69.0244 69.2555 68.3227 68.9648 67.591 68.9648H53.7969C52.3336 68.9648 50.9301 69.5462 49.8954 70.5809C48.8606 71.6157 48.2793 73.0191 48.2793 74.4825C48.2793 75.9458 48.8606 77.3493 49.8954 78.384C50.9301 79.4188 52.3336 80.0001 53.7969 80.0001H67.591C68.3227 80.0001 69.0244 79.7095 69.5418 79.1921C70.0592 78.6747 70.3498 77.973 70.3498 77.2413C70.3498 76.5096 70.0592 75.8079 69.5418 75.2905C69.0244 74.7731 68.3227 74.4825 67.591 74.4825Z" fill="#F89C8D"/>
<path d="M70.3498 77.2413C70.3476 77.9723 70.0562 78.6728 69.5393 79.1897C69.0224 79.7066 68.322 79.9979 67.591 80.0001H53.7969C52.5351 80.0016 51.311 79.5701 50.3291 78.7776C49.3473 77.9851 48.6671 76.8796 48.4023 75.646C48.1375 74.4123 48.304 73.1251 48.8741 71.9994C49.4443 70.8738 50.3834 69.9779 51.5346 69.4614C51.2081 70.1709 51.0387 70.9426 51.038 71.7237C51.038 73.187 51.6194 74.5905 52.6541 75.6252C53.6889 76.66 55.0923 77.2413 56.5557 77.2413H70.3498Z" fill="#F25E57"/>
<path d="M68.9332 69.3276C68.8475 69.9892 68.5242 70.5971 68.0235 71.0379C67.5227 71.4788 66.8788 71.7225 66.2117 71.7237H57.9352C57.2035 71.7237 56.5018 72.0143 55.9844 72.5317C55.467 73.0491 55.1764 73.7508 55.1764 74.4825H67.5911C68.2016 74.4851 68.7956 74.2844 69.2794 73.912C69.7632 73.5397 70.1093 73.0169 70.2631 72.4261C70.417 71.8352 70.3697 71.21 70.129 70.649C69.8882 70.088 69.4675 69.6231 68.9332 69.3276Z" fill="#F25E57"/>
</svg>
