<svg width="79" height="80" viewBox="0 0 79 80" fill="none" xmlns="http://www.w3.org/2000/svg">
<path d="M55.5931 20.3393C55.452 20.3393 55.307 20.3162 55.1646 20.2688L52.4039 19.3481C50.6317 18.7569 49.212 17.504 48.408 15.8172C47.6026 14.1305 47.5212 12.2376 48.1775 10.4884C48.5842 9.40232 48.5219 8.23487 47.9998 7.19893C47.4778 6.163 46.5775 5.4186 45.4615 5.09995L41.6609 4.01385C40.9409 3.80775 40.5246 3.05792 40.7293 2.33792C40.9354 1.61927 41.6853 1.20843 42.4053 1.40504L46.2059 2.49114C48.0297 3.01317 49.5659 4.28368 50.4202 5.97724C51.2731 7.67215 51.3815 9.66266 50.7158 11.4389C50.3198 12.4911 50.37 13.6315 50.8541 14.6471C51.3381 15.6627 52.1937 16.4179 53.2609 16.7732L56.0215 17.6938C56.732 17.9298 57.1158 18.6972 56.8785 19.4091C56.69 19.9799 56.1612 20.3393 55.5931 20.3393Z" fill="#10B3B5"/>
<path d="M16.2711 80C12.5328 80 9.49139 76.9587 9.49139 73.2204V69.1526C9.49139 68.4027 10.0989 67.7966 10.8473 67.7966C11.5958 67.7966 12.2033 68.4027 12.2033 69.1526V73.2204C12.2033 75.4631 14.0283 77.2882 16.2711 77.2882C18.5138 77.2882 20.3389 75.4631 20.3389 73.2204V8.13562C20.3389 4.39731 23.3802 1.35596 27.1185 1.35596H29.8304C30.5789 1.35596 31.1863 1.96206 31.1863 2.71189C31.1863 3.46172 30.5789 4.06782 29.8304 4.06782H27.1185C24.8758 4.06782 23.0507 5.89291 23.0507 8.13562V73.2204C23.0507 76.9587 20.0094 80 16.2711 80Z" fill="#10B3B5"/>
<path d="M73.2202 22.4709V20.3394H56.949V22.4316C56.949 23.5827 56.0947 24.5577 54.9517 24.6987C54.9246 24.7027 54.8961 24.7055 54.869 24.7095C50.8297 25.2275 46.7442 25.2058 42.7022 24.7027C42.4405 24.6702 42.1802 24.6444 41.9171 24.6227C41.2161 24.5631 40.6778 23.9773 40.6778 23.2736V20.3394H32.5422V23.1936C32.5422 23.8526 32.0622 24.3882 31.4181 24.5238C28.9612 25.0417 27.1185 27.2207 27.1185 29.8309V66.4411C27.1185 68.6878 28.9395 70.5089 31.1863 70.5089H74.5761C76.8229 70.5089 78.6439 68.6878 78.6439 66.4411V29.8309C78.6439 27.4092 77.0561 25.3577 74.8649 24.6607C73.8981 24.3529 73.2202 23.4865 73.2202 22.4709ZM56.949 36.6105H43.3897V31.1868C48.7768 30.2892 51.5619 30.2892 56.949 31.1868V36.6105Z" fill="#25D3D6"/>
<path d="M48.8134 56.9495C41.3246 56.9495 35.2541 50.879 35.2541 43.3902V31.1868C35.2541 28.94 37.0751 27.119 39.3219 27.119H77.9036C77.2337 25.9651 76.1598 25.0729 74.8663 24.6607C73.8981 24.3529 73.2202 23.4865 73.2202 22.4709V20.3394H56.949V22.4316C56.949 23.5827 56.0947 24.5577 54.9517 24.6987C54.9232 24.7027 54.8961 24.7055 54.869 24.7095C50.8297 25.2275 46.7442 25.2058 42.7022 24.7027C42.4405 24.6702 42.1802 24.6444 41.9171 24.6227C41.2161 24.5631 40.6778 23.9773 40.6778 23.2736V20.3394H32.5422V23.1936C32.5422 23.8526 32.0622 24.3882 31.4181 24.5238C28.9612 25.0417 27.1185 27.2207 27.1185 29.8309V66.4411C27.1185 68.6878 28.9395 70.5089 31.1863 70.5089H74.5761C76.8229 70.5089 78.6439 68.6878 78.6439 66.4411V56.9495H48.8134Z" fill="#10B3B5"/>
<path d="M27.1185 74.5766V78.6444H37.9659L40.6778 75.9325H65.0846L67.7964 78.6444H78.6439V74.5766C78.6439 72.3298 76.8229 70.5088 74.5761 70.5088H31.1863C28.9395 70.5088 27.1185 72.3298 27.1185 74.5766Z" fill="#93999A"/>
<path d="M43.3897 20.3393H29.8304V17.6274C29.8304 16.1291 31.0439 14.9155 32.5422 14.9155H40.6778C42.1761 14.9155 43.3897 16.1291 43.3897 17.6274V20.3393Z" fill="#D0D8DA"/>
<path d="M75.932 20.3393H54.2371V17.6274C54.2371 16.1291 55.4507 14.9155 56.949 14.9155H73.2202C74.7185 14.9155 75.932 16.1291 75.932 17.6274V20.3393Z" fill="#D0D8DA"/>
<path d="M32.5423 5.42334H40.6779V14.9149H32.5423V5.42334Z" fill="#93999A"/>
<path d="M40.6778 5.42373H32.5422C31.0439 5.42373 29.8304 4.21017 29.8304 2.71186C29.8304 1.21356 31.0439 0 32.5422 0H40.6778C42.1761 0 43.3897 1.21356 43.3897 2.71186C43.3897 4.21017 42.1761 5.42373 40.6778 5.42373Z" fill="#D0D8DA"/>
<path d="M35.2542 63.7284C33.7559 63.7284 32.5423 62.5148 32.5423 61.0165V33.8979C32.5423 32.3996 33.7559 31.186 35.2542 31.186C36.7525 31.186 37.966 32.3996 37.966 33.8979V61.0165C37.966 62.5148 36.7525 63.7284 35.2542 63.7284Z" fill="#D0D8DA"/>
<path d="M37.966 51.5115V61.0165C37.966 62.5081 36.7457 63.7284 35.2542 63.7284C33.7626 63.7284 32.5423 62.5081 32.5423 61.0165V33.8979C32.5423 32.4064 33.7626 31.186 35.2542 31.186V43.3894C35.2542 46.4403 36.2576 49.2471 37.966 51.5115Z" fill="#93999A"/>
<path d="M35.2542 63.7291C33.7559 63.7291 32.5423 62.5155 32.5423 61.0172V40.6782H37.966V61.0172C37.966 62.5155 36.7525 63.7291 35.2542 63.7291Z" fill="#F25E57"/>
<path d="M37.966 51.5121V61.0172C37.966 62.5087 36.7457 63.7291 35.2542 63.7291C33.7626 63.7291 32.5423 62.5087 32.5423 61.0172V40.6782H35.2542V43.3901C35.2542 46.4409 36.2576 49.2477 37.966 51.5121Z" fill="#F25E57"/>
<path d="M29.8303 75.9325C29.8303 74.4342 31.0439 73.2207 32.5422 73.2207H78.3944C77.8344 71.6437 76.3442 70.5088 74.5761 70.5088H31.1863C28.9395 70.5088 27.1185 72.3298 27.1185 74.5766V78.6444H29.8303V75.9325Z" fill="#B8BEBF"/>
<path d="M75.9322 17.6274V20.3393H54.2372V17.6274C54.2372 16.1359 55.4576 14.9155 56.9491 14.9155H57.1932C57.7355 16.502 59.2406 17.6274 61.0169 17.6274H75.9322Z" fill="#93999A"/>
<path d="M43.3898 17.6274V20.3393H29.8305V17.6274C29.8305 16.1359 31.0508 14.9155 32.5424 14.9155H32.7864C33.3288 16.502 34.8339 17.6274 36.6102 17.6274H43.3898Z" fill="#93999A"/>
<path d="M32.5422 0C31.0439 0 29.8304 1.21356 29.8304 2.71186C29.8304 4.21017 31.0439 5.42373 32.5422 5.42373H40.6778C42.1761 5.42373 43.3897 4.21017 43.3897 2.71186H35.2541C33.7558 2.71186 32.5422 1.49831 32.5422 0Z" fill="#93999A"/>
<path d="M37.966 12.203C36.4677 12.203 35.2542 10.9894 35.2542 9.49114V8.1352C35.2542 7.38673 35.8616 6.77927 36.6101 6.77927H40.6779V5.42334H32.5423V14.9149H40.6779V12.203H37.966Z" fill="#B8BEBF"/>
<path d="M32.5423 55.5933H33.8982C34.6467 55.5933 35.2542 56.1994 35.2542 56.9492C35.2542 57.699 34.6467 58.3051 33.8982 58.3051H32.5423V55.5933Z" fill="#93999A"/>
<path d="M32.5423 50.1694H33.8982C34.6467 50.1694 35.2542 50.7755 35.2542 51.5254C35.2542 52.2752 34.6467 52.8813 33.8982 52.8813H32.5423V50.1694Z" fill="#93999A"/>
<path d="M32.5423 44.7461H33.8982C34.6467 44.7461 35.2542 45.3522 35.2542 46.102C35.2542 46.8519 34.6467 47.458 33.8982 47.458H32.5423V44.7461Z" fill="#93999A"/>
<path d="M65.0846 65.085H51.5253C47.7815 65.085 44.7456 62.0491 44.7456 58.3054V48.8138C44.7456 45.0701 47.7815 42.0342 51.5253 42.0342H65.0846C68.8283 42.0342 71.8643 45.0701 71.8643 48.8138V58.3054C71.8643 62.0491 68.8283 65.085 65.0846 65.085Z" fill="#F89C8D"/>
<path d="M71.8644 56.9499V58.3058C71.8644 62.0482 68.8271 65.0855 65.0847 65.0855H51.5254C47.783 65.0855 44.7457 62.0482 44.7457 58.3058V56.3262C46.0339 56.733 47.3898 56.9499 48.8135 56.9499H71.8644Z" fill="#F25E57"/>
<path d="M59.6594 51.5259C59.4018 51.5259 59.1401 51.4513 58.9082 51.2981C58.2858 50.8818 58.1177 50.0411 58.5326 49.4174L59.5631 47.8716C60.9014 45.8662 63.536 45.1666 65.6919 46.2445C66.3618 46.5794 66.633 47.3943 66.298 48.0642C65.9631 48.734 65.1496 49.0052 64.4784 48.6703C63.5428 48.2025 62.3997 48.5062 61.8194 49.3767L60.7889 50.9225C60.5272 51.3143 60.0974 51.5259 59.6594 51.5259Z" fill="#F9DBAF"/>
<path d="M65.0858 55.594C64.5881 55.594 64.1095 55.3201 63.8709 54.8441C63.4356 53.9709 62.3915 53.5953 61.4993 53.9886L60.3726 54.4862C59.6865 54.7858 58.8865 54.478 58.5854 53.7933C58.2831 53.1072 58.5922 52.3072 59.2783 52.0048L60.4065 51.5072C62.622 50.5296 65.2132 51.4611 66.298 53.6306C66.6329 54.3004 66.3617 55.1153 65.6919 55.4502C65.4966 55.5479 65.2892 55.594 65.0858 55.594Z" fill="#F9DBAF"/>
<path d="M65.0858 61.018C64.5881 61.018 64.1095 60.7441 63.8708 60.2681C63.2661 59.0586 62.0498 58.3061 60.6966 58.3061H59.6607C58.9122 58.3061 58.3047 57.7 58.3047 56.9502C58.3047 56.2003 58.9122 55.5942 59.6607 55.5942H60.6966C63.0831 55.5942 65.2295 56.9217 66.2966 59.0559C66.6315 59.7258 66.3603 60.5407 65.6905 60.8756C65.4966 60.9719 65.2892 61.018 65.0858 61.018Z" fill="#F9DBAF"/>
<path d="M56.9505 51.5262C56.5125 51.5262 56.0827 51.3147 55.821 50.9228L54.7905 49.377C54.2102 48.5065 53.0671 48.2042 52.1315 48.6706C51.4603 49.0055 50.6468 48.7343 50.3119 48.0645C49.9769 47.3947 50.2481 46.5798 50.918 46.2448C53.0739 45.1655 55.7071 45.8679 57.0468 47.872L58.0773 49.4177C58.4922 50.0415 58.3241 50.8821 57.7017 51.2984C57.4698 51.4516 57.2081 51.5262 56.9505 51.5262Z" fill="#F9DBAF"/>
<path d="M51.5239 55.594C51.3205 55.594 51.113 55.5479 50.9191 55.4516C50.2493 55.1167 49.9781 54.3018 50.313 53.632C51.3978 51.4625 53.9862 50.5323 56.2032 51.5086L57.3313 52.0062C58.0161 52.3099 58.3266 53.1086 58.0242 53.7947C57.7218 54.4781 56.9232 54.7886 56.2371 54.4875L55.1089 53.9899C54.2167 53.5981 53.1754 53.9723 52.7388 54.8455C52.5001 55.3201 52.0215 55.594 51.5239 55.594Z" fill="#F9DBAF"/>
<path d="M51.5239 61.018C51.3205 61.018 51.113 60.9719 50.9191 60.8756C50.2493 60.5407 49.9781 59.7258 50.313 59.0559C51.3815 56.9217 53.5266 55.5942 55.913 55.5942H56.9489C57.6974 55.5942 58.3049 56.2003 58.3049 56.9502C58.3049 57.7 57.6974 58.3061 56.9489 58.3061H55.913C54.5598 58.3061 53.3435 59.0586 52.7388 60.2681C52.5001 60.7441 52.0215 61.018 51.5239 61.018Z" fill="#F9DBAF"/>
<path d="M65.6948 60.8688C65.4914 60.9773 65.288 61.018 65.0847 61.018C64.583 61.018 64.1084 60.7468 63.8779 60.2722C63.2677 59.0519 62.0474 58.3061 60.6914 58.3061H59.6609C58.9152 58.3061 58.305 57.696 58.305 56.9502H64.5694C65.288 57.4926 65.8711 58.1977 66.2914 59.0519C66.6304 59.7299 66.3592 60.5434 65.6948 60.8688Z" fill="#EDB88E"/>
<path d="M58.3051 56.9502C58.3051 57.696 57.695 58.3061 56.9492 58.3061H55.9187C54.5628 58.3061 53.3424 59.0519 52.7323 60.2722C52.5017 60.7468 52.0272 61.018 51.5255 61.018C51.3221 61.018 51.1187 60.9773 50.9153 60.8688C50.2509 60.5434 49.9797 59.7299 50.3187 59.0519C50.739 58.1977 51.3221 57.4926 52.0407 56.9502H58.3051Z" fill="#EDB88E"/>
<path d="M61.017 52.8817H55.5933V50.1699C55.5933 48.6716 56.8068 47.458 58.3051 47.458C59.8034 47.458 61.017 48.6716 61.017 50.1699V52.8817Z" fill="#EDB88E"/>
<path d="M58.3051 58.3051C56.8068 58.3051 55.5933 57.0915 55.5933 55.5932V52.8813H61.017V55.5932C61.017 57.0915 59.8034 58.3051 58.3051 58.3051Z" fill="#EDB88E"/>
<path d="M58.6577 47.4851C58.4272 47.8783 58.3051 48.3258 58.3051 48.8139V52.8817H55.5933V50.1699C55.5933 48.6783 56.8136 47.458 58.3051 47.458C58.4272 47.458 58.5492 47.4716 58.6577 47.4851Z" fill="#DA9367"/>
<path d="M60.6645 56.922C60.2034 57.7491 59.3085 58.3051 58.3051 58.3051C56.8136 58.3051 55.5933 57.0847 55.5933 55.5932V52.8813H58.3051V54.2373C58.3051 55.6068 59.3356 56.7458 60.6645 56.922Z" fill="#DA9367"/>
<path d="M60.6509 56.9502C60.1763 57.7638 59.2949 58.3061 58.3051 58.3061C57.3017 58.3061 56.4339 57.7638 55.9594 56.9502H60.6509Z" fill="#C1815D"/>
<path d="M55.5933 52.2041H61.017V53.56H55.5933V52.2041Z" fill="#DA9367"/>
<path d="M55.5933 52.2041H58.3051V53.56H55.5933V52.2041Z" fill="#C1815D"/>
<path d="M1.35593 61.016C0.607458 61.016 0 60.4099 0 59.6601V42.056C0 40.2404 0.707797 38.5333 1.99458 37.2533C3.27458 35.9787 4.97356 35.2764 6.77966 35.2764H6.80814L9.39797 35.2872C10.1464 35.2899 10.7525 35.9001 10.7485 36.6486C10.7458 37.3957 10.1383 37.9991 9.39254 37.9991C9.39119 37.9991 9.38983 37.9991 9.38712 37.9991L6.79729 37.9882C5.64339 38.0099 4.68068 38.4072 3.90915 39.1747C3.13763 39.9421 2.71186 40.9659 2.71186 42.056V59.6601C2.71186 60.4099 2.10441 61.016 1.35593 61.016Z" fill="#B8BEBF"/>
<path d="M1.3559 8.13525V13.559H5.42369C6.922 13.559 8.13556 14.7725 8.13556 16.2708V66.4403C8.13556 67.9386 9.34912 69.1522 10.8474 69.1522C12.3457 69.1522 13.5593 67.9386 13.5593 66.4403V16.2708C13.5593 11.7773 9.91725 8.13525 5.42369 8.13525H1.3559Z" fill="#D0D8DA"/>
<path d="M13.5593 61.2661V37.9658C12.061 37.9658 10.8474 36.7522 10.8474 35.2539V14.9149C10.8474 12.6681 9.0264 10.8471 6.77962 10.8471C5.28132 10.8471 4.06776 9.63356 4.06776 8.13525H1.3559V13.559H5.42369C6.922 13.559 8.13556 14.7725 8.13556 16.2708V66.4403C8.13556 67.9386 9.34912 69.1522 10.8474 69.1522V65.0844C10.8474 63.3163 11.9823 61.8261 13.5593 61.2661Z" fill="#93999A"/>
<path d="M13.5594 59.6603H8.13563C6.63733 59.6603 5.42377 58.4467 5.42377 56.9484V43.3891C5.42377 41.8908 6.63733 40.6772 8.13563 40.6772H13.5594C15.0577 40.6772 16.2712 41.8908 16.2712 43.3891V56.9484C16.2712 58.4467 15.0577 59.6603 13.5594 59.6603Z" fill="#25D3D6"/>
<path d="M9.49156 46.101V40.6772H8.13563C6.63733 40.6772 5.42377 41.8908 5.42377 43.3891V56.9484C5.42377 58.4467 6.63733 59.6603 8.13563 59.6603H13.5594C15.0577 59.6603 16.2712 58.4467 16.2712 56.9484V52.8806C12.5275 52.8806 9.49156 49.8447 9.49156 46.101Z" fill="#10B3B5"/>
<path d="M5.42377 48.814H16.2712V54.2377H5.42377V48.814Z" fill="#D0D8DA"/>
<path d="M10.0638 48.814H5.42377V54.2377H16.2712V52.8818C13.4929 52.8818 11.1105 51.2058 10.0638 48.814Z" fill="#93999A"/>
</svg>
