<svg width="80" height="80" viewBox="0 0 80 80" fill="none" xmlns="http://www.w3.org/2000/svg">
<path d="M40 8.27586C39.6342 8.27586 39.2834 8.13054 39.0247 7.87187C38.766 7.6132 38.6207 7.26237 38.6207 6.89655V1.37931C38.6207 1.01349 38.766 0.662661 39.0247 0.403991C39.2834 0.14532 39.6342 0 40 0C40.3659 0 40.7167 0.14532 40.9754 0.403991C41.234 0.662661 41.3793 1.01349 41.3793 1.37931V6.89655C41.3793 7.26237 41.234 7.6132 40.9754 7.87187C40.7167 8.13054 40.3659 8.27586 40 8.27586Z" fill="#1B9698"/>
<path d="M77.2412 51.0351C76.8754 51.0351 76.5246 50.8898 76.2659 50.6312C76.0073 50.3725 75.8619 50.0216 75.8619 49.6558V44.1386C75.8619 43.7728 76.0073 43.4219 76.2659 43.1633C76.5246 42.9046 76.8754 42.7593 77.2412 42.7593C77.6071 42.7593 77.9579 42.9046 78.2166 43.1633C78.4752 43.4219 78.6206 43.7728 78.6206 44.1386V49.6558C78.6206 50.0216 78.4752 50.3725 78.2166 50.6312C77.9579 50.8898 77.6071 51.0351 77.2412 51.0351Z" fill="#40916C"/>
<path d="M67.5861 51.0351C67.2203 51.0351 66.8694 50.8898 66.6108 50.6312C66.3521 50.3725 66.2068 50.0216 66.2068 49.6558V44.1386C66.2068 43.7728 66.3521 43.4219 66.6108 43.1633C66.8694 42.9046 67.2203 42.7593 67.5861 42.7593C67.9519 42.7593 68.3027 42.9046 68.5614 43.1633C68.8201 43.4219 68.9654 43.7728 68.9654 44.1386V49.6558C68.9654 50.0216 68.8201 50.3725 68.5614 50.6312C68.3027 50.8898 67.9519 51.0351 67.5861 51.0351Z" fill="#40916C"/>
<path d="M12.4137 51.0351C12.0479 51.0351 11.6971 50.8898 11.4384 50.6312C11.1797 50.3725 11.0344 50.0216 11.0344 49.6558V44.1386C11.0344 43.7728 11.1797 43.4219 11.4384 43.1633C11.6971 42.9046 12.0479 42.7593 12.4137 42.7593C12.7796 42.7593 13.1304 42.9046 13.3891 43.1633C13.6477 43.4219 13.793 43.7728 13.793 44.1386V49.6558C13.793 50.0216 13.6477 50.3725 13.3891 50.6312C13.1304 50.8898 12.7796 51.0351 12.4137 51.0351Z" fill="#40916C"/>
<path d="M2.75858 51.0351C2.39277 51.0351 2.04193 50.8898 1.78326 50.6312C1.52459 50.3725 1.37927 50.0216 1.37927 49.6558V44.1386C1.37927 43.7728 1.52459 43.4219 1.78326 43.1633C2.04193 42.9046 2.39277 42.7593 2.75858 42.7593C3.1244 42.7593 3.47523 42.9046 3.7339 43.1633C3.99257 43.4219 4.13789 43.7728 4.13789 44.1386V49.6558C4.13789 50.0216 3.99257 50.3725 3.7339 50.6312C3.47523 50.8898 3.1244 51.0351 2.75858 51.0351Z" fill="#40916C"/>
<path d="M0 49.6558H20.6897V80.0006H0V49.6558Z" fill="#F89C8D"/>
<path d="M9.65517 57.9316V63.4489C9.6561 66.1372 8.6756 68.7333 6.89781 70.7499C5.12001 72.7664 2.66721 74.0646 0 74.4006V80.0006H20.6897V49.6558H0V57.9316H9.65517Z" fill="#F25E57"/>
<path d="M59.3102 49.6558H79.9998V80.0006H59.3102V49.6558Z" fill="#F89C8D"/>
<path d="M70.3447 57.9316V63.4489C70.3437 66.1372 71.3242 68.7333 73.102 70.7499C74.8798 72.7664 77.3326 74.0646 79.9998 74.4006V80.0006H59.3102V49.6558H79.9998V57.9316H70.3447Z" fill="#F25E57"/>
<path d="M20.6898 16.5522H59.3105V80.0005H20.6898V16.5522Z" fill="#D0D8DA"/>
<path d="M59.3105 60.6902H26.2071C26.206 62.683 26.5977 64.6564 27.3598 66.4977C28.1219 68.339 29.2394 70.012 30.6485 71.4211C32.0576 72.8302 33.7307 73.9478 35.572 74.7099C37.4132 75.472 39.3867 75.8637 41.3795 75.8626H59.3105V80.0005H20.6898V16.5522H59.3105V60.6902Z" fill="#93999A"/>
<path d="M59.3102 49.6558H79.9998V55.173H59.3102V49.6558Z" fill="#7FDFE0"/>
<path d="M5.51733 66.207H13.7932V80.0001H5.51733V66.207Z" fill="#7FDFE0"/>
<path d="M13.7932 66.207V80.0001H5.51733V72.0691C7.3801 70.5772 8.70668 68.5195 9.29664 66.207H13.7932Z" fill="#10B3B5"/>
<path d="M0 49.6558H20.6897V55.173H0V49.6558Z" fill="#7FDFE0"/>
<path d="M20.6898 16.5522H59.3105V24.8281H20.6898V16.5522Z" fill="#7FDFE0"/>
<path d="M20.6898 24.8271H59.3105V33.103H20.6898V24.8271Z" fill="#7FDFE0"/>
<path d="M20.6898 33.1035H59.3105V41.3794H20.6898V33.1035Z" fill="#7FDFE0"/>
<path d="M20.6898 41.3794H59.3105V49.6553H20.6898V41.3794Z" fill="#7FDFE0"/>
<path d="M20.6898 49.6558H59.3105V57.9316H20.6898V49.6558Z" fill="#7FDFE0"/>
<path d="M23.4482 8.27588H56.5517V16.5517H23.4482V8.27588Z" fill="#7FDFE0"/>
<path d="M79.9999 42.7585C79.9999 43.4902 79.7093 44.1918 79.1919 44.7092C78.6746 45.2265 77.9729 45.5172 77.2413 45.5172C76.5097 45.5172 75.808 45.2265 75.2906 44.7092C74.7733 44.1918 74.4827 43.4902 74.4827 42.7585C74.4827 41.2413 75.724 38.6206 77.2413 38.6206C78.7585 38.6206 79.9999 41.2413 79.9999 42.7585Z" fill="#95D5B2"/>
<path d="M70.3448 42.7585C70.3448 43.4902 70.0541 44.1918 69.5368 44.7092C69.0194 45.2265 68.3178 45.5172 67.5861 45.5172C66.8545 45.5172 66.1528 45.2265 65.6355 44.7092C65.1182 44.1918 64.8275 43.4902 64.8275 42.7585C64.8275 41.2413 66.0689 38.6206 67.5861 38.6206C69.1034 38.6206 70.3448 41.2413 70.3448 42.7585Z" fill="#95D5B2"/>
<path d="M15.1724 42.7585C15.1724 43.4902 14.8818 44.1918 14.3644 44.7092C13.8471 45.2265 13.1454 45.5172 12.4138 45.5172C11.6821 45.5172 10.9805 45.2265 10.4631 44.7092C9.94579 44.1918 9.65515 43.4902 9.65515 42.7585C9.65515 41.2413 10.8965 38.6206 12.4138 38.6206C13.931 38.6206 15.1724 41.2413 15.1724 42.7585Z" fill="#95D5B2"/>
<path d="M5.51724 42.7585C5.51724 43.4902 5.2266 44.1918 4.70926 44.7092C4.19192 45.2265 3.49025 45.5172 2.75862 45.5172C2.02699 45.5172 1.32532 45.2265 0.807981 44.7092C0.290639 44.1918 0 43.4902 0 42.7585C0 41.2413 1.24138 38.6206 2.75862 38.6206C4.27586 38.6206 5.51724 41.2413 5.51724 42.7585Z" fill="#95D5B2"/>
<path d="M34.4827 2.75928H39.9999V8.27652H34.4827V2.75928Z" fill="#7FDFE0"/>
<path d="M40 2.75928H45.5172V8.27652H40V2.75928Z" fill="#7FDFE0"/>
<path d="M27.3795 16.5522L35.6553 24.8281H20.6898V16.5522H27.3795Z" fill="#10B3B5"/>
<path d="M44.5933 24.8281H40.6898L32.4139 16.5522H36.3174L44.5933 24.8281Z" fill="#10B3B5"/>
<path d="M59.3103 24.8281H51.2413L42.9655 16.5522H51.0344L59.3103 24.8281Z" fill="#10B3B5"/>
<path d="M27.3795 24.8281L35.6553 33.104H20.6898V24.8281H27.3795Z" fill="#10B3B5"/>
<path d="M44.5933 33.104H40.6898L32.4139 24.8281H36.3174L44.5933 33.104Z" fill="#10B3B5"/>
<path d="M59.3103 33.104H51.2413L42.9655 24.8281H51.0344L59.3103 33.104Z" fill="#10B3B5"/>
<path d="M27.3795 33.1045L35.6553 41.3804H20.6898V33.1045H27.3795Z" fill="#10B3B5"/>
<path d="M44.5933 41.3804H40.6898L32.4139 33.1045H36.3174L44.5933 41.3804Z" fill="#10B3B5"/>
<path d="M59.3103 41.3804H51.2413L42.9655 33.1045H51.0344L59.3103 41.3804Z" fill="#10B3B5"/>
<path d="M27.3795 41.3794L35.6553 49.6553H20.6898V41.3794H27.3795Z" fill="#10B3B5"/>
<path d="M43.2137 49.6553H39.3103L31.0344 41.3794H34.9379L43.2137 49.6553Z" fill="#10B3B5"/>
<path d="M59.3103 49.6553H51.2413L42.9655 41.3794H51.0344L59.3103 49.6553Z" fill="#10B3B5"/>
<path d="M27.3795 49.6558L35.6553 57.9316H20.6898V49.6558H27.3795Z" fill="#10B3B5"/>
<path d="M45.9725 57.9316H42.0691L33.7932 49.6558H37.6967L45.9725 57.9316Z" fill="#10B3B5"/>
<path d="M59.3103 57.9316H51.2413L42.9655 49.6558H51.0344L59.3103 57.9316Z" fill="#10B3B5"/>
<path d="M23.4482 8.27588H56.5517V16.5517H23.4482V8.27588Z" fill="#7FDFE0"/>
<path d="M30.1379 8.27588L38.4138 16.5517H23.4482V8.27588H30.1379Z" fill="#10B3B5"/>
<path d="M45.9725 16.5517H42.0691L33.7932 8.27588H37.6967L45.9725 16.5517Z" fill="#10B3B5"/>
<path d="M56.5517 16.5517H48.4828L40.2069 8.27588H48.2759L56.5517 16.5517Z" fill="#10B3B5"/>
<path d="M45.5172 8.27652H40V2.75928L45.5172 8.27652Z" fill="#10B3B5"/>
<path d="M39.9999 8.27652H34.4827V2.75928L39.9999 8.27652Z" fill="#10B3B5"/>
<path d="M77.1227 55.173H79.9999L74.4827 49.6558H71.6055L77.1227 55.173Z" fill="#10B3B5"/>
<path d="M68.8468 55.173H73.222L67.7048 49.6558H63.3296L68.8468 55.173Z" fill="#10B3B5"/>
<path d="M59.4288 49.6558H59.3102V55.173H64.946L59.4288 49.6558Z" fill="#10B3B5"/>
<path d="M17.8124 55.173H20.6896L15.1724 49.6558H12.2952L17.8124 55.173Z" fill="#10B3B5"/>
<path d="M9.53653 55.173H13.9117L8.39446 49.6558H4.01929L9.53653 55.173Z" fill="#10B3B5"/>
<path d="M0.118621 49.6558H0V55.173H5.63586L0.118621 49.6558Z" fill="#10B3B5"/>
<path d="M79.9999 42.7587C79.9999 43.4903 79.7093 44.192 79.1919 44.7093C78.6746 45.2267 77.9729 45.5173 77.2413 45.5173C76.5097 45.5173 75.808 45.2267 75.2906 44.7093C74.7733 44.192 74.4827 43.4903 74.4827 42.7587C74.5535 41.4618 75.0699 40.2291 75.9447 39.269C75.8923 39.5093 75.8645 39.7542 75.862 40.0001C75.8642 40.731 76.1555 41.4314 76.6724 41.9483C77.1892 42.4652 77.8896 42.7565 78.6206 42.7587C79.0952 42.7628 79.5622 42.639 79.9723 42.4001C79.9879 42.519 79.9971 42.6388 79.9999 42.7587Z" fill="#52B788"/>
<path d="M70.3448 42.7587C70.3448 43.4903 70.0541 44.192 69.5368 44.7093C69.0194 45.2267 68.3178 45.5173 67.5861 45.5173C66.8545 45.5173 66.1528 45.2267 65.6355 44.7093C65.1182 44.192 64.8275 43.4903 64.8275 42.7587C64.8983 41.4618 65.4148 40.2291 66.2896 39.269C66.2371 39.5093 66.2094 39.7542 66.2068 40.0001C66.209 40.731 66.5004 41.4314 67.0172 41.9483C67.5341 42.4652 68.2345 42.7565 68.9654 42.7587C69.4401 42.7628 69.907 42.639 70.3172 42.4001C70.3327 42.519 70.3419 42.6388 70.3448 42.7587Z" fill="#52B788"/>
<path d="M15.1724 42.7587C15.1724 43.4903 14.8818 44.192 14.3644 44.7093C13.8471 45.2267 13.1454 45.5173 12.4138 45.5173C11.6821 45.5173 10.9805 45.2267 10.4631 44.7093C9.94579 44.192 9.65515 43.4903 9.65515 42.7587C9.72594 41.4618 10.2424 40.2291 11.1172 39.269C11.0647 39.5093 11.037 39.7542 11.0345 40.0001C11.0366 40.731 11.328 41.4314 11.8449 41.9483C12.3617 42.4652 13.0621 42.7565 13.7931 42.7587C14.2677 42.7628 14.7347 42.639 15.1448 42.4001C15.1603 42.519 15.1695 42.6388 15.1724 42.7587Z" fill="#52B788"/>
<path d="M5.51724 42.7587C5.51724 43.4903 5.2266 44.192 4.70926 44.7093C4.19192 45.2267 3.49025 45.5173 2.75862 45.5173C2.02699 45.5173 1.32532 45.2267 0.807981 44.7093C0.290639 44.192 0 43.4903 0 42.7587C0.0707866 41.4618 0.587249 40.2291 1.46207 39.269C1.40959 39.5093 1.38186 39.7542 1.37931 40.0001C1.38149 40.731 1.67283 41.4314 2.1897 41.9483C2.70657 42.4652 3.40697 42.7565 4.13793 42.7587C4.61255 42.7628 5.07951 42.639 5.48966 42.4001C5.50519 42.519 5.5144 42.6388 5.51724 42.7587Z" fill="#52B788"/>
<path d="M30.3448 63.4478H40V79.9995H30.3448V63.4478Z" fill="#7FDFE0"/>
<path d="M40 63.4478H49.6552V79.9995H40V63.4478Z" fill="#7FDFE0"/>
<path d="M40 75.7927V79.9996H30.3448V71.103C32.8774 73.7998 36.3146 75.4693 40 75.7927Z" fill="#10B3B5"/>
<path d="M49.6552 75.8624V80.0004H40V75.7935C40.4552 75.8348 40.9103 75.8624 41.3793 75.8624H49.6552Z" fill="#10B3B5"/>
<path d="M40 71.6138L48.3862 80H40V71.6138Z" fill="#10B3B5"/>
<path d="M49.6552 73.1029V77.3512L40 67.696V63.4478L49.6552 73.1029Z" fill="#10B3B5"/>
<path d="M30.3448 71.6138L38.7311 80H30.3448V71.6138Z" fill="#1B9698"/>
<path d="M40 73.1029V77.3512L30.3448 67.696V63.4478L40 73.1029Z" fill="#10B3B5"/>
<path d="M41.3793 75.8624C40.9103 75.8624 40.4552 75.8348 40 75.7935V80.0004H48.3862L44.2483 75.8624H41.3793Z" fill="#1B9698"/>
<path d="M66.2068 66.207H74.4826V80.0001H66.2068V66.207Z" fill="#7FDFE0"/>
<path d="M74.4826 72.0691V80.0001H66.2068V66.207H70.7033C71.2933 68.5195 72.6199 70.5772 74.4826 72.0691Z" fill="#10B3B5"/>
<path d="M74.4826 77.3601V74.4829L66.2068 66.207V69.0843L74.4826 77.3601Z" fill="#1B9698"/>
<path d="M66.2068 72.9854V80.0005H73.222L66.2068 72.9854Z" fill="#1B9698"/>
<path d="M13.7932 77.3601V74.4829L5.51733 66.207V69.0843L13.7932 77.3601Z" fill="#10B3B5"/>
<path d="M5.51733 72.9854V80.0005H12.5325L5.51733 72.9854Z" fill="#1B9698"/>
<path d="M13.7932 74.4832V77.3659L7.02075 70.5935C7.47611 70.0724 7.87382 69.5036 8.20696 68.897L13.7932 74.4832Z" fill="#1B9698"/>
<path d="M20.6898 16.5522H26.2071V57.9316H20.6898V16.5522Z" fill="#1B9698"/>
<path d="M23.4482 8.27588H27.5862V16.5517H23.4482V8.27588Z" fill="#1B9698"/>
<path d="M57.931 70.3442H60.6897V79.9994H57.931V70.3442Z" fill="#40916C"/>
<path d="M19.3102 70.3442H22.0688V79.9994H19.3102V70.3442Z" fill="#40916C"/>
<path d="M63.4483 67.5865C63.4483 68.6839 63.0124 69.7364 62.2364 70.5125C61.4604 71.2885 60.4079 71.7244 59.3104 71.7244C58.213 71.7244 57.1605 71.2885 56.3845 70.5125C55.6084 69.7364 55.1725 68.6839 55.1725 67.5865C55.1725 65.301 57.0249 60.6899 59.3104 60.6899C61.5959 60.6899 63.4483 65.301 63.4483 67.5865Z" fill="#95D5B2"/>
<path d="M24.8276 67.5865C24.8276 68.6839 24.3917 69.7364 23.6156 70.5125C22.8396 71.2885 21.7871 71.7244 20.6897 71.7244C19.5922 71.7244 18.5397 71.2885 17.7637 70.5125C16.9877 69.7364 16.5518 68.6839 16.5518 67.5865C16.5518 65.301 18.4042 60.6899 20.6897 60.6899C22.9752 60.6899 24.8276 65.301 24.8276 67.5865Z" fill="#95D5B2"/>
<path d="M63.4483 67.5858C63.4483 68.6832 63.0124 69.7357 62.2364 70.5117C61.4604 71.2877 60.4079 71.7237 59.3104 71.7237C58.213 71.7237 57.1605 71.2877 56.3845 70.5117C55.6084 69.7357 55.1725 68.6832 55.1725 67.5858C55.1725 65.6134 56.5518 61.903 58.4001 60.9375C58.1171 61.7456 57.959 62.5921 57.9311 63.4478C57.9311 64.5453 58.3671 65.5978 59.1431 66.3738C59.9191 67.1498 60.9716 67.5858 62.069 67.5858C62.5357 67.5887 62.9988 67.5045 63.4346 67.3375C63.446 67.4197 63.4506 67.5028 63.4483 67.5858Z" fill="#52B788"/>
<path d="M24.8276 67.5858C24.8276 68.6832 24.3917 69.7357 23.6156 70.5117C22.8396 71.2877 21.7871 71.7237 20.6897 71.7237C19.5922 71.7237 18.5397 71.2877 17.7637 70.5117C16.9877 69.7357 16.5518 68.6832 16.5518 67.5858C16.5518 65.6134 17.9311 61.903 19.7793 60.9375C19.4964 61.7456 19.3383 62.5921 19.3104 63.4478C19.3104 64.5453 19.7463 65.5978 20.5223 66.3738C21.2984 67.1498 22.3509 67.5858 23.4483 67.5858C23.915 67.5887 24.3781 67.5045 24.8138 67.3375C24.8253 67.4197 24.8299 67.5028 24.8276 67.5858Z" fill="#52B788"/>
</svg>
