<svg width="80" height="80" viewBox="0 0 80 80" fill="none" xmlns="http://www.w3.org/2000/svg">
<rect width="80" height="80" fill="#FAFAFA"/>
<path d="M38.2639 21.4277H46.4367C47.5205 21.4277 48.5599 21.8583 49.3263 22.6246C50.0926 23.391 50.5232 24.4304 50.5232 25.5142V47.3084H34.1775V25.5142C34.1775 24.4304 34.608 23.391 35.3744 22.6246C36.1407 21.8583 37.1801 21.4277 38.2639 21.4277Z" fill="#10B3B5"/>
<path d="M39.6942 21.4277H38.2639C37.1801 21.4277 36.1407 21.8583 35.3744 22.6246C34.608 23.391 34.1775 24.4304 34.1775 25.5142V47.3084H50.5232V35.4578C47.5596 34.4089 44.9617 32.5273 43.0409 30.0388C41.1201 27.5502 39.958 24.5603 39.6942 21.4277Z" fill="#1B9698"/>
<path d="M38.2639 15.9785H46.4367V21.4271H38.2639V15.9785Z" fill="#F89C8D"/>
<path d="M39.6261 10.5303H45.0746V15.9788H39.6261V10.5303Z" fill="#F89C8D"/>
<path d="M34.1775 28.2383H50.5232V33.6868H34.1775V28.2383Z" fill="#F89C8D"/>
<path d="M41.83 28.2383H34.1775V33.6868H46.9435C44.8429 32.2877 43.0931 30.4233 41.83 28.2383Z" fill="#F25E57"/>
<path d="M43.7125 18.7028C42.8698 18.7013 42.0484 18.4385 41.3614 17.9505C40.6744 17.4626 40.1557 16.7736 39.8767 15.9785H38.2639V21.4271H46.4367V18.7028H43.7125Z" fill="#F25E57"/>
<path d="M40.9882 10.5303H39.6261V15.9788H45.0746V14.6167C43.9908 14.6167 42.9514 14.1862 42.1851 13.4198C41.4187 12.6535 40.9882 11.6141 40.9882 10.5303Z" fill="#F25E57"/>
<path d="M73.6776 1.36214C74.3033 1.7234 74.7599 2.31843 74.9468 3.01632C75.1338 3.71421 75.0359 4.4578 74.6747 5.0835L41.3023 62.8845L36.5838 60.1602L69.9562 2.35922C70.3175 1.73352 70.9125 1.27695 71.6104 1.08996C72.3083 0.902971 73.0519 1.00088 73.6776 1.36214Z" fill="#F89C8D"/>
<path d="M74.0065 1.59619L56.2878 32.2852C55.7711 33.1771 55.0113 33.9036 54.0972 34.38C53.1831 34.8563 52.1524 35.0628 51.1253 34.9754L36.5858 60.1614L41.3043 62.8856L74.6767 5.0819C75.0017 4.51712 75.1128 3.85432 74.9897 3.21443C74.8667 2.57453 74.5177 2.0002 74.0065 1.59619Z" fill="#F25E57"/>
<path d="M14.3771 25.4155L21.4548 21.3291L25.5412 28.4068L18.4635 32.4932L14.3771 25.4155Z" fill="#E9F1F2"/>
<path d="M23.3649 25.0015C22.8999 25.2701 22.3865 25.4445 21.8541 25.5145C21.3217 25.5846 20.7807 25.549 20.262 25.4099C19.7433 25.2707 19.2571 25.0307 18.8313 24.7035C18.4055 24.3764 18.0483 23.9685 17.7802 23.5032L17.7556 23.4609L14.3748 25.4129L18.4612 32.496L25.5444 28.4096L23.5257 24.913L23.3649 25.0015Z" fill="#D0D8DA"/>
<path d="M42.5193 46.917L26.0047 56.452L16.2641 34.8675C15.8472 33.9439 15.7884 32.8984 16.099 31.9339C16.4096 30.9693 17.0675 30.1546 17.945 29.6478L23.3363 26.5353C24.2139 26.0286 25.2485 25.8661 26.2393 26.0793C27.23 26.2925 28.1062 26.8662 28.6977 27.6891L42.5193 46.917Z" fill="#F89C8D"/>
<path d="M4.21054 18.7031L6.93482 23.4216C8.18624 22.6991 9.6734 22.5033 11.0692 22.8772C12.4649 23.2512 13.655 24.1643 14.3775 25.4157L21.4607 21.3293L18.7364 16.6109L21.0956 15.2487L18.3713 10.5303L4.21054 18.7031Z" fill="#25D3D6"/>
<path d="M18.365 10.5303L23.0835 7.806L25.8077 12.5244L21.0893 15.2487L18.365 10.5303Z" fill="#F89C8D"/>
<path d="M32.4313 32.8831C31.4427 33.4479 30.347 33.8 29.2144 33.9168C28.0818 34.0335 26.9373 33.9123 25.8543 33.5609C24.7713 33.2095 23.7736 32.6357 22.9253 31.8762C22.077 31.1168 21.3967 30.1885 20.928 29.1508L20.4894 28.1782L17.945 29.648C17.0675 30.1548 16.4096 30.9695 16.099 31.934C15.7884 32.8986 15.8472 33.9441 16.2641 34.8677L26.0047 56.4521L42.5193 46.9172L32.4313 32.8831Z" fill="#F25E57"/>
<path d="M13.6243 19.2671C12.8254 18.8327 11.9306 18.6051 11.0212 18.6051C9.56769 18.652 8.1523 18.1352 7.07103 17.1626L6.99748 17.0918L4.21054 18.7032L6.93482 23.4217C8.18624 22.6992 9.6734 22.5034 11.0692 22.8773C12.4649 23.2513 13.655 24.1644 14.3775 25.4158L21.4607 21.3294L20.0318 18.8544L17.6562 19.7044C16.9915 19.921 16.2884 19.994 15.5933 19.9187C14.8982 19.8433 14.2271 19.6212 13.6243 19.2671Z" fill="#10B3B5"/>
<path d="M24.8115 11.1627C24.1858 11.5239 23.4422 11.6218 22.7443 11.4348C22.0465 11.2478 21.4514 10.7913 21.0902 10.1656L20.5671 9.25977L18.3659 10.5306L21.0902 15.2491L25.8086 12.5248L24.9695 11.0755L24.8115 11.1627Z" fill="#F25E57"/>
<path d="M51.8851 79.9996H19.1938L13.7452 44.584H57.3337L51.8851 79.9996Z" fill="#D0D8DA"/>
<path d="M9.65884 39.1357H61.4201V44.5843H9.65884V39.1357Z" fill="#E9F1F2"/>
<path d="M48.8108 74.551C50.4001 73.5821 51.8866 72.4539 53.2473 71.1838L53.9896 66.3605C51.0834 70.0834 47.1664 72.8905 42.707 74.4462C37.412 73.9581 32.4786 71.5491 28.8377 67.6736C29.3438 67.5114 29.8194 67.266 30.2448 66.9476C31.0067 66.3772 31.9212 66.0466 32.8717 65.9981C33.8223 65.9496 34.7657 66.1853 35.5817 66.6751C35.946 66.8934 36.3647 67.004 36.7893 66.9941C37.2139 66.9843 37.627 66.8544 37.9809 66.6196C38.3347 66.3847 38.6148 66.0545 38.7888 65.667C38.9628 65.2796 39.0235 64.8508 38.9639 64.4303L36.512 47.3083H56.9141L57.3337 44.584H13.7452L19.1938 79.9996H51.8851L52.7228 74.551H48.8108Z" fill="#93999A"/>
<path d="M17.8317 41.86C16.989 41.8585 16.1676 41.5957 15.4806 41.1078C14.7936 40.6198 14.2749 39.9308 13.9959 39.1357H9.65884V44.5843H61.4201V41.86H17.8317Z" fill="#D0D8DA"/>
<path d="M61.4201 48.6709H56.7043L56.2862 51.3952H60.0157C59.2665 63.5318 48.5737 73.1894 35.5394 73.1894C22.5051 73.1894 11.8123 63.5318 11.0632 51.3952H14.7927L14.3745 48.6709H9.6588C9.29754 48.6709 8.95107 48.8144 8.69562 49.0699C8.44017 49.3253 8.29666 49.6718 8.29666 50.033C8.29666 64.3042 20.5178 75.9137 35.5394 75.9137C50.5611 75.9137 62.7822 64.3042 62.7822 50.033C62.7822 49.6718 62.6387 49.3253 62.3833 49.0699C62.1278 48.8144 61.7813 48.6709 61.4201 48.6709Z" fill="#25D3D6"/>
<path d="M32.1344 35.7307C31.5924 36.2724 30.8574 36.5766 30.0912 36.5766C29.3249 36.5766 28.59 36.2724 28.0479 35.7307C27.5059 35.189 26.771 34.8848 26.0047 34.8848C25.2385 34.8848 24.5035 35.189 23.9615 35.7307C22.6353 37.057 21.775 38.7777 21.5097 40.6344L17.8319 66.3788L21.8815 63.9488C22.6976 63.4589 23.641 63.2232 24.5915 63.2717C25.542 63.3202 26.4565 63.6508 27.2184 64.2212C28.047 64.8432 29.0551 65.1795 30.0912 65.1795C31.1272 65.1795 32.1353 64.8432 32.9639 64.2212C33.7258 63.6508 34.6403 63.3202 35.5908 63.2717C36.5413 63.2232 37.4848 63.4589 38.3008 63.9488C38.6651 64.167 39.0838 64.2776 39.5084 64.2677C39.933 64.2579 40.3461 64.1281 40.6999 63.8932C41.0538 63.6583 41.3339 63.3281 41.5079 62.9407C41.6818 62.5532 41.7425 62.1245 41.683 61.704L38.6726 40.6344C38.4073 38.7777 37.547 37.057 36.2208 35.7307C35.6788 35.189 34.9439 34.8848 34.1776 34.8848C33.4113 34.8848 32.6764 35.189 32.1344 35.7307Z" fill="#25D3D6"/>
<path d="M33.807 48.1341L33.6408 46.4695C33.4586 44.6283 32.692 42.8938 31.4532 41.5195C30.9436 40.9469 30.2287 40.5983 29.4637 40.5493C28.6987 40.5004 27.9452 40.755 27.3668 41.258C26.818 41.7801 26.0862 42.0658 25.3289 42.0539C24.5715 42.0419 23.8491 41.7331 23.3171 41.194C22.8511 40.7226 22.2524 40.4047 21.6008 40.2827C21.579 40.4012 21.5395 40.5143 21.5218 40.6341L17.8318 66.3786L21.8814 63.9485C22.6974 63.4587 23.6409 63.223 24.5914 63.2715C25.5419 63.32 26.4564 63.6505 27.2183 64.2209C28.0469 64.8429 29.055 65.1792 30.091 65.1792C31.1271 65.1792 32.1352 64.8429 32.9638 64.2209C33.7257 63.6505 34.6402 63.32 35.5907 63.2715C36.5412 63.223 37.4846 63.4587 38.3006 63.9485C38.665 64.1667 39.0837 64.2773 39.5083 64.2675C39.9328 64.2577 40.346 64.1278 40.6998 63.8929C41.0537 63.6581 41.3338 63.3278 41.5077 62.9404C41.6817 62.553 41.7424 62.1242 41.6828 61.7037L41.2156 58.4346C39.1849 57.5195 37.431 56.0857 36.1304 54.2775C34.8299 52.4693 34.0285 50.3504 33.807 48.1341Z" fill="#10B3B5"/>
<path d="M28.7153 44.7479L26.3724 63.491L26.3316 63.6953C25.4963 63.3158 24.5685 63.188 23.6618 63.3275C23.6589 63.2727 23.6635 63.2177 23.6754 63.1641L26.0183 44.421C26.027 44.2338 26.0742 44.0505 26.157 43.8824C26.2398 43.7143 26.3564 43.565 26.4995 43.444C26.6426 43.3231 26.8091 43.2329 26.9886 43.1792C27.1681 43.1255 27.3568 43.1094 27.5428 43.132C27.7289 43.1545 27.9082 43.2152 28.0698 43.3102C28.2313 43.4053 28.3714 43.5326 28.4815 43.6843C28.5915 43.836 28.6691 44.0087 28.7093 44.1917C28.7495 44.3748 28.7516 44.5641 28.7153 44.7479Z" fill="#1B9698"/>
<path d="M36.6838 63.2055V63.3553C36.4055 63.3011 36.1227 63.2738 35.8393 63.2736C35.2095 63.2751 34.5857 63.3953 34.0004 63.6277C33.9737 63.5582 33.9599 63.4843 33.9595 63.4098L32.8153 47.4047C32.8028 47.2258 32.8256 47.0462 32.8825 46.8761C32.9394 46.7061 33.0292 46.5489 33.1469 46.4136C33.3844 46.1402 33.7208 45.9725 34.0821 45.9472C34.4434 45.9219 34.7999 46.0412 35.0732 46.2787C35.3465 46.5163 35.5143 46.8527 35.5396 47.214L36.6838 63.2055Z" fill="#1B9698"/>
<path d="M33.6407 46.4703L33.8069 48.1349C34.0224 50.288 34.7889 52.3493 36.0326 54.1201L35.5395 47.2141C35.5106 46.8542 35.3418 46.52 35.0693 46.2832C34.7969 46.0464 34.4424 45.9258 34.0821 45.9473C33.9045 45.9589 33.731 46.0052 33.5713 46.0835C33.5903 46.2197 33.6326 46.3409 33.6407 46.4703Z" fill="#10B3B5"/>
</svg>
