<svg width="81" height="75" viewBox="0 0 81 75" fill="none" xmlns="http://www.w3.org/2000/svg">
<path d="M47.1496 63.3521H4.1604V23.1365L26.3484 12.0425L47.1496 23.1365V63.3521Z" fill="#D0D8DA"/>
<path d="M30.5086 38.3907C21.0219 38.3907 12.9496 32.4263 9.77673 24.0531L26.3484 16.2027L47.1496 26.0556V23.1365L26.3484 12.0425L4.1604 23.1365V63.3521H47.1496V38.3907H30.5086Z" fill="#93999A"/>
<path d="M16.641 48.0981H34.6687V63.3524H16.641V48.0981Z" fill="#25D3D6"/>
<path d="M52.6964 25.9105L26.3481 13.4298V7.88281L52.6964 20.3635V25.9105Z" fill="#25D3D6"/>
<path d="M26.3482 13.4298L0 25.9105V20.3635L26.3482 7.88281V13.4298Z" fill="#25D3D6"/>
<path d="M26.3481 13.4297L52.6964 25.9105V23.137L26.3481 10.6562V13.4297Z" fill="#10B3B5"/>
<path d="M26.3482 10.6562L0 23.137V25.9105L26.3482 13.4297V10.6562Z" fill="#10B3B5"/>
<path d="M20.8013 21.75H26.3483V27.297H20.8013V21.75Z" fill="#25D3D6"/>
<path d="M26.3481 21.75H31.8951V27.297H26.3481V21.75Z" fill="#25D3D6"/>
<path d="M31.8951 27.297H26.3481V21.75L31.8951 27.297Z" fill="#10B3B5"/>
<path d="M26.3483 27.297H20.8013V21.75L26.3483 27.297Z" fill="#10B3B5"/>
<path d="M20.8013 27.2969H26.3483V32.8439H20.8013V27.2969Z" fill="#25D3D6"/>
<path d="M26.3481 27.2969H31.8951V32.8439H26.3481V27.2969Z" fill="#25D3D6"/>
<path d="M31.8951 32.8439H26.3481V27.2969L31.8951 32.8439Z" fill="#10B3B5"/>
<path d="M26.3483 32.8439H20.8013V27.2969L26.3483 32.8439Z" fill="#10B3B5"/>
<path d="M24.9614 41.1646H61.0169V68.8995H24.9614V41.1646Z" fill="#FFD8D7"/>
<path d="M58.2434 50.8718V59.1923H51.3096C42.1197 59.1923 34.6687 51.7413 34.6687 42.5513V41.1646H24.9614V68.8995H61.0169V46.9667C59.4041 47.5394 58.2434 49.0635 58.2434 50.8718Z" fill="#FFAAA6"/>
<path d="M80.4312 68.8994H61.0167V46.7114H70.724L80.4312 57.8054V68.8994Z" fill="#F89C8D"/>
<path d="M66.5637 60.5789C65.0314 60.5789 63.7902 59.3378 63.7902 57.8054V46.7114H61.0167V68.8994H80.4312V60.5789H66.5637Z" fill="#F25E57"/>
<path d="M80.4311 57.8054H66.5636V46.7114H70.7238L80.4311 57.8054Z" fill="#25D3D6"/>
<path d="M80.4311 57.8054H66.5636V46.7114L70.7238 53.6452L80.4311 57.8054Z" fill="#10B3B5"/>
<path d="M70.7239 74.4465C73.7874 74.4465 76.2709 71.963 76.2709 68.8995C76.2709 65.836 73.7874 63.3525 70.7239 63.3525C67.6604 63.3525 65.1769 65.836 65.1769 68.8995C65.1769 71.963 67.6604 74.4465 70.7239 74.4465Z" fill="#545A63"/>
<path d="M38.8286 74.4465C41.8921 74.4465 44.3756 71.963 44.3756 68.8995C44.3756 65.836 41.8921 63.3525 38.8286 63.3525C35.7651 63.3525 33.2816 65.836 33.2816 68.8995C33.2816 71.963 35.7651 74.4465 38.8286 74.4465Z" fill="#545A63"/>
<path d="M70.7237 71.673C72.2555 71.673 73.4972 70.4312 73.4972 68.8995C73.4972 67.3677 72.2555 66.126 70.7237 66.126C69.1919 66.126 67.9502 67.3677 67.9502 68.8995C67.9502 70.4312 69.1919 71.673 70.7237 71.673Z" fill="#E9F1F2"/>
<path d="M38.8285 71.673C40.3603 71.673 41.602 70.4312 41.602 68.8995C41.602 67.3677 40.3603 66.126 38.8285 66.126C37.2968 66.126 36.0551 67.3677 36.0551 68.8995C36.0551 70.4312 37.2968 71.673 38.8285 71.673Z" fill="#E9F1F2"/>
<path d="M38.8288 70.2862C39.5946 70.2862 40.2155 69.6653 40.2155 68.8994C40.2155 68.1336 39.5946 67.5127 38.8288 67.5127C38.0629 67.5127 37.442 68.1336 37.442 68.8994C37.442 69.6653 38.0629 70.2862 38.8288 70.2862Z" fill="#D0D8DA"/>
<path d="M70.724 70.2862C71.4899 70.2862 72.1108 69.6653 72.1108 68.8994C72.1108 68.1336 71.4899 67.5127 70.724 67.5127C69.9581 67.5127 69.3373 68.1336 69.3373 68.8994C69.3373 69.6653 69.9581 70.2862 70.724 70.2862Z" fill="#D0D8DA"/>
<path d="M48.5359 49.4849H31.8949C31.1281 49.4849 30.5082 48.865 30.5082 48.0982C30.5082 47.3313 31.1281 46.7114 31.8949 46.7114H48.5359C49.3028 46.7114 49.9226 47.3313 49.9226 48.0982C49.9226 48.865 49.3028 49.4849 48.5359 49.4849Z" fill="#F25E57"/>
<path d="M52.696 55.0313H37.4418C36.6749 55.0313 36.0551 54.4114 36.0551 53.6446C36.0551 52.8777 36.6749 52.2578 37.4418 52.2578H52.696C53.4629 52.2578 54.0828 52.8777 54.0828 53.6446C54.0828 54.4114 53.4629 55.0313 52.696 55.0313Z" fill="#F25E57"/>
<path d="M55.4698 60.5787H45.7626C44.9957 60.5787 44.3759 59.9588 44.3759 59.1919C44.3759 58.4251 44.9957 57.8052 45.7626 57.8052H55.4698C56.2367 57.8052 56.8566 58.4251 56.8566 59.1919C56.8566 59.9588 56.2367 60.5787 55.4698 60.5787Z" fill="#F25E57"/>
<path d="M30.5082 48.0982C30.5082 48.865 31.1281 49.4849 31.8949 49.4849H36.1966C35.7889 48.5988 35.463 47.6724 35.2148 46.7114H31.8949C31.1281 46.7114 30.5082 47.3313 30.5082 48.0982Z" fill="#F25E57"/>
<path d="M36.0551 53.6446C36.0551 54.4114 36.6749 55.0313 37.4418 55.0313H40.3276C39.3888 54.2048 38.5443 53.2757 37.8121 52.2578H37.4418C36.6749 52.2578 36.0551 52.8777 36.0551 53.6446Z" fill="#F25E57"/>
<path d="M44.3759 59.1919C44.3759 59.9588 44.9957 60.5786 45.7626 60.5786H55.4698C56.2367 60.5786 56.8566 59.9588 56.8566 59.1919H51.3096C49.1171 59.1919 47.0301 58.7578 45.1136 57.9868C44.6809 58.2212 44.3759 58.6649 44.3759 59.1919Z" fill="#F25E57"/>
<path d="M0 57.8062H16.641V74.4471H0V57.8062Z" fill="#F89C8D"/>
<path d="M6.93374 60.5796V57.8062H0V74.4471H16.641V70.2869C11.2798 70.2869 6.93374 65.9408 6.93374 60.5796Z" fill="#F25E57"/>
<path d="M5.547 57.8062H11.094V63.3531H5.547V57.8062Z" fill="#FFD8D7"/>
<path d="M7.34145 63.3531C7.07935 62.4739 6.93374 61.5434 6.93374 60.5796V57.8062H5.547V63.3531H7.34145Z" fill="#FFAAA6"/>
<path d="M69.3375 0C64.7418 0 61.017 3.7248 61.017 8.32049C61.017 16.641 69.3375 22.188 69.3375 22.188C69.3375 22.188 77.6579 16.641 77.6579 8.32049C77.6579 3.7248 73.9331 0 69.3375 0ZM69.3375 11.094C67.8051 11.094 66.564 9.85284 66.564 8.32049C66.564 6.78813 67.8051 5.54699 69.3375 5.54699C70.8698 5.54699 72.1109 6.78813 72.1109 8.32049C72.1109 9.85284 70.8698 11.094 69.3375 11.094Z" fill="#F89C8D"/>
<path d="M64.8375 9.25879C64.3979 8.19377 64.065 7.04831 63.9028 5.83491C63.7128 4.42043 63.8556 3.0212 64.2689 1.73291C62.2942 3.25279 61.017 5.63522 61.017 8.31996C61.017 16.6404 69.3375 22.1874 69.3375 22.1874C69.3375 22.1874 74.9843 18.4099 76.9687 12.4233C73.1385 15.47 67.0008 14.4924 64.8375 9.25879Z" fill="#F25E57"/>
</svg>
