<svg width="81" height="80" viewBox="0 0 81 80" fill="none" xmlns="http://www.w3.org/2000/svg">
<path d="M78.9195 22.4338C78.3704 22.072 77.7122 21.9132 77.0585 21.9847C76.4048 22.0563 75.7966 22.3537 75.3387 22.8257L68.7583 29.4196C68.5073 29.6709 68.2092 29.8702 67.8812 30.0062C67.5531 30.1422 67.2014 30.2122 66.8463 30.2122C66.4912 30.2122 66.1395 30.1422 65.8114 30.0062C65.4833 29.8702 65.1853 29.6709 64.9343 29.4196C64.6831 29.1687 64.4837 28.8706 64.3477 28.5425C64.2117 28.2145 64.1417 27.8628 64.1417 27.5077C64.1417 27.1525 64.2117 26.8009 64.3477 26.4728C64.4837 26.1447 64.6831 25.8467 64.9343 25.5957L79.1627 11.3673C79.6347 10.9094 79.9321 10.3012 80.0036 9.64751C80.0752 8.99382 79.9163 8.33567 79.5546 7.78655C79.3259 7.47658 79.0335 7.21909 78.6972 7.03133C78.3608 6.84357 77.9882 6.72988 77.6044 6.69789C77.2205 6.6659 76.8342 6.71635 76.4714 6.84585C76.1086 6.97535 75.7777 7.18091 75.5009 7.44875L61.1374 21.7717C60.8864 22.023 60.5883 22.2223 60.2603 22.3583C59.9322 22.4943 59.5805 22.5643 59.2254 22.5643C58.8703 22.5643 58.5186 22.4943 58.1905 22.3583C57.8624 22.2223 57.5644 22.023 57.3134 21.7717C57.0622 21.5207 56.8628 21.2227 56.7268 20.8946C56.5908 20.5665 56.5208 20.2149 56.5208 19.8597C56.5208 19.5046 56.5908 19.1529 56.7268 18.8249C56.8628 18.4968 57.0622 18.1987 57.3134 17.9478L61.0293 14.2319C61.5081 13.7786 61.8113 13.1707 61.8855 12.5155C61.9596 11.8603 61.8 11.2 61.4347 10.6511C61.2064 10.3301 60.9108 10.0627 60.5684 9.86791C60.2261 9.67309 59.8452 9.55547 59.4526 9.52329C59.06 9.49111 58.6651 9.54514 58.2956 9.68162C57.9261 9.81809 57.5909 10.0337 57.3134 10.3133L53.4895 14.1373C53.2385 14.3886 52.9404 14.5879 52.6123 14.7239C52.2843 14.8599 51.9326 14.9299 51.5775 14.9299C51.2223 14.9299 50.8707 14.8599 50.5426 14.7239C50.2145 14.5879 49.9165 14.3886 49.6655 14.1373C49.4142 13.8863 49.2149 13.5883 49.0789 13.2602C48.9429 12.9321 48.8729 12.5805 48.8729 12.2253C48.8729 11.8702 48.9429 11.5185 49.0789 11.1904C49.2149 10.8624 49.4142 10.5643 49.6655 10.3133L55.3001 4.67874C55.7855 4.23034 56.0955 3.62389 56.1747 2.96787C56.2539 2.31185 56.0972 1.64904 55.7325 1.09799C55.5038 0.788026 55.2115 0.53053 54.8751 0.34277C54.5388 0.15501 54.1662 0.0413248 53.7823 0.00933519C53.3984 -0.0226544 53.0121 0.0277913 52.6494 0.15729C52.2866 0.286789 51.9557 0.492349 51.6788 0.760188L30.5322 21.7717L57.2864 48.5259L79.2573 26.555C79.5369 26.2776 79.7525 25.9424 79.889 25.5729C80.0255 25.2033 80.0795 24.8084 80.0473 24.4158C80.0152 24.0232 79.8975 23.6424 79.7027 23.3C79.5079 22.9577 79.2406 22.662 78.9195 22.4338Z" fill="#25D3D6"/>
<path d="M66.8395 7.27306C68.3321 7.27306 69.542 6.06313 69.542 4.57061C69.542 3.07809 68.3321 1.86816 66.8395 1.86816C65.347 1.86816 64.1371 3.07809 64.1371 4.57061C64.1371 6.06313 65.347 7.27306 66.8395 7.27306Z" fill="#25D3D6"/>
<path d="M78.9196 22.4339C78.3705 22.0721 77.7123 21.9133 77.0586 21.9848C76.405 22.0563 75.7967 22.3537 75.3389 22.8257L68.853 29.3116C68.3997 29.7904 67.7918 30.0936 67.1366 30.1678C66.4814 30.242 65.8211 30.0823 65.2722 29.717C64.9579 29.4884 64.6965 29.1948 64.5059 28.856C64.3154 28.5173 64.2002 28.1414 64.1681 27.7541C64.136 27.3667 64.1879 26.977 64.3201 26.6115C64.4524 26.2461 64.6619 25.9134 64.9344 25.6363L79.1223 11.4349C79.5904 10.9917 79.8936 10.4023 79.982 9.76369C80.0704 9.12513 79.9388 8.4755 79.6087 7.92174C79.2568 7.33742 78.6968 6.90783 78.0413 6.71915C78.183 7.18969 78.1937 7.68996 78.0723 8.16614C77.9509 8.64231 77.7019 9.07637 77.3522 9.4216L62.259 24.4472C60.7464 26.002 58.6835 26.9002 56.5148 26.9482C54.3462 26.9963 52.2455 26.1903 50.6655 24.7039L61.0429 14.3401C61.509 13.8823 61.8047 13.2791 61.8809 12.6302C61.9571 11.9814 61.8092 11.3261 61.4618 10.7728C61.1048 10.2096 60.5427 9.8074 59.8944 9.65131C60.0138 10.1075 60.0117 10.5869 59.8885 11.042C59.7652 11.4971 59.525 11.9121 59.1917 12.2457L54.3814 17.002C53.6284 17.7558 52.7343 18.3537 51.7501 18.7617C50.7659 19.1697 49.7109 19.3797 48.6454 19.3797C47.58 19.3797 46.525 19.1697 45.5408 18.7617C44.5566 18.3537 43.6624 17.7558 42.9095 17.002L55.2056 4.71934C55.6792 4.27761 55.9891 3.68846 56.0848 3.04798C56.1805 2.40751 56.0563 1.75351 55.7326 1.19265C55.3649 0.631094 54.8013 0.226492 54.1517 0.0576172C54.2753 0.514581 54.2767 0.995997 54.1557 1.45367C54.0348 1.91135 53.7958 2.32923 53.4626 2.66548L42.95 13.178C42.4437 13.6813 41.7588 13.9639 41.0448 13.9639C40.3309 13.9639 39.6459 13.6813 39.1396 13.178L30.5323 21.7718L57.2865 48.526L79.2574 26.5551C79.537 26.2777 79.7527 25.9424 79.8891 25.5729C80.0256 25.2034 80.0796 24.8085 80.0475 24.4159C80.0153 24.0233 79.8977 23.6425 79.7028 23.3001C79.508 22.9577 79.2407 22.6621 78.9196 22.4339Z" fill="#10B3B5"/>
<path d="M69.3665 3.625C69.2289 3.97769 69.0222 4.29929 68.7585 4.57086C68.4399 4.89193 68.0458 5.12791 67.6124 5.25718C67.179 5.38645 66.72 5.40486 66.2776 5.31074C65.8353 5.21661 65.4236 5.01295 65.0803 4.71843C64.737 4.42391 64.4732 4.04795 64.3129 3.625C64.1578 4.03409 64.1042 4.47473 64.157 4.90907C64.2097 5.34341 64.3671 5.75845 64.6156 6.11853C64.8641 6.47861 65.1964 6.77297 65.5838 6.9763C65.9712 7.17963 66.4022 7.28586 66.8397 7.28586C67.2772 7.28586 67.7082 7.17963 68.0956 6.9763C68.483 6.77297 68.8153 6.47861 69.0638 6.11853C69.3124 5.75845 69.4697 5.34341 69.5225 4.90907C69.5752 4.47473 69.5217 4.03409 69.3665 3.625Z" fill="#10B3B5"/>
<path d="M63.0534 41.7835L36.3046 15.0347C35.2494 13.9794 33.5386 13.9794 32.4834 15.0347L24.8408 22.6772C23.7856 23.7324 23.7856 25.4432 24.8408 26.4984L51.5897 53.2473C52.6449 54.3025 54.3557 54.3025 55.4109 53.2473L63.0534 45.6047C64.1086 44.5495 64.1086 42.8387 63.0534 41.7835Z" fill="#10B3B5"/>
<path d="M61.1374 47.5263L57.3269 51.3098L61.1374 55.1743L53.503 62.8087L35.356 44.6617C35.1051 44.4105 34.807 44.2111 34.4789 44.0751C34.1509 43.9391 33.7992 43.8691 33.4441 43.8691C33.0889 43.8691 32.7373 43.9391 32.4092 44.0751C32.0811 44.2111 31.7831 44.4105 31.5321 44.6617L21.9519 54.2149L25.8029 58.0659L33.4508 50.4179L51.5977 68.5514C51.8487 68.8026 52.1468 69.002 52.4749 69.138C52.8029 69.274 53.1546 69.344 53.5097 69.344C53.8649 69.344 54.2165 69.274 54.5446 69.138C54.8727 69.002 55.1707 68.8026 55.4217 68.5514L66.8801 57.0795C67.1314 56.8285 67.3307 56.5304 67.4667 56.2024C67.6027 55.8743 67.6727 55.5226 67.6727 55.1675C67.6727 54.8124 67.6027 54.4607 67.4667 54.1326C67.3307 53.8045 67.1314 53.5065 66.8801 53.2555L61.1374 47.5263Z" fill="#F25E57"/>
<path d="M25.7935 58.028L21.9722 54.2068C20.3894 52.6239 17.8231 52.6239 16.2403 54.2068L2.86591 67.5812C1.28309 69.164 1.28309 71.7303 2.8659 73.3131L6.68716 77.1343C8.26998 78.7171 10.8362 78.7171 12.4191 77.1343L25.7935 63.7599C27.3763 62.1771 27.3763 59.6108 25.7935 58.028Z" fill="#93999A"/>
<path d="M47.7673 41.8004L26.7504 20.7834L32.4823 15.0515C32.989 14.5448 33.6763 14.2601 34.3929 14.2601C35.1095 14.2601 35.7968 14.5448 36.3035 15.0515L63.0524 41.8004C61.0254 43.8273 58.2764 44.966 55.4099 44.966C52.5433 44.966 49.7943 43.8273 47.7673 41.8004Z" fill="#25D3D6"/>
<path d="M3.80632 68.5743L2.851 67.6189L16.2254 54.2445C16.9855 53.4844 18.0164 53.0574 19.0914 53.0574C20.1663 53.0574 21.1972 53.4844 21.9573 54.2445L25.7786 58.0658L15.2701 68.5743C13.7499 70.0945 11.6881 70.9485 9.53821 70.9485C7.38833 70.9485 5.32651 70.0945 3.80632 68.5743Z" fill="#D0D8DA"/>
<path d="M35.3561 44.6617L43.004 52.3097C42.753 52.5609 42.455 52.7602 42.1269 52.8962C41.7988 53.0322 41.4472 53.1022 41.092 53.1022C40.7369 53.1022 40.3852 53.0322 40.0571 52.8962C39.7291 52.7602 39.431 52.5609 39.18 52.3097L33.4508 46.567L29.6269 50.3909C29.3759 50.6422 29.0778 50.8415 28.7498 50.9775C28.4217 51.1135 28.07 51.1835 27.7149 51.1835C27.3598 51.1835 27.0081 51.1135 26.68 50.9775C26.3519 50.8415 26.0539 50.6422 25.8029 50.3909L31.5321 44.6617C31.7831 44.4105 32.0811 44.2111 32.4092 44.0751C32.7373 43.9391 33.0889 43.8691 33.4441 43.8691C33.7992 43.8691 34.1509 43.9391 34.479 44.0751C34.807 44.2111 35.1051 44.4105 35.3561 44.6617Z" fill="#F89C8D"/>
</svg>
