<svg width="35" height="38" viewBox="0 0 35 38" fill="none" xmlns="http://www.w3.org/2000/svg">
<path d="M16.1754 10.1783H20.0575C20.5723 10.1783 21.066 10.3828 21.43 10.7468C21.7941 11.1109 21.9986 11.6046 21.9986 12.1194V22.4716H14.2344V12.1194C14.2344 11.6046 14.4389 11.1109 14.8029 10.7468C15.1669 10.3828 15.6606 10.1783 16.1754 10.1783Z" fill="#10B3B5"/>
<path d="M16.8548 10.1783H16.1754C15.6606 10.1783 15.1669 10.3828 14.8029 10.7468C14.4389 11.1109 14.2344 11.6046 14.2344 12.1194V22.4716H21.9986V16.8426C20.5909 16.3444 19.3569 15.4506 18.4445 14.2686C17.5321 13.0865 16.9801 11.6663 16.8548 10.1783Z" fill="#1B9698"/>
<path d="M16.1754 7.59025H20.0575V10.1783H16.1754V7.59025Z" fill="#F89C8D"/>
<path d="M16.8224 5.00219H19.4105V7.59025H16.8224V5.00219Z" fill="#F89C8D"/>
<path d="M14.2344 13.4134H21.9986V16.0015H14.2344V13.4134Z" fill="#F89C8D"/>
<path d="M17.8693 13.4134H14.2344V16.0015H20.2982C19.3005 15.3369 18.4693 14.4513 17.8693 13.4134Z" fill="#F25E57"/>
<path d="M18.7635 8.88428C18.3632 8.88357 17.9731 8.75872 17.6467 8.52696C17.3204 8.2952 17.074 7.96793 16.9415 7.59025H16.1754V10.1783H20.0575V8.88428H18.7635Z" fill="#F25E57"/>
<path d="M17.4694 5.00219H16.8224V7.59025H19.4105V6.94324C18.8957 6.94324 18.4019 6.73873 18.0379 6.37472C17.6739 6.0107 17.4694 5.51699 17.4694 5.00219Z" fill="#F25E57"/>
<path d="M32.9969 0.647016C33.2941 0.818615 33.5109 1.10125 33.5998 1.43275C33.6886 1.76425 33.6421 2.11745 33.4705 2.41466L17.6186 29.8701L15.3773 28.5761L31.2292 1.12063C31.4008 0.823421 31.6834 0.606552 32.0149 0.517731C32.3464 0.428911 32.6996 0.475417 32.9969 0.647016Z" fill="#F89C8D"/>
<path d="M33.1531 0.758411L24.7367 15.3357C24.4913 15.7593 24.1304 16.1044 23.6962 16.3307C23.262 16.557 22.7724 16.6551 22.2845 16.6135L15.3783 28.5769L17.6196 29.8709L33.4714 2.41413C33.6258 2.14585 33.6786 1.83102 33.6202 1.52707C33.5617 1.22312 33.396 0.950313 33.1531 0.758411Z" fill="#F25E57"/>
<path d="M4.8291 12.0725L8.191 10.1314L10.132 13.4933L6.77015 15.4344L4.8291 12.0725Z" fill="#E9F1F2"/>
<path d="M9.09837 11.8761C8.87749 12.0037 8.63363 12.0865 8.38073 12.1198C8.12782 12.1531 7.87084 12.1362 7.62447 12.0701C7.3781 12.004 7.14717 11.89 6.94489 11.7345C6.74262 11.5791 6.57295 11.3854 6.4456 11.1644L6.43396 11.1443L4.82806 12.0715L6.76911 15.436L10.1336 13.4949L9.17472 11.834L9.09837 11.8761Z" fill="#D0D8DA"/>
<path d="M18.1967 22.2859L10.3523 26.815L5.72544 16.5624C5.52744 16.1237 5.49949 15.6271 5.64703 15.1689C5.79456 14.7108 6.10706 14.3238 6.52386 14.0831L9.08475 12.6046C9.50163 12.3639 9.99306 12.2867 10.4637 12.388C10.9343 12.4893 11.3504 12.7618 11.6314 13.1526L18.1967 22.2859Z" fill="#F89C8D"/>
<path d="M0 8.88429L1.29403 11.1255C1.88846 10.7824 2.59486 10.6894 3.25785 10.867C3.92084 11.0446 4.48612 11.4784 4.82933 12.0728L8.19381 10.1317L6.89978 7.89047L8.02041 7.24345L6.72638 5.00219L0 8.88429Z" fill="#25D3D6"/>
<path d="M6.72339 5.00213L8.96465 3.7081L10.2587 5.94936L8.01742 7.2434L6.72339 5.00213Z" fill="#F89C8D"/>
<path d="M13.4049 15.6197C12.9353 15.888 12.4148 16.0553 11.8768 16.1107C11.3389 16.1662 10.7952 16.1086 10.2808 15.9417C9.76635 15.7748 9.29247 15.5022 8.88951 15.1415C8.48656 14.7808 8.16343 14.3398 7.94083 13.8469L7.73249 13.3849L6.52386 14.0831C6.10706 14.3238 5.79456 14.7108 5.64703 15.1689C5.49949 15.6271 5.52744 16.1237 5.72544 16.5624L10.3523 26.815L18.1967 22.2859L13.4049 15.6197Z" fill="#F25E57"/>
<path d="M4.47153 9.15215C4.09208 8.9458 3.66701 8.8377 3.23508 8.8377C2.54465 8.85998 1.87234 8.61447 1.35873 8.15251L1.32379 8.11886L0 8.88428L1.29403 11.1255C1.88846 10.7824 2.59486 10.6894 3.25785 10.867C3.92084 11.0446 4.48612 11.4784 4.82933 12.0728L8.19381 10.1317L7.51509 8.9561L6.38669 9.35984C6.07095 9.46274 5.73696 9.49743 5.40681 9.46163C5.07666 9.42583 4.75787 9.32034 4.47153 9.15215Z" fill="#10B3B5"/>
<path d="M9.7855 5.3024C9.48828 5.474 9.13508 5.5205 8.80359 5.43168C8.47209 5.34286 8.18945 5.12599 8.01785 4.82879L7.76939 4.39852L6.72382 5.00219L8.01785 7.24345L10.2591 5.94942L9.86055 5.261L9.7855 5.3024Z" fill="#F25E57"/>
<path d="M22.6454 38H7.11706L4.52899 21.1776H25.2335L22.6454 38Z" fill="#D0D8DA"/>
<path d="M2.58795 18.5895H27.1746V21.1776H2.58795V18.5895Z" fill="#E9F1F2"/>
<path d="M21.1851 35.4119C21.94 34.9517 22.6461 34.4158 23.2925 33.8125L23.6451 31.5214C22.2646 33.2898 20.404 34.6232 18.2858 35.3621C15.7707 35.1303 13.4273 33.986 11.6979 32.1452C11.9383 32.0681 12.1642 31.9516 12.3663 31.8003C12.7282 31.5293 13.1626 31.3723 13.6141 31.3493C14.0656 31.3262 14.5137 31.4382 14.9013 31.6709C15.0744 31.7745 15.2732 31.8271 15.4749 31.8224C15.6766 31.8177 15.8728 31.7561 16.0409 31.6445C16.209 31.5329 16.342 31.3761 16.4247 31.192C16.5073 31.008 16.5361 30.8043 16.5078 30.6046L15.3432 22.4716H25.0342L25.2335 21.1776H4.52899L7.11706 38H22.6454L23.0434 35.4119H21.1851Z" fill="#93999A"/>
<path d="M6.47005 19.8836C6.0698 19.8828 5.67962 19.758 5.3533 19.5262C5.02698 19.2945 4.78057 18.9672 4.64805 18.5895H2.58795V21.1776H27.1746V19.8836H6.47005Z" fill="#D0D8DA"/>
<path d="M27.1745 23.1186H24.9346L24.7359 24.4127H26.5075C26.1516 30.1776 21.0725 34.7649 14.8812 34.7649C8.68994 34.7649 3.61087 30.1776 3.25501 24.4127H5.02654L4.8279 23.1186H2.58793C2.41633 23.1186 2.25176 23.1868 2.13042 23.3081C2.00909 23.4295 1.94092 23.594 1.94092 23.7656C1.94092 30.5444 7.74594 36.059 14.8812 36.059C22.0165 36.059 27.8216 30.5444 27.8216 23.7656C27.8216 23.594 27.7534 23.4295 27.632 23.3081C27.5107 23.1868 27.3461 23.1186 27.1745 23.1186Z" fill="#25D3D6"/>
<path d="M13.2638 16.972C13.0064 17.2293 12.6573 17.3738 12.2933 17.3738C11.9293 17.3738 11.5802 17.2293 11.3228 16.972C11.0653 16.7147 10.7162 16.5702 10.3522 16.5702C9.98827 16.5702 9.63918 16.7147 9.38173 16.972C8.75179 17.602 8.34314 18.4193 8.2171 19.3012L6.47015 31.5298L8.39373 30.3756C8.78133 30.1429 9.22946 30.0309 9.68095 30.054C10.1324 30.077 10.5668 30.234 10.9287 30.505C11.3223 30.8004 11.8012 30.9601 12.2933 30.9601C12.7854 30.9601 13.2643 30.8004 13.6579 30.505C14.0197 30.234 14.4541 30.077 14.9056 30.054C15.3571 30.0309 15.8053 30.1429 16.1929 30.3756C16.3659 30.4792 16.5648 30.5317 16.7665 30.5271C16.9682 30.5224 17.1644 30.4607 17.3325 30.3492C17.5005 30.2376 17.6336 30.0807 17.7162 29.8967C17.7989 29.7127 17.8277 29.509 17.7994 29.3093L16.3695 19.3012C16.2435 18.4193 15.8348 17.602 15.2049 16.972C14.9474 16.7147 14.5983 16.5702 14.2343 16.5702C13.8704 16.5702 13.5213 16.7147 13.2638 16.972Z" fill="#25D3D6"/>
<path d="M14.0583 22.8637L13.9794 22.0731C13.8928 21.1985 13.5287 20.3746 12.9403 19.7218C12.6982 19.4498 12.3586 19.2842 11.9952 19.2609C11.6319 19.2377 11.274 19.3586 10.9992 19.5976C10.7385 19.8455 10.3909 19.9813 10.0312 19.9756C9.67146 19.9699 9.32833 19.8233 9.07563 19.5672C8.85428 19.3432 8.56986 19.1922 8.26039 19.1343C8.25003 19.1906 8.23127 19.2443 8.22286 19.3012L6.47009 31.5298L8.39367 30.3756C8.78127 30.1429 9.2294 30.0309 9.68089 30.054C10.1324 30.077 10.5668 30.234 10.9287 30.505C11.3223 30.8004 11.8011 30.9601 12.2932 30.9601C12.7854 30.9601 13.2642 30.8004 13.6578 30.505C14.0197 30.234 14.4541 30.077 14.9056 30.054C15.3571 30.0309 15.8052 30.1429 16.1928 30.3756C16.3659 30.4792 16.5647 30.5317 16.7664 30.5271C16.9681 30.5224 17.1643 30.4607 17.3324 30.3492C17.5005 30.2376 17.6335 30.0807 17.7162 29.8967C17.7988 29.7127 17.8276 29.509 17.7993 29.3093L17.5774 27.7564C16.6128 27.3218 15.7797 26.6407 15.162 25.7818C14.5442 24.9229 14.1635 23.9165 14.0583 22.8637Z" fill="#10B3B5"/>
<path d="M11.6398 21.2552L10.5269 30.1582L10.5075 30.2552C10.1107 30.075 9.67005 30.0143 9.23934 30.0805C9.23799 30.0545 9.24017 30.0284 9.24581 30.0029L10.3587 21.0999C10.3628 21.011 10.3852 20.9239 10.4246 20.8441C10.4639 20.7642 10.5193 20.6933 10.5872 20.6359C10.6552 20.5784 10.7343 20.5356 10.8196 20.5101C10.9049 20.4846 10.9945 20.4769 11.0829 20.4876C11.1712 20.4983 11.2564 20.5272 11.3331 20.5723C11.4098 20.6175 11.4764 20.6779 11.5287 20.75C11.581 20.822 11.6178 20.9041 11.6369 20.991C11.656 21.078 11.657 21.1679 11.6398 21.2552Z" fill="#1B9698"/>
<path d="M15.4248 30.0223V30.0935C15.2926 30.0677 15.1583 30.0547 15.0237 30.0546C14.7245 30.0554 14.4282 30.1125 14.1502 30.2229C14.1375 30.1898 14.1309 30.1547 14.1308 30.1193L13.5873 22.5169C13.5813 22.4319 13.5922 22.3466 13.6192 22.2659C13.6462 22.1851 13.6889 22.1104 13.7448 22.0461C13.8576 21.9163 14.0174 21.8366 14.189 21.8246C14.3606 21.8126 14.5299 21.8692 14.6598 21.9821C14.7896 22.0949 14.8693 22.2547 14.8813 22.4263L15.4248 30.0223Z" fill="#1B9698"/>
<path d="M13.9793 22.0731L14.0583 22.8637C14.1606 23.8865 14.5247 24.8656 15.1155 25.7067L14.8813 22.4263C14.8675 22.2554 14.7874 22.0967 14.6579 21.9842C14.5285 21.8717 14.3602 21.8144 14.189 21.8246C14.1047 21.8301 14.0222 21.8521 13.9464 21.8893C13.9554 21.954 13.9755 22.0116 13.9793 22.0731Z" fill="#10B3B5"/>
</svg>
