<svg width="123" height="22" viewBox="0 0 123 22" fill="none" xmlns="http://www.w3.org/2000/svg">
<g clip-path="url(#clip0_533_5684)">
<path d="M21.6491 8.32554C21.5062 7.88602 21.1164 7.57485 20.657 7.53328L14.3911 6.96442L11.9148 1.16691C11.732 0.74097 11.316 0.466064 10.853 0.466064C10.3899 0.466064 9.97377 0.74097 9.7921 1.16691L7.3158 6.96442L1.04896 7.53328C0.589569 7.57567 0.200561 7.88685 0.0568158 8.32554C-0.0861017 8.76505 0.0458858 9.24713 0.393326 9.55185L5.12981 13.7051L3.73326 19.856C3.63108 20.3083 3.80662 20.7759 4.18188 21.0472C4.38359 21.1937 4.62057 21.2669 4.85838 21.2669C5.06274 21.2669 5.26726 21.2126 5.44993 21.1033L10.853 17.8727L16.255 21.1033C16.6513 21.3401 17.1496 21.3184 17.5241 21.0472C17.8993 20.7759 18.0749 20.3083 17.9727 19.856L16.5761 13.7051L21.3126 9.55185C21.6599 9.24713 21.792 8.76605 21.6491 8.32554V8.32554Z" fill="#FFC73B"/>
</g>
<g clip-path="url(#clip1_533_5684)">
<path d="M46.9727 8.32554C46.8298 7.88602 46.4399 7.57485 45.9805 7.53328L39.7147 6.96442L37.2384 1.16691C37.0556 0.74097 36.6396 0.466064 36.1765 0.466064C35.7135 0.466064 35.2973 0.74097 35.1156 1.16691L32.6393 6.96442L26.3725 7.53328C25.9131 7.57567 25.5241 7.88685 25.3804 8.32554C25.2374 8.76505 25.3694 9.24713 25.7169 9.55185L30.4534 13.7051L29.0568 19.856C28.9546 20.3083 29.1302 20.7759 29.5054 21.0472C29.7071 21.1937 29.9441 21.2669 30.1819 21.2669C30.3863 21.2669 30.5908 21.2126 30.7735 21.1033L36.1765 17.8727L41.5786 21.1033C41.9749 21.3401 42.4732 21.3184 42.8476 21.0472C43.2229 20.7759 43.3984 20.3083 43.2962 19.856L41.8997 13.7051L46.6362 9.55185C46.9834 9.24713 47.1156 8.76605 46.9727 8.32554V8.32554Z" fill="#FFC73B"/>
</g>
<g clip-path="url(#clip2_533_5684)">
<path d="M72.2962 8.32554C72.1532 7.88602 71.7634 7.57485 71.304 7.53328L65.0382 6.96442L62.5619 1.16691C62.379 0.74097 61.963 0.466064 61.5 0.466064C61.037 0.466064 60.6208 0.74097 60.4391 1.16691L57.9628 6.96442L51.696 7.53328C51.2366 7.57567 50.8476 7.88685 50.7038 8.32554C50.5609 8.76505 50.6929 9.24713 51.0404 9.55185L55.7768 13.7051L54.3803 19.856C54.2781 20.3083 54.4537 20.7759 54.8289 21.0472C55.0306 21.1937 55.2676 21.2669 55.5054 21.2669C55.7098 21.2669 55.9143 21.2126 56.097 21.1033L61.5 17.8727L66.9021 21.1033C67.2984 21.3401 67.7967 21.3184 68.1711 21.0472C68.5464 20.7759 68.7219 20.3083 68.6197 19.856L67.2232 13.7051L71.9596 9.55185C72.3069 9.24713 72.4391 8.76605 72.2962 8.32554V8.32554Z" fill="#FFC73B"/>
</g>
<g clip-path="url(#clip3_533_5684)">
<path d="M97.6197 8.32554C97.4768 7.88602 97.087 7.57485 96.6276 7.53328L90.3617 6.96442L87.8854 1.16691C87.7026 0.74097 87.2866 0.466064 86.8236 0.466064C86.3605 0.466064 85.9444 0.74097 85.7627 1.16691L83.2864 6.96442L77.0195 7.53328C76.5601 7.57567 76.1711 7.88685 76.0274 8.32554C75.8845 8.76505 76.0165 9.24713 76.3639 9.55185L81.1004 13.7051L79.7038 19.856C79.6017 20.3083 79.7772 20.7759 80.1525 21.0472C80.3542 21.1937 80.5912 21.2669 80.829 21.2669C81.0333 21.2669 81.2378 21.2126 81.4205 21.1033L86.8236 17.8727L92.2256 21.1033C92.6219 21.3401 93.1202 21.3184 93.4946 21.0472C93.8699 20.7759 94.0454 20.3083 93.9433 19.856L92.5467 13.7051L97.2832 9.55185C97.6305 9.24713 97.7626 8.76605 97.6197 8.32554V8.32554Z" fill="#FFC73B"/>
</g>
<g clip-path="url(#clip4_533_5684)">
<path d="M122.943 8.32554C122.8 7.88602 122.41 7.57485 121.951 7.53328L115.685 6.96442L113.209 1.16691C113.026 0.74097 112.61 0.466064 112.147 0.466064C111.684 0.466064 111.268 0.74097 111.086 1.16691L108.61 6.96442L102.343 7.53328C101.884 7.57567 101.495 7.88685 101.351 8.32554C101.208 8.76505 101.34 9.24713 101.687 9.55185L106.424 13.7051L105.027 19.856C104.925 20.3083 105.101 20.7759 105.476 21.0472C105.678 21.1937 105.915 21.2669 106.152 21.2669C106.357 21.2669 106.561 21.2126 106.744 21.1033L112.147 17.8727L117.549 21.1033C117.945 21.3401 118.444 21.3184 118.818 21.0472C119.193 20.7759 119.369 20.3083 119.267 19.856L117.87 13.7051L122.607 9.55185C122.954 9.24713 123.086 8.76605 122.943 8.32554V8.32554Z" fill="#FFC73B"/>
</g>
<defs>
<clipPath id="clip0_533_5684">
<rect width="21.7059" height="21.7059" fill="white"/>
</clipPath>
<clipPath id="clip1_533_5684">
<rect width="21.7059" height="21.7059" fill="white" transform="translate(25.3235)"/>
</clipPath>
<clipPath id="clip2_533_5684">
<rect width="21.7059" height="21.7059" fill="white" transform="translate(50.647)"/>
</clipPath>
<clipPath id="clip3_533_5684">
<rect width="21.7059" height="21.7059" fill="white" transform="translate(75.9706)"/>
</clipPath>
<clipPath id="clip4_533_5684">
<rect width="21.7059" height="21.7059" fill="white" transform="translate(101.294)"/>
</clipPath>
</defs>
</svg>
