<svg width="20" height="20" viewBox="0 0 20 20" fill="none" xmlns="http://www.w3.org/2000/svg">
<path d="M18.6396 13.6543L14.0264 11.5869C13.8173 11.4974 13.5893 11.4613 13.3628 11.4821C13.1364 11.5029 12.9187 11.5799 12.7295 11.7061C12.7103 11.7184 12.692 11.7321 12.6748 11.7471L10.2637 13.7979C10.2387 13.8115 10.2108 13.8191 10.1823 13.8201C10.1539 13.8212 10.1255 13.8155 10.0996 13.8037C8.5498 13.0557 6.94433 11.46 6.19336 9.93164C6.18085 9.9061 6.17435 9.87804 6.17435 9.84961C6.17435 9.82117 6.18085 9.79312 6.19336 9.76758L8.25097 7.32617C8.26574 7.30811 8.27943 7.28919 8.29199 7.26953C8.41639 7.0796 8.49153 6.86167 8.51063 6.63542C8.52972 6.40917 8.49217 6.18173 8.40136 5.97363L6.34863 1.36816C6.23206 1.0963 6.03045 0.869573 5.77408 0.722017C5.5177 0.574461 5.22039 0.514034 4.92675 0.549805C3.65061 0.717575 2.47921 1.34428 1.63146 2.31279C0.783718 3.28131 0.317633 4.52537 0.320309 5.8125C0.320309 13.459 6.54101 19.6797 14.1875 19.6797C15.4746 19.6822 16.7185 19.216 17.687 18.3683C18.6555 17.5206 19.2822 16.3493 19.4502 15.0732C19.4859 14.781 19.4263 14.485 19.2802 14.2293C19.1342 13.9737 18.9095 13.772 18.6396 13.6543ZM14.1875 18.5078C7.1875 18.5078 1.49218 12.8125 1.49218 5.8125C1.48892 4.81048 1.85059 3.84154 2.50961 3.08673C3.16864 2.33191 4.07993 1.84286 5.07324 1.71094H5.0957C5.13505 1.71167 5.17327 1.72428 5.20533 1.74711C5.2374 1.76994 5.26181 1.80192 5.27539 1.83887L7.33593 6.43945C7.34768 6.46503 7.35377 6.49285 7.35377 6.521C7.35377 6.54915 7.34768 6.57696 7.33593 6.60254L5.27441 9.04981C5.25903 9.06728 5.24499 9.08588 5.23242 9.10547C5.10342 9.3024 5.02746 9.5293 5.01189 9.76421C4.99632 9.99911 5.04167 10.2341 5.14355 10.4463C6.00976 12.2197 7.79687 13.9932 9.58984 14.8594C9.80331 14.9607 10.0394 15.005 10.2751 14.9878C10.5108 14.9707 10.738 14.8928 10.9346 14.7617C10.9531 14.749 10.9717 14.7354 10.9893 14.7207L13.3994 12.6699C13.4232 12.6571 13.4495 12.6496 13.4765 12.648C13.5034 12.6463 13.5304 12.6504 13.5557 12.6602L18.1699 14.7275C18.2076 14.7436 18.2393 14.7711 18.2605 14.8061C18.2817 14.8412 18.2914 14.882 18.2881 14.9229C18.1569 15.9166 17.6683 16.8286 16.9136 17.4884C16.159 18.1481 15.1899 18.5105 14.1875 18.5078Z" fill="#212121"/>
</svg>
