<svg width="38" height="38" viewBox="0 0 38 38" fill="none" xmlns="http://www.w3.org/2000/svg">
<path d="M19 3.93103C18.8263 3.93103 18.6596 3.86201 18.5367 3.73914C18.4139 3.61627 18.3448 3.44962 18.3448 3.27586V0.655172C18.3448 0.48141 18.4139 0.314764 18.5367 0.191896C18.6596 0.0690269 18.8263 0 19 0C19.1738 0 19.3404 0.0690269 19.4633 0.191896C19.5862 0.314764 19.6552 0.48141 19.6552 0.655172V3.27586C19.6552 3.44962 19.5862 3.61627 19.4633 3.73914C19.3404 3.86201 19.1738 3.93103 19 3.93103Z" fill="#1B9698"/>
<path d="M36.6896 24.2414C36.5158 24.2414 36.3492 24.1724 36.2263 24.0495C36.1035 23.9266 36.0344 23.76 36.0344 23.5862V20.9655C36.0344 20.7918 36.1035 20.6251 36.2263 20.5022C36.3492 20.3794 36.5158 20.3103 36.6896 20.3103C36.8634 20.3103 37.03 20.3794 37.1529 20.5022C37.2757 20.6251 37.3448 20.7918 37.3448 20.9655V23.5862C37.3448 23.76 37.2757 23.9266 37.1529 24.0495C37.03 24.1724 36.8634 24.2414 36.6896 24.2414Z" fill="#40916C"/>
<path d="M32.1034 24.2414C31.9297 24.2414 31.763 24.1724 31.6401 24.0495C31.5173 23.9266 31.4482 23.76 31.4482 23.5862V20.9655C31.4482 20.7918 31.5173 20.6251 31.6401 20.5022C31.763 20.3794 31.9297 20.3103 32.1034 20.3103C32.2772 20.3103 32.4438 20.3794 32.5667 20.5022C32.6896 20.6251 32.7586 20.7918 32.7586 20.9655V23.5862C32.7586 23.76 32.6896 23.9266 32.5667 24.0495C32.4438 24.1724 32.2772 24.2414 32.1034 24.2414Z" fill="#40916C"/>
<path d="M5.89651 24.2414C5.72274 24.2414 5.5561 24.1724 5.43323 24.0495C5.31036 23.9266 5.24133 23.76 5.24133 23.5862V20.9655C5.24133 20.7918 5.31036 20.6251 5.43323 20.5022C5.5561 20.3794 5.72274 20.3103 5.89651 20.3103C6.07027 20.3103 6.23691 20.3794 6.35978 20.5022C6.48265 20.6251 6.55168 20.7918 6.55168 20.9655V23.5862C6.55168 23.76 6.48265 23.9266 6.35978 24.0495C6.23691 24.1724 6.07027 24.2414 5.89651 24.2414Z" fill="#40916C"/>
<path d="M1.31032 24.2414C1.13656 24.2414 0.969916 24.1724 0.847047 24.0495C0.724178 23.9266 0.655151 23.76 0.655151 23.5862V20.9655C0.655151 20.7918 0.724178 20.6251 0.847047 20.5022C0.969916 20.3794 1.13656 20.3103 1.31032 20.3103C1.48409 20.3103 1.65073 20.3794 1.7736 20.5022C1.89647 20.6251 1.9655 20.7918 1.9655 20.9655V23.5862C1.9655 23.76 1.89647 23.9266 1.7736 24.0495C1.65073 24.1724 1.48409 24.2414 1.31032 24.2414Z" fill="#40916C"/>
<path d="M0 23.5862H9.82759V38H0V23.5862Z" fill="#F89C8D"/>
<path d="M4.58621 27.5172V30.1379C4.58665 31.4149 4.12091 32.6481 3.27646 33.6059C2.432 34.5638 1.26693 35.1804 0 35.34V38H9.82759V23.5862H0V27.5172H4.58621Z" fill="#F25E57"/>
<path d="M28.1724 23.5862H37.9999V38H28.1724V23.5862Z" fill="#F89C8D"/>
<path d="M33.4137 27.5172V30.1379C33.4133 31.4149 33.879 32.6481 34.7235 33.6059C35.5679 34.5638 36.733 35.1804 37.9999 35.34V38H28.1724V23.5862H37.9999V27.5172H33.4137Z" fill="#F25E57"/>
<path d="M9.82764 7.86207H28.1725V38H9.82764V7.86207Z" fill="#D0D8DA"/>
<path d="M28.1725 28.8276H12.4483C12.4478 29.7742 12.6339 30.7115 12.9959 31.5862C13.3579 32.4608 13.8887 33.2555 14.558 33.9248C15.2273 34.5941 16.022 35.1249 16.8967 35.4869C17.7713 35.8489 18.7087 36.035 19.6552 36.0345H28.1725V38H9.82764V7.86207H28.1725V28.8276Z" fill="#93999A"/>
<path d="M28.1724 23.5862H37.9999V26.2069H28.1724V23.5862Z" fill="#7FDFE0"/>
<path d="M2.62073 31.4483H6.55176V38H2.62073V31.4483Z" fill="#7FDFE0"/>
<path d="M6.55176 31.4483V38H2.62073V34.2328C3.50554 33.5241 4.13567 32.5467 4.4159 31.4483H6.55176Z" fill="#10B3B5"/>
<path d="M0 23.5862H9.82759V26.2069H0V23.5862Z" fill="#7FDFE0"/>
<path d="M9.82764 7.86207H28.1725V11.7931H9.82764V7.86207Z" fill="#7FDFE0"/>
<path d="M9.82764 11.7931H28.1725V15.7241H9.82764V11.7931Z" fill="#7FDFE0"/>
<path d="M9.82764 15.7241H28.1725V19.6552H9.82764V15.7241Z" fill="#7FDFE0"/>
<path d="M9.82764 19.6552H28.1725V23.5862H9.82764V19.6552Z" fill="#7FDFE0"/>
<path d="M9.82764 23.5862H28.1725V27.5172H9.82764V23.5862Z" fill="#7FDFE0"/>
<path d="M11.1379 3.93103H26.8621V7.86207H11.1379V3.93103Z" fill="#7FDFE0"/>
<path d="M38 20.3103C38 20.6579 37.8619 20.9912 37.6162 21.2369C37.3704 21.4826 37.0371 21.6207 36.6896 21.6207C36.3421 21.6207 36.0088 21.4826 35.7631 21.2369C35.5173 20.9912 35.3793 20.6579 35.3793 20.3103C35.3793 19.5897 35.9689 18.3448 36.6896 18.3448C37.4103 18.3448 38 19.5897 38 20.3103Z" fill="#95D5B2"/>
<path d="M33.4138 20.3103C33.4138 20.6579 33.2757 20.9912 33.03 21.2369C32.7843 21.4826 32.451 21.6207 32.1034 21.6207C31.7559 21.6207 31.4226 21.4826 31.1769 21.2369C30.9311 20.9912 30.7931 20.6579 30.7931 20.3103C30.7931 19.5897 31.3827 18.3448 32.1034 18.3448C32.8241 18.3448 33.4138 19.5897 33.4138 20.3103Z" fill="#95D5B2"/>
<path d="M7.20687 20.3103C7.20687 20.6579 7.06882 20.9912 6.82308 21.2369C6.57734 21.4826 6.24405 21.6207 5.89653 21.6207C5.549 21.6207 5.21571 21.4826 4.96997 21.2369C4.72424 20.9912 4.58618 20.6579 4.58618 20.3103C4.58618 19.5897 5.17584 18.3448 5.89653 18.3448C6.61722 18.3448 7.20687 19.5897 7.20687 20.3103Z" fill="#95D5B2"/>
<path d="M2.62069 20.3103C2.62069 20.6579 2.48264 20.9912 2.2369 21.2369C1.99116 21.4826 1.65787 21.6207 1.31034 21.6207C0.96282 21.6207 0.629528 21.4826 0.383791 21.2369C0.138054 20.9912 0 20.6579 0 20.3103C0 19.5897 0.589655 18.3448 1.31034 18.3448C2.03103 18.3448 2.62069 19.5897 2.62069 20.3103Z" fill="#95D5B2"/>
<path d="M16.3793 1.31034H19V3.93103H16.3793V1.31034Z" fill="#7FDFE0"/>
<path d="M19 1.31034H21.6207V3.93103H19V1.31034Z" fill="#7FDFE0"/>
<path d="M13.0052 7.86207L16.9363 11.7931H9.82764V7.86207H13.0052Z" fill="#10B3B5"/>
<path d="M21.1818 11.7931H19.3276L15.3966 7.86207H17.2507L21.1818 11.7931Z" fill="#10B3B5"/>
<path d="M28.1724 11.7931H24.3396L20.4086 7.86207H24.2413L28.1724 11.7931Z" fill="#10B3B5"/>
<path d="M13.0052 11.7931L16.9363 15.7241H9.82764V11.7931H13.0052Z" fill="#10B3B5"/>
<path d="M21.1818 15.7241H19.3276L15.3966 11.7931H17.2507L21.1818 15.7241Z" fill="#10B3B5"/>
<path d="M28.1724 15.7241H24.3396L20.4086 11.7931H24.2413L28.1724 15.7241Z" fill="#10B3B5"/>
<path d="M13.0052 15.7241L16.9363 19.6552H9.82764V15.7241H13.0052Z" fill="#10B3B5"/>
<path d="M21.1818 19.6552H19.3276L15.3966 15.7241H17.2507L21.1818 19.6552Z" fill="#10B3B5"/>
<path d="M28.1724 19.6552H24.3396L20.4086 15.7241H24.2413L28.1724 19.6552Z" fill="#10B3B5"/>
<path d="M13.0052 19.6552L16.9363 23.5862H9.82764V19.6552H13.0052Z" fill="#10B3B5"/>
<path d="M20.5265 23.5862H18.6724L14.7413 19.6552H16.5955L20.5265 23.5862Z" fill="#10B3B5"/>
<path d="M28.1724 23.5862H24.3396L20.4086 19.6552H24.2413L28.1724 23.5862Z" fill="#10B3B5"/>
<path d="M13.0052 23.5862L16.9363 27.5172H9.82764V23.5862H13.0052Z" fill="#10B3B5"/>
<path d="M21.8369 27.5172H19.9828L16.0518 23.5862H17.9059L21.8369 27.5172Z" fill="#10B3B5"/>
<path d="M28.1724 27.5172H24.3396L20.4086 23.5862H24.2413L28.1724 27.5172Z" fill="#10B3B5"/>
<path d="M11.1379 3.93103H26.8621V7.86207H11.1379V3.93103Z" fill="#7FDFE0"/>
<path d="M14.3155 3.93103L18.2466 7.86207H11.1379V3.93103H14.3155Z" fill="#10B3B5"/>
<path d="M21.8369 7.86207H19.9828L16.0518 3.93103H17.9059L21.8369 7.86207Z" fill="#10B3B5"/>
<path d="M26.8621 7.86207H23.0293L19.0983 3.93103H22.931L26.8621 7.86207Z" fill="#10B3B5"/>
<path d="M21.6207 3.93103H19V1.31034L21.6207 3.93103Z" fill="#10B3B5"/>
<path d="M19 3.93103H16.3793V1.31034L19 3.93103Z" fill="#10B3B5"/>
<path d="M36.6333 26.2069H38L35.3793 23.5862H34.0126L36.6333 26.2069Z" fill="#10B3B5"/>
<path d="M32.7022 26.2069H34.7804L32.1597 23.5862H30.0815L32.7022 26.2069Z" fill="#10B3B5"/>
<path d="M28.2287 23.5862H28.1724V26.2069H30.8494L28.2287 23.5862Z" fill="#10B3B5"/>
<path d="M8.4609 26.2069H9.82759L7.2069 23.5862H5.84021L8.4609 26.2069Z" fill="#10B3B5"/>
<path d="M4.52987 26.2069H6.60808L3.98739 23.5862H1.90918L4.52987 26.2069Z" fill="#10B3B5"/>
<path d="M0.0563448 23.5862H0V26.2069H2.67703L0.0563448 23.5862Z" fill="#10B3B5"/>
<path d="M38 20.3103C38 20.6579 37.8619 20.9912 37.6162 21.2369C37.3704 21.4826 37.0371 21.6207 36.6896 21.6207C36.3421 21.6207 36.0088 21.4826 35.7631 21.2369C35.5173 20.9912 35.3793 20.6579 35.3793 20.3103C35.4129 19.6943 35.6582 19.1088 36.0738 18.6528C36.0488 18.7669 36.0357 18.8832 36.0344 19C36.0355 19.3472 36.1739 19.6799 36.4194 19.9254C36.6649 20.1709 36.9976 20.3093 37.3448 20.3103C37.5702 20.3123 37.792 20.2535 37.9869 20.14C37.9942 20.1965 37.9986 20.2534 38 20.3103Z" fill="#52B788"/>
<path d="M33.4138 20.3103C33.4138 20.6579 33.2757 20.9912 33.03 21.2369C32.7843 21.4826 32.451 21.6207 32.1034 21.6207C31.7559 21.6207 31.4226 21.4826 31.1769 21.2369C30.9311 20.9912 30.7931 20.6579 30.7931 20.3103C30.8267 19.6943 31.072 19.1088 31.4876 18.6528C31.4626 18.7669 31.4495 18.8832 31.4483 19C31.4493 19.3472 31.5877 19.6799 31.8332 19.9254C32.0787 20.1709 32.4114 20.3093 32.7586 20.3103C32.9841 20.3123 33.2059 20.2535 33.4007 20.14C33.4081 20.1965 33.4124 20.2534 33.4138 20.3103Z" fill="#52B788"/>
<path d="M7.20687 20.3103C7.20687 20.6579 7.06882 20.9912 6.82308 21.2369C6.57734 21.4826 6.24405 21.6207 5.89653 21.6207C5.549 21.6207 5.21571 21.4826 4.96997 21.2369C4.72424 20.9912 4.58618 20.6579 4.58618 20.3103C4.61981 19.6943 4.86513 19.1088 5.28066 18.6528C5.25574 18.7669 5.24256 18.8832 5.24135 19C5.24239 19.3472 5.38078 19.6799 5.62629 19.9254C5.8718 20.1709 6.20449 20.3093 6.5517 20.3103C6.77714 20.3123 6.99895 20.2535 7.19377 20.14C7.20115 20.1965 7.20552 20.2534 7.20687 20.3103Z" fill="#52B788"/>
<path d="M2.62069 20.3103C2.62069 20.6579 2.48264 20.9912 2.2369 21.2369C1.99116 21.4826 1.65787 21.6207 1.31034 21.6207C0.96282 21.6207 0.629528 21.4826 0.383791 21.2369C0.138054 20.9912 0 20.6579 0 20.3103C0.0336236 19.6943 0.278943 19.1088 0.694483 18.6528C0.669555 18.7669 0.656383 18.8832 0.655172 19C0.656209 19.3472 0.794596 19.6799 1.04011 19.9254C1.28562 20.1709 1.61831 20.3093 1.96552 20.3103C2.19096 20.3123 2.41277 20.2535 2.60759 20.14C2.61496 20.1965 2.61934 20.2534 2.62069 20.3103Z" fill="#52B788"/>
<path d="M14.4138 30.1379H19V38H14.4138V30.1379Z" fill="#7FDFE0"/>
<path d="M19 30.1379H23.5862V38H19V30.1379Z" fill="#7FDFE0"/>
<path d="M19 36.0017V38H14.4138V33.7741C15.6168 35.0551 17.2495 35.8481 19 36.0017Z" fill="#10B3B5"/>
<path d="M23.5862 36.0345V38H19V36.0017C19.2162 36.0214 19.4324 36.0345 19.6552 36.0345H23.5862Z" fill="#10B3B5"/>
<path d="M19 34.0166L22.9834 38H19V34.0166Z" fill="#10B3B5"/>
<path d="M23.5862 34.7241V36.7421L19 32.1559V30.1379L23.5862 34.7241Z" fill="#10B3B5"/>
<path d="M14.4138 34.0166L18.3973 38H14.4138V34.0166Z" fill="#1B9698"/>
<path d="M19 34.7241V36.7421L14.4138 32.1559V30.1379L19 34.7241Z" fill="#10B3B5"/>
<path d="M19.6552 36.0345C19.4324 36.0345 19.2162 36.0214 19 36.0017V38H22.9834L21.0179 36.0345H19.6552Z" fill="#1B9698"/>
<path d="M31.4482 31.4483H35.3793V38H31.4482V31.4483Z" fill="#7FDFE0"/>
<path d="M35.3793 34.2328V38H31.4482V31.4483H33.5841C33.8643 32.5467 34.4945 33.5241 35.3793 34.2328Z" fill="#10B3B5"/>
<path d="M35.3793 36.746V35.3793L31.4482 31.4483V32.815L35.3793 36.746Z" fill="#1B9698"/>
<path d="M31.4482 34.6678V38H34.7804L31.4482 34.6678Z" fill="#1B9698"/>
<path d="M6.55176 36.746V35.3793L2.62073 31.4483V32.815L6.55176 36.746Z" fill="#10B3B5"/>
<path d="M2.62073 34.6678V38H5.95293L2.62073 34.6678Z" fill="#1B9698"/>
<path d="M6.55174 35.3793V36.7486L3.33484 33.5317C3.55113 33.2842 3.74005 33.014 3.89829 32.7259L6.55174 35.3793Z" fill="#1B9698"/>
<path d="M9.82764 7.86207H12.4483V27.5172H9.82764V7.86207Z" fill="#1B9698"/>
<path d="M11.1379 3.93103H13.1035V7.86207H11.1379V3.93103Z" fill="#1B9698"/>
<path d="M27.5172 33.4138H28.8276V38H27.5172V33.4138Z" fill="#40916C"/>
<path d="M9.17236 33.4138H10.4827V38H9.17236V33.4138Z" fill="#40916C"/>
<path d="M30.1379 32.1034C30.1379 32.6247 29.9309 33.1247 29.5623 33.4933C29.1937 33.8619 28.6937 34.069 28.1724 34.069C27.6511 34.069 27.1512 33.8619 26.7826 33.4933C26.414 33.1247 26.2069 32.6247 26.2069 32.1034C26.2069 31.0178 27.0868 28.8276 28.1724 28.8276C29.258 28.8276 30.1379 31.0178 30.1379 32.1034Z" fill="#95D5B2"/>
<path d="M11.7931 32.1034C11.7931 32.6247 11.586 33.1247 11.2174 33.4933C10.8488 33.8619 10.3489 34.069 9.82758 34.069C9.30629 34.069 8.80635 33.8619 8.43775 33.4933C8.06914 33.1247 7.86206 32.6247 7.86206 32.1034C7.86206 31.0178 8.74196 28.8276 9.82758 28.8276C10.9132 28.8276 11.7931 31.0178 11.7931 32.1034Z" fill="#95D5B2"/>
<path d="M30.1379 32.1034C30.1379 32.6247 29.9309 33.1247 29.5623 33.4933C29.1937 33.8619 28.6937 34.069 28.1724 34.069C27.6511 34.069 27.1512 33.8619 26.7826 33.4933C26.414 33.1247 26.2069 32.6247 26.2069 32.1034C26.2069 31.1666 26.8621 29.4041 27.74 28.9455C27.6056 29.3294 27.5305 29.7315 27.5173 30.1379C27.5173 30.6592 27.7243 31.1592 28.0929 31.5278C28.4615 31.8964 28.9615 32.1034 29.4828 32.1034C29.7044 32.1049 29.9244 32.0649 30.1314 31.9855C30.1368 32.0246 30.139 32.064 30.1379 32.1034Z" fill="#52B788"/>
<path d="M11.7931 32.1034C11.7931 32.6247 11.586 33.1247 11.2174 33.4933C10.8488 33.8619 10.3489 34.069 9.82758 34.069C9.30629 34.069 8.80635 33.8619 8.43775 33.4933C8.06914 33.1247 7.86206 32.6247 7.86206 32.1034C7.86206 31.1666 8.51723 29.4041 9.39516 28.9455C9.26077 29.3294 9.18566 29.7315 9.17241 30.1379C9.17241 30.6592 9.37949 31.1592 9.74809 31.5278C10.1167 31.8964 10.6166 32.1034 11.1379 32.1034C11.3596 32.1049 11.5796 32.0649 11.7865 31.9855C11.792 32.0246 11.7942 32.064 11.7931 32.1034Z" fill="#52B788"/>
</svg>
