<svg width="38" height="38" viewBox="0 0 38 38" fill="none" xmlns="http://www.w3.org/2000/svg">
<path d="M37.4603 10.6486C37.1997 10.4768 36.8873 10.4014 36.577 10.4354C36.2667 10.4693 35.978 10.6105 35.7607 10.8346L32.6372 13.9645C32.518 14.0837 32.3766 14.1784 32.2208 14.2429C32.0651 14.3075 31.8982 14.3407 31.7296 14.3407C31.561 14.3407 31.3941 14.3075 31.2384 14.2429C31.0827 14.1784 30.9412 14.0837 30.8221 13.9645C30.7028 13.8454 30.6082 13.7039 30.5436 13.5482C30.4791 13.3924 30.4458 13.2255 30.4458 13.0569C30.4458 12.8884 30.4791 12.7214 30.5436 12.5657C30.6082 12.41 30.7028 12.2685 30.8221 12.1494L37.5758 5.39566C37.7998 5.17832 37.941 4.88962 37.9749 4.57934C38.0089 4.26906 37.9335 3.95665 37.7618 3.69601C37.6532 3.54887 37.5145 3.42665 37.3548 3.33753C37.1952 3.2484 37.0183 3.19444 36.8361 3.17926C36.6539 3.16407 36.4705 3.18802 36.2983 3.24949C36.1261 3.31095 35.9691 3.40853 35.8376 3.53566L29.0198 10.3343C28.9007 10.4535 28.7592 10.5482 28.6035 10.6127C28.4477 10.6773 28.2808 10.7105 28.1122 10.7105C27.9437 10.7105 27.7767 10.6773 27.621 10.6127C27.4653 10.5482 27.3238 10.4535 27.2047 10.3343C27.0854 10.2151 26.9908 10.0737 26.9262 9.91795C26.8617 9.76222 26.8285 9.5953 26.8285 9.42673C26.8285 9.25815 26.8617 9.09123 26.9262 8.93551C26.9908 8.77978 27.0854 8.63831 27.2047 8.51918L28.9685 6.75538C29.1957 6.5402 29.3397 6.25165 29.3749 5.94067C29.4101 5.62969 29.3343 5.31627 29.1609 5.05573C29.0526 4.90332 28.9122 4.77643 28.7497 4.68396C28.5872 4.59148 28.4065 4.53565 28.2201 4.52037C28.0337 4.5051 27.8463 4.53075 27.6709 4.59553C27.4955 4.66031 27.3364 4.76265 27.2047 4.89538L25.3896 6.71049C25.2704 6.82975 25.129 6.92437 24.9732 6.98892C24.8175 7.05348 24.6506 7.0867 24.482 7.0867C24.3135 7.0867 24.1465 7.05348 23.9908 6.98892C23.8351 6.92437 23.6936 6.82975 23.5745 6.71049C23.4552 6.59135 23.3606 6.44988 23.296 6.29416C23.2315 6.13843 23.1983 5.97151 23.1983 5.80294C23.1983 5.63436 23.2315 5.46744 23.296 5.31172C23.3606 5.15599 23.4552 5.01452 23.5745 4.89538L26.249 2.22083C26.4794 2.00799 26.6266 1.72014 26.6642 1.40875C26.7018 1.09735 26.6274 0.782742 26.4543 0.52118C26.3457 0.374048 26.207 0.251824 26.0473 0.162701C25.8877 0.0735781 25.7108 0.0196154 25.5286 0.00443109C25.3464 -0.0107533 25.163 0.0131916 24.9908 0.0746602C24.8186 0.136129 24.6615 0.233701 24.5301 0.360835L14.4926 10.3343L27.1919 23.0336L37.6207 12.6048C37.7534 12.4731 37.8558 12.3139 37.9205 12.1385C37.9853 11.9631 38.011 11.7757 37.9957 11.5893C37.9804 11.403 37.9246 11.2222 37.8321 11.0597C37.7396 10.8972 37.6127 10.7569 37.4603 10.6486Z" fill="#25D3D6"/>
<path d="M31.7265 3.45228C32.4349 3.45228 33.0092 2.87797 33.0092 2.16952C33.0092 1.46108 32.4349 0.886766 31.7265 0.886766C31.018 0.886766 30.4437 1.46108 30.4437 2.16952C30.4437 2.87797 31.018 3.45228 31.7265 3.45228Z" fill="#25D3D6"/>
<path d="M37.4603 10.6486C37.1997 10.4768 36.8873 10.4014 36.577 10.4354C36.2667 10.4694 35.978 10.6105 35.7607 10.8346L32.6821 13.9132C32.4669 14.1404 32.1783 14.2844 31.8673 14.3196C31.5564 14.3548 31.2429 14.279 30.9824 14.1056C30.8332 13.9971 30.7091 13.8577 30.6187 13.6969C30.5282 13.5361 30.4735 13.3577 30.4583 13.1739C30.4431 12.99 30.4677 12.805 30.5305 12.6315C30.5933 12.4581 30.6927 12.3002 30.8221 12.1686L37.5565 5.42774C37.7787 5.21734 37.9227 4.93756 37.9646 4.63446C38.0066 4.33136 37.9441 4.023 37.7874 3.76015C37.6204 3.4828 37.3546 3.27888 37.0434 3.18932C37.1107 3.41267 37.1158 3.65013 37.0581 3.87616C37.0005 4.10218 36.8823 4.30821 36.7163 4.47208L29.5521 11.6042C28.8342 12.3422 27.8549 12.7686 26.8256 12.7914C25.7962 12.8142 24.799 12.4316 24.0491 11.7261L28.9749 6.8067C29.1961 6.58944 29.3365 6.30308 29.3726 5.99511C29.4088 5.68714 29.3386 5.37607 29.1737 5.11346C29.0043 4.84612 28.7374 4.65521 28.4297 4.58112C28.4864 4.79764 28.4854 5.02521 28.4269 5.24124C28.3684 5.45727 28.2544 5.65424 28.0962 5.81256L25.8129 8.07022C25.4555 8.42802 25.0311 8.71186 24.5639 8.90552C24.0967 9.09918 23.596 9.19886 23.0902 9.19886C22.5845 9.19886 22.0838 9.09918 21.6166 8.90552C21.1494 8.71186 20.725 8.42802 20.3676 8.07022L26.2041 2.24008C26.4289 2.03041 26.576 1.75076 26.6214 1.44675C26.6669 1.14274 26.6079 0.832305 26.4543 0.566083C26.2797 0.299534 26.0122 0.107484 25.7039 0.0273247C25.7625 0.244229 25.7632 0.472741 25.7058 0.689984C25.6484 0.907227 25.5349 1.10558 25.3768 1.26519L20.3868 6.25511C20.1465 6.49403 19.8214 6.62813 19.4825 6.62813C19.1436 6.62813 18.8185 6.49403 18.5781 6.25511L14.4926 10.3343L27.1919 23.0336L37.6207 12.6048C37.7534 12.4731 37.8558 12.314 37.9205 12.1386C37.9853 11.9632 38.011 11.7757 37.9957 11.5894C37.9804 11.403 37.9246 11.2222 37.8321 11.0597C37.7396 10.8972 37.6127 10.7569 37.4603 10.6486Z" fill="#10B3B5"/>
<path d="M32.9257 1.72056C32.8604 1.88797 32.7623 2.04063 32.6371 2.16953C32.4859 2.32193 32.2989 2.43395 32.0931 2.4953C31.8874 2.55666 31.6696 2.5654 31.4596 2.52072C31.2496 2.47605 31.0542 2.37938 30.8912 2.23958C30.7283 2.09978 30.6031 1.92132 30.527 1.72056C30.4533 1.91474 30.4279 2.1239 30.453 2.33007C30.478 2.53623 30.5527 2.73324 30.6707 2.90416C30.7886 3.07507 30.9463 3.2148 31.1302 3.31131C31.3141 3.40783 31.5187 3.45825 31.7264 3.45825C31.934 3.45825 32.1386 3.40783 32.3225 3.31131C32.5064 3.2148 32.6641 3.07507 32.7821 2.90416C32.9 2.73324 32.9747 2.53623 32.9998 2.33007C33.0248 2.1239 32.9994 1.91474 32.9257 1.72056Z" fill="#10B3B5"/>
<path d="M29.9292 19.8331L17.2325 7.13641C16.7316 6.63554 15.9195 6.63554 15.4187 7.13641L11.791 10.764C11.2901 11.2649 11.2901 12.077 11.791 12.5779L24.4877 25.2746C24.9886 25.7755 25.8007 25.7755 26.3016 25.2746L29.9292 21.647C30.4301 21.1461 30.4301 20.334 29.9292 19.8331Z" fill="#10B3B5"/>
<path d="M29.0198 22.559L27.2111 24.3548L29.0198 26.1892L25.396 29.813L16.7823 21.1992C16.6631 21.08 16.5217 20.9854 16.3659 20.9208C16.2102 20.8562 16.0433 20.823 15.8747 20.823C15.7062 20.823 15.5392 20.8562 15.3835 20.9208C15.2278 20.9854 15.0863 21.08 14.9672 21.1992L10.4198 25.7338L12.2477 27.5617L15.8779 23.9315L24.4917 32.5388C24.6108 32.6581 24.7523 32.7527 24.908 32.8173C25.0637 32.8818 25.2306 32.915 25.3992 32.915C25.5678 32.915 25.7347 32.8818 25.8904 32.8173C26.0462 32.7527 26.1876 32.6581 26.3068 32.5388L31.7457 27.0935C31.8649 26.9744 31.9595 26.8329 32.0241 26.6772C32.0886 26.5215 32.1219 26.3545 32.1219 26.186C32.1219 26.0174 32.0886 25.8505 32.0241 25.6947C31.9595 25.539 31.8649 25.3975 31.7457 25.2784L29.0198 22.559Z" fill="#F25E57"/>
<path d="M12.2433 27.5438L10.4295 25.7299C9.67815 24.9786 8.46004 24.9786 7.70873 25.7299L1.36036 32.0783C0.609048 32.8296 0.609048 34.0477 1.36036 34.799L3.17418 36.6129C3.92549 37.3642 5.1436 37.3642 5.89491 36.6129L12.2433 30.2645C12.9946 29.5132 12.9946 28.2951 12.2433 27.5438Z" fill="#93999A"/>
<path d="M22.6735 19.8413L12.6975 9.86526L15.4182 7.14453C15.6588 6.904 15.985 6.76888 16.3251 6.76888C16.6653 6.76888 16.9915 6.90401 17.232 7.14453L29.9288 19.8413C28.9667 20.8034 27.6618 21.3439 26.3011 21.3439C24.9405 21.3439 23.6356 20.8034 22.6735 19.8413Z" fill="#25D3D6"/>
<path d="M1.80674 32.5497L1.35328 32.0963L7.70165 25.7479C8.06244 25.3871 8.55178 25.1844 9.06201 25.1844C9.57225 25.1844 10.0616 25.3871 10.4224 25.7479L12.2362 27.5617L7.2482 32.5497C6.52661 33.2713 5.54794 33.6767 4.52747 33.6767C3.50699 33.6767 2.52832 33.2713 1.80674 32.5497Z" fill="#D0D8DA"/>
<path d="M16.7822 21.1992L20.4124 24.8294C20.2933 24.9487 20.1518 25.0433 19.9961 25.1079C19.8404 25.1724 19.6735 25.2057 19.5049 25.2057C19.3363 25.2057 19.1694 25.1724 19.0137 25.1079C18.8579 25.0433 18.7165 24.9487 18.5973 24.8294L15.8779 22.1036L14.0628 23.9187C13.9436 24.0379 13.8022 24.1326 13.6465 24.1971C13.4907 24.2617 13.3238 24.2949 13.1552 24.2949C12.9867 24.2949 12.8197 24.2617 12.664 24.1971C12.5083 24.1326 12.3668 24.0379 12.2477 23.9187L14.9671 21.1992C15.0863 21.08 15.2277 20.9854 15.3835 20.9208C15.5392 20.8562 15.7061 20.823 15.8747 20.823C16.0433 20.823 16.2102 20.8562 16.3659 20.9208C16.5216 20.9854 16.6631 21.08 16.7822 21.1992Z" fill="#F89C8D"/>
</svg>
