<svg width="26" height="25" viewBox="0 0 26 25" fill="none" xmlns="http://www.w3.org/2000/svg">
<path d="M25.061 22.8437C23.2762 19.7582 20.5258 17.5457 17.3161 16.4969C18.9038 15.5517 20.1373 14.1115 20.8272 12.3974C21.5172 10.6833 21.6254 8.79016 21.1353 7.00862C20.6451 5.22708 19.5837 3.65569 18.1141 2.53577C16.6444 1.41585 14.8478 0.809311 13 0.809311C11.1523 0.809311 9.35566 1.41585 7.88601 2.53577C6.41636 3.65569 5.35496 5.22708 4.86482 7.00862C4.37467 8.79016 4.48289 10.6833 5.17284 12.3974C5.86279 14.1115 7.09633 15.5517 8.68403 16.4969C5.47426 17.5445 2.72387 19.757 0.939105 22.8437C0.873655 22.9505 0.830242 23.0692 0.811428 23.193C0.792614 23.3168 0.798781 23.443 0.829563 23.5644C0.860346 23.6857 0.915122 23.7997 0.990658 23.8995C1.06619 23.9994 1.16096 24.0831 1.26937 24.1457C1.37778 24.2083 1.49763 24.2486 1.62185 24.2641C1.74607 24.2797 1.87215 24.2702 1.99265 24.2362C2.11314 24.2022 2.22561 24.1445 2.32343 24.0663C2.42124 23.9882 2.50241 23.8913 2.56215 23.7812C4.76996 19.9656 8.67231 17.6875 13 17.6875C17.3278 17.6875 21.2301 19.9656 23.4379 23.7812C23.4977 23.8913 23.5788 23.9882 23.6767 24.0663C23.7745 24.1445 23.8869 24.2022 24.0074 24.2362C24.1279 24.2702 24.254 24.2797 24.3782 24.2641C24.5025 24.2486 24.6223 24.2083 24.7307 24.1457C24.8391 24.0831 24.9339 23.9994 25.0094 23.8995C25.085 23.7997 25.1397 23.6857 25.1705 23.5644C25.2013 23.443 25.2075 23.3168 25.1887 23.193C25.1698 23.0692 25.1264 22.9505 25.061 22.8437ZM6.43754 9.25C6.43754 7.95206 6.82243 6.68327 7.54352 5.60407C8.26462 4.52487 9.28954 3.68374 10.4887 3.18704C11.6878 2.69034 13.0073 2.56038 14.2803 2.8136C15.5533 3.06681 16.7226 3.69183 17.6404 4.60961C18.5582 5.52739 19.1832 6.69672 19.4364 7.96972C19.6897 9.24272 19.5597 10.5622 19.063 11.7614C18.5663 12.9605 17.7252 13.9854 16.646 14.7065C15.5668 15.4276 14.298 15.8125 13 15.8125C11.2601 15.8106 9.59201 15.1186 8.36171 13.8883C7.13141 12.658 6.4394 10.9899 6.43754 9.25Z" fill="#212121"/>
</svg>
