<svg width="70" height="70" viewBox="0 0 70 70" fill="none" xmlns="http://www.w3.org/2000/svg">
<path d="M16.8966 24.1379C21.3778 24.1379 25.6755 25.9181 28.8442 29.0868C32.0129 32.2555 33.7931 36.5532 33.7931 41.0345V65.1724H0V41.0345C0 36.5532 1.78017 32.2555 4.94888 29.0868C8.1176 25.9181 12.4153 24.1379 16.8966 24.1379Z" fill="#25D3D6"/>
<path d="M24.1379 38.6207C20.5751 38.6197 17.1376 37.3055 14.4828 34.9293C11.8281 32.5531 10.1424 29.2817 9.7481 25.7407C6.83666 27.0985 4.37299 29.2587 2.64631 31.9677C0.919631 34.6767 0.00160296 37.822 0 41.0345V65.1724H33.7931V41.0345C33.7905 39.2029 33.4893 37.384 32.9012 35.6493C30.3866 37.577 27.3064 38.6214 24.1379 38.6207Z" fill="#25B2B4"/>
<path d="M16.8964 38.6207C19.5626 38.6207 21.724 36.4594 21.724 33.7932C21.724 31.127 19.5626 28.9656 16.8964 28.9656C14.2302 28.9656 12.0688 31.127 12.0688 33.7932C12.0688 36.4594 14.2302 38.6207 16.8964 38.6207Z" fill="#656B76"/>
<path d="M15.6898 31.3793C16.3979 31.3721 17.0987 31.5224 17.7417 31.8192C18.3846 32.1161 18.9535 32.5521 19.4073 33.0957C19.8611 33.6394 20.1884 34.2771 20.3655 34.9627C20.5427 35.6483 20.5653 36.3647 20.4317 37.0602C20.9406 36.5111 21.3145 35.8509 21.5238 35.1321C21.7331 34.4133 21.772 33.6556 21.6374 32.9191C21.5028 32.1827 21.1985 31.4877 20.7485 30.8894C20.2985 30.291 19.7153 29.8058 19.0451 29.4722C18.3749 29.1385 17.6361 28.9657 16.8875 28.9673C16.1388 28.9689 15.4008 29.145 14.7321 29.4816C14.0633 29.8181 13.4822 30.3059 13.0348 30.9062C12.5875 31.5065 12.2862 32.2028 12.1548 32.9398C12.6038 32.4491 13.1499 32.057 13.7584 31.7883C14.3669 31.5197 15.0246 31.3804 15.6898 31.3793Z" fill="#93999A"/>
<path d="M25.3448 41.0344L22.931 43.4482H10.8621L8.44828 41.0344H0V65.1724H33.7931V41.0344H25.3448Z" fill="#E9F1F2"/>
<path d="M25.3448 53.1034C21.9045 53.1012 18.5469 52.0483 15.7214 50.0855C12.8959 48.1228 10.7373 45.3438 9.53448 42.1206L8.44828 41.0344H0V65.1724H33.7931V53.1034H25.3448Z" fill="#D0D8DA"/>
<path d="M57.9312 49.4828H50.6898V14.4828C50.6898 12.5622 49.9269 10.7204 48.5689 9.36233C47.2109 8.00431 45.369 7.24138 43.4484 7.24138C41.5279 7.24138 39.686 8.00431 38.328 9.36233C36.97 10.7204 36.2071 12.5622 36.2071 14.4828C36.2072 18.0412 35.3898 21.5522 33.8178 24.7446C32.2459 27.937 29.9615 30.7256 27.1409 32.8952L21.9741 36.8695C21.5972 37.1594 21.1669 37.3722 20.7078 37.4958C20.2487 37.6194 19.7697 37.6513 19.2982 37.5898C18.8267 37.5282 18.372 37.3744 17.9599 37.1372C17.5479 36.8999 17.1866 36.5838 16.8967 36.2069C16.6068 35.83 16.394 35.3997 16.2704 34.9406C16.1469 34.4814 16.1149 34.0024 16.1764 33.531C16.238 33.0595 16.3918 32.6047 16.629 32.1927C16.8663 31.7806 17.1824 31.4194 17.5593 31.1295L22.726 27.1552C24.6672 25.6619 26.2394 23.7426 27.3213 21.5454C28.4031 19.3482 28.9657 16.9319 28.9657 14.4828C28.9657 10.6417 30.4915 6.95795 33.2076 4.2419C35.9236 1.52586 39.6074 0 43.4484 0C47.2895 0 50.9733 1.52586 53.6893 4.2419C56.4053 6.95795 57.9312 10.6417 57.9312 14.4828V49.4828Z" fill="#E9F1F2"/>
<path d="M57.9312 27.7586V25.3448H54.3105V16.8966C54.3114 14.3747 53.6522 11.8965 52.3983 9.70845C51.1444 7.5204 49.3396 5.69869 47.1633 4.42448C45.4855 3.45557 44.248 1.87466 43.7103 0.0132758C43.6222 0.0120689 43.5366 0 43.4485 0C39.6074 0 35.9236 1.52586 33.2076 4.2419C30.4915 6.95795 28.9657 10.6417 28.9657 14.4828C28.9657 16.9319 28.4031 19.3482 27.3213 21.5454C26.2394 23.7426 24.6672 25.6619 22.726 27.1552L17.5593 31.1295C16.7981 31.7149 16.3007 32.5788 16.1765 33.531C16.0522 34.4832 16.3113 35.4457 16.8967 36.2069C17.4822 36.9681 18.346 37.4655 19.2982 37.5898C20.2504 37.714 21.213 37.4549 21.9741 36.8695L27.1409 32.8952C29.9613 30.7254 32.2455 27.9368 33.8175 24.7444C35.3894 21.552 36.2069 18.0412 36.2071 14.4828C36.2071 12.5622 36.97 10.7204 38.328 9.36233C39.686 8.00431 41.5279 7.24138 43.4485 7.24138C45.369 7.24138 47.2109 8.00431 48.5689 9.36233C49.9269 10.7204 50.6898 12.5622 50.6898 14.4828V49.4828H57.9312V41.265C56.8306 40.6307 55.9165 39.7177 55.2809 38.6179C54.6453 37.5181 54.3106 36.2703 54.3105 35V27.7586H57.9312Z" fill="#D0D8DA"/>
<path d="M49.4829 15.6897H59.1381V25.3449H49.4829V15.6897Z" fill="#F89C8D"/>
<path d="M53.0563 3.66772L47.9258 8.79824C48.9818 9.63101 49.785 10.7414 50.2454 12.005L56.9654 9.31721C56.1344 7.14777 54.7936 5.2101 53.0563 3.66772Z" fill="#D0D8DA"/>
<path d="M27.9092 20.1551L33.7662 24.8403C34.7473 22.8713 35.4434 20.7728 35.8337 18.6078L28.9049 15.5291C28.8053 17.1121 28.4697 18.6713 27.9092 20.1551Z" fill="#93999A"/>
<path d="M22.7258 27.1553L20.8467 28.6036L25.1915 34.3967L27.1406 32.8977C28.0365 32.2044 28.8804 31.4465 29.6655 30.6299L24.862 25.1385C24.2137 25.8753 23.4986 26.5504 22.7258 27.1553Z" fill="#93999A"/>
<path d="M43.4481 0C42.1165 0.00343164 40.7917 0.190658 39.5112 0.556379L41.5919 7.49C42.7356 7.17815 43.9395 7.1603 45.0919 7.4381L46.5136 0.333103C45.5065 0.113801 44.4789 0.00213948 43.4481 0Z" fill="#D0D8DA"/>
<path d="M29.522 10.5457L36.4556 12.6264C36.8092 11.2977 37.5339 10.0971 38.5447 9.16505C36.7718 7.94005 34.4063 6.2685 32.6406 4.86609C31.1836 6.49819 30.1172 8.44044 29.522 10.5457Z" fill="#93999A"/>
<path d="M43.4482 61.5516H65.1723C66.4527 61.5516 67.6806 62.0603 68.5859 62.9656C69.4913 63.871 69.9999 65.0989 69.9999 66.3792V69.9999H38.6206V66.3792C38.6206 65.0989 39.1292 63.871 40.0346 62.9656C40.9399 62.0603 42.1678 61.5516 43.4482 61.5516Z" fill="#25D3D6"/>
<path d="M50.6899 49.4828H57.9313V56.7242H50.6899V49.4828Z" fill="#F89C8D"/>
<path d="M60.3451 56.7241H48.2761C47.6359 56.7241 47.022 56.9784 46.5693 57.4311C46.1166 57.8838 45.8623 58.4977 45.8623 59.1379V61.5517H48.8795C49.3597 61.5517 49.8201 61.7424 50.1597 62.0819C50.4992 62.4214 50.6899 62.8819 50.6899 63.3621C50.6899 63.8422 50.8806 64.3027 51.2201 64.6422C51.5596 64.9817 52.0201 65.1724 52.5002 65.1724H56.1209C56.6011 65.1724 57.0615 64.9817 57.401 64.6422C57.7405 64.3027 57.9313 63.8422 57.9313 63.3621C57.9313 62.8819 58.122 62.4214 58.4615 62.0819C58.801 61.7424 59.2615 61.5517 59.7416 61.5517H62.7589V59.1379C62.7589 58.4977 62.5045 57.8838 62.0519 57.4311C61.5992 56.9784 60.9852 56.7241 60.3451 56.7241Z" fill="#25D3D6"/>
<path d="M31.3793 55.5172H33.7931V65.1724H21.7241C21.7241 62.6117 22.7414 60.1558 24.5521 58.3451C26.3628 56.5345 28.8186 55.5172 31.3793 55.5172Z" fill="#93999A"/>
<path d="M33.7931 63.9655C33.7931 61.9659 32.1721 60.3448 30.1724 60.3448C28.1728 60.3448 26.5518 61.9659 26.5518 63.9655V66.3793C26.5518 68.379 28.1728 70 30.1724 70C32.1721 70 33.7931 68.379 33.7931 66.3793V63.9655Z" fill="#25D3D6"/>
<path d="M12.0688 65.1724H-0.000118256V55.5172H2.41368C4.97439 55.5172 7.43022 56.5344 9.24091 58.3451C11.0516 60.1558 12.0688 62.6117 12.0688 65.1724Z" fill="#93999A"/>
<path d="M7.24138 63.9655C7.24138 61.9659 5.62034 60.3448 3.62069 60.3448C1.62104 60.3448 0 61.9659 0 63.9655V66.3793C0 68.379 1.62104 70 3.62069 70C5.62034 70 7.24138 68.379 7.24138 66.3793V63.9655Z" fill="#25D3D6"/>
<path d="M16.8964 57.9311C19.5626 57.9311 21.724 55.7697 21.724 53.1035C21.724 50.4373 19.5626 48.2759 16.8964 48.2759C14.2302 48.2759 12.0688 50.4373 12.0688 53.1035C12.0688 55.7697 14.2302 57.9311 16.8964 57.9311Z" fill="#25D3D6"/>
<path d="M16.8964 57.931C18.1767 57.931 19.4046 57.4223 20.31 56.517C21.2153 55.6116 21.7239 54.3837 21.7239 53.1034C21.7239 52.9634 21.695 52.8318 21.6829 52.6954C18.9738 52.0929 16.4564 50.8282 14.3558 49.0144C13.4626 49.5652 12.7737 50.3927 12.3939 51.371C12.0141 52.3493 11.9642 53.4249 12.2517 54.4341C12.5393 55.4434 13.1486 56.3311 13.987 56.9623C14.8254 57.5935 15.8469 57.9336 16.8964 57.931Z" fill="#25B2B4"/>
<path d="M30.1725 63.9654V60.3447C29.2122 60.3447 28.2912 60.7262 27.6122 61.4052C26.9332 62.0842 26.5518 63.0051 26.5518 63.9654V66.3792C26.5504 67.2341 26.8522 68.0617 27.4036 68.715C27.955 69.3683 28.7202 69.8048 29.5632 69.947C30.4062 70.0892 31.2722 69.9278 32.0074 69.4915C32.7426 69.0553 33.2992 68.3724 33.5783 67.5644C32.6587 67.512 31.7938 67.1103 31.1607 66.4412C30.5276 65.7722 30.174 64.8865 30.1725 63.9654Z" fill="#25B2B4"/>
<path d="M3.62069 63.9654V60.3447C2.66043 60.3447 1.73949 60.7262 1.06048 61.4052C0.381469 62.0842 4.78363e-06 63.0051 4.78363e-06 63.9654V66.3792C-0.00138583 67.2341 0.300457 68.0617 0.851859 68.715C1.40326 69.3683 2.16848 69.8048 3.01145 69.947C3.85442 70.0892 4.72049 69.9278 5.45567 69.4915C6.19084 69.0553 6.74746 68.3724 7.02656 67.5644C6.10693 67.512 5.24207 67.1103 4.60894 66.4412C3.97581 65.7722 3.62229 64.8865 3.62069 63.9654Z" fill="#25B2B4"/>
<path d="M20.3098 56.5166C19.3993 57.396 18.1798 57.8826 16.9141 57.8716C15.6483 57.8606 14.4375 57.3529 13.5424 56.4578C12.6473 55.5628 12.1396 54.3519 12.1286 53.0862C12.1176 51.8204 12.6042 50.6009 13.4836 49.6904L20.3098 56.5166Z" fill="#7FDFE0"/>
<path d="M32.5862 57.931H33.7931V55.5172H31.3793C28.8186 55.5172 26.3628 56.5345 24.5521 58.3451C22.7414 60.1558 21.7241 62.6117 21.7241 65.1724H23.2472C23.7819 63.1014 24.9892 61.2667 26.6794 59.956C28.3697 58.6454 30.4473 57.9331 32.5862 57.931Z" fill="#656B76"/>
<path d="M1.2069 57.931H0V55.5172H2.41379C4.9745 55.5172 7.43034 56.5345 9.24103 58.3451C11.0517 60.1558 12.069 62.6117 12.069 65.1724H10.5459C10.0111 63.1014 8.80391 61.2667 7.11364 59.956C5.42338 58.6454 3.34576 57.9331 1.2069 57.931Z" fill="#656B76"/>
<path d="M50.2454 12.0049L52.9911 10.9067C52.2759 9.32842 51.283 7.89151 50.0596 6.66443L47.9258 8.79822C48.9818 9.63099 49.785 10.7414 50.2454 12.0049Z" fill="#93999A"/>
<path d="M39.5112 0.556379L41.5919 7.49C42.7356 7.17815 43.9395 7.1603 45.0919 7.4381L45.8849 3.47466C44.8457 2.55041 44.0895 1.35071 43.704 0.0144829C43.6219 0.013276 43.5374 0 43.4481 0C42.1165 0.00343164 40.7917 0.190658 39.5112 0.556379Z" fill="#93999A"/>
<path d="M54.3105 16.8966V15.6897H49.4829V25.3449H59.1381V21.7242C57.8577 21.7242 56.6298 21.2156 55.7245 20.3102C54.8191 19.4049 54.3105 18.1769 54.3105 16.8966Z" fill="#F25E57"/>
<path d="M54.3106 50.6897V49.4828H50.6899V56.7242H57.9313V54.3104C56.9711 54.3104 56.0501 53.9289 55.3711 53.2499C54.6921 52.5709 54.3106 51.65 54.3106 50.6897Z" fill="#F25E57"/>
<path d="M49.483 56.7241H48.2761C47.6359 56.7241 47.022 56.9784 46.5693 57.4311C46.1166 57.8838 45.8623 58.4977 45.8623 59.1379V61.5517H48.8795C49.3597 61.5517 49.8201 61.7424 50.1597 62.0819C50.4992 62.4214 50.6899 62.8819 50.6899 63.3621C50.6899 63.8422 50.8806 64.3027 51.2201 64.6422C51.5596 64.9817 52.0201 65.1724 52.5002 65.1724H56.1209C56.6011 65.1724 57.0615 64.9817 57.401 64.6422C57.7405 64.3027 57.9313 63.8422 57.9313 63.3621C57.9313 62.8819 58.122 62.4214 58.4615 62.0819C58.801 61.7424 59.2615 61.5517 59.7416 61.5517H62.7589V59.1379H51.8968C51.2566 59.1379 50.6427 58.8836 50.19 58.4309C49.7373 57.9783 49.483 57.3643 49.483 56.7241Z" fill="#25B2B4"/>
<path d="M49.4827 67.5861C47.8822 67.5861 46.3473 66.9503 45.2157 65.8187C44.084 64.687 43.4482 63.1521 43.4482 61.5516C42.1678 61.5516 40.9399 62.0603 40.0346 62.9656C39.1292 63.871 38.6206 65.0989 38.6206 66.3792V69.9999H69.9999V67.5861H49.4827Z" fill="#25B2B4"/>
<path d="M55.5173 15.6897V20.5173C55.5173 20.8374 55.3902 21.1444 55.1638 21.3707C54.9375 21.597 54.6305 21.7242 54.3104 21.7242C53.9903 21.7242 53.6833 21.597 53.457 21.3707C53.2307 21.1444 53.1035 20.8374 53.1035 20.5173V15.6897H55.5173Z" fill="#25D3D6"/>
<path d="M55.5173 56.7241V59.1379C55.5173 59.458 55.3902 59.765 55.1638 59.9913C54.9375 60.2177 54.6305 60.3448 54.3104 60.3448C53.9903 60.3448 53.6833 60.2177 53.457 59.9913C53.2307 59.765 53.1035 59.458 53.1035 59.1379V56.7241H55.5173Z" fill="#93999A"/>
<path d="M16.8968 54.3103C17.5634 54.3103 18.1037 53.7699 18.1037 53.1034C18.1037 52.4368 17.5634 51.8965 16.8968 51.8965C16.2303 51.8965 15.6899 52.4368 15.6899 53.1034C15.6899 53.7699 16.2303 54.3103 16.8968 54.3103Z" fill="#F89C8D"/>
<path d="M28.9654 49.4829H26.5516C26.2315 49.4829 25.9246 49.3557 25.6982 49.1294C25.4719 48.9031 25.3447 48.5961 25.3447 48.276C25.3447 47.9559 25.4719 47.6489 25.6982 47.4226C25.9246 47.1962 26.2315 47.0691 26.5516 47.0691H28.9654C29.2855 47.0691 29.5925 47.1962 29.8188 47.4226C30.0452 47.6489 30.1723 47.9559 30.1723 48.276C30.1723 48.5961 30.0452 48.9031 29.8188 49.1294C29.5925 49.3557 29.2855 49.4829 28.9654 49.4829Z" fill="#25D3D6"/>
<path d="M7.2413 49.4829H4.8275C4.50741 49.4829 4.20043 49.3557 3.9741 49.1294C3.74776 48.9031 3.62061 48.5961 3.62061 48.276C3.62061 47.9559 3.74776 47.6489 3.9741 47.4226C4.20043 47.1962 4.50741 47.0691 4.8275 47.0691H7.2413C7.56138 47.0691 7.86836 47.1962 8.0947 47.4226C8.32104 47.6489 8.44819 47.9559 8.44819 48.276C8.44819 48.5961 8.32104 48.9031 8.0947 49.1294C7.86836 49.3557 7.56138 49.4829 7.2413 49.4829Z" fill="#25B2B4"/>
<path d="M53.1035 56.7241H55.5173V59.1379H53.1035V56.7241Z" fill="#D0D8DA"/>
<path d="M55.5173 20.0828V20.5173C55.5173 20.8374 55.3902 21.1444 55.1638 21.3707C54.9375 21.597 54.6305 21.7242 54.3104 21.7242C53.9903 21.7242 53.6833 21.597 53.457 21.3707C53.2307 21.1444 53.1035 20.8374 53.1035 20.5173V15.6897H54.3104V16.8966C54.3121 18.07 54.7411 19.2027 55.5173 20.0828Z" fill="#25B2B4"/>
<path d="M17.7537 53.9604C17.5249 54.1847 17.2173 54.3104 16.8968 54.3104C16.5767 54.3104 16.2698 54.1832 16.0434 53.9569C15.8171 53.7305 15.6899 53.4236 15.6899 53.1035C15.6899 52.783 15.8156 52.4754 16.0399 52.2466L17.7537 53.9604Z" fill="#F25E57"/>
</svg>
