<svg width="86" height="86" viewBox="0 0 86 86" fill="none" xmlns="http://www.w3.org/2000/svg">
<g clip-path="url(#clip0_903_2532)">
<path d="M4.44828 26.6897H60.7931C63.2496 26.6897 65.2414 28.6814 65.2414 31.138V35.5862H4.44828C1.99173 35.5862 0 33.5945 0 31.138C0 28.6814 1.99173 26.6897 4.44828 26.6897Z" fill="#1B9698"/>
<path d="M23.7241 11.8621V68.2069H59.3103V11.8621H23.7241Z" fill="#1B9698"/>
<path d="M51.8965 23.7241C49.44 23.7241 47.4483 21.7324 47.4483 19.2758V17.7931H35.5862V19.2758C35.5862 21.7324 33.5945 23.7241 31.1379 23.7241H29.6552V56.3448H31.1379C33.5945 56.3448 35.5862 58.3365 35.5862 60.7931V62.2758H47.4483V60.7931C47.4483 58.3365 49.44 56.3448 51.8965 56.3448H53.3793V23.7241H51.8965Z" fill="#7FDFE0"/>
<path d="M7.41382 0V56.3448H43V0H7.41382Z" fill="#25B2B4"/>
<path d="M25.2069 31.1379C21.9315 31.1379 19.2759 28.4823 19.2759 25.2069V0H7.41382V56.3448H43V31.1379H25.2069Z" fill="#1B9698"/>
<path d="M35.5862 11.8621C33.1297 11.8621 31.138 9.87033 31.138 7.41379V5.93103H19.2759V7.41379C19.2759 9.87033 17.2842 11.8621 14.8276 11.8621H13.3448V44.4828H14.8276C17.2842 44.4828 19.2759 46.4745 19.2759 48.931V50.4138H31.138V48.931C31.138 46.4745 33.1297 44.4828 35.5862 44.4828H37.069V11.8621H35.5862Z" fill="#25D3D6"/>
<path d="M31.138 31.138C24.5864 31.138 19.2759 25.8274 19.2759 19.2759V7.41382C19.2759 9.87036 17.2842 11.8621 14.8276 11.8621H13.3448V44.4828H14.8276C17.2842 44.4828 19.2759 46.4745 19.2759 48.9311V50.4138H31.138V48.9311C31.138 46.4745 33.1297 44.4828 35.5862 44.4828H37.069V31.138H31.138Z" fill="#7FDFE0"/>
<path d="M31.1379 29.6552C31.1379 32.9305 28.4823 35.5862 25.2069 35.5862C21.9315 35.5862 19.2759 32.9305 19.2759 29.6552C19.2759 26.3798 21.9315 23.7241 25.2069 23.7241C28.4823 23.7241 31.1379 26.3798 31.1379 29.6552Z" fill="#F25E57"/>
<path d="M21.0258 25.4589C19.9079 26.5695 19.2788 28.0798 19.2759 29.6552C19.3114 32.6142 21.5225 35.0939 24.4583 35.4675C27.3934 35.8411 30.1548 33.9934 30.9302 31.1379C26.875 31.0626 23.1392 28.921 21.0258 25.4589Z" fill="#F89C8D"/>
<path d="M69.6897 35.5862H4.44828C1.99173 35.5862 0 33.5945 0 31.1379V81.5517C0 84.0083 1.99173 86 4.44828 86H69.6897C72.1462 86 74.1379 84.0083 74.1379 81.5517V40.0345C74.1379 37.5779 72.1462 35.5862 69.6897 35.5862Z" fill="#25D3D6"/>
<path d="M7.41379 66.7241V35.5862H4.44828C1.99173 35.5862 0 33.5945 0 31.1379V81.5517C0 84.0083 1.99173 86 4.44828 86H69.6897C72.1462 86 74.1379 84.0083 74.1379 81.5517V72.6552H13.3448C10.0694 72.6552 7.41379 69.9995 7.41379 66.7241Z" fill="#10B3B5"/>
<path d="M0 44.4828H74.1379V77.1035H0V44.4828Z" fill="#F89C8D"/>
<path d="M7.41379 66.7242V44.4828H0V77.1035H74.1379V72.6552H13.3448C10.0694 72.6552 7.41379 69.9996 7.41379 66.7242Z" fill="#F89C8D"/>
<path d="M74.1379 72.6552H57.8276C52.9145 72.6552 48.931 68.6717 48.931 63.7586C48.931 58.8455 52.9145 54.8621 57.8276 54.8621H74.1379V72.6552Z" fill="#F89C8D"/>
<path d="M59.3104 51.8966H77.1035C82.0166 51.8966 86 55.8801 86 60.7932C86 65.7062 82.0166 69.6897 77.1035 69.6897H59.3104C54.3973 69.6897 50.4138 65.7062 50.4138 60.7932C50.4138 55.8801 54.3973 51.8966 59.3104 51.8966Z" fill="#F25E57"/>
<path d="M62.2759 60.7932C62.2759 62.4308 60.9481 63.7587 59.3104 63.7587C57.6727 63.7587 56.3448 62.4308 56.3448 60.7932C56.3448 59.1555 57.6727 57.8276 59.3104 57.8276C60.9481 57.8276 62.2759 59.1555 62.2759 60.7932Z" fill="#BBC2C4"/>
<path d="M38.5517 68.2069C38.5517 78.0338 30.5855 86 20.7586 86C10.9317 86 2.96552 78.0338 2.96552 68.2069C2.96552 58.38 10.9317 50.4138 20.7586 50.4138C30.5855 50.4138 38.5517 58.38 38.5517 68.2069Z" fill="#F25E57"/>
<path d="M35.5862 68.2069C35.5862 76.3961 28.9478 83.0344 20.7586 83.0344C12.5694 83.0344 5.93103 76.3961 5.93103 68.2069C5.93103 60.0177 12.5694 53.3793 20.7586 53.3793C28.9478 53.3793 35.5862 60.0177 35.5862 68.2069Z" fill="#F89C8D"/>
<path d="M20.7586 53.3793C16.0917 53.3793 11.697 55.5766 8.89655 59.3103C14.8001 54.883 23.0602 55.4702 28.2781 60.6874C33.4953 65.9053 34.0824 74.1654 29.6552 80.0689C34.7608 76.2397 36.8438 69.5731 34.8253 63.5182C32.8068 57.4634 27.1407 53.3793 20.7586 53.3793Z" fill="#F89C8D"/>
<path d="M20.7586 62.2759C21.9873 62.2759 22.9828 63.2714 22.9828 64.5C22.9828 65.3189 23.6467 65.9828 24.4655 65.9828C25.2844 65.9828 25.9483 65.3189 25.9483 64.5C25.9389 62.2129 24.4337 60.2009 22.2414 59.5478V57.8276C22.2414 57.0088 21.5775 56.3448 20.7586 56.3448C19.9398 56.3448 19.2759 57.0088 19.2759 57.8276V59.5478C16.7983 60.2711 15.233 62.7096 15.6059 65.2638C15.9795 67.8174 18.1776 69.7056 20.7586 69.6897C21.9873 69.6897 22.9828 70.6852 22.9828 71.9138C22.9828 73.1424 21.9873 74.138 20.7586 74.138C19.53 74.138 18.5345 73.1424 18.5345 71.9138C18.5345 71.095 17.8706 70.4311 17.0517 70.4311C16.2329 70.4311 15.569 71.095 15.569 71.9138C15.5784 74.2009 17.0836 76.2129 19.2759 76.866V78.5862C19.2759 79.4051 19.9398 80.069 20.7586 80.069C21.5775 80.069 22.2414 79.4051 22.2414 78.5862V76.866C24.7189 76.1427 26.2842 73.7043 25.9114 71.15C25.5378 68.5964 23.3397 66.7082 20.7586 66.7242C19.53 66.7242 18.5345 65.7287 18.5345 64.5C18.5345 63.2714 19.53 62.2759 20.7586 62.2759Z" fill="#F25E57"/>
</g>
<defs>
<clipPath id="clip0_903_2532">
<rect width="86" height="86" fill="white"/>
</clipPath>
</defs>
</svg>
