<svg width="66" height="67" viewBox="0 0 66 67" fill="none" xmlns="http://www.w3.org/2000/svg">
<path d="M53.3804 45.5628C53.2848 45.9242 53.1188 46.263 52.8918 46.56C52.6648 46.857 52.3814 47.1062 52.0579 47.2934C51.7343 47.4805 51.377 47.6019 51.0064 47.6506C50.6358 47.6992 50.2593 47.6742 49.8984 47.577L46.5984 46.6894C47.316 46.894 47.9246 47.3724 48.2928 48.0214C48.661 48.6705 48.7595 49.4383 48.5669 50.1593C48.3743 50.8803 47.9062 51.4967 47.2634 51.8757C46.6206 52.2548 45.8545 52.3661 45.1304 52.1856L41.8304 51.298C42.1968 51.3893 42.5414 51.5527 42.844 51.7785C43.1466 52.0043 43.4012 52.2882 43.593 52.6134C43.7848 52.9387 43.9099 53.2989 43.9611 53.673C44.0122 54.0471 43.9884 54.4277 43.8909 54.7925C43.7935 55.1573 43.6244 55.499 43.3936 55.7978C43.1627 56.0966 42.8746 56.3465 42.5462 56.5328C42.2178 56.7191 41.8556 56.8382 41.4806 56.8831C41.1057 56.9279 40.7256 56.8977 40.3625 56.7942L22.6107 52.049C20.1861 51.3955 17.9462 50.1879 16.0676 48.5214C14.1884 46.8584 11.9484 45.6547 9.5245 45.0052L0 42.4563V23.6007L14.3038 27.4355C16.7165 28.0839 19.1793 28.5292 21.6663 28.7669C23.6895 28.9596 25.7096 28.3691 27.3104 27.1169L29.9163 25.0686C31.1147 24.131 32.5146 23.4847 34.0056 23.1806C35.4965 22.8765 37.0377 22.9229 38.5077 23.3162L43.5601 24.6704C43.7196 24.7138 43.869 24.7884 43.9996 24.8898C44.1302 24.9913 44.2393 25.1176 44.3208 25.2615C44.4023 25.4054 44.4544 25.564 44.4743 25.7282C44.4941 25.8923 44.4812 26.0588 44.4363 26.218C44.1305 27.3313 43.4042 28.2823 42.4106 28.8703C41.417 29.4584 40.2339 29.6376 39.1108 29.37C38.3921 29.1705 37.6357 29.1481 36.9064 29.3047C36.1772 29.4612 35.4967 29.7921 34.9232 30.269L33.6145 31.4297L49.5456 35.6969C50.2633 35.9015 50.8718 36.3799 51.24 37.029C51.6083 37.6781 51.7067 38.4459 51.5141 39.1668C51.3216 39.8878 50.8534 40.5043 50.2106 40.8833C49.5678 41.2623 48.8018 41.3736 48.0777 41.1932L51.3777 42.0807C52.1044 42.2779 52.7232 42.7552 53.0986 43.4079C53.4741 44.0606 53.5754 44.8355 53.3804 45.5628Z" fill="#EDB88E"/>
<path d="M51.3777 42.0806L48.0777 41.193C48.8018 41.3735 49.5678 41.2622 50.2106 40.8831C50.8534 40.5041 51.3216 39.8876 51.5141 39.1667C51.7067 38.4457 51.6083 37.6779 51.24 37.0288C50.8718 36.3798 50.2633 35.9014 49.5456 35.6968L33.6145 31.4295L34.9232 30.2688C35.4967 29.7919 36.1772 29.461 36.9064 29.3045C37.6357 29.1479 38.3921 29.1704 39.1108 29.3699C40.2339 29.6374 41.417 29.4582 42.4106 28.8702C43.4042 28.2821 44.1305 27.3311 44.4363 26.2178C44.4812 26.0586 44.4941 25.8922 44.4743 25.728C44.4544 25.5638 44.4023 25.4052 44.3208 25.2613C44.2393 25.1174 44.1302 24.9911 43.9996 24.8896C43.869 24.7882 43.7196 24.7136 43.5601 24.6702L38.5077 23.3161C37.1702 22.9604 35.7728 22.8915 34.4068 23.1139C33.0409 23.3363 31.7375 23.845 30.582 24.6065L30.5717 24.6577C30.2818 26.1064 29.5582 27.4327 28.4969 28.4605C27.4355 29.4883 26.0867 30.169 24.6294 30.4122C23.4033 30.6169 22.25 31.1321 21.2794 31.9086L19.0638 33.6826C17.7715 34.7152 16.1662 35.277 14.5121 35.2757C12.1718 35.2751 9.92763 34.345 8.27315 32.6898C6.61866 31.0347 5.68936 28.7902 5.68967 26.4499V25.1265L0 23.6005V42.4561L9.5245 45.0051C11.9484 45.6545 14.1884 46.8582 16.0676 48.5213C17.9462 50.1877 20.1861 51.3953 22.6107 52.0489L40.3625 56.7941C40.7256 56.8976 41.1057 56.9278 41.4806 56.8829C41.8556 56.838 42.2178 56.7189 42.5462 56.5326C42.8746 56.3463 43.1627 56.0964 43.3936 55.7977C43.6244 55.4989 43.7935 55.1571 43.8909 54.7923C43.9884 54.4275 44.0122 54.0469 43.9611 53.6728C43.9099 53.2987 43.7848 52.9385 43.593 52.6133C43.4012 52.288 43.1466 52.0042 42.844 51.7783C42.5414 51.5525 42.1968 51.3892 41.8304 51.2978L45.1304 52.1854C45.8545 52.3659 46.6206 52.2546 47.2634 51.8756C47.9062 51.4965 48.3743 50.8801 48.5669 50.1591C48.7595 49.4381 48.661 48.6703 48.2928 48.0213C47.9246 47.3722 47.316 46.8938 46.5984 46.6892L49.8984 47.5768C50.6272 47.773 51.4041 47.6716 52.0582 47.2949C52.7123 46.9182 53.19 46.2972 53.3861 45.5683C53.5823 44.8395 53.4809 44.0626 53.1043 43.4085C52.7276 42.7544 52.1065 42.2767 51.3777 42.0806Z" fill="#DA9367"/>
<path d="M48.9311 36.4137H30.7241L35.2759 14.793H44.3793L48.9311 36.4137Z" fill="#25B2B4"/>
<path d="M48.9311 36.4137H30.7241L35.2759 14.793H44.3793L44.8573 17.0802C43.5004 17.1494 42.222 17.737 41.2859 18.7217C40.3499 19.7064 39.8279 21.013 39.8276 22.3716V23.8737C39.8281 24.8791 40.0407 25.8732 40.4515 26.7909C40.8623 27.7086 41.4621 28.5294 42.2117 29.1995C42.9613 29.8696 43.8439 30.3741 44.8017 30.6799C45.7595 30.9858 46.7711 31.0861 47.7704 30.9744H47.7817L48.9311 36.4137Z" fill="#0096C7"/>
<path d="M39.8278 34.1382C38.7899 34.1419 37.7851 34.5037 36.9829 35.1623C36.3157 34.6182 35.5077 34.2745 34.653 34.1711C33.7982 34.0677 32.9316 34.2089 32.1538 34.5783C31.3761 34.9476 30.719 35.53 30.259 36.2578C29.7989 36.9856 29.5547 37.8289 29.5547 38.6899C29.5547 39.5509 29.7989 40.3943 30.259 41.1221C30.719 41.8499 31.3761 42.4322 32.1538 42.8016C32.9316 43.1709 33.7982 43.3121 34.653 43.2087C35.5077 43.1053 36.3157 42.7616 36.9829 42.2175C37.5488 42.6736 38.2157 42.9873 38.9279 43.1322C39.64 43.2771 40.3766 43.2491 41.0756 43.0504C41.7747 42.8517 42.4159 42.4882 42.9454 41.9904C43.4749 41.4926 43.8772 40.875 44.1185 40.1895C44.3599 39.504 44.4333 38.7706 44.3325 38.0509C44.2317 37.3312 43.9598 36.6461 43.5394 36.0533C43.119 35.4605 42.5626 34.9771 41.9167 34.6439C41.2709 34.3106 40.5545 34.1372 39.8278 34.1382Z" fill="#25B2B4"/>
<path d="M60.3106 45.5173C60.3134 44.9621 60.1801 44.4148 59.9224 43.9231C59.6646 43.4314 59.2903 43.0104 58.8322 42.6969C58.374 42.3833 57.846 42.1869 57.2944 42.1247C56.7427 42.0625 56.1843 42.1365 55.6678 42.3402C55.4933 41.2329 54.9925 40.2028 54.2295 39.3815C54.7225 38.2818 54.7584 37.0312 54.3293 35.905C53.9003 34.7787 53.0414 33.8691 51.9417 33.3761C50.8419 32.8831 49.5914 32.8472 48.4651 33.2762C47.3389 33.7053 46.4292 34.5641 45.9362 35.6639C45.4775 35.4282 44.9712 35.2997 44.4556 35.2881C43.94 35.2765 43.4285 35.382 42.9596 35.5968C42.4907 35.8116 42.0767 36.13 41.7487 36.528C41.4207 36.926 41.1873 37.3932 41.0661 37.8945C40.9449 38.3958 40.9391 38.9181 41.0491 39.422C41.159 39.9259 41.3819 40.3982 41.7009 40.8035C42.0199 41.2087 42.4268 41.5363 42.8908 41.7614C43.3547 41.9866 43.8638 42.1036 44.3795 42.1035C44.4194 42.1035 44.4569 42.0932 44.4933 42.0921C44.2428 43.3096 44.4 44.5756 44.9407 45.6949C45.4814 46.8141 46.3755 47.7242 47.4849 48.2847C47.0009 49.0669 46.7185 49.9569 46.6631 50.875C46.6077 51.7932 46.781 52.7107 47.1675 53.5454C45.9723 53.6783 44.8501 54.1865 43.9617 54.997C43.0734 55.8075 42.4647 56.8786 42.223 58.0566C41.9813 59.2345 42.1191 60.4588 42.6165 61.5536C43.1139 62.6484 43.9453 63.5574 44.9915 64.1503C46.0377 64.7431 47.2448 64.9893 48.4396 64.8534C49.6344 64.7175 50.7554 64.2065 51.6418 63.3938C52.5281 62.5812 53.1341 61.5086 53.3729 60.33C53.6117 59.1515 53.471 57.9276 52.9709 56.834C53.8632 56.7424 54.7207 56.4395 55.4725 55.9502C56.2242 55.461 56.8485 54.7995 57.2935 54.0208C57.7385 53.242 57.9914 52.3684 58.0312 51.4723C58.0711 50.5763 57.8967 49.6837 57.5227 48.8685C58.3052 48.7225 59.0121 48.3077 59.5212 47.6958C60.0303 47.0839 60.3095 46.3133 60.3106 45.5173Z" fill="#7FDFE0"/>
<path d="M49.013 57.8752C48.8115 56.7263 48.9708 55.5432 49.4687 54.4884C49.9667 53.4336 50.779 52.5588 51.7941 51.9841C52.3172 51.6728 52.7489 51.2288 53.0455 50.6971C53.342 50.1654 53.4928 49.5648 53.4828 48.9561V48.9311C53.4826 48.5202 53.5288 48.1106 53.6205 47.7101C53.7148 47.2876 53.7184 46.8499 53.6309 46.426C53.5434 46.0021 53.3668 45.6016 53.1129 45.251C52.8588 44.8764 52.6667 44.4634 52.544 44.0277L52.0433 42.4608C51.5722 41.1324 50.6387 40.018 49.4135 39.3212C48.848 38.9736 48.3962 38.4686 48.1132 37.8682C47.8303 37.2677 47.7285 36.5978 47.8204 35.9404C47.9207 35.2787 48.2104 34.6601 48.6547 34.1595C49.099 33.6589 49.6787 33.2977 50.3239 33.1195C50.4365 33.0937 50.5504 33.0744 50.6652 33.0614C50.4681 33.0276 50.2689 33.007 50.069 33C49.1967 33.0009 48.3431 33.2528 47.6102 33.7258C46.8773 34.1988 46.2961 34.8728 45.936 35.6673C45.4772 35.4304 44.9706 35.3007 44.4545 35.2883C43.9383 35.2758 43.426 35.3807 42.9563 35.5952C42.4866 35.8097 42.0718 36.128 41.7432 36.5263C41.4146 36.9246 41.1808 37.3923 41.0594 37.8942C40.938 38.396 40.9322 38.9189 41.0425 39.4233C41.1528 39.9277 41.3763 40.4005 41.696 40.8059C42.0158 41.2113 42.4235 41.5388 42.8883 41.7636C43.3531 41.9884 43.863 42.1046 44.3793 42.1035C44.4191 42.1035 44.4567 42.0932 44.4931 42.0921C44.2426 43.3096 44.3998 44.5757 44.9405 45.6949C45.4812 46.8141 46.3753 47.7242 47.4847 48.2847C47.0007 49.0669 46.7183 49.9569 46.6629 50.875C46.6075 51.7932 46.7808 52.7107 47.1672 53.5454C46.2127 53.65 45.3004 53.9951 44.5156 54.5483C43.7308 55.1016 43.0992 55.8449 42.68 56.7088C42.2607 57.5726 42.0676 58.5287 42.1185 59.4876C42.1695 60.4465 42.4629 61.3767 42.9713 62.1913C43.4797 63.0058 44.1865 63.6781 45.0255 64.1451C45.8645 64.612 46.8083 64.8585 47.7685 64.8613C48.7287 64.8642 49.6739 64.6234 50.5157 64.1614C51.3575 63.6994 52.0683 63.0314 52.5815 62.2199C51.6613 61.8668 50.8487 61.2807 50.2231 60.5191C49.5975 59.7575 49.1805 58.8465 49.013 57.8752Z" fill="#25D3D6"/>
<path d="M0 59.1725H9.83857C12.3485 59.1727 14.824 59.7571 17.069 60.8794C19.314 62.0017 21.7895 62.586 24.2994 62.5863H42.6725C43.427 62.5863 44.1506 62.2865 44.6841 61.753C45.2176 61.2195 45.5173 60.4959 45.5173 59.7414C45.5173 58.9869 45.2176 58.2633 44.6841 57.7298C44.1506 57.1963 43.427 56.8966 42.6725 56.8966H46.0863C46.8408 56.8966 47.5644 56.5969 48.0979 56.0634C48.6314 55.5298 48.9311 54.8063 48.9311 54.0518C48.9311 53.2973 48.6314 52.5737 48.0979 52.0402C47.5644 51.5066 46.8408 51.2069 46.0863 51.2069H49.5001C50.2546 51.2069 50.9782 50.9072 51.5117 50.3737C52.0452 49.8402 52.3449 49.1166 52.3449 48.3621C52.3449 47.6076 52.0452 46.884 51.5117 46.3505C50.9782 45.817 50.2546 45.5173 49.5001 45.5173H46.0863C46.8408 45.5173 47.5644 45.2175 48.0979 44.684C48.6314 44.1505 48.9311 43.4269 48.9311 42.6724C48.9311 41.9179 48.6314 41.1943 48.0979 40.6608C47.5644 40.1273 46.8408 39.8276 46.0863 39.8276H29.5863L30.5581 38.3699C30.9877 37.7607 31.5584 37.2646 32.2215 36.924C32.8845 36.5834 33.6202 36.4083 34.3656 36.4138C35.5191 36.3813 36.6148 35.902 37.4216 35.077C38.2284 34.2519 38.6831 33.1457 38.6897 31.9918C38.6918 31.8268 38.6613 31.6631 38.5999 31.51C38.5385 31.3569 38.4475 31.2174 38.332 31.0996C38.2165 30.9818 38.0789 30.888 37.927 30.8235C37.7752 30.7591 37.6121 30.7253 37.4471 30.7241H32.2126C30.6909 30.7243 29.1901 31.0787 27.8291 31.7593C26.468 32.4399 25.2841 33.4281 24.3711 34.6454L22.3866 37.2911C21.1656 38.9193 19.3643 40.0143 17.3569 40.3488C14.8925 40.7597 12.3984 40.966 9.90002 40.9655H0V59.1725Z" fill="#F9DBAF"/>
<path d="M47.7931 40.4077C47.7901 41.1602 47.4891 41.8809 46.9559 42.412C46.4227 42.943 45.7008 43.2412 44.9483 43.2412H37.5517C36.9481 43.2412 36.3693 43.4809 35.9425 43.9078C35.5157 44.3346 35.2759 44.9134 35.2759 45.517H46.0862C46.6828 45.5189 47.2648 45.3326 47.7494 44.9847C48.234 44.6368 48.5967 44.1449 48.7857 43.5791C48.9747 43.0132 48.9806 42.4022 48.8024 41.8329C48.6242 41.2635 48.271 40.7648 47.7931 40.4077Z" fill="#EDB88E"/>
<path d="M51.2069 46.0977C51.2039 46.8502 50.9029 47.5709 50.3697 48.1019C49.8365 48.633 49.1146 48.9311 48.3621 48.9311H37.5517C36.9481 48.9311 36.3693 49.1709 35.9425 49.5977C35.5157 50.0245 35.2759 50.6034 35.2759 51.207H49.5C50.0966 51.2088 50.6786 51.0225 51.1632 50.6746C51.6478 50.3267 52.0105 49.8349 52.1995 49.269C52.3885 48.7032 52.3944 48.0921 52.2162 47.5228C52.038 46.9535 51.6848 46.4548 51.2069 46.0977Z" fill="#EDB88E"/>
<path d="M47.7934 51.7871C47.7904 52.5396 47.4893 53.2603 46.9561 53.7914C46.423 54.3224 45.7011 54.6206 44.9485 54.6206H36.4141C35.8105 54.6206 35.2316 54.8603 34.8048 55.2871C34.378 55.714 34.1382 56.2928 34.1382 56.8964H46.0865C46.6831 56.8983 47.265 56.712 47.7497 56.3641C48.2343 56.0162 48.5969 55.5243 48.7859 54.9585C48.975 54.3926 48.9808 53.7816 48.8026 53.2123C48.6244 52.6429 48.2713 52.1442 47.7934 51.7871Z" fill="#EDB88E"/>
<path d="M44.3794 57.4769C44.3764 58.2294 44.0753 58.9501 43.5422 59.4811C43.009 60.0122 42.2871 60.3104 41.5346 60.3104H33.0001C28.1713 60.3104 23.5403 58.3921 20.1258 54.9777C16.7114 51.5632 14.7931 46.9322 14.7931 42.1034V40.6924C13.1682 40.8711 11.5348 40.9623 9.90002 40.9655H0V59.1724H9.83857C12.3485 59.1726 14.824 59.757 17.069 60.8793C19.314 62.0016 21.7895 62.586 24.2994 62.5862H42.6725C43.2691 62.5881 43.851 62.4018 44.3357 62.0539C44.8203 61.7059 45.1829 61.2141 45.3719 60.6483C45.561 60.0824 45.5668 59.4714 45.3886 58.902C45.2104 58.3327 44.8573 57.834 44.3794 57.4769Z" fill="#EDB88E"/>
<path d="M29.5859 39.8276L30.5964 38.3119C31.0163 37.7164 31.575 37.2323 32.2242 36.9015C32.8734 36.5708 33.5935 36.4034 34.322 36.4138C35.4833 36.393 36.5903 35.9187 37.4064 35.0924C38.2226 34.266 38.6831 33.1532 38.6894 31.9918C38.6915 31.8268 38.661 31.6631 38.5996 31.51C38.5382 31.3569 38.4471 31.2174 38.3317 31.0996C38.2162 30.9818 38.0786 30.888 37.9267 30.8235C37.7748 30.7591 37.6117 30.7253 37.4468 30.7241L36.2815 32.5573C35.6351 33.5732 34.6233 34.302 33.4549 34.5931C32.6304 34.8002 31.8774 35.2271 31.2763 35.8283C30.6751 36.4294 30.2483 37.1824 30.0411 38.0069L29.5859 39.8276Z" fill="#EDB88E"/>
<path d="M35.2759 5.68945H44.3793V14.7929H35.2759V5.68945Z" fill="#D0D8DA"/>
<path d="M35.2759 0H66.0001V5.68967H35.2759V0Z" fill="#E9F1F2"/>
<path d="M27.0906 59.2078C27.241 58.7872 27.3071 58.3411 27.2851 57.895C27.2631 57.4489 27.1534 57.0114 26.9624 56.6077C26.7713 56.2039 26.5026 55.8418 26.1716 55.5419C25.8406 55.2419 25.4538 55.0102 25.0332 54.8598C24.6126 54.7094 24.1665 54.6433 23.7204 54.6653C23.2743 54.6873 22.8368 54.7969 22.4331 54.9879C22.0293 55.179 21.6672 55.4477 21.3672 55.7787C21.0673 56.1097 20.8356 56.4966 20.6852 56.9172C20.6169 56.9172 20.552 56.8967 20.4826 56.8967C19.68 56.8926 18.8905 57.1008 18.1943 57.5002C17.4981 57.8997 16.9199 58.4761 16.5184 59.171C16.1168 59.866 15.9061 60.6548 15.9077 61.4574C15.9093 62.26 16.1231 63.048 16.5275 63.7413C16.9318 64.4347 17.5123 65.0088 18.2101 65.4054C18.9079 65.8021 19.6981 66.0072 20.5007 65.9999C21.3033 65.9926 22.0897 65.7732 22.7802 65.364C23.4707 64.9548 24.0407 64.3702 24.4324 63.6696C24.7059 64.055 25.0713 64.3659 25.4954 64.5743C25.9195 64.7827 26.3889 64.8819 26.8611 64.863C27.3332 64.8441 27.7932 64.7076 28.1993 64.466C28.6053 64.2244 28.9447 63.8852 29.1865 63.4793C29.4284 63.0733 29.5651 62.6134 29.5843 62.1413C29.6034 61.6691 29.5044 61.1997 29.2963 60.7755C29.0881 60.3512 28.7774 59.9857 28.3922 59.7119C28.007 59.4382 27.5596 59.2649 27.0906 59.2078Z" fill="#7FDFE0"/>
<path d="M58.0344 30.7241C59.9198 30.7241 61.4482 29.1957 61.4482 27.3103C61.4482 25.4249 59.9198 23.8965 58.0344 23.8965C56.149 23.8965 54.6206 25.4249 54.6206 27.3103C54.6206 29.1957 56.149 30.7241 58.0344 30.7241Z" fill="#7FDFE0"/>
<path d="M55.7588 19.3447C57.0157 19.3447 58.0346 18.3258 58.0346 17.0688C58.0346 15.8119 57.0157 14.793 55.7588 14.793C54.5019 14.793 53.4829 15.8119 53.4829 17.0688C53.4829 18.3258 54.5019 19.3447 55.7588 19.3447Z" fill="#7FDFE0"/>
<path d="M29.0024 60.3161C28.6453 60.803 28.1391 61.1601 27.5606 61.3334C27.0314 61.4866 26.4695 61.4866 25.9402 61.3334C25.4658 61.1799 24.9624 61.1378 24.4691 61.2102C23.9757 61.2826 23.5057 61.4677 23.0954 61.751C22.5375 62.1465 21.8974 62.4109 21.223 62.5243C20.5486 62.6376 19.8572 62.5971 19.2007 62.4057C18.5441 62.2143 17.9393 61.877 17.4314 61.419C16.9235 60.961 16.5258 60.3941 16.2678 59.7607C15.8331 60.8316 15.8234 62.028 16.2407 63.1057C16.6581 64.1834 17.471 65.0613 18.5135 65.5601C19.5561 66.0588 20.7497 66.1409 21.8507 65.7896C22.9517 65.4383 23.8772 64.68 24.4382 63.6695C24.79 64.1549 25.2863 64.5167 25.856 64.7033C26.4258 64.8899 27.0399 64.8917 27.6108 64.7085C28.1816 64.5253 28.68 64.1664 29.0347 63.6831C29.3895 63.1998 29.5825 62.6168 29.5862 62.0173C29.5843 61.4014 29.3791 60.8033 29.0024 60.3161Z" fill="#25D3D6"/>
<path d="M38.6897 12.5171C38.6897 11.3099 39.1692 10.1521 40.0229 9.29849C40.8765 8.44488 42.0342 7.96532 43.2414 7.96532H44.3793V5.68945H35.2759V14.7929H38.6897V12.5171Z" fill="#B8BEBF"/>
<path d="M42.1035 3.4138C41.1981 3.4138 40.3298 3.05413 39.6896 2.41392C39.0493 1.77371 38.6897 0.905396 38.6897 0H35.2759V5.68967H66.0001V3.4138H42.1035Z" fill="#D0D8DA"/>
<path d="M60.3106 29.5862C59.6534 29.5892 59.0095 29.4016 58.4567 29.0461C57.904 28.6907 57.4661 28.1827 57.1962 27.5835C56.9262 26.9843 56.8357 26.3198 56.9357 25.6702C57.0356 25.0207 57.3217 24.4141 57.7593 23.9238C57.2026 23.967 56.665 24.1464 56.1939 24.4463C55.7228 24.7462 55.3327 25.1574 55.0581 25.6436C54.7834 26.1298 54.6325 26.6761 54.6187 27.2344C54.6049 27.7927 54.7287 28.3457 54.9791 28.8449C55.2295 29.3441 55.5988 29.774 56.0545 30.0967C56.5102 30.4195 57.0383 30.6252 57.5923 30.6958C58.1463 30.7663 58.7091 30.6995 59.2311 30.5012C59.7532 30.303 60.2185 29.9794 60.586 29.5589C60.4927 29.5657 60.405 29.5862 60.3106 29.5862Z" fill="#25D3D6"/>
<path d="M56.897 18.207C56.5165 18.2086 56.1418 18.1144 55.8073 17.9331C55.4728 17.7517 55.1894 17.4891 54.9831 17.1695C54.7767 16.8498 54.6542 16.4833 54.6268 16.1038C54.5993 15.7244 54.6678 15.3441 54.826 14.998C54.4885 15.1481 54.1926 15.378 53.9638 15.6679C53.735 15.9579 53.5802 16.2992 53.5128 16.6623C53.4454 17.0254 53.4674 17.3995 53.5769 17.7523C53.6864 18.105 53.88 18.4258 54.1412 18.6869C54.4024 18.9481 54.7232 19.1418 55.0759 19.2513C55.4286 19.3607 55.8027 19.3827 56.1658 19.3153C56.529 19.2479 56.8702 19.0931 57.1602 18.8644C57.4501 18.6356 57.6801 18.3397 57.8301 18.0022C57.5372 18.136 57.2191 18.2059 56.897 18.207Z" fill="#25D3D6"/>
<path d="M37.5326 27.3103C37.4535 27.3102 37.3746 27.3022 37.297 27.2864C37.1504 27.2561 37.0112 27.1971 36.8874 27.1129C36.7636 27.0286 36.6576 26.9208 36.5756 26.7955C36.4936 26.6702 36.4371 26.53 36.4093 26.3829C36.3816 26.2357 36.3832 26.0845 36.414 25.938L36.8077 24.0661C36.8386 23.9199 36.8979 23.7812 36.9824 23.6579C37.0669 23.5346 37.1748 23.4292 37.3 23.3476C37.4252 23.266 37.5653 23.2099 37.7122 23.1824C37.8591 23.155 38.0099 23.1568 38.1562 23.1876C38.3024 23.2185 38.4411 23.2778 38.5644 23.3623C38.6877 23.4468 38.7931 23.5547 38.8747 23.6799C38.9563 23.8051 39.0124 23.9452 39.0398 24.0921C39.0673 24.239 39.0655 24.3898 39.0347 24.5361L38.6409 26.4068C38.5873 26.6614 38.4481 26.89 38.2464 27.0544C38.0447 27.2188 37.7928 27.3092 37.5326 27.3103Z" fill="#25B2B4"/>
<path d="M43.9598 29.4928C43.6988 29.4927 43.4458 29.4028 43.2432 29.2383C43.0406 29.0739 42.9006 28.8447 42.8469 28.5893L41.6998 23.1341C41.641 22.8401 41.7006 22.5348 41.8657 22.2845C42.0307 22.0342 42.2879 21.8591 42.5812 21.7974C42.8746 21.7356 43.1805 21.7921 43.4325 21.9546C43.6844 22.1171 43.8621 22.3725 43.9268 22.6652L45.0738 28.1205C45.1358 28.4156 45.0781 28.7233 44.9134 28.9759C44.7487 29.2286 44.4904 29.4055 44.1953 29.4678C44.1179 29.4845 44.039 29.4929 43.9598 29.4928Z" fill="#25D3D6"/>
<path d="M40.9658 14.793V17.0688C40.9658 17.3706 40.8459 17.6601 40.6325 17.8735C40.4191 18.0869 40.1297 18.2068 39.8279 18.2068C39.5261 18.2068 39.2366 18.0869 39.0232 17.8735C38.8098 17.6601 38.6899 17.3706 38.6899 17.0688V14.793H40.9658Z" fill="#25B2B4"/>
</svg>
